ISO-10303-21;
HEADER;
/* Generated by software containing ST-Developer
 * from STEP Tools, Inc. (www.steptools.com) 
 */

FILE_DESCRIPTION(
/* description */ (''),
/* implementation_level */ '2;1');

FILE_NAME(
/* name */ 'TES_Controller_V1_Case_Top.stp',
/* time_stamp */ '2026-09-29T16:44:18+08:00',
/* author */ ('user'),
/* organization */ (''),
/* preprocessor_version */ 'ST-DEVELOPER v20.2',
/* originating_system */ 'Autodesk Inventor 2027',
/* authorisation */ '');

FILE_SCHEMA (('AUTOMOTIVE_DESIGN { 1 0 10303 214 3 1 1 }'));
ENDSEC;

DATA;
#10=MECHANICAL_DESIGN_GEOMETRIC_PRESENTATION_REPRESENTATION('',(#13),#2381);
#11=SHAPE_REPRESENTATION_RELATIONSHIP('SRR','None',#2388,#12);
#12=ADVANCED_BREP_SHAPE_REPRESENTATION('',(#14),#2380);
#13=STYLED_ITEM('',(#2397),#14);
#14=MANIFOLD_SOLID_BREP('\X2\5B9E4F53\X0\2',#1452);
#15=FACE_BOUND('',#196,.T.);
#16=FACE_BOUND('',#199,.T.);
#17=FACE_BOUND('',#202,.T.);
#18=FACE_BOUND('',#205,.T.);
#19=FACE_BOUND('',#213,.T.);
#20=FACE_BOUND('',#216,.T.);
#21=FACE_BOUND('',#217,.T.);
#22=FACE_BOUND('',#218,.T.);
#23=FACE_BOUND('',#219,.T.);
#24=FACE_BOUND('',#220,.T.);
#25=FACE_BOUND('',#221,.T.);
#26=FACE_BOUND('',#222,.T.);
#27=FACE_BOUND('',#223,.T.);
#28=FACE_BOUND('',#224,.T.);
#29=FACE_BOUND('',#225,.T.);
#30=FACE_BOUND('',#226,.T.);
#31=FACE_BOUND('',#227,.T.);
#32=FACE_BOUND('',#228,.T.);
#33=FACE_BOUND('',#229,.T.);
#34=FACE_BOUND('',#239,.T.);
#35=FACE_BOUND('',#273,.T.);
#36=FACE_BOUND('',#274,.T.);
#37=FACE_BOUND('',#275,.T.);
#38=FACE_BOUND('',#276,.T.);
#39=FACE_BOUND('',#277,.T.);
#40=FACE_BOUND('',#278,.T.);
#41=FACE_BOUND('',#279,.T.);
#42=FACE_BOUND('',#280,.T.);
#43=FACE_BOUND('',#281,.T.);
#44=FACE_BOUND('',#282,.T.);
#45=FACE_BOUND('',#283,.T.);
#46=FACE_BOUND('',#284,.T.);
#47=FACE_BOUND('',#285,.T.);
#48=FACE_BOUND('',#286,.T.);
#49=FACE_BOUND('',#287,.T.);
#50=FACE_BOUND('',#293,.T.);
#51=FACE_BOUND('',#295,.T.);
#52=FACE_BOUND('',#297,.T.);
#53=FACE_BOUND('',#303,.T.);
#54=CIRCLE('',#1479,3.);
#55=CIRCLE('',#1480,3.);
#56=CIRCLE('',#1482,1.7);
#57=CIRCLE('',#1484,3.);
#58=CIRCLE('',#1485,3.);
#59=CIRCLE('',#1487,1.7);
#60=CIRCLE('',#1489,3.);
#61=CIRCLE('',#1490,3.);
#62=CIRCLE('',#1492,1.7);
#63=CIRCLE('',#1494,3.);
#64=CIRCLE('',#1495,3.);
#65=CIRCLE('',#1497,1.7);
#66=CIRCLE('',#1507,2.5);
#67=CIRCLE('',#1508,1.);
#68=CIRCLE('',#1509,2.7);
#69=CIRCLE('',#1510,2.7);
#70=CIRCLE('',#1511,2.5);
#71=CIRCLE('',#1512,2.5);
#72=CIRCLE('',#1513,2.7);
#73=CIRCLE('',#1514,1.);
#74=CIRCLE('',#1515,2.5);
#75=CIRCLE('',#1547,2.5);
#76=CIRCLE('',#1549,1.);
#77=CIRCLE('',#1551,2.7);
#78=CIRCLE('',#1553,2.7);
#79=CIRCLE('',#1555,2.5);
#80=CIRCLE('',#1557,2.5);
#81=CIRCLE('',#1559,2.7);
#82=CIRCLE('',#1561,1.);
#83=CIRCLE('',#1563,2.5);
#84=CIRCLE('',#1567,3.05);
#85=CIRCLE('',#1568,3.05);
#86=CIRCLE('',#1569,3.05);
#87=CIRCLE('',#1570,3.05);
#88=CIRCLE('',#1572,3.05);
#89=CIRCLE('',#1574,3.05);
#90=CIRCLE('',#1576,3.05);
#91=CIRCLE('',#1578,3.05);
#92=CIRCLE('',#1580,1.7);
#93=CIRCLE('',#1582,1.7);
#94=CIRCLE('',#1584,1.7);
#95=CIRCLE('',#1589,1.7);
#96=CYLINDRICAL_SURFACE('',#1478,3.);
#97=CYLINDRICAL_SURFACE('',#1483,3.);
#98=CYLINDRICAL_SURFACE('',#1488,3.);
#99=CYLINDRICAL_SURFACE('',#1493,3.);
#100=CYLINDRICAL_SURFACE('',#1546,2.5);
#101=CYLINDRICAL_SURFACE('',#1548,1.);
#102=CYLINDRICAL_SURFACE('',#1550,2.7);
#103=CYLINDRICAL_SURFACE('',#1552,2.7);
#104=CYLINDRICAL_SURFACE('',#1554,2.5);
#105=CYLINDRICAL_SURFACE('',#1556,2.5);
#106=CYLINDRICAL_SURFACE('',#1558,2.7);
#107=CYLINDRICAL_SURFACE('',#1560,1.);
#108=CYLINDRICAL_SURFACE('',#1562,2.5);
#109=CYLINDRICAL_SURFACE('',#1571,3.05);
#110=CYLINDRICAL_SURFACE('',#1573,3.05);
#111=CYLINDRICAL_SURFACE('',#1575,3.05);
#112=CYLINDRICAL_SURFACE('',#1577,3.05);
#113=CYLINDRICAL_SURFACE('',#1585,1.7);
#114=CYLINDRICAL_SURFACE('',#1586,1.7);
#115=CYLINDRICAL_SURFACE('',#1587,1.7);
#116=CYLINDRICAL_SURFACE('',#1588,1.7);
#117=FACE_OUTER_BOUND('',#191,.T.);
#118=FACE_OUTER_BOUND('',#192,.T.);
#119=FACE_OUTER_BOUND('',#193,.T.);
#120=FACE_OUTER_BOUND('',#194,.T.);
#121=FACE_OUTER_BOUND('',#195,.T.);
#122=FACE_OUTER_BOUND('',#197,.T.);
#123=FACE_OUTER_BOUND('',#198,.T.);
#124=FACE_OUTER_BOUND('',#200,.T.);
#125=FACE_OUTER_BOUND('',#201,.T.);
#126=FACE_OUTER_BOUND('',#203,.T.);
#127=FACE_OUTER_BOUND('',#204,.T.);
#128=FACE_OUTER_BOUND('',#206,.T.);
#129=FACE_OUTER_BOUND('',#207,.T.);
#130=FACE_OUTER_BOUND('',#208,.T.);
#131=FACE_OUTER_BOUND('',#209,.T.);
#132=FACE_OUTER_BOUND('',#210,.T.);
#133=FACE_OUTER_BOUND('',#211,.T.);
#134=FACE_OUTER_BOUND('',#212,.T.);
#135=FACE_OUTER_BOUND('',#214,.T.);
#136=FACE_OUTER_BOUND('',#215,.T.);
#137=FACE_OUTER_BOUND('',#230,.T.);
#138=FACE_OUTER_BOUND('',#231,.T.);
#139=FACE_OUTER_BOUND('',#232,.T.);
#140=FACE_OUTER_BOUND('',#233,.T.);
#141=FACE_OUTER_BOUND('',#234,.T.);
#142=FACE_OUTER_BOUND('',#235,.T.);
#143=FACE_OUTER_BOUND('',#236,.T.);
#144=FACE_OUTER_BOUND('',#237,.T.);
#145=FACE_OUTER_BOUND('',#238,.T.);
#146=FACE_OUTER_BOUND('',#240,.T.);
#147=FACE_OUTER_BOUND('',#241,.T.);
#148=FACE_OUTER_BOUND('',#242,.T.);
#149=FACE_OUTER_BOUND('',#243,.T.);
#150=FACE_OUTER_BOUND('',#244,.T.);
#151=FACE_OUTER_BOUND('',#245,.T.);
#152=FACE_OUTER_BOUND('',#246,.T.);
#153=FACE_OUTER_BOUND('',#247,.T.);
#154=FACE_OUTER_BOUND('',#248,.T.);
#155=FACE_OUTER_BOUND('',#249,.T.);
#156=FACE_OUTER_BOUND('',#250,.T.);
#157=FACE_OUTER_BOUND('',#251,.T.);
#158=FACE_OUTER_BOUND('',#252,.T.);
#159=FACE_OUTER_BOUND('',#253,.T.);
#160=FACE_OUTER_BOUND('',#254,.T.);
#161=FACE_OUTER_BOUND('',#255,.T.);
#162=FACE_OUTER_BOUND('',#256,.T.);
#163=FACE_OUTER_BOUND('',#257,.T.);
#164=FACE_OUTER_BOUND('',#258,.T.);
#165=FACE_OUTER_BOUND('',#259,.T.);
#166=FACE_OUTER_BOUND('',#260,.T.);
#167=FACE_OUTER_BOUND('',#261,.T.);
#168=FACE_OUTER_BOUND('',#262,.T.);
#169=FACE_OUTER_BOUND('',#263,.T.);
#170=FACE_OUTER_BOUND('',#264,.T.);
#171=FACE_OUTER_BOUND('',#265,.T.);
#172=FACE_OUTER_BOUND('',#266,.T.);
#173=FACE_OUTER_BOUND('',#267,.T.);
#174=FACE_OUTER_BOUND('',#268,.T.);
#175=FACE_OUTER_BOUND('',#269,.T.);
#176=FACE_OUTER_BOUND('',#270,.T.);
#177=FACE_OUTER_BOUND('',#271,.T.);
#178=FACE_OUTER_BOUND('',#272,.T.);
#179=FACE_OUTER_BOUND('',#288,.T.);
#180=FACE_OUTER_BOUND('',#289,.T.);
#181=FACE_OUTER_BOUND('',#290,.T.);
#182=FACE_OUTER_BOUND('',#291,.T.);
#183=FACE_OUTER_BOUND('',#292,.T.);
#184=FACE_OUTER_BOUND('',#294,.T.);
#185=FACE_OUTER_BOUND('',#296,.T.);
#186=FACE_OUTER_BOUND('',#298,.T.);
#187=FACE_OUTER_BOUND('',#299,.T.);
#188=FACE_OUTER_BOUND('',#300,.T.);
#189=FACE_OUTER_BOUND('',#301,.T.);
#190=FACE_OUTER_BOUND('',#302,.T.);
#191=EDGE_LOOP('',(#935,#936,#937,#938,#939,#940));
#192=EDGE_LOOP('',(#941,#942,#943,#944,#945,#946));
#193=EDGE_LOOP('',(#947,#948,#949,#950,#951,#952,#953,#954));
#194=EDGE_LOOP('',(#955,#956,#957,#958));
#195=EDGE_LOOP('',(#959));
#196=EDGE_LOOP('',(#960));
#197=EDGE_LOOP('',(#961,#962,#963,#964));
#198=EDGE_LOOP('',(#965));
#199=EDGE_LOOP('',(#966));
#200=EDGE_LOOP('',(#967,#968,#969,#970));
#201=EDGE_LOOP('',(#971));
#202=EDGE_LOOP('',(#972));
#203=EDGE_LOOP('',(#973,#974,#975,#976));
#204=EDGE_LOOP('',(#977));
#205=EDGE_LOOP('',(#978));
#206=EDGE_LOOP('',(#979,#980,#981,#982));
#207=EDGE_LOOP('',(#983,#984,#985,#986));
#208=EDGE_LOOP('',(#987,#988,#989,#990));
#209=EDGE_LOOP('',(#991,#992,#993,#994,#995,#996,#997,#998));
#210=EDGE_LOOP('',(#999,#1000,#1001,#1002,#1003,#1004,#1005,#1006));
#211=EDGE_LOOP('',(#1007,#1008,#1009,#1010,#1011,#1012,#1013,#1014));
#212=EDGE_LOOP('',(#1015,#1016,#1017,#1018));
#213=EDGE_LOOP('',(#1019,#1020,#1021,#1022));
#214=EDGE_LOOP('',(#1023,#1024,#1025,#1026));
#215=EDGE_LOOP('',(#1027,#1028,#1029,#1030,#1031,#1032,#1033,#1034));
#216=EDGE_LOOP('',(#1035));
#217=EDGE_LOOP('',(#1036));
#218=EDGE_LOOP('',(#1037));
#219=EDGE_LOOP('',(#1038));
#220=EDGE_LOOP('',(#1039,#1040,#1041,#1042));
#221=EDGE_LOOP('',(#1043));
#222=EDGE_LOOP('',(#1044));
#223=EDGE_LOOP('',(#1045));
#224=EDGE_LOOP('',(#1046));
#225=EDGE_LOOP('',(#1047));
#226=EDGE_LOOP('',(#1048));
#227=EDGE_LOOP('',(#1049));
#228=EDGE_LOOP('',(#1050));
#229=EDGE_LOOP('',(#1051));
#230=EDGE_LOOP('',(#1052,#1053,#1054,#1055));
#231=EDGE_LOOP('',(#1056,#1057,#1058,#1059));
#232=EDGE_LOOP('',(#1060,#1061,#1062,#1063));
#233=EDGE_LOOP('',(#1064,#1065,#1066,#1067));
#234=EDGE_LOOP('',(#1068,#1069,#1070,#1071));
#235=EDGE_LOOP('',(#1072,#1073,#1074,#1075));
#236=EDGE_LOOP('',(#1076,#1077,#1078,#1079));
#237=EDGE_LOOP('',(#1080,#1081,#1082,#1083));
#238=EDGE_LOOP('',(#1084,#1085,#1086,#1087,#1088,#1089,#1090,#1091));
#239=EDGE_LOOP('',(#1092,#1093,#1094,#1095));
#240=EDGE_LOOP('',(#1096,#1097,#1098,#1099,#1100,#1101,#1102,#1103,#1104,
#1105));
#241=EDGE_LOOP('',(#1106,#1107,#1108,#1109,#1110,#1111,#1112,#1113,#1114,
#1115));
#242=EDGE_LOOP('',(#1116,#1117,#1118,#1119));
#243=EDGE_LOOP('',(#1120,#1121,#1122,#1123));
#244=EDGE_LOOP('',(#1124,#1125,#1126,#1127,#1128,#1129,#1130,#1131,#1132,
#1133,#1134,#1135));
#245=EDGE_LOOP('',(#1136,#1137,#1138,#1139));
#246=EDGE_LOOP('',(#1140,#1141,#1142,#1143));
#247=EDGE_LOOP('',(#1144,#1145,#1146,#1147));
#248=EDGE_LOOP('',(#1148,#1149,#1150,#1151));
#249=EDGE_LOOP('',(#1152,#1153,#1154,#1155,#1156,#1157,#1158,#1159));
#250=EDGE_LOOP('',(#1160,#1161,#1162,#1163));
#251=EDGE_LOOP('',(#1164,#1165,#1166,#1167,#1168,#1169));
#252=EDGE_LOOP('',(#1170,#1171,#1172,#1173,#1174,#1175));
#253=EDGE_LOOP('',(#1176,#1177,#1178,#1179));
#254=EDGE_LOOP('',(#1180,#1181,#1182,#1183));
#255=EDGE_LOOP('',(#1184,#1185,#1186,#1187));
#256=EDGE_LOOP('',(#1188,#1189,#1190,#1191));
#257=EDGE_LOOP('',(#1192,#1193,#1194,#1195));
#258=EDGE_LOOP('',(#1196,#1197,#1198,#1199));
#259=EDGE_LOOP('',(#1200,#1201,#1202,#1203));
#260=EDGE_LOOP('',(#1204,#1205,#1206,#1207));
#261=EDGE_LOOP('',(#1208,#1209,#1210,#1211));
#262=EDGE_LOOP('',(#1212,#1213,#1214,#1215));
#263=EDGE_LOOP('',(#1216,#1217,#1218,#1219));
#264=EDGE_LOOP('',(#1220,#1221,#1222,#1223));
#265=EDGE_LOOP('',(#1224,#1225,#1226,#1227));
#266=EDGE_LOOP('',(#1228,#1229,#1230,#1231));
#267=EDGE_LOOP('',(#1232,#1233,#1234,#1235));
#268=EDGE_LOOP('',(#1236,#1237,#1238,#1239));
#269=EDGE_LOOP('',(#1240,#1241,#1242,#1243));
#270=EDGE_LOOP('',(#1244,#1245,#1246,#1247));
#271=EDGE_LOOP('',(#1248,#1249,#1250,#1251));
#272=EDGE_LOOP('',(#1252,#1253,#1254,#1255,#1256,#1257,#1258,#1259));
#273=EDGE_LOOP('',(#1260,#1261,#1262,#1263,#1264,#1265,#1266,#1267));
#274=EDGE_LOOP('',(#1268,#1269,#1270,#1271));
#275=EDGE_LOOP('',(#1272));
#276=EDGE_LOOP('',(#1273));
#277=EDGE_LOOP('',(#1274));
#278=EDGE_LOOP('',(#1275));
#279=EDGE_LOOP('',(#1276));
#280=EDGE_LOOP('',(#1277));
#281=EDGE_LOOP('',(#1278));
#282=EDGE_LOOP('',(#1279));
#283=EDGE_LOOP('',(#1280));
#284=EDGE_LOOP('',(#1281));
#285=EDGE_LOOP('',(#1282));
#286=EDGE_LOOP('',(#1283));
#287=EDGE_LOOP('',(#1284));
#288=EDGE_LOOP('',(#1285,#1286,#1287,#1288));
#289=EDGE_LOOP('',(#1289,#1290,#1291,#1292));
#290=EDGE_LOOP('',(#1293,#1294,#1295,#1296));
#291=EDGE_LOOP('',(#1297,#1298,#1299,#1300));
#292=EDGE_LOOP('',(#1301));
#293=EDGE_LOOP('',(#1302));
#294=EDGE_LOOP('',(#1303));
#295=EDGE_LOOP('',(#1304));
#296=EDGE_LOOP('',(#1305));
#297=EDGE_LOOP('',(#1306));
#298=EDGE_LOOP('',(#1307,#1308,#1309,#1310));
#299=EDGE_LOOP('',(#1311,#1312,#1313,#1314));
#300=EDGE_LOOP('',(#1315,#1316,#1317,#1318));
#301=EDGE_LOOP('',(#1319,#1320,#1321,#1322));
#302=EDGE_LOOP('',(#1323));
#303=EDGE_LOOP('',(#1324));
#304=LINE('',#1982,#457);
#305=LINE('',#1984,#458);
#306=LINE('',#1986,#459);
#307=LINE('',#1988,#460);
#308=LINE('',#1990,#461);
#309=LINE('',#1991,#462);
#310=LINE('',#1995,#463);
#311=LINE('',#1997,#464);
#312=LINE('',#1999,#465);
#313=LINE('',#2001,#466);
#314=LINE('',#2003,#467);
#315=LINE('',#2004,#468);
#316=LINE('',#2008,#469);
#317=LINE('',#2010,#470);
#318=LINE('',#2012,#471);
#319=LINE('',#2014,#472);
#320=LINE('',#2016,#473);
#321=LINE('',#2018,#474);
#322=LINE('',#2020,#475);
#323=LINE('',#2021,#476);
#324=LINE('',#2026,#477);
#325=LINE('',#2035,#478);
#326=LINE('',#2044,#479);
#327=LINE('',#2053,#480);
#328=LINE('',#2060,#481);
#329=LINE('',#2062,#482);
#330=LINE('',#2063,#483);
#331=LINE('',#2066,#484);
#332=LINE('',#2068,#485);
#333=LINE('',#2069,#486);
#334=LINE('',#2071,#487);
#335=LINE('',#2072,#488);
#336=LINE('',#2075,#489);
#337=LINE('',#2077,#490);
#338=LINE('',#2078,#491);
#339=LINE('',#2081,#492);
#340=LINE('',#2083,#493);
#341=LINE('',#2084,#494);
#342=LINE('',#2088,#495);
#343=LINE('',#2090,#496);
#344=LINE('',#2092,#497);
#345=LINE('',#2094,#498);
#346=LINE('',#2096,#499);
#347=LINE('',#2098,#500);
#348=LINE('',#2100,#501);
#349=LINE('',#2101,#502);
#350=LINE('',#2105,#503);
#351=LINE('',#2107,#504);
#352=LINE('',#2109,#505);
#353=LINE('',#2110,#506);
#354=LINE('',#2113,#507);
#355=LINE('',#2115,#508);
#356=LINE('',#2117,#509);
#357=LINE('',#2118,#510);
#358=LINE('',#2122,#511);
#359=LINE('',#2123,#512);
#360=LINE('',#2124,#513);
#361=LINE('',#2127,#514);
#362=LINE('',#2129,#515);
#363=LINE('',#2130,#516);
#364=LINE('',#2132,#517);
#365=LINE('',#2134,#518);
#366=LINE('',#2135,#519);
#367=LINE('',#2138,#520);
#368=LINE('',#2140,#521);
#369=LINE('',#2142,#522);
#370=LINE('',#2143,#523);
#371=LINE('',#2164,#524);
#372=LINE('',#2166,#525);
#373=LINE('',#2167,#526);
#374=LINE('',#2170,#527);
#375=LINE('',#2172,#528);
#376=LINE('',#2173,#529);
#377=LINE('',#2176,#530);
#378=LINE('',#2177,#531);
#379=LINE('',#2180,#532);
#380=LINE('',#2182,#533);
#381=LINE('',#2183,#534);
#382=LINE('',#2186,#535);
#383=LINE('',#2187,#536);
#384=LINE('',#2190,#537);
#385=LINE('',#2192,#538);
#386=LINE('',#2193,#539);
#387=LINE('',#2196,#540);
#388=LINE('',#2198,#541);
#389=LINE('',#2199,#542);
#390=LINE('',#2201,#543);
#391=LINE('',#2202,#544);
#392=LINE('',#2205,#545);
#393=LINE('',#2206,#546);
#394=LINE('',#2208,#547);
#395=LINE('',#2210,#548);
#396=LINE('',#2211,#549);
#397=LINE('',#2214,#550);
#398=LINE('',#2215,#551);
#399=LINE('',#2216,#552);
#400=LINE('',#2219,#553);
#401=LINE('',#2221,#554);
#402=LINE('',#2222,#555);
#403=LINE('',#2223,#556);
#404=LINE('',#2225,#557);
#405=LINE('',#2228,#558);
#406=LINE('',#2229,#559);
#407=LINE('',#2231,#560);
#408=LINE('',#2233,#561);
#409=LINE('',#2236,#562);
#410=LINE('',#2237,#563);
#411=LINE('',#2240,#564);
#412=LINE('',#2241,#565);
#413=LINE('',#2244,#566);
#414=LINE('',#2245,#567);
#415=LINE('',#2248,#568);
#416=LINE('',#2250,#569);
#417=LINE('',#2251,#570);
#418=LINE('',#2254,#571);
#419=LINE('',#2256,#572);
#420=LINE('',#2257,#573);
#421=LINE('',#2260,#574);
#422=LINE('',#2261,#575);
#423=LINE('',#2264,#576);
#424=LINE('',#2265,#577);
#425=LINE('',#2267,#578);
#426=LINE('',#2270,#579);
#427=LINE('',#2271,#580);
#428=LINE('',#2273,#581);
#429=LINE('',#2277,#582);
#430=LINE('',#2279,#583);
#431=LINE('',#2280,#584);
#432=LINE('',#2283,#585);
#433=LINE('',#2284,#586);
#434=LINE('',#2287,#587);
#435=LINE('',#2288,#588);
#436=LINE('',#2290,#589);
#437=LINE('',#2294,#590);
#438=LINE('',#2298,#591);
#439=LINE('',#2302,#592);
#440=LINE('',#2306,#593);
#441=LINE('',#2310,#594);
#442=LINE('',#2314,#595);
#443=LINE('',#2318,#596);
#444=LINE('',#2322,#597);
#445=LINE('',#2326,#598);
#446=LINE('',#2329,#599);
#447=LINE('',#2330,#600);
#448=LINE('',#2332,#601);
#449=LINE('',#2344,#602);
#450=LINE('',#2348,#603);
#451=LINE('',#2352,#604);
#452=LINE('',#2356,#605);
#453=LINE('',#2368,#606);
#454=LINE('',#2370,#607);
#455=LINE('',#2372,#608);
#456=LINE('',#2376,#609);
#457=VECTOR('',#1595,10.);
#458=VECTOR('',#1596,10.);
#459=VECTOR('',#1597,10.);
#460=VECTOR('',#1598,10.);
#461=VECTOR('',#1599,10.);
#462=VECTOR('',#1600,10.);
#463=VECTOR('',#1603,10.);
#464=VECTOR('',#1604,10.);
#465=VECTOR('',#1605,10.);
#466=VECTOR('',#1606,10.);
#467=VECTOR('',#1607,10.);
#468=VECTOR('',#1608,10.);
#469=VECTOR('',#1611,10.);
#470=VECTOR('',#1612,10.);
#471=VECTOR('',#1613,10.);
#472=VECTOR('',#1614,10.);
#473=VECTOR('',#1615,10.);
#474=VECTOR('',#1616,10.);
#475=VECTOR('',#1617,10.);
#476=VECTOR('',#1618,10.);
#477=VECTOR('',#1623,3.);
#478=VECTOR('',#1634,3.);
#479=VECTOR('',#1645,3.);
#480=VECTOR('',#1656,3.);
#481=VECTOR('',#1665,10.);
#482=VECTOR('',#1666,10.);
#483=VECTOR('',#1667,10.);
#484=VECTOR('',#1670,10.);
#485=VECTOR('',#1671,10.);
#486=VECTOR('',#1672,10.);
#487=VECTOR('',#1675,10.);
#488=VECTOR('',#1676,10.);
#489=VECTOR('',#1679,10.);
#490=VECTOR('',#1680,10.);
#491=VECTOR('',#1681,10.);
#492=VECTOR('',#1684,10.);
#493=VECTOR('',#1685,10.);
#494=VECTOR('',#1686,10.);
#495=VECTOR('',#1689,10.);
#496=VECTOR('',#1690,10.);
#497=VECTOR('',#1691,10.);
#498=VECTOR('',#1692,10.);
#499=VECTOR('',#1693,10.);
#500=VECTOR('',#1694,10.);
#501=VECTOR('',#1695,10.);
#502=VECTOR('',#1696,10.);
#503=VECTOR('',#1699,10.);
#504=VECTOR('',#1700,10.);
#505=VECTOR('',#1701,10.);
#506=VECTOR('',#1702,10.);
#507=VECTOR('',#1703,10.);
#508=VECTOR('',#1704,10.);
#509=VECTOR('',#1705,10.);
#510=VECTOR('',#1706,10.);
#511=VECTOR('',#1709,10.);
#512=VECTOR('',#1710,10.);
#513=VECTOR('',#1711,10.);
#514=VECTOR('',#1714,10.);
#515=VECTOR('',#1715,10.);
#516=VECTOR('',#1716,10.);
#517=VECTOR('',#1717,10.);
#518=VECTOR('',#1718,10.);
#519=VECTOR('',#1719,10.);
#520=VECTOR('',#1720,10.);
#521=VECTOR('',#1721,10.);
#522=VECTOR('',#1722,10.);
#523=VECTOR('',#1723,10.);
#524=VECTOR('',#1744,10.);
#525=VECTOR('',#1745,10.);
#526=VECTOR('',#1746,10.);
#527=VECTOR('',#1749,10.);
#528=VECTOR('',#1750,10.);
#529=VECTOR('',#1751,10.);
#530=VECTOR('',#1754,10.);
#531=VECTOR('',#1755,10.);
#532=VECTOR('',#1758,10.);
#533=VECTOR('',#1759,10.);
#534=VECTOR('',#1760,10.);
#535=VECTOR('',#1763,10.);
#536=VECTOR('',#1764,10.);
#537=VECTOR('',#1767,10.);
#538=VECTOR('',#1768,10.);
#539=VECTOR('',#1769,10.);
#540=VECTOR('',#1772,10.);
#541=VECTOR('',#1773,10.);
#542=VECTOR('',#1774,10.);
#543=VECTOR('',#1777,10.);
#544=VECTOR('',#1778,10.);
#545=VECTOR('',#1781,10.);
#546=VECTOR('',#1782,10.);
#547=VECTOR('',#1783,10.);
#548=VECTOR('',#1784,10.);
#549=VECTOR('',#1785,10.);
#550=VECTOR('',#1788,10.);
#551=VECTOR('',#1789,10.);
#552=VECTOR('',#1790,10.);
#553=VECTOR('',#1793,10.);
#554=VECTOR('',#1794,10.);
#555=VECTOR('',#1795,10.);
#556=VECTOR('',#1796,10.);
#557=VECTOR('',#1799,10.);
#558=VECTOR('',#1802,10.);
#559=VECTOR('',#1803,10.);
#560=VECTOR('',#1806,10.);
#561=VECTOR('',#1809,10.);
#562=VECTOR('',#1812,10.);
#563=VECTOR('',#1813,10.);
#564=VECTOR('',#1816,10.);
#565=VECTOR('',#1817,10.);
#566=VECTOR('',#1820,10.);
#567=VECTOR('',#1821,10.);
#568=VECTOR('',#1824,10.);
#569=VECTOR('',#1825,10.);
#570=VECTOR('',#1826,10.);
#571=VECTOR('',#1829,10.);
#572=VECTOR('',#1830,10.);
#573=VECTOR('',#1831,10.);
#574=VECTOR('',#1834,10.);
#575=VECTOR('',#1835,10.);
#576=VECTOR('',#1838,10.);
#577=VECTOR('',#1839,10.);
#578=VECTOR('',#1842,10.);
#579=VECTOR('',#1845,10.);
#580=VECTOR('',#1846,10.);
#581=VECTOR('',#1849,10.);
#582=VECTOR('',#1854,10.);
#583=VECTOR('',#1855,10.);
#584=VECTOR('',#1856,10.);
#585=VECTOR('',#1859,10.);
#586=VECTOR('',#1860,10.);
#587=VECTOR('',#1863,10.);
#588=VECTOR('',#1864,10.);
#589=VECTOR('',#1867,10.);
#590=VECTOR('',#1872,2.5);
#591=VECTOR('',#1877,1.);
#592=VECTOR('',#1882,2.7);
#593=VECTOR('',#1887,2.7);
#594=VECTOR('',#1892,2.5);
#595=VECTOR('',#1897,2.5);
#596=VECTOR('',#1902,2.7);
#597=VECTOR('',#1907,1.);
#598=VECTOR('',#1912,2.5);
#599=VECTOR('',#1915,10.);
#600=VECTOR('',#1916,10.);
#601=VECTOR('',#1919,10.);
#602=VECTOR('',#1932,3.05);
#603=VECTOR('',#1937,3.05);
#604=VECTOR('',#1942,3.05);
#605=VECTOR('',#1947,3.05);
#606=VECTOR('',#1964,1.7);
#607=VECTOR('',#1967,1.7);
#608=VECTOR('',#1970,1.7);
#609=VECTOR('',#1975,1.7);
#610=VERTEX_POINT('',#1980);
#611=VERTEX_POINT('',#1981);
#612=VERTEX_POINT('',#1983);
#613=VERTEX_POINT('',#1985);
#614=VERTEX_POINT('',#1987);
#615=VERTEX_POINT('',#1989);
#616=VERTEX_POINT('',#1993);
#617=VERTEX_POINT('',#1994);
#618=VERTEX_POINT('',#1996);
#619=VERTEX_POINT('',#1998);
#620=VERTEX_POINT('',#2000);
#621=VERTEX_POINT('',#2002);
#622=VERTEX_POINT('',#2006);
#623=VERTEX_POINT('',#2007);
#624=VERTEX_POINT('',#2009);
#625=VERTEX_POINT('',#2011);
#626=VERTEX_POINT('',#2013);
#627=VERTEX_POINT('',#2015);
#628=VERTEX_POINT('',#2017);
#629=VERTEX_POINT('',#2019);
#630=VERTEX_POINT('',#2023);
#631=VERTEX_POINT('',#2025);
#632=VERTEX_POINT('',#2029);
#633=VERTEX_POINT('',#2032);
#634=VERTEX_POINT('',#2034);
#635=VERTEX_POINT('',#2038);
#636=VERTEX_POINT('',#2041);
#637=VERTEX_POINT('',#2043);
#638=VERTEX_POINT('',#2047);
#639=VERTEX_POINT('',#2050);
#640=VERTEX_POINT('',#2052);
#641=VERTEX_POINT('',#2056);
#642=VERTEX_POINT('',#2059);
#643=VERTEX_POINT('',#2061);
#644=VERTEX_POINT('',#2065);
#645=VERTEX_POINT('',#2067);
#646=VERTEX_POINT('',#2074);
#647=VERTEX_POINT('',#2076);
#648=VERTEX_POINT('',#2080);
#649=VERTEX_POINT('',#2082);
#650=VERTEX_POINT('',#2086);
#651=VERTEX_POINT('',#2087);
#652=VERTEX_POINT('',#2089);
#653=VERTEX_POINT('',#2091);
#654=VERTEX_POINT('',#2093);
#655=VERTEX_POINT('',#2095);
#656=VERTEX_POINT('',#2097);
#657=VERTEX_POINT('',#2099);
#658=VERTEX_POINT('',#2103);
#659=VERTEX_POINT('',#2104);
#660=VERTEX_POINT('',#2106);
#661=VERTEX_POINT('',#2108);
#662=VERTEX_POINT('',#2111);
#663=VERTEX_POINT('',#2112);
#664=VERTEX_POINT('',#2114);
#665=VERTEX_POINT('',#2116);
#666=VERTEX_POINT('',#2120);
#667=VERTEX_POINT('',#2121);
#668=VERTEX_POINT('',#2126);
#669=VERTEX_POINT('',#2128);
#670=VERTEX_POINT('',#2131);
#671=VERTEX_POINT('',#2133);
#672=VERTEX_POINT('',#2136);
#673=VERTEX_POINT('',#2137);
#674=VERTEX_POINT('',#2139);
#675=VERTEX_POINT('',#2141);
#676=VERTEX_POINT('',#2144);
#677=VERTEX_POINT('',#2146);
#678=VERTEX_POINT('',#2148);
#679=VERTEX_POINT('',#2150);
#680=VERTEX_POINT('',#2152);
#681=VERTEX_POINT('',#2154);
#682=VERTEX_POINT('',#2156);
#683=VERTEX_POINT('',#2158);
#684=VERTEX_POINT('',#2160);
#685=VERTEX_POINT('',#2163);
#686=VERTEX_POINT('',#2165);
#687=VERTEX_POINT('',#2169);
#688=VERTEX_POINT('',#2171);
#689=VERTEX_POINT('',#2175);
#690=VERTEX_POINT('',#2179);
#691=VERTEX_POINT('',#2181);
#692=VERTEX_POINT('',#2185);
#693=VERTEX_POINT('',#2189);
#694=VERTEX_POINT('',#2191);
#695=VERTEX_POINT('',#2195);
#696=VERTEX_POINT('',#2197);
#697=VERTEX_POINT('',#2204);
#698=VERTEX_POINT('',#2207);
#699=VERTEX_POINT('',#2209);
#700=VERTEX_POINT('',#2213);
#701=VERTEX_POINT('',#2218);
#702=VERTEX_POINT('',#2220);
#703=VERTEX_POINT('',#2227);
#704=VERTEX_POINT('',#2235);
#705=VERTEX_POINT('',#2239);
#706=VERTEX_POINT('',#2243);
#707=VERTEX_POINT('',#2247);
#708=VERTEX_POINT('',#2249);
#709=VERTEX_POINT('',#2253);
#710=VERTEX_POINT('',#2255);
#711=VERTEX_POINT('',#2259);
#712=VERTEX_POINT('',#2263);
#713=VERTEX_POINT('',#2269);
#714=VERTEX_POINT('',#2276);
#715=VERTEX_POINT('',#2278);
#716=VERTEX_POINT('',#2282);
#717=VERTEX_POINT('',#2286);
#718=VERTEX_POINT('',#2292);
#719=VERTEX_POINT('',#2296);
#720=VERTEX_POINT('',#2300);
#721=VERTEX_POINT('',#2304);
#722=VERTEX_POINT('',#2308);
#723=VERTEX_POINT('',#2312);
#724=VERTEX_POINT('',#2316);
#725=VERTEX_POINT('',#2320);
#726=VERTEX_POINT('',#2324);
#727=VERTEX_POINT('',#2328);
#728=VERTEX_POINT('',#2334);
#729=VERTEX_POINT('',#2336);
#730=VERTEX_POINT('',#2338);
#731=VERTEX_POINT('',#2340);
#732=VERTEX_POINT('',#2343);
#733=VERTEX_POINT('',#2347);
#734=VERTEX_POINT('',#2351);
#735=VERTEX_POINT('',#2355);
#736=VERTEX_POINT('',#2359);
#737=VERTEX_POINT('',#2362);
#738=VERTEX_POINT('',#2365);
#739=VERTEX_POINT('',#2374);
#740=EDGE_CURVE('',#610,#611,#304,.T.);
#741=EDGE_CURVE('',#611,#612,#305,.T.);
#742=EDGE_CURVE('',#612,#613,#306,.T.);
#743=EDGE_CURVE('',#613,#614,#307,.T.);
#744=EDGE_CURVE('',#614,#615,#308,.T.);
#745=EDGE_CURVE('',#615,#610,#309,.T.);
#746=EDGE_CURVE('',#616,#617,#310,.T.);
#747=EDGE_CURVE('',#617,#618,#311,.T.);
#748=EDGE_CURVE('',#618,#619,#312,.T.);
#749=EDGE_CURVE('',#619,#620,#313,.T.);
#750=EDGE_CURVE('',#620,#621,#314,.T.);
#751=EDGE_CURVE('',#621,#616,#315,.T.);
#752=EDGE_CURVE('',#622,#623,#316,.T.);
#753=EDGE_CURVE('',#623,#624,#317,.T.);
#754=EDGE_CURVE('',#624,#625,#318,.T.);
#755=EDGE_CURVE('',#625,#626,#319,.T.);
#756=EDGE_CURVE('',#626,#627,#320,.T.);
#757=EDGE_CURVE('',#627,#628,#321,.T.);
#758=EDGE_CURVE('',#628,#629,#322,.T.);
#759=EDGE_CURVE('',#629,#622,#323,.T.);
#760=EDGE_CURVE('',#630,#630,#54,.T.);
#761=EDGE_CURVE('',#630,#631,#324,.T.);
#762=EDGE_CURVE('',#631,#631,#55,.T.);
#763=EDGE_CURVE('',#632,#632,#56,.T.);
#764=EDGE_CURVE('',#633,#633,#57,.T.);
#765=EDGE_CURVE('',#633,#634,#325,.T.);
#766=EDGE_CURVE('',#634,#634,#58,.T.);
#767=EDGE_CURVE('',#635,#635,#59,.T.);
#768=EDGE_CURVE('',#636,#636,#60,.T.);
#769=EDGE_CURVE('',#636,#637,#326,.T.);
#770=EDGE_CURVE('',#637,#637,#61,.T.);
#771=EDGE_CURVE('',#638,#638,#62,.T.);
#772=EDGE_CURVE('',#639,#639,#63,.T.);
#773=EDGE_CURVE('',#639,#640,#327,.T.);
#774=EDGE_CURVE('',#640,#640,#64,.T.);
#775=EDGE_CURVE('',#641,#641,#65,.T.);
#776=EDGE_CURVE('',#612,#642,#328,.T.);
#777=EDGE_CURVE('',#643,#611,#329,.T.);
#778=EDGE_CURVE('',#643,#642,#330,.T.);
#779=EDGE_CURVE('',#642,#644,#331,.T.);
#780=EDGE_CURVE('',#645,#643,#332,.T.);
#781=EDGE_CURVE('',#645,#644,#333,.T.);
#782=EDGE_CURVE('',#644,#620,#334,.T.);
#783=EDGE_CURVE('',#621,#645,#335,.T.);
#784=EDGE_CURVE('',#646,#619,#336,.T.);
#785=EDGE_CURVE('',#646,#647,#337,.T.);
#786=EDGE_CURVE('',#647,#613,#338,.T.);
#787=EDGE_CURVE('',#648,#610,#339,.T.);
#788=EDGE_CURVE('',#649,#648,#340,.T.);
#789=EDGE_CURVE('',#649,#616,#341,.T.);
#790=EDGE_CURVE('',#650,#651,#342,.T.);
#791=EDGE_CURVE('',#652,#650,#343,.T.);
#792=EDGE_CURVE('',#653,#652,#344,.T.);
#793=EDGE_CURVE('',#654,#653,#345,.T.);
#794=EDGE_CURVE('',#655,#654,#346,.T.);
#795=EDGE_CURVE('',#656,#655,#347,.T.);
#796=EDGE_CURVE('',#657,#656,#348,.T.);
#797=EDGE_CURVE('',#651,#657,#349,.T.);
#798=EDGE_CURVE('',#658,#659,#350,.T.);
#799=EDGE_CURVE('',#660,#658,#351,.T.);
#800=EDGE_CURVE('',#661,#660,#352,.T.);
#801=EDGE_CURVE('',#659,#661,#353,.T.);
#802=EDGE_CURVE('',#662,#663,#354,.T.);
#803=EDGE_CURVE('',#664,#662,#355,.T.);
#804=EDGE_CURVE('',#665,#664,#356,.T.);
#805=EDGE_CURVE('',#663,#665,#357,.T.);
#806=EDGE_CURVE('',#666,#667,#358,.T.);
#807=EDGE_CURVE('',#666,#661,#359,.T.);
#808=EDGE_CURVE('',#667,#660,#360,.T.);
#809=EDGE_CURVE('',#668,#666,#361,.T.);
#810=EDGE_CURVE('',#667,#669,#362,.T.);
#811=EDGE_CURVE('',#647,#669,#363,.T.);
#812=EDGE_CURVE('',#646,#670,#364,.T.);
#813=EDGE_CURVE('',#671,#670,#365,.T.);
#814=EDGE_CURVE('',#668,#671,#366,.T.);
#815=EDGE_CURVE('',#672,#673,#367,.T.);
#816=EDGE_CURVE('',#673,#674,#368,.T.);
#817=EDGE_CURVE('',#674,#675,#369,.T.);
#818=EDGE_CURVE('',#675,#672,#370,.T.);
#819=EDGE_CURVE('',#676,#676,#66,.T.);
#820=EDGE_CURVE('',#677,#677,#67,.T.);
#821=EDGE_CURVE('',#678,#678,#68,.T.);
#822=EDGE_CURVE('',#679,#679,#69,.T.);
#823=EDGE_CURVE('',#680,#680,#70,.T.);
#824=EDGE_CURVE('',#681,#681,#71,.T.);
#825=EDGE_CURVE('',#682,#682,#72,.T.);
#826=EDGE_CURVE('',#683,#683,#73,.T.);
#827=EDGE_CURVE('',#684,#684,#74,.T.);
#828=EDGE_CURVE('',#685,#659,#371,.T.);
#829=EDGE_CURVE('',#686,#685,#372,.T.);
#830=EDGE_CURVE('',#686,#658,#373,.T.);
#831=EDGE_CURVE('',#687,#654,#374,.T.);
#832=EDGE_CURVE('',#688,#687,#375,.T.);
#833=EDGE_CURVE('',#688,#655,#376,.T.);
#834=EDGE_CURVE('',#689,#653,#377,.T.);
#835=EDGE_CURVE('',#687,#689,#378,.T.);
#836=EDGE_CURVE('',#664,#690,#379,.T.);
#837=EDGE_CURVE('',#690,#691,#380,.T.);
#838=EDGE_CURVE('',#665,#691,#381,.T.);
#839=EDGE_CURVE('',#662,#692,#382,.T.);
#840=EDGE_CURVE('',#692,#690,#383,.T.);
#841=EDGE_CURVE('',#693,#614,#384,.T.);
#842=EDGE_CURVE('',#694,#693,#385,.T.);
#843=EDGE_CURVE('',#615,#694,#386,.T.);
#844=EDGE_CURVE('',#622,#695,#387,.T.);
#845=EDGE_CURVE('',#696,#629,#388,.T.);
#846=EDGE_CURVE('',#696,#695,#389,.T.);
#847=EDGE_CURVE('',#695,#693,#390,.T.);
#848=EDGE_CURVE('',#694,#696,#391,.T.);
#849=EDGE_CURVE('',#697,#628,#392,.T.);
#850=EDGE_CURVE('',#648,#697,#393,.T.);
#851=EDGE_CURVE('',#656,#698,#394,.T.);
#852=EDGE_CURVE('',#698,#699,#395,.T.);
#853=EDGE_CURVE('',#699,#657,#396,.T.);
#854=EDGE_CURVE('',#700,#668,#397,.T.);
#855=EDGE_CURVE('',#698,#700,#398,.T.);
#856=EDGE_CURVE('',#685,#688,#399,.T.);
#857=EDGE_CURVE('',#669,#701,#400,.T.);
#858=EDGE_CURVE('',#702,#686,#401,.T.);
#859=EDGE_CURVE('',#702,#651,#402,.T.);
#860=EDGE_CURVE('',#699,#701,#403,.T.);
#861=EDGE_CURVE('',#701,#700,#404,.T.);
#862=EDGE_CURVE('',#652,#703,#405,.T.);
#863=EDGE_CURVE('',#689,#703,#406,.T.);
#864=EDGE_CURVE('',#671,#623,#407,.T.);
#865=EDGE_CURVE('',#670,#624,#408,.T.);
#866=EDGE_CURVE('',#704,#617,#409,.T.);
#867=EDGE_CURVE('',#704,#649,#410,.T.);
#868=EDGE_CURVE('',#705,#627,#411,.T.);
#869=EDGE_CURVE('',#697,#705,#412,.T.);
#870=EDGE_CURVE('',#706,#626,#413,.T.);
#871=EDGE_CURVE('',#705,#706,#414,.T.);
#872=EDGE_CURVE('',#707,#618,#415,.T.);
#873=EDGE_CURVE('',#708,#707,#416,.T.);
#874=EDGE_CURVE('',#708,#625,#417,.T.);
#875=EDGE_CURVE('',#707,#709,#418,.T.);
#876=EDGE_CURVE('',#709,#710,#419,.T.);
#877=EDGE_CURVE('',#710,#708,#420,.T.);
#878=EDGE_CURVE('',#711,#710,#421,.T.);
#879=EDGE_CURVE('',#706,#711,#422,.T.);
#880=EDGE_CURVE('',#712,#704,#423,.T.);
#881=EDGE_CURVE('',#712,#709,#424,.T.);
#882=EDGE_CURVE('',#711,#712,#425,.T.);
#883=EDGE_CURVE('',#663,#713,#426,.T.);
#884=EDGE_CURVE('',#713,#692,#427,.T.);
#885=EDGE_CURVE('',#691,#713,#428,.T.);
#886=EDGE_CURVE('',#714,#674,#429,.T.);
#887=EDGE_CURVE('',#715,#714,#430,.T.);
#888=EDGE_CURVE('',#715,#675,#431,.T.);
#889=EDGE_CURVE('',#716,#715,#432,.T.);
#890=EDGE_CURVE('',#716,#672,#433,.T.);
#891=EDGE_CURVE('',#717,#716,#434,.T.);
#892=EDGE_CURVE('',#717,#673,#435,.T.);
#893=EDGE_CURVE('',#714,#717,#436,.T.);
#894=EDGE_CURVE('',#718,#718,#75,.T.);
#895=EDGE_CURVE('',#718,#676,#437,.T.);
#896=EDGE_CURVE('',#719,#719,#76,.T.);
#897=EDGE_CURVE('',#719,#677,#438,.T.);
#898=EDGE_CURVE('',#720,#720,#77,.T.);
#899=EDGE_CURVE('',#720,#678,#439,.T.);
#900=EDGE_CURVE('',#721,#721,#78,.T.);
#901=EDGE_CURVE('',#721,#679,#440,.T.);
#902=EDGE_CURVE('',#722,#722,#79,.T.);
#903=EDGE_CURVE('',#722,#680,#441,.T.);
#904=EDGE_CURVE('',#723,#723,#80,.T.);
#905=EDGE_CURVE('',#723,#681,#442,.T.);
#906=EDGE_CURVE('',#724,#724,#81,.T.);
#907=EDGE_CURVE('',#724,#682,#443,.T.);
#908=EDGE_CURVE('',#725,#725,#82,.T.);
#909=EDGE_CURVE('',#725,#683,#444,.T.);
#910=EDGE_CURVE('',#726,#726,#83,.T.);
#911=EDGE_CURVE('',#726,#684,#445,.T.);
#912=EDGE_CURVE('',#727,#702,#446,.T.);
#913=EDGE_CURVE('',#727,#650,#447,.T.);
#914=EDGE_CURVE('',#703,#727,#448,.T.);
#915=EDGE_CURVE('',#728,#728,#84,.T.);
#916=EDGE_CURVE('',#729,#729,#85,.T.);
#917=EDGE_CURVE('',#730,#730,#86,.T.);
#918=EDGE_CURVE('',#731,#731,#87,.T.);
#919=EDGE_CURVE('',#728,#732,#449,.T.);
#920=EDGE_CURVE('',#732,#732,#88,.T.);
#921=EDGE_CURVE('',#729,#733,#450,.T.);
#922=EDGE_CURVE('',#733,#733,#89,.T.);
#923=EDGE_CURVE('',#730,#734,#451,.T.);
#924=EDGE_CURVE('',#734,#734,#90,.T.);
#925=EDGE_CURVE('',#731,#735,#452,.T.);
#926=EDGE_CURVE('',#735,#735,#91,.T.);
#927=EDGE_CURVE('',#736,#736,#92,.T.);
#928=EDGE_CURVE('',#737,#737,#93,.T.);
#929=EDGE_CURVE('',#738,#738,#94,.T.);
#930=EDGE_CURVE('',#736,#641,#453,.T.);
#931=EDGE_CURVE('',#737,#635,#454,.T.);
#932=EDGE_CURVE('',#738,#638,#455,.T.);
#933=EDGE_CURVE('',#739,#739,#95,.T.);
#934=EDGE_CURVE('',#739,#632,#456,.T.);
#935=ORIENTED_EDGE('',*,*,#740,.T.);
#936=ORIENTED_EDGE('',*,*,#741,.T.);
#937=ORIENTED_EDGE('',*,*,#742,.T.);
#938=ORIENTED_EDGE('',*,*,#743,.T.);
#939=ORIENTED_EDGE('',*,*,#744,.T.);
#940=ORIENTED_EDGE('',*,*,#745,.T.);
#941=ORIENTED_EDGE('',*,*,#746,.T.);
#942=ORIENTED_EDGE('',*,*,#747,.T.);
#943=ORIENTED_EDGE('',*,*,#748,.T.);
#944=ORIENTED_EDGE('',*,*,#749,.T.);
#945=ORIENTED_EDGE('',*,*,#750,.T.);
#946=ORIENTED_EDGE('',*,*,#751,.T.);
#947=ORIENTED_EDGE('',*,*,#752,.T.);
#948=ORIENTED_EDGE('',*,*,#753,.T.);
#949=ORIENTED_EDGE('',*,*,#754,.T.);
#950=ORIENTED_EDGE('',*,*,#755,.T.);
#951=ORIENTED_EDGE('',*,*,#756,.T.);
#952=ORIENTED_EDGE('',*,*,#757,.T.);
#953=ORIENTED_EDGE('',*,*,#758,.T.);
#954=ORIENTED_EDGE('',*,*,#759,.T.);
#955=ORIENTED_EDGE('',*,*,#760,.F.);
#956=ORIENTED_EDGE('',*,*,#761,.T.);
#957=ORIENTED_EDGE('',*,*,#762,.F.);
#958=ORIENTED_EDGE('',*,*,#761,.F.);
#959=ORIENTED_EDGE('',*,*,#760,.T.);
#960=ORIENTED_EDGE('',*,*,#763,.T.);
#961=ORIENTED_EDGE('',*,*,#764,.F.);
#962=ORIENTED_EDGE('',*,*,#765,.T.);
#963=ORIENTED_EDGE('',*,*,#766,.F.);
#964=ORIENTED_EDGE('',*,*,#765,.F.);
#965=ORIENTED_EDGE('',*,*,#764,.T.);
#966=ORIENTED_EDGE('',*,*,#767,.T.);
#967=ORIENTED_EDGE('',*,*,#768,.F.);
#968=ORIENTED_EDGE('',*,*,#769,.T.);
#969=ORIENTED_EDGE('',*,*,#770,.F.);
#970=ORIENTED_EDGE('',*,*,#769,.F.);
#971=ORIENTED_EDGE('',*,*,#768,.T.);
#972=ORIENTED_EDGE('',*,*,#771,.T.);
#973=ORIENTED_EDGE('',*,*,#772,.F.);
#974=ORIENTED_EDGE('',*,*,#773,.T.);
#975=ORIENTED_EDGE('',*,*,#774,.F.);
#976=ORIENTED_EDGE('',*,*,#773,.F.);
#977=ORIENTED_EDGE('',*,*,#772,.T.);
#978=ORIENTED_EDGE('',*,*,#775,.T.);
#979=ORIENTED_EDGE('',*,*,#776,.F.);
#980=ORIENTED_EDGE('',*,*,#741,.F.);
#981=ORIENTED_EDGE('',*,*,#777,.F.);
#982=ORIENTED_EDGE('',*,*,#778,.T.);
#983=ORIENTED_EDGE('',*,*,#779,.F.);
#984=ORIENTED_EDGE('',*,*,#778,.F.);
#985=ORIENTED_EDGE('',*,*,#780,.F.);
#986=ORIENTED_EDGE('',*,*,#781,.T.);
#987=ORIENTED_EDGE('',*,*,#782,.F.);
#988=ORIENTED_EDGE('',*,*,#781,.F.);
#989=ORIENTED_EDGE('',*,*,#783,.F.);
#990=ORIENTED_EDGE('',*,*,#750,.F.);
#991=ORIENTED_EDGE('',*,*,#776,.T.);
#992=ORIENTED_EDGE('',*,*,#779,.T.);
#993=ORIENTED_EDGE('',*,*,#782,.T.);
#994=ORIENTED_EDGE('',*,*,#749,.F.);
#995=ORIENTED_EDGE('',*,*,#784,.F.);
#996=ORIENTED_EDGE('',*,*,#785,.T.);
#997=ORIENTED_EDGE('',*,*,#786,.T.);
#998=ORIENTED_EDGE('',*,*,#742,.F.);
#999=ORIENTED_EDGE('',*,*,#783,.T.);
#1000=ORIENTED_EDGE('',*,*,#780,.T.);
#1001=ORIENTED_EDGE('',*,*,#777,.T.);
#1002=ORIENTED_EDGE('',*,*,#740,.F.);
#1003=ORIENTED_EDGE('',*,*,#787,.F.);
#1004=ORIENTED_EDGE('',*,*,#788,.F.);
#1005=ORIENTED_EDGE('',*,*,#789,.T.);
#1006=ORIENTED_EDGE('',*,*,#751,.F.);
#1007=ORIENTED_EDGE('',*,*,#790,.F.);
#1008=ORIENTED_EDGE('',*,*,#791,.F.);
#1009=ORIENTED_EDGE('',*,*,#792,.F.);
#1010=ORIENTED_EDGE('',*,*,#793,.F.);
#1011=ORIENTED_EDGE('',*,*,#794,.F.);
#1012=ORIENTED_EDGE('',*,*,#795,.F.);
#1013=ORIENTED_EDGE('',*,*,#796,.F.);
#1014=ORIENTED_EDGE('',*,*,#797,.F.);
#1015=ORIENTED_EDGE('',*,*,#798,.F.);
#1016=ORIENTED_EDGE('',*,*,#799,.F.);
#1017=ORIENTED_EDGE('',*,*,#800,.F.);
#1018=ORIENTED_EDGE('',*,*,#801,.F.);
#1019=ORIENTED_EDGE('',*,*,#802,.F.);
#1020=ORIENTED_EDGE('',*,*,#803,.F.);
#1021=ORIENTED_EDGE('',*,*,#804,.F.);
#1022=ORIENTED_EDGE('',*,*,#805,.F.);
#1023=ORIENTED_EDGE('',*,*,#806,.F.);
#1024=ORIENTED_EDGE('',*,*,#807,.T.);
#1025=ORIENTED_EDGE('',*,*,#800,.T.);
#1026=ORIENTED_EDGE('',*,*,#808,.F.);
#1027=ORIENTED_EDGE('',*,*,#809,.T.);
#1028=ORIENTED_EDGE('',*,*,#806,.T.);
#1029=ORIENTED_EDGE('',*,*,#810,.T.);
#1030=ORIENTED_EDGE('',*,*,#811,.F.);
#1031=ORIENTED_EDGE('',*,*,#785,.F.);
#1032=ORIENTED_EDGE('',*,*,#812,.T.);
#1033=ORIENTED_EDGE('',*,*,#813,.F.);
#1034=ORIENTED_EDGE('',*,*,#814,.F.);
#1035=ORIENTED_EDGE('',*,*,#762,.T.);
#1036=ORIENTED_EDGE('',*,*,#766,.T.);
#1037=ORIENTED_EDGE('',*,*,#770,.T.);
#1038=ORIENTED_EDGE('',*,*,#774,.T.);
#1039=ORIENTED_EDGE('',*,*,#815,.T.);
#1040=ORIENTED_EDGE('',*,*,#816,.T.);
#1041=ORIENTED_EDGE('',*,*,#817,.T.);
#1042=ORIENTED_EDGE('',*,*,#818,.T.);
#1043=ORIENTED_EDGE('',*,*,#819,.T.);
#1044=ORIENTED_EDGE('',*,*,#820,.T.);
#1045=ORIENTED_EDGE('',*,*,#821,.T.);
#1046=ORIENTED_EDGE('',*,*,#822,.T.);
#1047=ORIENTED_EDGE('',*,*,#823,.T.);
#1048=ORIENTED_EDGE('',*,*,#824,.T.);
#1049=ORIENTED_EDGE('',*,*,#825,.T.);
#1050=ORIENTED_EDGE('',*,*,#826,.T.);
#1051=ORIENTED_EDGE('',*,*,#827,.T.);
#1052=ORIENTED_EDGE('',*,*,#798,.T.);
#1053=ORIENTED_EDGE('',*,*,#828,.F.);
#1054=ORIENTED_EDGE('',*,*,#829,.F.);
#1055=ORIENTED_EDGE('',*,*,#830,.T.);
#1056=ORIENTED_EDGE('',*,*,#794,.T.);
#1057=ORIENTED_EDGE('',*,*,#831,.F.);
#1058=ORIENTED_EDGE('',*,*,#832,.F.);
#1059=ORIENTED_EDGE('',*,*,#833,.T.);
#1060=ORIENTED_EDGE('',*,*,#793,.T.);
#1061=ORIENTED_EDGE('',*,*,#834,.F.);
#1062=ORIENTED_EDGE('',*,*,#835,.F.);
#1063=ORIENTED_EDGE('',*,*,#831,.T.);
#1064=ORIENTED_EDGE('',*,*,#804,.T.);
#1065=ORIENTED_EDGE('',*,*,#836,.T.);
#1066=ORIENTED_EDGE('',*,*,#837,.T.);
#1067=ORIENTED_EDGE('',*,*,#838,.F.);
#1068=ORIENTED_EDGE('',*,*,#803,.T.);
#1069=ORIENTED_EDGE('',*,*,#839,.T.);
#1070=ORIENTED_EDGE('',*,*,#840,.T.);
#1071=ORIENTED_EDGE('',*,*,#836,.F.);
#1072=ORIENTED_EDGE('',*,*,#841,.F.);
#1073=ORIENTED_EDGE('',*,*,#842,.F.);
#1074=ORIENTED_EDGE('',*,*,#843,.F.);
#1075=ORIENTED_EDGE('',*,*,#744,.F.);
#1076=ORIENTED_EDGE('',*,*,#844,.F.);
#1077=ORIENTED_EDGE('',*,*,#759,.F.);
#1078=ORIENTED_EDGE('',*,*,#845,.F.);
#1079=ORIENTED_EDGE('',*,*,#846,.T.);
#1080=ORIENTED_EDGE('',*,*,#847,.F.);
#1081=ORIENTED_EDGE('',*,*,#846,.F.);
#1082=ORIENTED_EDGE('',*,*,#848,.F.);
#1083=ORIENTED_EDGE('',*,*,#842,.T.);
#1084=ORIENTED_EDGE('',*,*,#843,.T.);
#1085=ORIENTED_EDGE('',*,*,#848,.T.);
#1086=ORIENTED_EDGE('',*,*,#845,.T.);
#1087=ORIENTED_EDGE('',*,*,#758,.F.);
#1088=ORIENTED_EDGE('',*,*,#849,.F.);
#1089=ORIENTED_EDGE('',*,*,#850,.F.);
#1090=ORIENTED_EDGE('',*,*,#787,.T.);
#1091=ORIENTED_EDGE('',*,*,#745,.F.);
#1092=ORIENTED_EDGE('',*,*,#851,.T.);
#1093=ORIENTED_EDGE('',*,*,#852,.T.);
#1094=ORIENTED_EDGE('',*,*,#853,.T.);
#1095=ORIENTED_EDGE('',*,*,#796,.T.);
#1096=ORIENTED_EDGE('',*,*,#854,.F.);
#1097=ORIENTED_EDGE('',*,*,#855,.F.);
#1098=ORIENTED_EDGE('',*,*,#851,.F.);
#1099=ORIENTED_EDGE('',*,*,#795,.T.);
#1100=ORIENTED_EDGE('',*,*,#833,.F.);
#1101=ORIENTED_EDGE('',*,*,#856,.F.);
#1102=ORIENTED_EDGE('',*,*,#828,.T.);
#1103=ORIENTED_EDGE('',*,*,#801,.T.);
#1104=ORIENTED_EDGE('',*,*,#807,.F.);
#1105=ORIENTED_EDGE('',*,*,#809,.F.);
#1106=ORIENTED_EDGE('',*,*,#857,.F.);
#1107=ORIENTED_EDGE('',*,*,#810,.F.);
#1108=ORIENTED_EDGE('',*,*,#808,.T.);
#1109=ORIENTED_EDGE('',*,*,#799,.T.);
#1110=ORIENTED_EDGE('',*,*,#830,.F.);
#1111=ORIENTED_EDGE('',*,*,#858,.F.);
#1112=ORIENTED_EDGE('',*,*,#859,.T.);
#1113=ORIENTED_EDGE('',*,*,#797,.T.);
#1114=ORIENTED_EDGE('',*,*,#853,.F.);
#1115=ORIENTED_EDGE('',*,*,#860,.T.);
#1116=ORIENTED_EDGE('',*,*,#861,.F.);
#1117=ORIENTED_EDGE('',*,*,#860,.F.);
#1118=ORIENTED_EDGE('',*,*,#852,.F.);
#1119=ORIENTED_EDGE('',*,*,#855,.T.);
#1120=ORIENTED_EDGE('',*,*,#792,.T.);
#1121=ORIENTED_EDGE('',*,*,#862,.T.);
#1122=ORIENTED_EDGE('',*,*,#863,.F.);
#1123=ORIENTED_EDGE('',*,*,#834,.T.);
#1124=ORIENTED_EDGE('',*,*,#841,.T.);
#1125=ORIENTED_EDGE('',*,*,#743,.F.);
#1126=ORIENTED_EDGE('',*,*,#786,.F.);
#1127=ORIENTED_EDGE('',*,*,#811,.T.);
#1128=ORIENTED_EDGE('',*,*,#857,.T.);
#1129=ORIENTED_EDGE('',*,*,#861,.T.);
#1130=ORIENTED_EDGE('',*,*,#854,.T.);
#1131=ORIENTED_EDGE('',*,*,#814,.T.);
#1132=ORIENTED_EDGE('',*,*,#864,.T.);
#1133=ORIENTED_EDGE('',*,*,#752,.F.);
#1134=ORIENTED_EDGE('',*,*,#844,.T.);
#1135=ORIENTED_EDGE('',*,*,#847,.T.);
#1136=ORIENTED_EDGE('',*,*,#865,.T.);
#1137=ORIENTED_EDGE('',*,*,#753,.F.);
#1138=ORIENTED_EDGE('',*,*,#864,.F.);
#1139=ORIENTED_EDGE('',*,*,#813,.T.);
#1140=ORIENTED_EDGE('',*,*,#866,.T.);
#1141=ORIENTED_EDGE('',*,*,#746,.F.);
#1142=ORIENTED_EDGE('',*,*,#789,.F.);
#1143=ORIENTED_EDGE('',*,*,#867,.F.);
#1144=ORIENTED_EDGE('',*,*,#849,.T.);
#1145=ORIENTED_EDGE('',*,*,#757,.F.);
#1146=ORIENTED_EDGE('',*,*,#868,.F.);
#1147=ORIENTED_EDGE('',*,*,#869,.F.);
#1148=ORIENTED_EDGE('',*,*,#868,.T.);
#1149=ORIENTED_EDGE('',*,*,#756,.F.);
#1150=ORIENTED_EDGE('',*,*,#870,.F.);
#1151=ORIENTED_EDGE('',*,*,#871,.F.);
#1152=ORIENTED_EDGE('',*,*,#812,.F.);
#1153=ORIENTED_EDGE('',*,*,#784,.T.);
#1154=ORIENTED_EDGE('',*,*,#748,.F.);
#1155=ORIENTED_EDGE('',*,*,#872,.F.);
#1156=ORIENTED_EDGE('',*,*,#873,.F.);
#1157=ORIENTED_EDGE('',*,*,#874,.T.);
#1158=ORIENTED_EDGE('',*,*,#754,.F.);
#1159=ORIENTED_EDGE('',*,*,#865,.F.);
#1160=ORIENTED_EDGE('',*,*,#873,.T.);
#1161=ORIENTED_EDGE('',*,*,#875,.T.);
#1162=ORIENTED_EDGE('',*,*,#876,.T.);
#1163=ORIENTED_EDGE('',*,*,#877,.T.);
#1164=ORIENTED_EDGE('',*,*,#878,.F.);
#1165=ORIENTED_EDGE('',*,*,#879,.F.);
#1166=ORIENTED_EDGE('',*,*,#870,.T.);
#1167=ORIENTED_EDGE('',*,*,#755,.F.);
#1168=ORIENTED_EDGE('',*,*,#874,.F.);
#1169=ORIENTED_EDGE('',*,*,#877,.F.);
#1170=ORIENTED_EDGE('',*,*,#880,.F.);
#1171=ORIENTED_EDGE('',*,*,#881,.T.);
#1172=ORIENTED_EDGE('',*,*,#875,.F.);
#1173=ORIENTED_EDGE('',*,*,#872,.T.);
#1174=ORIENTED_EDGE('',*,*,#747,.F.);
#1175=ORIENTED_EDGE('',*,*,#866,.F.);
#1176=ORIENTED_EDGE('',*,*,#881,.F.);
#1177=ORIENTED_EDGE('',*,*,#882,.F.);
#1178=ORIENTED_EDGE('',*,*,#878,.T.);
#1179=ORIENTED_EDGE('',*,*,#876,.F.);
#1180=ORIENTED_EDGE('',*,*,#802,.T.);
#1181=ORIENTED_EDGE('',*,*,#883,.T.);
#1182=ORIENTED_EDGE('',*,*,#884,.T.);
#1183=ORIENTED_EDGE('',*,*,#839,.F.);
#1184=ORIENTED_EDGE('',*,*,#805,.T.);
#1185=ORIENTED_EDGE('',*,*,#838,.T.);
#1186=ORIENTED_EDGE('',*,*,#885,.T.);
#1187=ORIENTED_EDGE('',*,*,#883,.F.);
#1188=ORIENTED_EDGE('',*,*,#840,.F.);
#1189=ORIENTED_EDGE('',*,*,#884,.F.);
#1190=ORIENTED_EDGE('',*,*,#885,.F.);
#1191=ORIENTED_EDGE('',*,*,#837,.F.);
#1192=ORIENTED_EDGE('',*,*,#817,.F.);
#1193=ORIENTED_EDGE('',*,*,#886,.F.);
#1194=ORIENTED_EDGE('',*,*,#887,.F.);
#1195=ORIENTED_EDGE('',*,*,#888,.T.);
#1196=ORIENTED_EDGE('',*,*,#818,.F.);
#1197=ORIENTED_EDGE('',*,*,#888,.F.);
#1198=ORIENTED_EDGE('',*,*,#889,.F.);
#1199=ORIENTED_EDGE('',*,*,#890,.T.);
#1200=ORIENTED_EDGE('',*,*,#815,.F.);
#1201=ORIENTED_EDGE('',*,*,#890,.F.);
#1202=ORIENTED_EDGE('',*,*,#891,.F.);
#1203=ORIENTED_EDGE('',*,*,#892,.T.);
#1204=ORIENTED_EDGE('',*,*,#816,.F.);
#1205=ORIENTED_EDGE('',*,*,#892,.F.);
#1206=ORIENTED_EDGE('',*,*,#893,.F.);
#1207=ORIENTED_EDGE('',*,*,#886,.T.);
#1208=ORIENTED_EDGE('',*,*,#894,.F.);
#1209=ORIENTED_EDGE('',*,*,#895,.T.);
#1210=ORIENTED_EDGE('',*,*,#819,.F.);
#1211=ORIENTED_EDGE('',*,*,#895,.F.);
#1212=ORIENTED_EDGE('',*,*,#896,.F.);
#1213=ORIENTED_EDGE('',*,*,#897,.T.);
#1214=ORIENTED_EDGE('',*,*,#820,.F.);
#1215=ORIENTED_EDGE('',*,*,#897,.F.);
#1216=ORIENTED_EDGE('',*,*,#898,.F.);
#1217=ORIENTED_EDGE('',*,*,#899,.T.);
#1218=ORIENTED_EDGE('',*,*,#821,.F.);
#1219=ORIENTED_EDGE('',*,*,#899,.F.);
#1220=ORIENTED_EDGE('',*,*,#900,.F.);
#1221=ORIENTED_EDGE('',*,*,#901,.T.);
#1222=ORIENTED_EDGE('',*,*,#822,.F.);
#1223=ORIENTED_EDGE('',*,*,#901,.F.);
#1224=ORIENTED_EDGE('',*,*,#902,.F.);
#1225=ORIENTED_EDGE('',*,*,#903,.T.);
#1226=ORIENTED_EDGE('',*,*,#823,.F.);
#1227=ORIENTED_EDGE('',*,*,#903,.F.);
#1228=ORIENTED_EDGE('',*,*,#904,.F.);
#1229=ORIENTED_EDGE('',*,*,#905,.T.);
#1230=ORIENTED_EDGE('',*,*,#824,.F.);
#1231=ORIENTED_EDGE('',*,*,#905,.F.);
#1232=ORIENTED_EDGE('',*,*,#906,.F.);
#1233=ORIENTED_EDGE('',*,*,#907,.T.);
#1234=ORIENTED_EDGE('',*,*,#825,.F.);
#1235=ORIENTED_EDGE('',*,*,#907,.F.);
#1236=ORIENTED_EDGE('',*,*,#908,.F.);
#1237=ORIENTED_EDGE('',*,*,#909,.T.);
#1238=ORIENTED_EDGE('',*,*,#826,.F.);
#1239=ORIENTED_EDGE('',*,*,#909,.F.);
#1240=ORIENTED_EDGE('',*,*,#910,.F.);
#1241=ORIENTED_EDGE('',*,*,#911,.T.);
#1242=ORIENTED_EDGE('',*,*,#827,.F.);
#1243=ORIENTED_EDGE('',*,*,#911,.F.);
#1244=ORIENTED_EDGE('',*,*,#790,.T.);
#1245=ORIENTED_EDGE('',*,*,#859,.F.);
#1246=ORIENTED_EDGE('',*,*,#912,.F.);
#1247=ORIENTED_EDGE('',*,*,#913,.T.);
#1248=ORIENTED_EDGE('',*,*,#791,.T.);
#1249=ORIENTED_EDGE('',*,*,#913,.F.);
#1250=ORIENTED_EDGE('',*,*,#914,.F.);
#1251=ORIENTED_EDGE('',*,*,#862,.F.);
#1252=ORIENTED_EDGE('',*,*,#879,.T.);
#1253=ORIENTED_EDGE('',*,*,#882,.T.);
#1254=ORIENTED_EDGE('',*,*,#880,.T.);
#1255=ORIENTED_EDGE('',*,*,#867,.T.);
#1256=ORIENTED_EDGE('',*,*,#788,.T.);
#1257=ORIENTED_EDGE('',*,*,#850,.T.);
#1258=ORIENTED_EDGE('',*,*,#869,.T.);
#1259=ORIENTED_EDGE('',*,*,#871,.T.);
#1260=ORIENTED_EDGE('',*,*,#863,.T.);
#1261=ORIENTED_EDGE('',*,*,#914,.T.);
#1262=ORIENTED_EDGE('',*,*,#912,.T.);
#1263=ORIENTED_EDGE('',*,*,#858,.T.);
#1264=ORIENTED_EDGE('',*,*,#829,.T.);
#1265=ORIENTED_EDGE('',*,*,#856,.T.);
#1266=ORIENTED_EDGE('',*,*,#832,.T.);
#1267=ORIENTED_EDGE('',*,*,#835,.T.);
#1268=ORIENTED_EDGE('',*,*,#891,.T.);
#1269=ORIENTED_EDGE('',*,*,#889,.T.);
#1270=ORIENTED_EDGE('',*,*,#887,.T.);
#1271=ORIENTED_EDGE('',*,*,#893,.T.);
#1272=ORIENTED_EDGE('',*,*,#915,.T.);
#1273=ORIENTED_EDGE('',*,*,#916,.T.);
#1274=ORIENTED_EDGE('',*,*,#917,.T.);
#1275=ORIENTED_EDGE('',*,*,#918,.T.);
#1276=ORIENTED_EDGE('',*,*,#910,.T.);
#1277=ORIENTED_EDGE('',*,*,#908,.T.);
#1278=ORIENTED_EDGE('',*,*,#906,.T.);
#1279=ORIENTED_EDGE('',*,*,#904,.T.);
#1280=ORIENTED_EDGE('',*,*,#902,.T.);
#1281=ORIENTED_EDGE('',*,*,#900,.T.);
#1282=ORIENTED_EDGE('',*,*,#898,.T.);
#1283=ORIENTED_EDGE('',*,*,#896,.T.);
#1284=ORIENTED_EDGE('',*,*,#894,.T.);
#1285=ORIENTED_EDGE('',*,*,#915,.F.);
#1286=ORIENTED_EDGE('',*,*,#919,.T.);
#1287=ORIENTED_EDGE('',*,*,#920,.F.);
#1288=ORIENTED_EDGE('',*,*,#919,.F.);
#1289=ORIENTED_EDGE('',*,*,#916,.F.);
#1290=ORIENTED_EDGE('',*,*,#921,.T.);
#1291=ORIENTED_EDGE('',*,*,#922,.F.);
#1292=ORIENTED_EDGE('',*,*,#921,.F.);
#1293=ORIENTED_EDGE('',*,*,#917,.F.);
#1294=ORIENTED_EDGE('',*,*,#923,.T.);
#1295=ORIENTED_EDGE('',*,*,#924,.F.);
#1296=ORIENTED_EDGE('',*,*,#923,.F.);
#1297=ORIENTED_EDGE('',*,*,#918,.F.);
#1298=ORIENTED_EDGE('',*,*,#925,.T.);
#1299=ORIENTED_EDGE('',*,*,#926,.F.);
#1300=ORIENTED_EDGE('',*,*,#925,.F.);
#1301=ORIENTED_EDGE('',*,*,#926,.T.);
#1302=ORIENTED_EDGE('',*,*,#927,.T.);
#1303=ORIENTED_EDGE('',*,*,#924,.T.);
#1304=ORIENTED_EDGE('',*,*,#928,.T.);
#1305=ORIENTED_EDGE('',*,*,#922,.T.);
#1306=ORIENTED_EDGE('',*,*,#929,.T.);
#1307=ORIENTED_EDGE('',*,*,#927,.F.);
#1308=ORIENTED_EDGE('',*,*,#930,.T.);
#1309=ORIENTED_EDGE('',*,*,#775,.F.);
#1310=ORIENTED_EDGE('',*,*,#930,.F.);
#1311=ORIENTED_EDGE('',*,*,#928,.F.);
#1312=ORIENTED_EDGE('',*,*,#931,.T.);
#1313=ORIENTED_EDGE('',*,*,#767,.F.);
#1314=ORIENTED_EDGE('',*,*,#931,.F.);
#1315=ORIENTED_EDGE('',*,*,#929,.F.);
#1316=ORIENTED_EDGE('',*,*,#932,.T.);
#1317=ORIENTED_EDGE('',*,*,#771,.F.);
#1318=ORIENTED_EDGE('',*,*,#932,.F.);
#1319=ORIENTED_EDGE('',*,*,#933,.F.);
#1320=ORIENTED_EDGE('',*,*,#934,.T.);
#1321=ORIENTED_EDGE('',*,*,#763,.F.);
#1322=ORIENTED_EDGE('',*,*,#934,.F.);
#1323=ORIENTED_EDGE('',*,*,#920,.T.);
#1324=ORIENTED_EDGE('',*,*,#933,.T.);
#1325=PLANE('',#1475);
#1326=PLANE('',#1476);
#1327=PLANE('',#1477);
#1328=PLANE('',#1481);
#1329=PLANE('',#1486);
#1330=PLANE('',#1491);
#1331=PLANE('',#1496);
#1332=PLANE('',#1498);
#1333=PLANE('',#1499);
#1334=PLANE('',#1500);
#1335=PLANE('',#1501);
#1336=PLANE('',#1502);
#1337=PLANE('',#1503);
#1338=PLANE('',#1504);
#1339=PLANE('',#1505);
#1340=PLANE('',#1506);
#1341=PLANE('',#1516);
#1342=PLANE('',#1517);
#1343=PLANE('',#1518);
#1344=PLANE('',#1519);
#1345=PLANE('',#1520);
#1346=PLANE('',#1521);
#1347=PLANE('',#1522);
#1348=PLANE('',#1523);
#1349=PLANE('',#1524);
#1350=PLANE('',#1525);
#1351=PLANE('',#1526);
#1352=PLANE('',#1527);
#1353=PLANE('',#1528);
#1354=PLANE('',#1529);
#1355=PLANE('',#1530);
#1356=PLANE('',#1531);
#1357=PLANE('',#1532);
#1358=PLANE('',#1533);
#1359=PLANE('',#1534);
#1360=PLANE('',#1535);
#1361=PLANE('',#1536);
#1362=PLANE('',#1537);
#1363=PLANE('',#1538);
#1364=PLANE('',#1539);
#1365=PLANE('',#1540);
#1366=PLANE('',#1541);
#1367=PLANE('',#1542);
#1368=PLANE('',#1543);
#1369=PLANE('',#1544);
#1370=PLANE('',#1545);
#1371=PLANE('',#1564);
#1372=PLANE('',#1565);
#1373=PLANE('',#1566);
#1374=PLANE('',#1579);
#1375=PLANE('',#1581);
#1376=PLANE('',#1583);
#1377=PLANE('',#1590);
#1378=ADVANCED_FACE('',(#117),#1325,.T.);
#1379=ADVANCED_FACE('',(#118),#1326,.T.);
#1380=ADVANCED_FACE('',(#119),#1327,.T.);
#1381=ADVANCED_FACE('',(#120),#96,.T.);
#1382=ADVANCED_FACE('',(#121,#15),#1328,.T.);
#1383=ADVANCED_FACE('',(#122),#97,.T.);
#1384=ADVANCED_FACE('',(#123,#16),#1329,.T.);
#1385=ADVANCED_FACE('',(#124),#98,.T.);
#1386=ADVANCED_FACE('',(#125,#17),#1330,.T.);
#1387=ADVANCED_FACE('',(#126),#99,.T.);
#1388=ADVANCED_FACE('',(#127,#18),#1331,.T.);
#1389=ADVANCED_FACE('',(#128),#1332,.F.);
#1390=ADVANCED_FACE('',(#129),#1333,.F.);
#1391=ADVANCED_FACE('',(#130),#1334,.F.);
#1392=ADVANCED_FACE('',(#131),#1335,.T.);
#1393=ADVANCED_FACE('',(#132),#1336,.T.);
#1394=ADVANCED_FACE('',(#133),#1337,.F.);
#1395=ADVANCED_FACE('',(#134,#19),#1338,.F.);
#1396=ADVANCED_FACE('',(#135),#1339,.F.);
#1397=ADVANCED_FACE('',(#136,#20,#21,#22,#23,#24,#25,#26,#27,#28,#29,#30,
#31,#32,#33),#1340,.F.);
#1398=ADVANCED_FACE('',(#137),#1341,.F.);
#1399=ADVANCED_FACE('',(#138),#1342,.F.);
#1400=ADVANCED_FACE('',(#139),#1343,.F.);
#1401=ADVANCED_FACE('',(#140),#1344,.F.);
#1402=ADVANCED_FACE('',(#141),#1345,.F.);
#1403=ADVANCED_FACE('',(#142),#1346,.F.);
#1404=ADVANCED_FACE('',(#143),#1347,.F.);
#1405=ADVANCED_FACE('',(#144),#1348,.F.);
#1406=ADVANCED_FACE('',(#145,#34),#1349,.T.);
#1407=ADVANCED_FACE('',(#146),#1350,.F.);
#1408=ADVANCED_FACE('',(#147),#1351,.F.);
#1409=ADVANCED_FACE('',(#148),#1352,.F.);
#1410=ADVANCED_FACE('',(#149),#1353,.T.);
#1411=ADVANCED_FACE('',(#150),#1354,.T.);
#1412=ADVANCED_FACE('',(#151),#1355,.T.);
#1413=ADVANCED_FACE('',(#152),#1356,.T.);
#1414=ADVANCED_FACE('',(#153),#1357,.T.);
#1415=ADVANCED_FACE('',(#154),#1358,.T.);
#1416=ADVANCED_FACE('',(#155),#1359,.T.);
#1417=ADVANCED_FACE('',(#156),#1360,.T.);
#1418=ADVANCED_FACE('',(#157),#1361,.F.);
#1419=ADVANCED_FACE('',(#158),#1362,.F.);
#1420=ADVANCED_FACE('',(#159),#1363,.F.);
#1421=ADVANCED_FACE('',(#160),#1364,.F.);
#1422=ADVANCED_FACE('',(#161),#1365,.F.);
#1423=ADVANCED_FACE('',(#162),#1366,.F.);
#1424=ADVANCED_FACE('',(#163),#1367,.F.);
#1425=ADVANCED_FACE('',(#164),#1368,.F.);
#1426=ADVANCED_FACE('',(#165),#1369,.F.);
#1427=ADVANCED_FACE('',(#166),#1370,.F.);
#1428=ADVANCED_FACE('',(#167),#100,.F.);
#1429=ADVANCED_FACE('',(#168),#101,.F.);
#1430=ADVANCED_FACE('',(#169),#102,.F.);
#1431=ADVANCED_FACE('',(#170),#103,.F.);
#1432=ADVANCED_FACE('',(#171),#104,.F.);
#1433=ADVANCED_FACE('',(#172),#105,.F.);
#1434=ADVANCED_FACE('',(#173),#106,.F.);
#1435=ADVANCED_FACE('',(#174),#107,.F.);
#1436=ADVANCED_FACE('',(#175),#108,.F.);
#1437=ADVANCED_FACE('',(#176),#1371,.F.);
#1438=ADVANCED_FACE('',(#177),#1372,.F.);
#1439=ADVANCED_FACE('',(#178,#35,#36,#37,#38,#39,#40,#41,#42,#43,#44,#45,
#46,#47,#48,#49),#1373,.T.);
#1440=ADVANCED_FACE('',(#179),#109,.F.);
#1441=ADVANCED_FACE('',(#180),#110,.F.);
#1442=ADVANCED_FACE('',(#181),#111,.F.);
#1443=ADVANCED_FACE('',(#182),#112,.F.);
#1444=ADVANCED_FACE('',(#183,#50),#1374,.T.);
#1445=ADVANCED_FACE('',(#184,#51),#1375,.T.);
#1446=ADVANCED_FACE('',(#185,#52),#1376,.T.);
#1447=ADVANCED_FACE('',(#186),#113,.F.);
#1448=ADVANCED_FACE('',(#187),#114,.F.);
#1449=ADVANCED_FACE('',(#188),#115,.F.);
#1450=ADVANCED_FACE('',(#189),#116,.F.);
#1451=ADVANCED_FACE('',(#190,#53),#1377,.T.);
#1452=CLOSED_SHELL('',(#1378,#1379,#1380,#1381,#1382,#1383,#1384,#1385,
#1386,#1387,#1388,#1389,#1390,#1391,#1392,#1393,#1394,#1395,#1396,#1397,
#1398,#1399,#1400,#1401,#1402,#1403,#1404,#1405,#1406,#1407,#1408,#1409,
#1410,#1411,#1412,#1413,#1414,#1415,#1416,#1417,#1418,#1419,#1420,#1421,
#1422,#1423,#1424,#1425,#1426,#1427,#1428,#1429,#1430,#1431,#1432,#1433,
#1434,#1435,#1436,#1437,#1438,#1439,#1440,#1441,#1442,#1443,#1444,#1445,
#1446,#1447,#1448,#1449,#1450,#1451));
#1453=DERIVED_UNIT_ELEMENT(#1456,1.);
#1454=DERIVED_UNIT_ELEMENT(#2383,-3.);
#1455=DIMENSIONAL_EXPONENTS(0.,1.,0.,0.,0.,0.,0.);
#1456=(
CONVERSION_BASED_UNIT('gram',#1458)
MASS_UNIT()
NAMED_UNIT(#1455)
);
#1457=(
MASS_UNIT()
NAMED_UNIT(*)
SI_UNIT(.KILO.,.GRAM.)
);
#1458=MASS_MEASURE_WITH_UNIT(MASS_MEASURE(0.001),#1457);
#1459=DERIVED_UNIT((#1453,#1454));
#1460=MEASURE_REPRESENTATION_ITEM('density measure',
POSITIVE_RATIO_MEASURE(1.),#1459);
#1461=PROPERTY_DEFINITION_REPRESENTATION(#1466,#1463);
#1462=PROPERTY_DEFINITION_REPRESENTATION(#1467,#1464);
#1463=REPRESENTATION('material name',(#1465),#2380);
#1464=REPRESENTATION('density',(#1460),#2380);
#1465=DESCRIPTIVE_REPRESENTATION_ITEM('\X2\4E00822C\X0\','\X2\4E00822C\X0\');
#1466=PROPERTY_DEFINITION('material property','material name',#2390);
#1467=PROPERTY_DEFINITION('material property','density of part',#2390);
#1468=DATE_TIME_ROLE('creation_date');
#1469=APPLIED_DATE_AND_TIME_ASSIGNMENT(#1470,#1468,(#2390));
#1470=DATE_AND_TIME(#1471,#1472);
#1471=CALENDAR_DATE(2025,31,8);
#1472=LOCAL_TIME(0,0,0.,#1473);
#1473=COORDINATED_UNIVERSAL_TIME_OFFSET(0,0,.BEHIND.);
#1474=AXIS2_PLACEMENT_3D('',#1978,#1591,#1592);
#1475=AXIS2_PLACEMENT_3D('',#1979,#1593,#1594);
#1476=AXIS2_PLACEMENT_3D('',#1992,#1601,#1602);
#1477=AXIS2_PLACEMENT_3D('',#2005,#1609,#1610);
#1478=AXIS2_PLACEMENT_3D('',#2022,#1619,#1620);
#1479=AXIS2_PLACEMENT_3D('',#2024,#1621,#1622);
#1480=AXIS2_PLACEMENT_3D('',#2027,#1624,#1625);
#1481=AXIS2_PLACEMENT_3D('',#2028,#1626,#1627);
#1482=AXIS2_PLACEMENT_3D('',#2030,#1628,#1629);
#1483=AXIS2_PLACEMENT_3D('',#2031,#1630,#1631);
#1484=AXIS2_PLACEMENT_3D('',#2033,#1632,#1633);
#1485=AXIS2_PLACEMENT_3D('',#2036,#1635,#1636);
#1486=AXIS2_PLACEMENT_3D('',#2037,#1637,#1638);
#1487=AXIS2_PLACEMENT_3D('',#2039,#1639,#1640);
#1488=AXIS2_PLACEMENT_3D('',#2040,#1641,#1642);
#1489=AXIS2_PLACEMENT_3D('',#2042,#1643,#1644);
#1490=AXIS2_PLACEMENT_3D('',#2045,#1646,#1647);
#1491=AXIS2_PLACEMENT_3D('',#2046,#1648,#1649);
#1492=AXIS2_PLACEMENT_3D('',#2048,#1650,#1651);
#1493=AXIS2_PLACEMENT_3D('',#2049,#1652,#1653);
#1494=AXIS2_PLACEMENT_3D('',#2051,#1654,#1655);
#1495=AXIS2_PLACEMENT_3D('',#2054,#1657,#1658);
#1496=AXIS2_PLACEMENT_3D('',#2055,#1659,#1660);
#1497=AXIS2_PLACEMENT_3D('',#2057,#1661,#1662);
#1498=AXIS2_PLACEMENT_3D('',#2058,#1663,#1664);
#1499=AXIS2_PLACEMENT_3D('',#2064,#1668,#1669);
#1500=AXIS2_PLACEMENT_3D('',#2070,#1673,#1674);
#1501=AXIS2_PLACEMENT_3D('',#2073,#1677,#1678);
#1502=AXIS2_PLACEMENT_3D('',#2079,#1682,#1683);
#1503=AXIS2_PLACEMENT_3D('',#2085,#1687,#1688);
#1504=AXIS2_PLACEMENT_3D('',#2102,#1697,#1698);
#1505=AXIS2_PLACEMENT_3D('',#2119,#1707,#1708);
#1506=AXIS2_PLACEMENT_3D('',#2125,#1712,#1713);
#1507=AXIS2_PLACEMENT_3D('',#2145,#1724,#1725);
#1508=AXIS2_PLACEMENT_3D('',#2147,#1726,#1727);
#1509=AXIS2_PLACEMENT_3D('',#2149,#1728,#1729);
#1510=AXIS2_PLACEMENT_3D('',#2151,#1730,#1731);
#1511=AXIS2_PLACEMENT_3D('',#2153,#1732,#1733);
#1512=AXIS2_PLACEMENT_3D('',#2155,#1734,#1735);
#1513=AXIS2_PLACEMENT_3D('',#2157,#1736,#1737);
#1514=AXIS2_PLACEMENT_3D('',#2159,#1738,#1739);
#1515=AXIS2_PLACEMENT_3D('',#2161,#1740,#1741);
#1516=AXIS2_PLACEMENT_3D('',#2162,#1742,#1743);
#1517=AXIS2_PLACEMENT_3D('',#2168,#1747,#1748);
#1518=AXIS2_PLACEMENT_3D('',#2174,#1752,#1753);
#1519=AXIS2_PLACEMENT_3D('',#2178,#1756,#1757);
#1520=AXIS2_PLACEMENT_3D('',#2184,#1761,#1762);
#1521=AXIS2_PLACEMENT_3D('',#2188,#1765,#1766);
#1522=AXIS2_PLACEMENT_3D('',#2194,#1770,#1771);
#1523=AXIS2_PLACEMENT_3D('',#2200,#1775,#1776);
#1524=AXIS2_PLACEMENT_3D('',#2203,#1779,#1780);
#1525=AXIS2_PLACEMENT_3D('',#2212,#1786,#1787);
#1526=AXIS2_PLACEMENT_3D('',#2217,#1791,#1792);
#1527=AXIS2_PLACEMENT_3D('',#2224,#1797,#1798);
#1528=AXIS2_PLACEMENT_3D('',#2226,#1800,#1801);
#1529=AXIS2_PLACEMENT_3D('',#2230,#1804,#1805);
#1530=AXIS2_PLACEMENT_3D('',#2232,#1807,#1808);
#1531=AXIS2_PLACEMENT_3D('',#2234,#1810,#1811);
#1532=AXIS2_PLACEMENT_3D('',#2238,#1814,#1815);
#1533=AXIS2_PLACEMENT_3D('',#2242,#1818,#1819);
#1534=AXIS2_PLACEMENT_3D('',#2246,#1822,#1823);
#1535=AXIS2_PLACEMENT_3D('',#2252,#1827,#1828);
#1536=AXIS2_PLACEMENT_3D('',#2258,#1832,#1833);
#1537=AXIS2_PLACEMENT_3D('',#2262,#1836,#1837);
#1538=AXIS2_PLACEMENT_3D('',#2266,#1840,#1841);
#1539=AXIS2_PLACEMENT_3D('',#2268,#1843,#1844);
#1540=AXIS2_PLACEMENT_3D('',#2272,#1847,#1848);
#1541=AXIS2_PLACEMENT_3D('',#2274,#1850,#1851);
#1542=AXIS2_PLACEMENT_3D('',#2275,#1852,#1853);
#1543=AXIS2_PLACEMENT_3D('',#2281,#1857,#1858);
#1544=AXIS2_PLACEMENT_3D('',#2285,#1861,#1862);
#1545=AXIS2_PLACEMENT_3D('',#2289,#1865,#1866);
#1546=AXIS2_PLACEMENT_3D('',#2291,#1868,#1869);
#1547=AXIS2_PLACEMENT_3D('',#2293,#1870,#1871);
#1548=AXIS2_PLACEMENT_3D('',#2295,#1873,#1874);
#1549=AXIS2_PLACEMENT_3D('',#2297,#1875,#1876);
#1550=AXIS2_PLACEMENT_3D('',#2299,#1878,#1879);
#1551=AXIS2_PLACEMENT_3D('',#2301,#1880,#1881);
#1552=AXIS2_PLACEMENT_3D('',#2303,#1883,#1884);
#1553=AXIS2_PLACEMENT_3D('',#2305,#1885,#1886);
#1554=AXIS2_PLACEMENT_3D('',#2307,#1888,#1889);
#1555=AXIS2_PLACEMENT_3D('',#2309,#1890,#1891);
#1556=AXIS2_PLACEMENT_3D('',#2311,#1893,#1894);
#1557=AXIS2_PLACEMENT_3D('',#2313,#1895,#1896);
#1558=AXIS2_PLACEMENT_3D('',#2315,#1898,#1899);
#1559=AXIS2_PLACEMENT_3D('',#2317,#1900,#1901);
#1560=AXIS2_PLACEMENT_3D('',#2319,#1903,#1904);
#1561=AXIS2_PLACEMENT_3D('',#2321,#1905,#1906);
#1562=AXIS2_PLACEMENT_3D('',#2323,#1908,#1909);
#1563=AXIS2_PLACEMENT_3D('',#2325,#1910,#1911);
#1564=AXIS2_PLACEMENT_3D('',#2327,#1913,#1914);
#1565=AXIS2_PLACEMENT_3D('',#2331,#1917,#1918);
#1566=AXIS2_PLACEMENT_3D('',#2333,#1920,#1921);
#1567=AXIS2_PLACEMENT_3D('',#2335,#1922,#1923);
#1568=AXIS2_PLACEMENT_3D('',#2337,#1924,#1925);
#1569=AXIS2_PLACEMENT_3D('',#2339,#1926,#1927);
#1570=AXIS2_PLACEMENT_3D('',#2341,#1928,#1929);
#1571=AXIS2_PLACEMENT_3D('',#2342,#1930,#1931);
#1572=AXIS2_PLACEMENT_3D('',#2345,#1933,#1934);
#1573=AXIS2_PLACEMENT_3D('',#2346,#1935,#1936);
#1574=AXIS2_PLACEMENT_3D('',#2349,#1938,#1939);
#1575=AXIS2_PLACEMENT_3D('',#2350,#1940,#1941);
#1576=AXIS2_PLACEMENT_3D('',#2353,#1943,#1944);
#1577=AXIS2_PLACEMENT_3D('',#2354,#1945,#1946);
#1578=AXIS2_PLACEMENT_3D('',#2357,#1948,#1949);
#1579=AXIS2_PLACEMENT_3D('',#2358,#1950,#1951);
#1580=AXIS2_PLACEMENT_3D('',#2360,#1952,#1953);
#1581=AXIS2_PLACEMENT_3D('',#2361,#1954,#1955);
#1582=AXIS2_PLACEMENT_3D('',#2363,#1956,#1957);
#1583=AXIS2_PLACEMENT_3D('',#2364,#1958,#1959);
#1584=AXIS2_PLACEMENT_3D('',#2366,#1960,#1961);
#1585=AXIS2_PLACEMENT_3D('',#2367,#1962,#1963);
#1586=AXIS2_PLACEMENT_3D('',#2369,#1965,#1966);
#1587=AXIS2_PLACEMENT_3D('',#2371,#1968,#1969);
#1588=AXIS2_PLACEMENT_3D('',#2373,#1971,#1972);
#1589=AXIS2_PLACEMENT_3D('',#2375,#1973,#1974);
#1590=AXIS2_PLACEMENT_3D('',#2377,#1976,#1977);
#1591=DIRECTION('axis',(0.,0.,1.));
#1592=DIRECTION('refdir',(1.,0.,0.));
#1593=DIRECTION('center_axis',(0.,0.,-1.));
#1594=DIRECTION('ref_axis',(-1.,0.,0.));
#1595=DIRECTION('',(0.,-1.,0.));
#1596=DIRECTION('',(-1.,0.,0.));
#1597=DIRECTION('',(-1.06266860457062E-15,1.,0.));
#1598=DIRECTION('',(-1.,-6.55240442419864E-16,0.));
#1599=DIRECTION('',(0.,1.,0.));
#1600=DIRECTION('',(1.,0.,0.));
#1601=DIRECTION('center_axis',(0.,0.,-1.));
#1602=DIRECTION('ref_axis',(-1.,0.,0.));
#1603=DIRECTION('',(-1.,0.,0.));
#1604=DIRECTION('',(0.,1.,0.));
#1605=DIRECTION('',(1.,0.,0.));
#1606=DIRECTION('',(0.,1.,0.));
#1607=DIRECTION('',(1.,0.,0.));
#1608=DIRECTION('',(0.,-1.,0.));
#1609=DIRECTION('center_axis',(0.,0.,-1.));
#1610=DIRECTION('ref_axis',(-1.,0.,0.));
#1611=DIRECTION('',(-1.,0.,0.));
#1612=DIRECTION('',(-5.73684549606075E-17,-1.,0.));
#1613=DIRECTION('',(1.,0.,0.));
#1614=DIRECTION('',(0.,-1.,0.));
#1615=DIRECTION('',(-1.,0.,0.));
#1616=DIRECTION('',(0.,1.,0.));
#1617=DIRECTION('',(1.,0.,0.));
#1618=DIRECTION('',(0.,-1.,0.));
#1619=DIRECTION('center_axis',(0.,0.,-1.));
#1620=DIRECTION('ref_axis',(-1.,0.,0.));
#1621=DIRECTION('center_axis',(0.,0.,-1.));
#1622=DIRECTION('ref_axis',(-1.,0.,0.));
#1623=DIRECTION('',(0.,0.,1.));
#1624=DIRECTION('center_axis',(0.,0.,1.));
#1625=DIRECTION('ref_axis',(-1.,0.,0.));
#1626=DIRECTION('center_axis',(0.,0.,-1.));
#1627=DIRECTION('ref_axis',(-1.,0.,0.));
#1628=DIRECTION('center_axis',(0.,0.,1.));
#1629=DIRECTION('ref_axis',(1.,0.,0.));
#1630=DIRECTION('center_axis',(0.,0.,-1.));
#1631=DIRECTION('ref_axis',(-1.,0.,0.));
#1632=DIRECTION('center_axis',(0.,0.,-1.));
#1633=DIRECTION('ref_axis',(-1.,0.,0.));
#1634=DIRECTION('',(0.,0.,1.));
#1635=DIRECTION('center_axis',(0.,0.,1.));
#1636=DIRECTION('ref_axis',(-1.,0.,0.));
#1637=DIRECTION('center_axis',(0.,0.,-1.));
#1638=DIRECTION('ref_axis',(-1.,0.,0.));
#1639=DIRECTION('center_axis',(0.,0.,1.));
#1640=DIRECTION('ref_axis',(1.,0.,0.));
#1641=DIRECTION('center_axis',(0.,0.,-1.));
#1642=DIRECTION('ref_axis',(-1.,0.,0.));
#1643=DIRECTION('center_axis',(0.,0.,-1.));
#1644=DIRECTION('ref_axis',(-1.,0.,0.));
#1645=DIRECTION('',(0.,0.,1.));
#1646=DIRECTION('center_axis',(0.,0.,1.));
#1647=DIRECTION('ref_axis',(-1.,0.,0.));
#1648=DIRECTION('center_axis',(0.,0.,-1.));
#1649=DIRECTION('ref_axis',(-1.,0.,0.));
#1650=DIRECTION('center_axis',(0.,0.,1.));
#1651=DIRECTION('ref_axis',(1.,0.,0.));
#1652=DIRECTION('center_axis',(0.,0.,-1.));
#1653=DIRECTION('ref_axis',(-1.,0.,0.));
#1654=DIRECTION('center_axis',(0.,0.,-1.));
#1655=DIRECTION('ref_axis',(-1.,0.,0.));
#1656=DIRECTION('',(0.,0.,1.));
#1657=DIRECTION('center_axis',(0.,0.,1.));
#1658=DIRECTION('ref_axis',(-1.,0.,0.));
#1659=DIRECTION('center_axis',(0.,0.,-1.));
#1660=DIRECTION('ref_axis',(-1.,0.,0.));
#1661=DIRECTION('center_axis',(0.,0.,1.));
#1662=DIRECTION('ref_axis',(1.,0.,0.));
#1663=DIRECTION('center_axis',(0.,1.,0.));
#1664=DIRECTION('ref_axis',(0.,0.,-1.));
#1665=DIRECTION('',(0.,0.,1.));
#1666=DIRECTION('',(0.,0.,-1.));
#1667=DIRECTION('',(-1.,0.,0.));
#1668=DIRECTION('center_axis',(0.,-3.72201205573568E-16,1.));
#1669=DIRECTION('ref_axis',(0.,1.,3.72201205573568E-16));
#1670=DIRECTION('',(0.,-1.,-3.72201205573568E-16));
#1671=DIRECTION('',(0.,1.,3.72201205573568E-16));
#1672=DIRECTION('',(-1.,0.,0.));
#1673=DIRECTION('center_axis',(0.,-1.,0.));
#1674=DIRECTION('ref_axis',(0.,0.,1.));
#1675=DIRECTION('',(0.,0.,-1.));
#1676=DIRECTION('',(0.,0.,1.));
#1677=DIRECTION('center_axis',(-1.,0.,0.));
#1678=DIRECTION('ref_axis',(0.,1.,0.));
#1679=DIRECTION('',(0.,0.,-1.));
#1680=DIRECTION('',(0.,1.,0.));
#1681=DIRECTION('',(0.,0.,-1.));
#1682=DIRECTION('center_axis',(1.,0.,0.));
#1683=DIRECTION('ref_axis',(0.,-1.,0.));
#1684=DIRECTION('',(0.,0.,-1.));
#1685=DIRECTION('',(0.,1.,0.));
#1686=DIRECTION('',(0.,0.,-1.));
#1687=DIRECTION('center_axis',(0.,0.,1.));
#1688=DIRECTION('ref_axis',(1.,0.,0.));
#1689=DIRECTION('',(1.,0.,0.));
#1690=DIRECTION('',(0.,-1.,0.));
#1691=DIRECTION('',(1.,0.,0.));
#1692=DIRECTION('',(0.,1.,0.));
#1693=DIRECTION('',(1.,0.,0.));
#1694=DIRECTION('',(0.,-1.,0.));
#1695=DIRECTION('',(-1.,0.,0.));
#1696=DIRECTION('',(0.,1.,0.));
#1697=DIRECTION('center_axis',(0.,0.,1.));
#1698=DIRECTION('ref_axis',(1.,0.,0.));
#1699=DIRECTION('',(-1.,0.,0.));
#1700=DIRECTION('',(0.,1.,0.));
#1701=DIRECTION('',(1.,0.,0.));
#1702=DIRECTION('',(0.,-1.,0.));
#1703=DIRECTION('',(-2.22044604925031E-16,-1.,0.));
#1704=DIRECTION('',(1.,0.,0.));
#1705=DIRECTION('',(8.88178419700125E-16,1.,0.));
#1706=DIRECTION('',(-1.,0.,0.));
#1707=DIRECTION('center_axis',(0.,-1.,0.));
#1708=DIRECTION('ref_axis',(1.,0.,0.));
#1709=DIRECTION('',(1.,0.,0.));
#1710=DIRECTION('',(0.,0.,1.));
#1711=DIRECTION('',(0.,0.,1.));
#1712=DIRECTION('center_axis',(0.,0.,1.));
#1713=DIRECTION('ref_axis',(1.,0.,0.));
#1714=DIRECTION('',(0.,-1.,0.));
#1715=DIRECTION('',(0.,1.,0.));
#1716=DIRECTION('',(-1.,-2.77079525721455E-16,0.));
#1717=DIRECTION('',(-1.,0.,0.));
#1718=DIRECTION('',(-4.97339332142567E-17,-1.,0.));
#1719=DIRECTION('',(-1.,-2.77079525721455E-16,0.));
#1720=DIRECTION('',(0.,1.,0.));
#1721=DIRECTION('',(-1.,0.,0.));
#1722=DIRECTION('',(2.03540887847945E-16,-1.,0.));
#1723=DIRECTION('',(1.,0.,0.));
#1724=DIRECTION('center_axis',(0.,0.,1.));
#1725=DIRECTION('ref_axis',(1.,0.,0.));
#1726=DIRECTION('center_axis',(0.,0.,1.));
#1727=DIRECTION('ref_axis',(1.,0.,0.));
#1728=DIRECTION('center_axis',(0.,0.,1.));
#1729=DIRECTION('ref_axis',(1.,0.,0.));
#1730=DIRECTION('center_axis',(0.,0.,1.));
#1731=DIRECTION('ref_axis',(1.,0.,0.));
#1732=DIRECTION('center_axis',(0.,0.,1.));
#1733=DIRECTION('ref_axis',(1.,0.,0.));
#1734=DIRECTION('center_axis',(0.,0.,1.));
#1735=DIRECTION('ref_axis',(1.,0.,0.));
#1736=DIRECTION('center_axis',(0.,0.,1.));
#1737=DIRECTION('ref_axis',(1.,0.,0.));
#1738=DIRECTION('center_axis',(0.,0.,1.));
#1739=DIRECTION('ref_axis',(1.,0.,0.));
#1740=DIRECTION('center_axis',(0.,0.,1.));
#1741=DIRECTION('ref_axis',(1.,0.,0.));
#1742=DIRECTION('center_axis',(0.,-1.,0.));
#1743=DIRECTION('ref_axis',(-1.,0.,0.));
#1744=DIRECTION('',(0.,0.,-1.));
#1745=DIRECTION('',(-1.,0.,0.));
#1746=DIRECTION('',(0.,0.,-1.));
#1747=DIRECTION('center_axis',(0.,1.,0.));
#1748=DIRECTION('ref_axis',(1.,0.,0.));
#1749=DIRECTION('',(0.,0.,-1.));
#1750=DIRECTION('',(1.,0.,0.));
#1751=DIRECTION('',(0.,0.,-1.));
#1752=DIRECTION('center_axis',(-1.,0.,0.));
#1753=DIRECTION('ref_axis',(0.,1.,0.));
#1754=DIRECTION('',(0.,0.,-1.));
#1755=DIRECTION('',(0.,1.,0.));
#1756=DIRECTION('center_axis',(-1.,8.88178419700125E-16,0.));
#1757=DIRECTION('ref_axis',(-8.88178419700125E-16,-1.,0.));
#1758=DIRECTION('',(0.,0.,1.));
#1759=DIRECTION('',(-8.88178419700125E-16,-1.,0.));
#1760=DIRECTION('',(0.,0.,1.));
#1761=DIRECTION('center_axis',(0.,1.,0.));
#1762=DIRECTION('ref_axis',(-1.,0.,0.));
#1763=DIRECTION('',(0.,0.,1.));
#1764=DIRECTION('',(-1.,0.,0.));
#1765=DIRECTION('center_axis',(1.,0.,0.));
#1766=DIRECTION('ref_axis',(0.,0.,1.));
#1767=DIRECTION('',(0.,0.,-1.));
#1768=DIRECTION('',(0.,-1.,0.));
#1769=DIRECTION('',(0.,0.,1.));
#1770=DIRECTION('center_axis',(-1.,0.,4.44089209850062E-15));
#1771=DIRECTION('ref_axis',(-4.44089209850062E-15,0.,-1.));
#1772=DIRECTION('',(4.44089209850062E-15,0.,1.));
#1773=DIRECTION('',(-4.44089209850062E-15,0.,-1.));
#1774=DIRECTION('',(0.,-1.,0.));
#1775=DIRECTION('center_axis',(1.19122642127163E-16,0.,1.));
#1776=DIRECTION('ref_axis',(-1.,0.,1.19122642127163E-16));
#1777=DIRECTION('',(1.,0.,-1.19122642127163E-16));
#1778=DIRECTION('',(-1.,0.,1.19122642127163E-16));
#1779=DIRECTION('center_axis',(0.,1.,0.));
#1780=DIRECTION('ref_axis',(1.,0.,0.));
#1781=DIRECTION('',(0.,0.,-1.));
#1782=DIRECTION('',(-1.,0.,0.));
#1783=DIRECTION('',(0.,0.,-1.));
#1784=DIRECTION('',(1.,0.,-1.67580833905684E-16));
#1785=DIRECTION('',(0.,0.,1.));
#1786=DIRECTION('center_axis',(-1.,0.,0.));
#1787=DIRECTION('ref_axis',(0.,0.,-1.));
#1788=DIRECTION('',(0.,0.,1.));
#1789=DIRECTION('',(0.,-1.,0.));
#1790=DIRECTION('',(-3.70074341541719E-16,1.,0.));
#1791=DIRECTION('center_axis',(1.,0.,0.));
#1792=DIRECTION('ref_axis',(0.,0.,1.));
#1793=DIRECTION('',(0.,0.,-1.));
#1794=DIRECTION('',(1.85037170770859E-16,-1.,0.));
#1795=DIRECTION('',(0.,0.,-1.));
#1796=DIRECTION('',(0.,-1.,0.));
#1797=DIRECTION('center_axis',(-1.67580833905684E-16,0.,-1.));
#1798=DIRECTION('ref_axis',(1.,0.,-1.67580833905684E-16));
#1799=DIRECTION('',(-1.,0.,1.67580833905684E-16));
#1800=DIRECTION('center_axis',(0.,-1.,0.));
#1801=DIRECTION('ref_axis',(-1.,0.,0.));
#1802=DIRECTION('',(0.,0.,1.));
#1803=DIRECTION('',(1.,0.,0.));
#1804=DIRECTION('center_axis',(0.,-1.,0.));
#1805=DIRECTION('ref_axis',(-1.,0.,0.));
#1806=DIRECTION('',(0.,0.,-1.));
#1807=DIRECTION('center_axis',(1.,0.,0.));
#1808=DIRECTION('ref_axis',(0.,-1.,0.));
#1809=DIRECTION('',(0.,0.,-1.));
#1810=DIRECTION('center_axis',(0.,-1.,0.));
#1811=DIRECTION('ref_axis',(-1.,0.,0.));
#1812=DIRECTION('',(0.,0.,-1.));
#1813=DIRECTION('',(1.,0.,0.));
#1814=DIRECTION('center_axis',(-1.,0.,0.));
#1815=DIRECTION('ref_axis',(0.,1.,0.));
#1816=DIRECTION('',(0.,0.,-1.));
#1817=DIRECTION('',(0.,-1.,0.));
#1818=DIRECTION('center_axis',(0.,-1.,0.));
#1819=DIRECTION('ref_axis',(-1.,0.,0.));
#1820=DIRECTION('',(0.,0.,-1.));
#1821=DIRECTION('',(1.,0.,0.));
#1822=DIRECTION('center_axis',(3.03029143534673E-16,1.,0.));
#1823=DIRECTION('ref_axis',(1.,-3.03029143534673E-16,0.));
#1824=DIRECTION('',(0.,0.,-1.));
#1825=DIRECTION('',(1.,-3.03029143534673E-16,0.));
#1826=DIRECTION('',(0.,0.,-1.));
#1827=DIRECTION('center_axis',(0.,0.,-1.));
#1828=DIRECTION('ref_axis',(-1.,0.,0.));
#1829=DIRECTION('',(0.,-1.,0.));
#1830=DIRECTION('',(-1.,-1.51514571767336E-16,0.));
#1831=DIRECTION('',(0.,1.,0.));
#1832=DIRECTION('center_axis',(-1.,0.,0.));
#1833=DIRECTION('ref_axis',(0.,1.,0.));
#1834=DIRECTION('',(0.,0.,-1.));
#1835=DIRECTION('',(0.,1.,0.));
#1836=DIRECTION('center_axis',(1.,0.,0.));
#1837=DIRECTION('ref_axis',(0.,-1.,0.));
#1838=DIRECTION('',(0.,-1.,0.));
#1839=DIRECTION('',(0.,0.,-1.));
#1840=DIRECTION('center_axis',(-1.51514571767336E-16,1.,0.));
#1841=DIRECTION('ref_axis',(1.,1.51514571767336E-16,0.));
#1842=DIRECTION('',(1.,1.51514571767336E-16,0.));
#1843=DIRECTION('center_axis',(1.,-2.22044604925031E-16,0.));
#1844=DIRECTION('ref_axis',(2.22044604925031E-16,1.,0.));
#1845=DIRECTION('',(0.,0.,1.));
#1846=DIRECTION('',(2.22044604925031E-16,1.,0.));
#1847=DIRECTION('center_axis',(0.,-1.,0.));
#1848=DIRECTION('ref_axis',(1.,0.,0.));
#1849=DIRECTION('',(1.,0.,0.));
#1850=DIRECTION('center_axis',(0.,0.,1.));
#1851=DIRECTION('ref_axis',(1.,0.,0.));
#1852=DIRECTION('center_axis',(-1.,-2.03540887847945E-16,0.));
#1853=DIRECTION('ref_axis',(-2.03540887847945E-16,1.,0.));
#1854=DIRECTION('',(0.,0.,-1.));
#1855=DIRECTION('',(-2.03540887847945E-16,1.,0.));
#1856=DIRECTION('',(0.,0.,-1.));
#1857=DIRECTION('center_axis',(0.,-1.,0.));
#1858=DIRECTION('ref_axis',(-1.,0.,0.));
#1859=DIRECTION('',(-1.,0.,0.));
#1860=DIRECTION('',(0.,0.,-1.));
#1861=DIRECTION('center_axis',(1.,0.,0.));
#1862=DIRECTION('ref_axis',(0.,-1.,0.));
#1863=DIRECTION('',(0.,-1.,0.));
#1864=DIRECTION('',(0.,0.,-1.));
#1865=DIRECTION('center_axis',(0.,1.,0.));
#1866=DIRECTION('ref_axis',(1.,0.,0.));
#1867=DIRECTION('',(1.,0.,0.));
#1868=DIRECTION('center_axis',(0.,0.,-1.));
#1869=DIRECTION('ref_axis',(1.,0.,0.));
#1870=DIRECTION('center_axis',(0.,0.,-1.));
#1871=DIRECTION('ref_axis',(1.,0.,0.));
#1872=DIRECTION('',(0.,0.,-1.));
#1873=DIRECTION('center_axis',(0.,0.,-1.));
#1874=DIRECTION('ref_axis',(1.,0.,0.));
#1875=DIRECTION('center_axis',(0.,0.,-1.));
#1876=DIRECTION('ref_axis',(1.,0.,0.));
#1877=DIRECTION('',(0.,0.,-1.));
#1878=DIRECTION('center_axis',(0.,0.,-1.));
#1879=DIRECTION('ref_axis',(1.,0.,0.));
#1880=DIRECTION('center_axis',(0.,0.,-1.));
#1881=DIRECTION('ref_axis',(1.,0.,0.));
#1882=DIRECTION('',(0.,0.,-1.));
#1883=DIRECTION('center_axis',(0.,0.,-1.));
#1884=DIRECTION('ref_axis',(1.,0.,0.));
#1885=DIRECTION('center_axis',(0.,0.,-1.));
#1886=DIRECTION('ref_axis',(1.,0.,0.));
#1887=DIRECTION('',(0.,0.,-1.));
#1888=DIRECTION('center_axis',(0.,0.,-1.));
#1889=DIRECTION('ref_axis',(1.,0.,0.));
#1890=DIRECTION('center_axis',(0.,0.,-1.));
#1891=DIRECTION('ref_axis',(1.,0.,0.));
#1892=DIRECTION('',(0.,0.,-1.));
#1893=DIRECTION('center_axis',(0.,0.,-1.));
#1894=DIRECTION('ref_axis',(1.,0.,0.));
#1895=DIRECTION('center_axis',(0.,0.,-1.));
#1896=DIRECTION('ref_axis',(1.,0.,0.));
#1897=DIRECTION('',(0.,0.,-1.));
#1898=DIRECTION('center_axis',(0.,0.,-1.));
#1899=DIRECTION('ref_axis',(1.,0.,0.));
#1900=DIRECTION('center_axis',(0.,0.,-1.));
#1901=DIRECTION('ref_axis',(1.,0.,0.));
#1902=DIRECTION('',(0.,0.,-1.));
#1903=DIRECTION('center_axis',(0.,0.,-1.));
#1904=DIRECTION('ref_axis',(1.,0.,0.));
#1905=DIRECTION('center_axis',(0.,0.,-1.));
#1906=DIRECTION('ref_axis',(1.,0.,0.));
#1907=DIRECTION('',(0.,0.,-1.));
#1908=DIRECTION('center_axis',(0.,0.,-1.));
#1909=DIRECTION('ref_axis',(1.,0.,0.));
#1910=DIRECTION('center_axis',(0.,0.,-1.));
#1911=DIRECTION('ref_axis',(1.,0.,0.));
#1912=DIRECTION('',(0.,0.,-1.));
#1913=DIRECTION('center_axis',(0.,1.,0.));
#1914=DIRECTION('ref_axis',(1.,0.,0.));
#1915=DIRECTION('',(1.,0.,0.));
#1916=DIRECTION('',(0.,0.,-1.));
#1917=DIRECTION('center_axis',(1.,0.,0.));
#1918=DIRECTION('ref_axis',(0.,-1.,0.));
#1919=DIRECTION('',(0.,-1.,0.));
#1920=DIRECTION('center_axis',(0.,0.,1.));
#1921=DIRECTION('ref_axis',(1.,0.,0.));
#1922=DIRECTION('center_axis',(0.,0.,-1.));
#1923=DIRECTION('ref_axis',(-1.,0.,0.));
#1924=DIRECTION('center_axis',(0.,0.,-1.));
#1925=DIRECTION('ref_axis',(-1.,0.,0.));
#1926=DIRECTION('center_axis',(0.,0.,-1.));
#1927=DIRECTION('ref_axis',(-1.,0.,0.));
#1928=DIRECTION('center_axis',(0.,0.,-1.));
#1929=DIRECTION('ref_axis',(-1.,0.,0.));
#1930=DIRECTION('center_axis',(0.,0.,1.));
#1931=DIRECTION('ref_axis',(-1.,0.,0.));
#1932=DIRECTION('',(0.,0.,-1.));
#1933=DIRECTION('center_axis',(0.,0.,1.));
#1934=DIRECTION('ref_axis',(-1.,0.,0.));
#1935=DIRECTION('center_axis',(0.,0.,1.));
#1936=DIRECTION('ref_axis',(-1.,0.,0.));
#1937=DIRECTION('',(0.,0.,-1.));
#1938=DIRECTION('center_axis',(0.,0.,1.));
#1939=DIRECTION('ref_axis',(-1.,0.,0.));
#1940=DIRECTION('center_axis',(0.,0.,1.));
#1941=DIRECTION('ref_axis',(-1.,0.,0.));
#1942=DIRECTION('',(0.,0.,-1.));
#1943=DIRECTION('center_axis',(0.,0.,1.));
#1944=DIRECTION('ref_axis',(-1.,0.,0.));
#1945=DIRECTION('center_axis',(0.,0.,1.));
#1946=DIRECTION('ref_axis',(-1.,0.,0.));
#1947=DIRECTION('',(0.,0.,-1.));
#1948=DIRECTION('center_axis',(0.,0.,1.));
#1949=DIRECTION('ref_axis',(-1.,0.,0.));
#1950=DIRECTION('center_axis',(0.,0.,1.));
#1951=DIRECTION('ref_axis',(1.,0.,0.));
#1952=DIRECTION('center_axis',(0.,0.,-1.));
#1953=DIRECTION('ref_axis',(-1.,0.,0.));
#1954=DIRECTION('center_axis',(0.,0.,1.));
#1955=DIRECTION('ref_axis',(1.,0.,0.));
#1956=DIRECTION('center_axis',(0.,0.,-1.));
#1957=DIRECTION('ref_axis',(-1.,0.,0.));
#1958=DIRECTION('center_axis',(0.,0.,1.));
#1959=DIRECTION('ref_axis',(1.,0.,0.));
#1960=DIRECTION('center_axis',(0.,0.,-1.));
#1961=DIRECTION('ref_axis',(-1.,0.,0.));
#1962=DIRECTION('center_axis',(0.,0.,1.));
#1963=DIRECTION('ref_axis',(-1.,0.,0.));
#1964=DIRECTION('',(0.,0.,-1.));
#1965=DIRECTION('center_axis',(0.,0.,1.));
#1966=DIRECTION('ref_axis',(-1.,0.,0.));
#1967=DIRECTION('',(0.,0.,-1.));
#1968=DIRECTION('center_axis',(0.,0.,1.));
#1969=DIRECTION('ref_axis',(-1.,0.,0.));
#1970=DIRECTION('',(0.,0.,-1.));
#1971=DIRECTION('center_axis',(0.,0.,1.));
#1972=DIRECTION('ref_axis',(-1.,0.,0.));
#1973=DIRECTION('center_axis',(0.,0.,-1.));
#1974=DIRECTION('ref_axis',(-1.,0.,0.));
#1975=DIRECTION('',(0.,0.,-1.));
#1976=DIRECTION('center_axis',(0.,0.,1.));
#1977=DIRECTION('ref_axis',(1.,0.,0.));
#1978=CARTESIAN_POINT('',(0.,0.,0.));
#1979=CARTESIAN_POINT('Origin',(19.25,43.307,-12.5));
#1980=CARTESIAN_POINT('',(33.555,46.1465,-12.5));
#1981=CARTESIAN_POINT('',(33.555,40.4675,-12.5));
#1982=CARTESIAN_POINT('',(33.555,46.1465,-12.5));
#1983=CARTESIAN_POINT('',(32.055,40.4675,-12.5));
#1984=CARTESIAN_POINT('',(33.555,40.4675,-12.5));
#1985=CARTESIAN_POINT('',(32.055,44.6465,-12.5));
#1986=CARTESIAN_POINT('',(32.055,40.4675,-12.5));
#1987=CARTESIAN_POINT('',(4.945,44.6465,-12.5));
#1988=CARTESIAN_POINT('',(32.055,44.6465,-12.5));
#1989=CARTESIAN_POINT('',(4.945,46.1465,-12.5));
#1990=CARTESIAN_POINT('',(4.945,44.6465,-12.5));
#1991=CARTESIAN_POINT('',(4.945,46.1465,-12.5));
#1992=CARTESIAN_POINT('Origin',(31.3835,-8.05949999999998,-12.5));
#1993=CARTESIAN_POINT('',(33.555,-46.1465,-12.5));
#1994=CARTESIAN_POINT('',(29.212,-46.1465,-12.5));
#1995=CARTESIAN_POINT('',(33.555,-46.1465,-12.5));
#1996=CARTESIAN_POINT('',(29.212,-32.7635,-12.5));
#1997=CARTESIAN_POINT('',(29.212,-46.1465,-12.5));
#1998=CARTESIAN_POINT('',(32.055,-32.7635,-12.5));
#1999=CARTESIAN_POINT('',(29.212,-32.7635,-12.5));
#2000=CARTESIAN_POINT('',(32.055,30.0275,-12.5));
#2001=CARTESIAN_POINT('',(32.055,-32.7635,-12.5));
#2002=CARTESIAN_POINT('',(33.555,30.0275,-12.5));
#2003=CARTESIAN_POINT('',(32.055,30.0275,-12.5));
#2004=CARTESIAN_POINT('',(33.555,30.0275,-12.5));
#2005=CARTESIAN_POINT('Origin',(-24.79,0.,-12.5));
#2006=CARTESIAN_POINT('',(-16.025,44.6465,-12.5));
#2007=CARTESIAN_POINT('',(-32.055,44.6465,-12.5));
#2008=CARTESIAN_POINT('',(-16.025,44.6465,-12.5));
#2009=CARTESIAN_POINT('',(-32.055,-32.7635,-12.5));
#2010=CARTESIAN_POINT('',(-32.055,44.6465,-12.5));
#2011=CARTESIAN_POINT('',(-29.408,-32.7635,-12.5));
#2012=CARTESIAN_POINT('',(-32.055,-32.7635,-12.5));
#2013=CARTESIAN_POINT('',(-29.408,-46.1465,-12.5));
#2014=CARTESIAN_POINT('',(-29.408,-32.7635,-12.5));
#2015=CARTESIAN_POINT('',(-33.555,-46.1465,-12.5));
#2016=CARTESIAN_POINT('',(-29.408,-46.1465,-12.5));
#2017=CARTESIAN_POINT('',(-33.555,46.1465,-12.5));
#2018=CARTESIAN_POINT('',(-33.555,-46.1465,-12.5));
#2019=CARTESIAN_POINT('',(-16.025,46.1465,-12.5));
#2020=CARTESIAN_POINT('',(-33.555,46.1465,-12.5));
#2021=CARTESIAN_POINT('',(-16.025,46.1465,-12.5));
#2022=CARTESIAN_POINT('Origin',(24.394,4.4405,0.));
#2023=CARTESIAN_POINT('',(27.394,4.4405,-0.5));
#2024=CARTESIAN_POINT('Origin',(24.394,4.4405,-0.5));
#2025=CARTESIAN_POINT('',(27.394,4.4405,0.));
#2026=CARTESIAN_POINT('',(27.394,4.4405,0.));
#2027=CARTESIAN_POINT('Origin',(24.394,4.4405,0.));
#2028=CARTESIAN_POINT('Origin',(24.394,4.4405,-0.5));
#2029=CARTESIAN_POINT('',(26.094,4.4405,-0.5));
#2030=CARTESIAN_POINT('Origin',(24.394,4.4405,-0.5));
#2031=CARTESIAN_POINT('Origin',(-24.107,-19.5595,0.));
#2032=CARTESIAN_POINT('',(-21.107,-19.5595,-0.5));
#2033=CARTESIAN_POINT('Origin',(-24.107,-19.5595,-0.5));
#2034=CARTESIAN_POINT('',(-21.107,-19.5595,0.));
#2035=CARTESIAN_POINT('',(-21.107,-19.5595,0.));
#2036=CARTESIAN_POINT('Origin',(-24.107,-19.5595,0.));
#2037=CARTESIAN_POINT('Origin',(-24.107,-19.5595,-0.5));
#2038=CARTESIAN_POINT('',(-22.407,-19.5595,-0.5));
#2039=CARTESIAN_POINT('Origin',(-24.107,-19.5595,-0.5));
#2040=CARTESIAN_POINT('Origin',(24.394,-19.5595,0.));
#2041=CARTESIAN_POINT('',(27.394,-19.5595,-0.5));
#2042=CARTESIAN_POINT('Origin',(24.394,-19.5595,-0.5));
#2043=CARTESIAN_POINT('',(27.394,-19.5595,0.));
#2044=CARTESIAN_POINT('',(27.394,-19.5595,0.));
#2045=CARTESIAN_POINT('Origin',(24.394,-19.5595,0.));
#2046=CARTESIAN_POINT('Origin',(24.394,-19.5595,-0.5));
#2047=CARTESIAN_POINT('',(26.094,-19.5595,-0.5));
#2048=CARTESIAN_POINT('Origin',(24.394,-19.5595,-0.5));
#2049=CARTESIAN_POINT('Origin',(-24.107,4.44049999999999,0.));
#2050=CARTESIAN_POINT('',(-21.107,4.44049999999999,-0.5));
#2051=CARTESIAN_POINT('Origin',(-24.107,4.44049999999999,-0.5));
#2052=CARTESIAN_POINT('',(-21.107,4.44049999999999,0.));
#2053=CARTESIAN_POINT('',(-21.107,4.44049999999999,0.));
#2054=CARTESIAN_POINT('Origin',(-24.107,4.44049999999999,0.));
#2055=CARTESIAN_POINT('Origin',(-24.107,4.44049999999999,-0.5));
#2056=CARTESIAN_POINT('',(-22.407,4.44049999999999,-0.5));
#2057=CARTESIAN_POINT('Origin',(-24.107,4.44049999999999,-0.5));
#2058=CARTESIAN_POINT('Origin',(33.555,40.4675,-8.5));
#2059=CARTESIAN_POINT('',(32.055,40.4675,-8.5));
#2060=CARTESIAN_POINT('',(32.055,40.4675,-4.25));
#2061=CARTESIAN_POINT('',(33.555,40.4675,-8.5));
#2062=CARTESIAN_POINT('',(33.555,40.4675,-4.25));
#2063=CARTESIAN_POINT('',(33.555,40.4675,-8.5));
#2064=CARTESIAN_POINT('Origin',(33.555,30.0275,-8.50000000000001));
#2065=CARTESIAN_POINT('',(32.055,30.0275,-8.50000000000001));
#2066=CARTESIAN_POINT('',(32.055,-7.30949999999998,-8.50000000000002));
#2067=CARTESIAN_POINT('',(33.555,30.0275,-8.50000000000001));
#2068=CARTESIAN_POINT('',(33.555,38.087,-8.5));
#2069=CARTESIAN_POINT('',(33.555,30.0275,-8.50000000000001));
#2070=CARTESIAN_POINT('Origin',(33.555,30.0275,-11.5));
#2071=CARTESIAN_POINT('',(32.055,30.0275,-5.75));
#2072=CARTESIAN_POINT('',(33.555,30.0275,-5.75));
#2073=CARTESIAN_POINT('Origin',(32.055,-44.6465,0.));
#2074=CARTESIAN_POINT('',(32.055,-32.7635,0.));
#2075=CARTESIAN_POINT('',(32.055,-32.7635,0.));
#2076=CARTESIAN_POINT('',(32.055,44.6465,0.));
#2077=CARTESIAN_POINT('',(32.055,-44.6465,0.));
#2078=CARTESIAN_POINT('',(32.055,44.6465,0.));
#2079=CARTESIAN_POINT('Origin',(33.555,46.1465,0.));
#2080=CARTESIAN_POINT('',(33.555,46.1465,3.));
#2081=CARTESIAN_POINT('',(33.555,46.1465,0.));
#2082=CARTESIAN_POINT('',(33.555,-46.1465,3.));
#2083=CARTESIAN_POINT('',(33.555,46.1465,3.));
#2084=CARTESIAN_POINT('',(33.555,-46.1465,0.));
#2085=CARTESIAN_POINT('Origin',(-5.525,33.3519999999989,1.3));
#2086=CARTESIAN_POINT('',(-1.025,43.0575,1.3));
#2087=CARTESIAN_POINT('',(7.72500000000001,43.0575,1.3));
#2088=CARTESIAN_POINT('',(-3.275,43.0575,1.3));
#2089=CARTESIAN_POINT('',(-1.025,44.6465,1.3));
#2090=CARTESIAN_POINT('',(-1.025,40.2047499999994,1.3));
#2091=CARTESIAN_POINT('',(-10.025,44.6465,1.3));
#2092=CARTESIAN_POINT('',(13.265,44.6465,1.3));
#2093=CARTESIAN_POINT('',(-10.025,43.0575,1.3));
#2094=CARTESIAN_POINT('',(-10.025,38.2047499999994,1.3));
#2095=CARTESIAN_POINT('',(-18.775,43.0575,1.3));
#2096=CARTESIAN_POINT('',(-12.15,43.0575,1.3));
#2097=CARTESIAN_POINT('',(-18.775,46.1465,1.3));
#2098=CARTESIAN_POINT('',(-18.775,20.5574999999977,1.3));
#2099=CARTESIAN_POINT('',(7.72500000000001,46.1465,1.3));
#2100=CARTESIAN_POINT('',(-19.54,46.1465,1.3));
#2101=CARTESIAN_POINT('',(7.72500000000001,46.1465,1.3));
#2102=CARTESIAN_POINT('Origin',(-5.525,33.3519999999989,1.3));
#2103=CARTESIAN_POINT('',(7.72500000000001,25.0575,1.3));
#2104=CARTESIAN_POINT('',(-18.775,25.0575,1.3));
#2105=CARTESIAN_POINT('',(1.1,25.0575,1.3));
#2106=CARTESIAN_POINT('',(7.72499999999985,20.5574999999977,1.3));
#2107=CARTESIAN_POINT('',(7.72500000000001,46.1465,1.3));
#2108=CARTESIAN_POINT('',(-18.775,20.5574999999977,1.3));
#2109=CARTESIAN_POINT('',(7.72499999999985,20.5574999999977,1.3));
#2110=CARTESIAN_POINT('',(-18.775,20.5574999999977,1.3));
#2111=CARTESIAN_POINT('',(-0.195000000000003,23.5575,1.3));
#2112=CARTESIAN_POINT('',(-0.195000000000004,21.0575,1.3));
#2113=CARTESIAN_POINT('',(-0.195000000000002,27.2047499999994,1.3));
#2114=CARTESIAN_POINT('',(-10.855,23.5575,1.3));
#2115=CARTESIAN_POINT('',(-2.86,23.5575,1.3));
#2116=CARTESIAN_POINT('',(-10.855,21.0575,1.3));
#2117=CARTESIAN_POINT('',(-10.855,28.4547499999994,1.3));
#2118=CARTESIAN_POINT('',(-8.19,21.0575,1.3));
#2119=CARTESIAN_POINT('Origin',(-18.775,20.5574999999977,0.));
#2120=CARTESIAN_POINT('',(-18.775,20.5574999999977,0.));
#2121=CARTESIAN_POINT('',(7.72499999999985,20.5574999999977,0.));
#2122=CARTESIAN_POINT('',(-9.3875,20.5574999999977,0.));
#2123=CARTESIAN_POINT('',(-18.775,20.5574999999977,0.));
#2124=CARTESIAN_POINT('',(7.72499999999985,20.5574999999977,0.));
#2125=CARTESIAN_POINT('Origin',(-4.44089209850063E-15,4.44089209850063E-15,
0.));
#2126=CARTESIAN_POINT('',(-18.775,44.6465,0.));
#2127=CARTESIAN_POINT('',(-18.775,23.07325,0.));
#2128=CARTESIAN_POINT('',(7.72500000000001,44.6465,0.));
#2129=CARTESIAN_POINT('',(7.72500000000001,10.2787499999988,0.));
#2130=CARTESIAN_POINT('',(32.055,44.6465,0.));
#2131=CARTESIAN_POINT('',(-32.055,-32.7635,0.));
#2132=CARTESIAN_POINT('',(14.606,-32.7635,0.));
#2133=CARTESIAN_POINT('',(-32.055,44.6465,0.));
#2134=CARTESIAN_POINT('',(-32.055,44.6465,0.));
#2135=CARTESIAN_POINT('',(32.055,44.6465,0.));
#2136=CARTESIAN_POINT('',(11.894,-21.2595,0.));
#2137=CARTESIAN_POINT('',(11.894,-6.2595,0.));
#2138=CARTESIAN_POINT('',(11.894,-3.12975,0.));
#2139=CARTESIAN_POINT('',(1.39399999999999,-6.2595,0.));
#2140=CARTESIAN_POINT('',(0.696999999999991,-6.2595,0.));
#2141=CARTESIAN_POINT('',(1.39399999999999,-21.2595,0.));
#2142=CARTESIAN_POINT('',(1.39399999999999,-10.62975,0.));
#2143=CARTESIAN_POINT('',(5.94699999999999,-21.2595,0.));
#2144=CARTESIAN_POINT('',(10.108,21.3885,0.));
#2145=CARTESIAN_POINT('Origin',(12.608,21.3885,0.));
#2146=CARTESIAN_POINT('',(27.639,26.6255,0.));
#2147=CARTESIAN_POINT('Origin',(28.639,26.6255,0.));
#2148=CARTESIAN_POINT('',(-26.569,38.3445,0.));
#2149=CARTESIAN_POINT('Origin',(-23.869,38.3445,0.));
#2150=CARTESIAN_POINT('',(-26.569,24.5015,0.));
#2151=CARTESIAN_POINT('Origin',(-23.869,24.5015,0.));
#2152=CARTESIAN_POINT('',(10.108,30.2185,0.));
#2153=CARTESIAN_POINT('Origin',(12.608,30.2185,0.));
#2154=CARTESIAN_POINT('',(10.108,39.1095,0.));
#2155=CARTESIAN_POINT('Origin',(12.608,39.1095,0.));
#2156=CARTESIAN_POINT('',(-26.569,31.3595,0.));
#2157=CARTESIAN_POINT('Origin',(-23.869,31.3595,0.));
#2158=CARTESIAN_POINT('',(27.639,23.2155,0.));
#2159=CARTESIAN_POINT('Origin',(28.639,23.2155,0.));
#2160=CARTESIAN_POINT('',(19.082,21.3885,0.));
#2161=CARTESIAN_POINT('Origin',(21.582,21.3885,0.));
#2162=CARTESIAN_POINT('Origin',(7.72500000000001,25.0575,3.));
#2163=CARTESIAN_POINT('',(-18.775,25.0575,3.));
#2164=CARTESIAN_POINT('',(-18.775,25.0575,3.));
#2165=CARTESIAN_POINT('',(7.725,25.0575,3.));
#2166=CARTESIAN_POINT('',(3.8625,25.0575,3.));
#2167=CARTESIAN_POINT('',(7.725,25.0575,3.));
#2168=CARTESIAN_POINT('Origin',(-18.775,43.0575,3.));
#2169=CARTESIAN_POINT('',(-10.025,43.0575,3.));
#2170=CARTESIAN_POINT('',(-10.025,43.0575,3.));
#2171=CARTESIAN_POINT('',(-18.775,43.0575,3.));
#2172=CARTESIAN_POINT('',(-9.3875,43.0575,3.));
#2173=CARTESIAN_POINT('',(-18.775,43.0575,3.));
#2174=CARTESIAN_POINT('Origin',(-10.025,43.0575,3.));
#2175=CARTESIAN_POINT('',(-10.025,44.6465,3.));
#2176=CARTESIAN_POINT('',(-10.025,44.6465,1.5));
#2177=CARTESIAN_POINT('',(-10.025,21.52875,3.));
#2178=CARTESIAN_POINT('Origin',(-10.855,23.5575,0.));
#2179=CARTESIAN_POINT('',(-10.855,23.5575,2.8));
#2180=CARTESIAN_POINT('',(-10.855,23.5575,0.));
#2181=CARTESIAN_POINT('',(-10.855,21.0575,2.8));
#2182=CARTESIAN_POINT('',(-10.855,21.0575,2.8));
#2183=CARTESIAN_POINT('',(-10.855,21.0575,0.));
#2184=CARTESIAN_POINT('Origin',(-0.195000000000003,23.5575,0.));
#2185=CARTESIAN_POINT('',(-0.195000000000003,23.5575,2.8));
#2186=CARTESIAN_POINT('',(-0.195000000000003,23.5575,0.));
#2187=CARTESIAN_POINT('',(-10.855,23.5575,2.8));
#2188=CARTESIAN_POINT('Origin',(4.945,46.1465,-11.5));
#2189=CARTESIAN_POINT('',(4.945,44.6465,-10.5));
#2190=CARTESIAN_POINT('',(4.945,44.6465,-5.75));
#2191=CARTESIAN_POINT('',(4.945,46.1465,-10.5));
#2192=CARTESIAN_POINT('',(4.945,46.1465,-10.5));
#2193=CARTESIAN_POINT('',(4.945,46.1465,-5.75));
#2194=CARTESIAN_POINT('Origin',(-16.025,46.1465,-10.5));
#2195=CARTESIAN_POINT('',(-16.025,44.6465,-10.5));
#2196=CARTESIAN_POINT('',(-16.025,44.6465,-5.24999999999989));
#2197=CARTESIAN_POINT('',(-16.025,46.1465,-10.5));
#2198=CARTESIAN_POINT('',(-16.025,46.1465,-5.25000000000004));
#2199=CARTESIAN_POINT('',(-16.025,46.1465,-10.5));
#2200=CARTESIAN_POINT('Origin',(4.945,46.1465,-10.5));
#2201=CARTESIAN_POINT('',(18.5,44.6465,-10.5));
#2202=CARTESIAN_POINT('',(-14.305,46.1465,-10.5));
#2203=CARTESIAN_POINT('Origin',(-33.555,46.1465,0.));
#2204=CARTESIAN_POINT('',(-33.555,46.1465,3.));
#2205=CARTESIAN_POINT('',(-33.555,46.1465,0.));
#2206=CARTESIAN_POINT('',(-33.555,46.1465,3.));
#2207=CARTESIAN_POINT('',(-18.775,46.1465,-1.3));
#2208=CARTESIAN_POINT('',(-18.775,46.1465,0.));
#2209=CARTESIAN_POINT('',(7.72500000000001,46.1465,-1.3));
#2210=CARTESIAN_POINT('',(-26.165,46.1465,-1.3));
#2211=CARTESIAN_POINT('',(7.72500000000001,46.1465,0.));
#2212=CARTESIAN_POINT('Origin',(-18.775,46.1465,0.));
#2213=CARTESIAN_POINT('',(-18.775,44.6465,-1.3));
#2214=CARTESIAN_POINT('',(-18.775,44.6465,0.));
#2215=CARTESIAN_POINT('',(-18.775,46.1465,-1.3));
#2216=CARTESIAN_POINT('',(-18.775,12.52875,3.));
#2217=CARTESIAN_POINT('Origin',(7.72500000000001,46.1465,-1.3));
#2218=CARTESIAN_POINT('',(7.72500000000001,44.6465,-1.3));
#2219=CARTESIAN_POINT('',(7.72500000000001,44.6465,-0.650000000000001));
#2220=CARTESIAN_POINT('',(7.725,43.0575,3.));
#2221=CARTESIAN_POINT('',(7.72500000000001,21.52875,3.));
#2222=CARTESIAN_POINT('',(7.725,43.0575,3.));
#2223=CARTESIAN_POINT('',(7.72500000000001,46.1465,-1.3));
#2224=CARTESIAN_POINT('Origin',(-18.775,46.1465,-1.3));
#2225=CARTESIAN_POINT('',(6.64,44.6465,-1.3));
#2226=CARTESIAN_POINT('Origin',(32.055,44.6465,0.));
#2227=CARTESIAN_POINT('',(-1.025,44.6465,3.));
#2228=CARTESIAN_POINT('',(-1.025,44.6465,1.5));
#2229=CARTESIAN_POINT('',(32.055,44.6465,3.));
#2230=CARTESIAN_POINT('Origin',(32.055,44.6465,0.));
#2231=CARTESIAN_POINT('',(-32.055,44.6465,0.));
#2232=CARTESIAN_POINT('Origin',(-32.055,44.6465,0.));
#2233=CARTESIAN_POINT('',(-32.055,-32.7635,0.));
#2234=CARTESIAN_POINT('Origin',(33.555,-46.1465,0.));
#2235=CARTESIAN_POINT('',(29.212,-46.1465,3.));
#2236=CARTESIAN_POINT('',(29.212,-46.1465,0.));
#2237=CARTESIAN_POINT('',(33.555,-46.1465,3.));
#2238=CARTESIAN_POINT('Origin',(-33.555,-46.1465,0.));
#2239=CARTESIAN_POINT('',(-33.555,-46.1465,3.));
#2240=CARTESIAN_POINT('',(-33.555,-46.1465,0.));
#2241=CARTESIAN_POINT('',(-33.555,-46.1465,3.));
#2242=CARTESIAN_POINT('Origin',(-29.408,-46.1465,0.));
#2243=CARTESIAN_POINT('',(-29.408,-46.1465,3.));
#2244=CARTESIAN_POINT('',(-29.408,-46.1465,0.));
#2245=CARTESIAN_POINT('',(-29.408,-46.1465,3.));
#2246=CARTESIAN_POINT('Origin',(-29.408,-32.7635,0.));
#2247=CARTESIAN_POINT('',(29.212,-32.7635,-3.));
#2248=CARTESIAN_POINT('',(29.212,-32.7635,0.));
#2249=CARTESIAN_POINT('',(-29.408,-32.7635,-3.));
#2250=CARTESIAN_POINT('',(-29.408,-32.7635,-3.));
#2251=CARTESIAN_POINT('',(-29.408,-32.7635,0.));
#2252=CARTESIAN_POINT('Origin',(-0.098000000000007,-33.7635,-3.));
#2253=CARTESIAN_POINT('',(29.212,-34.7635,-3.));
#2254=CARTESIAN_POINT('',(29.212,-32.7635,-3.));
#2255=CARTESIAN_POINT('',(-29.408,-34.7635,-3.));
#2256=CARTESIAN_POINT('',(29.212,-34.7635,-3.));
#2257=CARTESIAN_POINT('',(-29.408,-34.7635,-3.));
#2258=CARTESIAN_POINT('Origin',(-29.408,-44.6465,3.));
#2259=CARTESIAN_POINT('',(-29.408,-34.7635,3.));
#2260=CARTESIAN_POINT('',(-29.408,-34.7635,0.));
#2261=CARTESIAN_POINT('',(-29.408,-44.6465,3.));
#2262=CARTESIAN_POINT('Origin',(29.212,-34.7635,3.));
#2263=CARTESIAN_POINT('',(29.212,-34.7635,3.));
#2264=CARTESIAN_POINT('',(29.212,-46.1465,3.));
#2265=CARTESIAN_POINT('',(29.212,-34.7635,0.));
#2266=CARTESIAN_POINT('Origin',(-29.408,-34.7635,3.));
#2267=CARTESIAN_POINT('',(-14.704,-34.7635,3.));
#2268=CARTESIAN_POINT('Origin',(-0.195000000000004,21.0575,0.));
#2269=CARTESIAN_POINT('',(-0.195000000000003,21.0575,2.8));
#2270=CARTESIAN_POINT('',(-0.195000000000004,21.0575,0.));
#2271=CARTESIAN_POINT('',(-0.195000000000003,23.5575,2.8));
#2272=CARTESIAN_POINT('Origin',(-10.855,21.0575,0.));
#2273=CARTESIAN_POINT('',(-0.195000000000003,21.0575,2.8));
#2274=CARTESIAN_POINT('Origin',(-5.525,22.3075,2.8));
#2275=CARTESIAN_POINT('Origin',(1.39399999999999,-21.2595,3.));
#2276=CARTESIAN_POINT('',(1.39399999999999,-6.2595,3.));
#2277=CARTESIAN_POINT('',(1.39399999999999,-6.2595,3.));
#2278=CARTESIAN_POINT('',(1.39399999999999,-21.2595,3.));
#2279=CARTESIAN_POINT('',(1.39399999999999,-10.62975,3.));
#2280=CARTESIAN_POINT('',(1.39399999999999,-21.2595,3.));
#2281=CARTESIAN_POINT('Origin',(11.894,-21.2595,3.));
#2282=CARTESIAN_POINT('',(11.894,-21.2595,3.));
#2283=CARTESIAN_POINT('',(5.94699999999999,-21.2595,3.));
#2284=CARTESIAN_POINT('',(11.894,-21.2595,3.));
#2285=CARTESIAN_POINT('Origin',(11.894,-6.2595,3.));
#2286=CARTESIAN_POINT('',(11.894,-6.2595,3.));
#2287=CARTESIAN_POINT('',(11.894,-3.12974999999999,3.));
#2288=CARTESIAN_POINT('',(11.894,-6.2595,3.));
#2289=CARTESIAN_POINT('Origin',(1.39399999999999,-6.2595,3.));
#2290=CARTESIAN_POINT('',(0.696999999999991,-6.2595,3.));
#2291=CARTESIAN_POINT('Origin',(12.608,21.3885,3.));
#2292=CARTESIAN_POINT('',(10.108,21.3885,3.));
#2293=CARTESIAN_POINT('Origin',(12.608,21.3885,3.));
#2294=CARTESIAN_POINT('',(10.108,21.3885,3.));
#2295=CARTESIAN_POINT('Origin',(28.639,26.6255,3.));
#2296=CARTESIAN_POINT('',(27.639,26.6255,3.));
#2297=CARTESIAN_POINT('Origin',(28.639,26.6255,3.));
#2298=CARTESIAN_POINT('',(27.639,26.6255,3.));
#2299=CARTESIAN_POINT('Origin',(-23.869,38.3445,3.));
#2300=CARTESIAN_POINT('',(-26.569,38.3445,3.));
#2301=CARTESIAN_POINT('Origin',(-23.869,38.3445,3.));
#2302=CARTESIAN_POINT('',(-26.569,38.3445,3.));
#2303=CARTESIAN_POINT('Origin',(-23.869,24.5015,3.));
#2304=CARTESIAN_POINT('',(-26.569,24.5015,3.));
#2305=CARTESIAN_POINT('Origin',(-23.869,24.5015,3.));
#2306=CARTESIAN_POINT('',(-26.569,24.5015,3.));
#2307=CARTESIAN_POINT('Origin',(12.608,30.2185,3.));
#2308=CARTESIAN_POINT('',(10.108,30.2185,3.));
#2309=CARTESIAN_POINT('Origin',(12.608,30.2185,3.));
#2310=CARTESIAN_POINT('',(10.108,30.2185,3.));
#2311=CARTESIAN_POINT('Origin',(12.608,39.1095,3.));
#2312=CARTESIAN_POINT('',(10.108,39.1095,3.));
#2313=CARTESIAN_POINT('Origin',(12.608,39.1095,3.));
#2314=CARTESIAN_POINT('',(10.108,39.1095,3.));
#2315=CARTESIAN_POINT('Origin',(-23.869,31.3595,3.));
#2316=CARTESIAN_POINT('',(-26.569,31.3595,3.));
#2317=CARTESIAN_POINT('Origin',(-23.869,31.3595,3.));
#2318=CARTESIAN_POINT('',(-26.569,31.3595,3.));
#2319=CARTESIAN_POINT('Origin',(28.639,23.2155,3.));
#2320=CARTESIAN_POINT('',(27.639,23.2155,3.));
#2321=CARTESIAN_POINT('Origin',(28.639,23.2155,3.));
#2322=CARTESIAN_POINT('',(27.639,23.2155,3.));
#2323=CARTESIAN_POINT('Origin',(21.582,21.3885,3.));
#2324=CARTESIAN_POINT('',(19.082,21.3885,3.));
#2325=CARTESIAN_POINT('Origin',(21.582,21.3885,3.));
#2326=CARTESIAN_POINT('',(19.082,21.3885,3.));
#2327=CARTESIAN_POINT('Origin',(-1.025,43.0575,3.));
#2328=CARTESIAN_POINT('',(-1.025,43.0575,3.));
#2329=CARTESIAN_POINT('',(-0.512500000000002,43.0575,3.));
#2330=CARTESIAN_POINT('',(-1.025,43.0575,3.));
#2331=CARTESIAN_POINT('Origin',(-1.025,47.0575,3.));
#2332=CARTESIAN_POINT('',(-1.025,23.52875,3.));
#2333=CARTESIAN_POINT('Origin',(-4.44089209850063E-15,8.88178419700125E-15,
3.));
#2334=CARTESIAN_POINT('',(27.444,4.4405,3.));
#2335=CARTESIAN_POINT('Origin',(24.394,4.4405,3.));
#2336=CARTESIAN_POINT('',(27.444,-19.5595,3.));
#2337=CARTESIAN_POINT('Origin',(24.394,-19.5595,3.));
#2338=CARTESIAN_POINT('',(-21.057,-19.5595,3.));
#2339=CARTESIAN_POINT('Origin',(-24.107,-19.5595,3.));
#2340=CARTESIAN_POINT('',(-21.057,4.44049999999999,3.));
#2341=CARTESIAN_POINT('Origin',(-24.107,4.44049999999999,3.));
#2342=CARTESIAN_POINT('Origin',(24.394,4.4405,1.));
#2343=CARTESIAN_POINT('',(27.444,4.4405,1.));
#2344=CARTESIAN_POINT('',(27.444,4.4405,1.));
#2345=CARTESIAN_POINT('Origin',(24.394,4.4405,1.));
#2346=CARTESIAN_POINT('Origin',(24.394,-19.5595,1.));
#2347=CARTESIAN_POINT('',(27.444,-19.5595,1.));
#2348=CARTESIAN_POINT('',(27.444,-19.5595,1.));
#2349=CARTESIAN_POINT('Origin',(24.394,-19.5595,1.));
#2350=CARTESIAN_POINT('Origin',(-24.107,-19.5595,1.));
#2351=CARTESIAN_POINT('',(-21.057,-19.5595,1.));
#2352=CARTESIAN_POINT('',(-21.057,-19.5595,1.));
#2353=CARTESIAN_POINT('Origin',(-24.107,-19.5595,1.));
#2354=CARTESIAN_POINT('Origin',(-24.107,4.44049999999999,1.));
#2355=CARTESIAN_POINT('',(-21.057,4.44049999999999,1.));
#2356=CARTESIAN_POINT('',(-21.057,4.44049999999999,1.));
#2357=CARTESIAN_POINT('Origin',(-24.107,4.44049999999999,1.));
#2358=CARTESIAN_POINT('Origin',(-4.44089209850063E-15,4.44089209850063E-15,
1.));
#2359=CARTESIAN_POINT('',(-22.407,4.44049999999999,1.));
#2360=CARTESIAN_POINT('Origin',(-24.107,4.44049999999999,1.));
#2361=CARTESIAN_POINT('Origin',(-4.44089209850063E-15,4.44089209850063E-15,
1.));
#2362=CARTESIAN_POINT('',(-22.407,-19.5595,1.));
#2363=CARTESIAN_POINT('Origin',(-24.107,-19.5595,1.));
#2364=CARTESIAN_POINT('Origin',(-4.44089209850063E-15,4.44089209850063E-15,
1.));
#2365=CARTESIAN_POINT('',(26.094,-19.5595,1.));
#2366=CARTESIAN_POINT('Origin',(24.394,-19.5595,1.));
#2367=CARTESIAN_POINT('Origin',(-24.107,4.44049999999999,0.));
#2368=CARTESIAN_POINT('',(-22.407,4.44049999999999,0.));
#2369=CARTESIAN_POINT('Origin',(-24.107,-19.5595,0.));
#2370=CARTESIAN_POINT('',(-22.407,-19.5595,0.));
#2371=CARTESIAN_POINT('Origin',(24.394,-19.5595,0.));
#2372=CARTESIAN_POINT('',(26.094,-19.5595,0.));
#2373=CARTESIAN_POINT('Origin',(24.394,4.4405,0.));
#2374=CARTESIAN_POINT('',(26.094,4.4405,1.));
#2375=CARTESIAN_POINT('Origin',(24.394,4.4405,1.));
#2376=CARTESIAN_POINT('',(26.094,4.4405,0.));
#2377=CARTESIAN_POINT('Origin',(-4.44089209850063E-15,4.44089209850063E-15,
1.));
#2378=UNCERTAINTY_MEASURE_WITH_UNIT(LENGTH_MEASURE(0.01),#2382,
'DISTANCE_ACCURACY_VALUE',
'Maximum model space distance between geometric entities at asserted c
onnectivities');
#2379=UNCERTAINTY_MEASURE_WITH_UNIT(LENGTH_MEASURE(0.01),#2382,
'DISTANCE_ACCURACY_VALUE',
'Maximum model space distance between geometric entities at asserted c
onnectivities');
#2380=(
GEOMETRIC_REPRESENTATION_CONTEXT(3)
GLOBAL_UNCERTAINTY_ASSIGNED_CONTEXT((#2378))
GLOBAL_UNIT_ASSIGNED_CONTEXT((#2382,#2384,#2385))
REPRESENTATION_CONTEXT('','3D')
);
#2381=(
GEOMETRIC_REPRESENTATION_CONTEXT(3)
GLOBAL_UNCERTAINTY_ASSIGNED_CONTEXT((#2379))
GLOBAL_UNIT_ASSIGNED_CONTEXT((#2382,#2384,#2385))
REPRESENTATION_CONTEXT('','3D')
);
#2382=(
LENGTH_UNIT()
NAMED_UNIT(*)
SI_UNIT(.MILLI.,.METRE.)
);
#2383=(
LENGTH_UNIT()
NAMED_UNIT(*)
SI_UNIT(.CENTI.,.METRE.)
);
#2384=(
NAMED_UNIT(*)
PLANE_ANGLE_UNIT()
SI_UNIT($,.RADIAN.)
);
#2385=(
NAMED_UNIT(*)
SI_UNIT($,.STERADIAN.)
SOLID_ANGLE_UNIT()
);
#2386=SHAPE_DEFINITION_REPRESENTATION(#2387,#2388);
#2387=PRODUCT_DEFINITION_SHAPE('',$,#2390);
#2388=SHAPE_REPRESENTATION('',(#1474),#2380);
#2389=PRODUCT_DEFINITION_CONTEXT('part definition',#2394,'design');
#2390=PRODUCT_DEFINITION('TES_Controller_V1_Case_Top',
'TES_Controller_V1_Case_Top',#2391,#2389);
#2391=PRODUCT_DEFINITION_FORMATION('',$,#2396);
#2392=PRODUCT_RELATED_PRODUCT_CATEGORY('TES_Controller_V1_Case_Top',
'TES_Controller_V1_Case_Top',(#2396));
#2393=APPLICATION_PROTOCOL_DEFINITION('international standard',
'automotive_design',2009,#2394);
#2394=APPLICATION_CONTEXT(
'Core Data for Automotive Mechanical Design Process');
#2395=PRODUCT_CONTEXT('part definition',#2394,'mechanical');
#2396=PRODUCT('TES_Controller_V1_Case_Top','TES_Controller_V1_Case_Top',
$,(#2395));
#2397=PRESENTATION_STYLE_ASSIGNMENT((#2398));
#2398=SURFACE_STYLE_USAGE(.BOTH.,#2401);
#2399=SURFACE_STYLE_RENDERING_WITH_PROPERTIES($,#2405,(#2400));
#2400=SURFACE_STYLE_TRANSPARENT(0.);
#2401=SURFACE_SIDE_STYLE('',(#2402,#2399));
#2402=SURFACE_STYLE_FILL_AREA(#2403);
#2403=FILL_AREA_STYLE('',(#2404));
#2404=FILL_AREA_STYLE_COLOUR('',#2405);
#2405=COLOUR_RGB('',0.749019607843137,0.749019607843137,0.749019607843137);
ENDSEC;
END-ISO-10303-21;
