ISO-10303-21;
HEADER;
/* Generated by software containing ST-Developer
 * from STEP Tools, Inc. (www.steptools.com) 
 */

FILE_DESCRIPTION(
/* description */ (''),
/* implementation_level */ '2;1');

FILE_NAME(
/* name */ 'TES_Controller_V1_Case_Base.stp',
/* time_stamp */ '2026-09-29T16:43:29+08:00',
/* author */ ('user'),
/* organization */ (''),
/* preprocessor_version */ 'ST-DEVELOPER v20.2',
/* originating_system */ 'Autodesk Inventor 2027',
/* authorisation */ '');

FILE_SCHEMA (('AUTOMOTIVE_DESIGN { 1 0 10303 214 3 1 1 }'));
ENDSEC;

DATA;
#10=MECHANICAL_DESIGN_GEOMETRIC_PRESENTATION_REPRESENTATION('',(#13),#1470);
#11=SHAPE_REPRESENTATION_RELATIONSHIP('SRR','None',#1477,#12);
#12=ADVANCED_BREP_SHAPE_REPRESENTATION('',(#14),#1469);
#13=STYLED_ITEM('',(#1486),#14);
#14=MANIFOLD_SOLID_BREP('\X2\5B9E4F53\X0\1',#889);
#15=CYLINDRICAL_SURFACE('',#936,3.);
#16=CYLINDRICAL_SURFACE('',#938,3.);
#17=CYLINDRICAL_SURFACE('',#943,3.05);
#18=CYLINDRICAL_SURFACE('',#945,3.05);
#19=CYLINDRICAL_SURFACE('',#947,3.05);
#20=CYLINDRICAL_SURFACE('',#949,3.05);
#21=CYLINDRICAL_SURFACE('',#973,1.7);
#22=CYLINDRICAL_SURFACE('',#975,1.7);
#23=CYLINDRICAL_SURFACE('',#977,1.7);
#24=CYLINDRICAL_SURFACE('',#980,1.7);
#25=CIRCLE('',#931,3.05);
#26=CIRCLE('',#932,3.);
#27=CIRCLE('',#934,3.05);
#28=CIRCLE('',#935,3.);
#29=CIRCLE('',#937,3.);
#30=CIRCLE('',#939,3.);
#31=CIRCLE('',#941,3.05);
#32=CIRCLE('',#942,3.05);
#33=CIRCLE('',#944,3.05);
#34=CIRCLE('',#946,3.05);
#35=CIRCLE('',#948,3.05);
#36=CIRCLE('',#950,3.05);
#37=CIRCLE('',#952,1.7);
#38=CIRCLE('',#954,1.7);
#39=CIRCLE('',#956,1.7);
#40=CIRCLE('',#974,1.7);
#41=CIRCLE('',#976,1.7);
#42=CIRCLE('',#978,1.7);
#43=CIRCLE('',#979,1.7);
#44=CIRCLE('',#981,1.7);
#45=FACE_BOUND('',#126,.T.);
#46=FACE_BOUND('',#137,.T.);
#47=FACE_BOUND('',#139,.T.);
#48=FACE_BOUND('',#143,.T.);
#49=FACE_BOUND('',#144,.T.);
#50=FACE_BOUND('',#145,.T.);
#51=FACE_BOUND('',#146,.T.);
#52=FACE_BOUND('',#152,.T.);
#53=FACE_BOUND('',#154,.T.);
#54=FACE_BOUND('',#156,.T.);
#55=FACE_BOUND('',#178,.T.);
#56=FACE_BOUND('',#179,.T.);
#57=FACE_BOUND('',#180,.T.);
#58=FACE_BOUND('',#181,.T.);
#59=FACE_BOUND('',#182,.T.);
#60=FACE_BOUND('',#183,.T.);
#61=FACE_BOUND('',#184,.T.);
#62=FACE_BOUND('',#185,.T.);
#63=FACE_BOUND('',#186,.T.);
#64=FACE_BOUND('',#188,.T.);
#65=FACE_OUTER_BOUND('',#117,.T.);
#66=FACE_OUTER_BOUND('',#118,.T.);
#67=FACE_OUTER_BOUND('',#119,.T.);
#68=FACE_OUTER_BOUND('',#120,.T.);
#69=FACE_OUTER_BOUND('',#121,.T.);
#70=FACE_OUTER_BOUND('',#122,.T.);
#71=FACE_OUTER_BOUND('',#123,.T.);
#72=FACE_OUTER_BOUND('',#124,.T.);
#73=FACE_OUTER_BOUND('',#125,.T.);
#74=FACE_OUTER_BOUND('',#127,.T.);
#75=FACE_OUTER_BOUND('',#128,.T.);
#76=FACE_OUTER_BOUND('',#129,.T.);
#77=FACE_OUTER_BOUND('',#130,.T.);
#78=FACE_OUTER_BOUND('',#131,.T.);
#79=FACE_OUTER_BOUND('',#132,.T.);
#80=FACE_OUTER_BOUND('',#133,.T.);
#81=FACE_OUTER_BOUND('',#134,.T.);
#82=FACE_OUTER_BOUND('',#135,.T.);
#83=FACE_OUTER_BOUND('',#136,.T.);
#84=FACE_OUTER_BOUND('',#138,.T.);
#85=FACE_OUTER_BOUND('',#140,.T.);
#86=FACE_OUTER_BOUND('',#141,.T.);
#87=FACE_OUTER_BOUND('',#142,.T.);
#88=FACE_OUTER_BOUND('',#147,.T.);
#89=FACE_OUTER_BOUND('',#148,.T.);
#90=FACE_OUTER_BOUND('',#149,.T.);
#91=FACE_OUTER_BOUND('',#150,.T.);
#92=FACE_OUTER_BOUND('',#151,.T.);
#93=FACE_OUTER_BOUND('',#153,.T.);
#94=FACE_OUTER_BOUND('',#155,.T.);
#95=FACE_OUTER_BOUND('',#157,.T.);
#96=FACE_OUTER_BOUND('',#158,.T.);
#97=FACE_OUTER_BOUND('',#159,.T.);
#98=FACE_OUTER_BOUND('',#160,.T.);
#99=FACE_OUTER_BOUND('',#161,.T.);
#100=FACE_OUTER_BOUND('',#162,.T.);
#101=FACE_OUTER_BOUND('',#163,.T.);
#102=FACE_OUTER_BOUND('',#164,.T.);
#103=FACE_OUTER_BOUND('',#165,.T.);
#104=FACE_OUTER_BOUND('',#166,.T.);
#105=FACE_OUTER_BOUND('',#167,.T.);
#106=FACE_OUTER_BOUND('',#168,.T.);
#107=FACE_OUTER_BOUND('',#169,.T.);
#108=FACE_OUTER_BOUND('',#170,.T.);
#109=FACE_OUTER_BOUND('',#171,.T.);
#110=FACE_OUTER_BOUND('',#172,.T.);
#111=FACE_OUTER_BOUND('',#173,.T.);
#112=FACE_OUTER_BOUND('',#174,.T.);
#113=FACE_OUTER_BOUND('',#175,.T.);
#114=FACE_OUTER_BOUND('',#176,.T.);
#115=FACE_OUTER_BOUND('',#177,.T.);
#116=FACE_OUTER_BOUND('',#187,.T.);
#117=EDGE_LOOP('',(#567,#568,#569,#570));
#118=EDGE_LOOP('',(#571,#572,#573,#574));
#119=EDGE_LOOP('',(#575,#576,#577,#578));
#120=EDGE_LOOP('',(#579,#580,#581,#582));
#121=EDGE_LOOP('',(#583,#584,#585,#586));
#122=EDGE_LOOP('',(#587,#588,#589,#590));
#123=EDGE_LOOP('',(#591,#592,#593,#594));
#124=EDGE_LOOP('',(#595,#596,#597,#598));
#125=EDGE_LOOP('',(#599,#600,#601,#602));
#126=EDGE_LOOP('',(#603,#604,#605,#606));
#127=EDGE_LOOP('',(#607,#608,#609,#610));
#128=EDGE_LOOP('',(#611,#612,#613,#614));
#129=EDGE_LOOP('',(#615,#616,#617,#618));
#130=EDGE_LOOP('',(#619,#620,#621,#622));
#131=EDGE_LOOP('',(#623,#624,#625,#626));
#132=EDGE_LOOP('',(#627,#628,#629,#630));
#133=EDGE_LOOP('',(#631,#632,#633,#634));
#134=EDGE_LOOP('',(#635,#636,#637,#638));
#135=EDGE_LOOP('',(#639,#640,#641,#642));
#136=EDGE_LOOP('',(#643));
#137=EDGE_LOOP('',(#644));
#138=EDGE_LOOP('',(#645));
#139=EDGE_LOOP('',(#646));
#140=EDGE_LOOP('',(#647,#648,#649,#650));
#141=EDGE_LOOP('',(#651,#652,#653,#654));
#142=EDGE_LOOP('',(#655,#656,#657,#658));
#143=EDGE_LOOP('',(#659));
#144=EDGE_LOOP('',(#660));
#145=EDGE_LOOP('',(#661));
#146=EDGE_LOOP('',(#662));
#147=EDGE_LOOP('',(#663,#664,#665,#666));
#148=EDGE_LOOP('',(#667,#668,#669,#670));
#149=EDGE_LOOP('',(#671,#672,#673,#674));
#150=EDGE_LOOP('',(#675,#676,#677,#678));
#151=EDGE_LOOP('',(#679));
#152=EDGE_LOOP('',(#680));
#153=EDGE_LOOP('',(#681));
#154=EDGE_LOOP('',(#682));
#155=EDGE_LOOP('',(#683));
#156=EDGE_LOOP('',(#684));
#157=EDGE_LOOP('',(#685,#686,#687,#688));
#158=EDGE_LOOP('',(#689,#690,#691,#692));
#159=EDGE_LOOP('',(#693,#694,#695,#696));
#160=EDGE_LOOP('',(#697,#698,#699,#700));
#161=EDGE_LOOP('',(#701,#702,#703,#704));
#162=EDGE_LOOP('',(#705,#706,#707,#708));
#163=EDGE_LOOP('',(#709,#710,#711,#712));
#164=EDGE_LOOP('',(#713,#714,#715,#716));
#165=EDGE_LOOP('',(#717,#718,#719,#720));
#166=EDGE_LOOP('',(#721,#722,#723,#724));
#167=EDGE_LOOP('',(#725,#726,#727,#728));
#168=EDGE_LOOP('',(#729,#730,#731,#732));
#169=EDGE_LOOP('',(#733,#734,#735,#736));
#170=EDGE_LOOP('',(#737,#738,#739,#740));
#171=EDGE_LOOP('',(#741,#742,#743,#744));
#172=EDGE_LOOP('',(#745,#746,#747,#748));
#173=EDGE_LOOP('',(#749,#750,#751,#752));
#174=EDGE_LOOP('',(#753,#754,#755,#756));
#175=EDGE_LOOP('',(#757,#758,#759,#760));
#176=EDGE_LOOP('',(#761,#762,#763,#764));
#177=EDGE_LOOP('',(#765,#766,#767,#768));
#178=EDGE_LOOP('',(#769,#770,#771,#772));
#179=EDGE_LOOP('',(#773));
#180=EDGE_LOOP('',(#774));
#181=EDGE_LOOP('',(#775));
#182=EDGE_LOOP('',(#776));
#183=EDGE_LOOP('',(#777,#778,#779,#780));
#184=EDGE_LOOP('',(#781,#782,#783,#784));
#185=EDGE_LOOP('',(#785,#786,#787,#788));
#186=EDGE_LOOP('',(#789,#790,#791,#792));
#187=EDGE_LOOP('',(#793));
#188=EDGE_LOOP('',(#794));
#189=LINE('',#1228,#283);
#190=LINE('',#1230,#284);
#191=LINE('',#1232,#285);
#192=LINE('',#1233,#286);
#193=LINE('',#1236,#287);
#194=LINE('',#1238,#288);
#195=LINE('',#1239,#289);
#196=LINE('',#1242,#290);
#197=LINE('',#1244,#291);
#198=LINE('',#1245,#292);
#199=LINE('',#1247,#293);
#200=LINE('',#1248,#294);
#201=LINE('',#1252,#295);
#202=LINE('',#1254,#296);
#203=LINE('',#1256,#297);
#204=LINE('',#1257,#298);
#205=LINE('',#1260,#299);
#206=LINE('',#1262,#300);
#207=LINE('',#1263,#301);
#208=LINE('',#1266,#302);
#209=LINE('',#1268,#303);
#210=LINE('',#1269,#304);
#211=LINE('',#1271,#305);
#212=LINE('',#1272,#306);
#213=LINE('',#1277,#307);
#214=LINE('',#1279,#308);
#215=LINE('',#1281,#309);
#216=LINE('',#1282,#310);
#217=LINE('',#1285,#311);
#218=LINE('',#1287,#312);
#219=LINE('',#1288,#313);
#220=LINE('',#1291,#314);
#221=LINE('',#1293,#315);
#222=LINE('',#1294,#316);
#223=LINE('',#1296,#317);
#224=LINE('',#1297,#318);
#225=LINE('',#1302,#319);
#226=LINE('',#1304,#320);
#227=LINE('',#1306,#321);
#228=LINE('',#1307,#322);
#229=LINE('',#1311,#323);
#230=LINE('',#1313,#324);
#231=LINE('',#1315,#325);
#232=LINE('',#1316,#326);
#233=LINE('',#1320,#327);
#234=LINE('',#1322,#328);
#235=LINE('',#1324,#329);
#236=LINE('',#1325,#330);
#237=LINE('',#1329,#331);
#238=LINE('',#1331,#332);
#239=LINE('',#1333,#333);
#240=LINE('',#1334,#334);
#241=LINE('',#1348,#335);
#242=LINE('',#1352,#336);
#243=LINE('',#1360,#337);
#244=LINE('',#1364,#338);
#245=LINE('',#1368,#339);
#246=LINE('',#1372,#340);
#247=LINE('',#1385,#341);
#248=LINE('',#1387,#342);
#249=LINE('',#1388,#343);
#250=LINE('',#1391,#344);
#251=LINE('',#1392,#345);
#252=LINE('',#1395,#346);
#253=LINE('',#1396,#347);
#254=LINE('',#1398,#348);
#255=LINE('',#1401,#349);
#256=LINE('',#1403,#350);
#257=LINE('',#1404,#351);
#258=LINE('',#1407,#352);
#259=LINE('',#1408,#353);
#260=LINE('',#1411,#354);
#261=LINE('',#1412,#355);
#262=LINE('',#1414,#356);
#263=LINE('',#1417,#357);
#264=LINE('',#1419,#358);
#265=LINE('',#1420,#359);
#266=LINE('',#1423,#360);
#267=LINE('',#1424,#361);
#268=LINE('',#1427,#362);
#269=LINE('',#1428,#363);
#270=LINE('',#1430,#364);
#271=LINE('',#1433,#365);
#272=LINE('',#1435,#366);
#273=LINE('',#1436,#367);
#274=LINE('',#1439,#368);
#275=LINE('',#1440,#369);
#276=LINE('',#1443,#370);
#277=LINE('',#1444,#371);
#278=LINE('',#1446,#372);
#279=LINE('',#1450,#373);
#280=LINE('',#1454,#374);
#281=LINE('',#1459,#375);
#282=LINE('',#1464,#376);
#283=VECTOR('',#988,10.);
#284=VECTOR('',#989,10.);
#285=VECTOR('',#990,10.);
#286=VECTOR('',#991,10.);
#287=VECTOR('',#994,10.);
#288=VECTOR('',#995,10.);
#289=VECTOR('',#996,10.);
#290=VECTOR('',#999,10.);
#291=VECTOR('',#1000,10.);
#292=VECTOR('',#1001,10.);
#293=VECTOR('',#1004,10.);
#294=VECTOR('',#1005,10.);
#295=VECTOR('',#1008,10.);
#296=VECTOR('',#1009,10.);
#297=VECTOR('',#1010,10.);
#298=VECTOR('',#1011,10.);
#299=VECTOR('',#1014,10.);
#300=VECTOR('',#1015,10.);
#301=VECTOR('',#1016,10.);
#302=VECTOR('',#1019,10.);
#303=VECTOR('',#1020,10.);
#304=VECTOR('',#1021,10.);
#305=VECTOR('',#1024,10.);
#306=VECTOR('',#1025,10.);
#307=VECTOR('',#1030,10.);
#308=VECTOR('',#1031,10.);
#309=VECTOR('',#1032,10.);
#310=VECTOR('',#1033,10.);
#311=VECTOR('',#1036,10.);
#312=VECTOR('',#1037,10.);
#313=VECTOR('',#1038,10.);
#314=VECTOR('',#1041,10.);
#315=VECTOR('',#1042,10.);
#316=VECTOR('',#1043,10.);
#317=VECTOR('',#1046,10.);
#318=VECTOR('',#1047,10.);
#319=VECTOR('',#1052,10.);
#320=VECTOR('',#1053,10.);
#321=VECTOR('',#1054,10.);
#322=VECTOR('',#1055,10.);
#323=VECTOR('',#1058,10.);
#324=VECTOR('',#1059,10.);
#325=VECTOR('',#1060,10.);
#326=VECTOR('',#1061,10.);
#327=VECTOR('',#1064,10.);
#328=VECTOR('',#1065,10.);
#329=VECTOR('',#1066,10.);
#330=VECTOR('',#1067,10.);
#331=VECTOR('',#1070,10.);
#332=VECTOR('',#1071,10.);
#333=VECTOR('',#1072,10.);
#334=VECTOR('',#1073,10.);
#335=VECTOR('',#1090,3.);
#336=VECTOR('',#1095,3.);
#337=VECTOR('',#1104,3.05);
#338=VECTOR('',#1109,3.05);
#339=VECTOR('',#1114,3.05);
#340=VECTOR('',#1119,3.05);
#341=VECTOR('',#1136,10.);
#342=VECTOR('',#1137,10.);
#343=VECTOR('',#1138,10.);
#344=VECTOR('',#1141,10.);
#345=VECTOR('',#1142,10.);
#346=VECTOR('',#1145,10.);
#347=VECTOR('',#1146,10.);
#348=VECTOR('',#1149,10.);
#349=VECTOR('',#1152,10.);
#350=VECTOR('',#1153,10.);
#351=VECTOR('',#1154,10.);
#352=VECTOR('',#1157,10.);
#353=VECTOR('',#1158,10.);
#354=VECTOR('',#1161,10.);
#355=VECTOR('',#1162,10.);
#356=VECTOR('',#1165,10.);
#357=VECTOR('',#1168,10.);
#358=VECTOR('',#1169,10.);
#359=VECTOR('',#1170,10.);
#360=VECTOR('',#1173,10.);
#361=VECTOR('',#1174,10.);
#362=VECTOR('',#1177,10.);
#363=VECTOR('',#1178,10.);
#364=VECTOR('',#1181,10.);
#365=VECTOR('',#1184,10.);
#366=VECTOR('',#1185,10.);
#367=VECTOR('',#1186,10.);
#368=VECTOR('',#1189,10.);
#369=VECTOR('',#1190,10.);
#370=VECTOR('',#1193,10.);
#371=VECTOR('',#1194,10.);
#372=VECTOR('',#1197,10.);
#373=VECTOR('',#1202,1.7);
#374=VECTOR('',#1207,1.7);
#375=VECTOR('',#1212,1.7);
#376=VECTOR('',#1219,1.7);
#377=VERTEX_POINT('',#1226);
#378=VERTEX_POINT('',#1227);
#379=VERTEX_POINT('',#1229);
#380=VERTEX_POINT('',#1231);
#381=VERTEX_POINT('',#1235);
#382=VERTEX_POINT('',#1237);
#383=VERTEX_POINT('',#1241);
#384=VERTEX_POINT('',#1243);
#385=VERTEX_POINT('',#1250);
#386=VERTEX_POINT('',#1251);
#387=VERTEX_POINT('',#1253);
#388=VERTEX_POINT('',#1255);
#389=VERTEX_POINT('',#1259);
#390=VERTEX_POINT('',#1261);
#391=VERTEX_POINT('',#1265);
#392=VERTEX_POINT('',#1267);
#393=VERTEX_POINT('',#1275);
#394=VERTEX_POINT('',#1276);
#395=VERTEX_POINT('',#1278);
#396=VERTEX_POINT('',#1280);
#397=VERTEX_POINT('',#1284);
#398=VERTEX_POINT('',#1286);
#399=VERTEX_POINT('',#1290);
#400=VERTEX_POINT('',#1292);
#401=VERTEX_POINT('',#1300);
#402=VERTEX_POINT('',#1301);
#403=VERTEX_POINT('',#1303);
#404=VERTEX_POINT('',#1305);
#405=VERTEX_POINT('',#1309);
#406=VERTEX_POINT('',#1310);
#407=VERTEX_POINT('',#1312);
#408=VERTEX_POINT('',#1314);
#409=VERTEX_POINT('',#1318);
#410=VERTEX_POINT('',#1319);
#411=VERTEX_POINT('',#1321);
#412=VERTEX_POINT('',#1323);
#413=VERTEX_POINT('',#1327);
#414=VERTEX_POINT('',#1328);
#415=VERTEX_POINT('',#1330);
#416=VERTEX_POINT('',#1332);
#417=VERTEX_POINT('',#1336);
#418=VERTEX_POINT('',#1338);
#419=VERTEX_POINT('',#1341);
#420=VERTEX_POINT('',#1343);
#421=VERTEX_POINT('',#1346);
#422=VERTEX_POINT('',#1350);
#423=VERTEX_POINT('',#1354);
#424=VERTEX_POINT('',#1356);
#425=VERTEX_POINT('',#1359);
#426=VERTEX_POINT('',#1363);
#427=VERTEX_POINT('',#1367);
#428=VERTEX_POINT('',#1371);
#429=VERTEX_POINT('',#1375);
#430=VERTEX_POINT('',#1378);
#431=VERTEX_POINT('',#1381);
#432=VERTEX_POINT('',#1384);
#433=VERTEX_POINT('',#1386);
#434=VERTEX_POINT('',#1390);
#435=VERTEX_POINT('',#1394);
#436=VERTEX_POINT('',#1400);
#437=VERTEX_POINT('',#1402);
#438=VERTEX_POINT('',#1406);
#439=VERTEX_POINT('',#1410);
#440=VERTEX_POINT('',#1416);
#441=VERTEX_POINT('',#1418);
#442=VERTEX_POINT('',#1422);
#443=VERTEX_POINT('',#1426);
#444=VERTEX_POINT('',#1432);
#445=VERTEX_POINT('',#1434);
#446=VERTEX_POINT('',#1438);
#447=VERTEX_POINT('',#1442);
#448=VERTEX_POINT('',#1448);
#449=VERTEX_POINT('',#1452);
#450=VERTEX_POINT('',#1456);
#451=VERTEX_POINT('',#1458);
#452=VERTEX_POINT('',#1462);
#453=EDGE_CURVE('',#377,#378,#189,.T.);
#454=EDGE_CURVE('',#378,#379,#190,.T.);
#455=EDGE_CURVE('',#380,#379,#191,.T.);
#456=EDGE_CURVE('',#377,#380,#192,.T.);
#457=EDGE_CURVE('',#378,#381,#193,.T.);
#458=EDGE_CURVE('',#381,#382,#194,.T.);
#459=EDGE_CURVE('',#379,#382,#195,.T.);
#460=EDGE_CURVE('',#383,#377,#196,.T.);
#461=EDGE_CURVE('',#384,#380,#197,.T.);
#462=EDGE_CURVE('',#383,#384,#198,.T.);
#463=EDGE_CURVE('',#381,#383,#199,.T.);
#464=EDGE_CURVE('',#382,#384,#200,.T.);
#465=EDGE_CURVE('',#385,#386,#201,.T.);
#466=EDGE_CURVE('',#385,#387,#202,.T.);
#467=EDGE_CURVE('',#388,#387,#203,.T.);
#468=EDGE_CURVE('',#386,#388,#204,.T.);
#469=EDGE_CURVE('',#386,#389,#205,.T.);
#470=EDGE_CURVE('',#390,#388,#206,.T.);
#471=EDGE_CURVE('',#389,#390,#207,.T.);
#472=EDGE_CURVE('',#389,#391,#208,.T.);
#473=EDGE_CURVE('',#392,#390,#209,.T.);
#474=EDGE_CURVE('',#391,#392,#210,.T.);
#475=EDGE_CURVE('',#391,#385,#211,.T.);
#476=EDGE_CURVE('',#387,#392,#212,.T.);
#477=EDGE_CURVE('',#393,#394,#213,.T.);
#478=EDGE_CURVE('',#393,#395,#214,.T.);
#479=EDGE_CURVE('',#395,#396,#215,.T.);
#480=EDGE_CURVE('',#394,#396,#216,.T.);
#481=EDGE_CURVE('',#397,#393,#217,.T.);
#482=EDGE_CURVE('',#397,#398,#218,.T.);
#483=EDGE_CURVE('',#398,#395,#219,.T.);
#484=EDGE_CURVE('',#399,#397,#220,.T.);
#485=EDGE_CURVE('',#399,#400,#221,.T.);
#486=EDGE_CURVE('',#400,#398,#222,.T.);
#487=EDGE_CURVE('',#394,#399,#223,.T.);
#488=EDGE_CURVE('',#396,#400,#224,.T.);
#489=EDGE_CURVE('',#401,#402,#225,.T.);
#490=EDGE_CURVE('',#402,#403,#226,.T.);
#491=EDGE_CURVE('',#403,#404,#227,.T.);
#492=EDGE_CURVE('',#404,#401,#228,.T.);
#493=EDGE_CURVE('',#405,#406,#229,.T.);
#494=EDGE_CURVE('',#406,#407,#230,.T.);
#495=EDGE_CURVE('',#407,#408,#231,.T.);
#496=EDGE_CURVE('',#408,#405,#232,.T.);
#497=EDGE_CURVE('',#409,#410,#233,.T.);
#498=EDGE_CURVE('',#410,#411,#234,.T.);
#499=EDGE_CURVE('',#411,#412,#235,.T.);
#500=EDGE_CURVE('',#412,#409,#236,.T.);
#501=EDGE_CURVE('',#413,#414,#237,.T.);
#502=EDGE_CURVE('',#414,#415,#238,.T.);
#503=EDGE_CURVE('',#415,#416,#239,.T.);
#504=EDGE_CURVE('',#416,#413,#240,.T.);
#505=EDGE_CURVE('',#417,#417,#25,.T.);
#506=EDGE_CURVE('',#418,#418,#26,.T.);
#507=EDGE_CURVE('',#419,#419,#27,.T.);
#508=EDGE_CURVE('',#420,#420,#28,.T.);
#509=EDGE_CURVE('',#421,#421,#29,.T.);
#510=EDGE_CURVE('',#421,#420,#241,.T.);
#511=EDGE_CURVE('',#422,#422,#30,.T.);
#512=EDGE_CURVE('',#422,#418,#242,.T.);
#513=EDGE_CURVE('',#423,#423,#31,.T.);
#514=EDGE_CURVE('',#424,#424,#32,.T.);
#515=EDGE_CURVE('',#423,#425,#243,.T.);
#516=EDGE_CURVE('',#425,#425,#33,.T.);
#517=EDGE_CURVE('',#424,#426,#244,.T.);
#518=EDGE_CURVE('',#426,#426,#34,.T.);
#519=EDGE_CURVE('',#419,#427,#245,.T.);
#520=EDGE_CURVE('',#427,#427,#35,.T.);
#521=EDGE_CURVE('',#417,#428,#246,.T.);
#522=EDGE_CURVE('',#428,#428,#36,.T.);
#523=EDGE_CURVE('',#429,#429,#37,.T.);
#524=EDGE_CURVE('',#430,#430,#38,.T.);
#525=EDGE_CURVE('',#431,#431,#39,.T.);
#526=EDGE_CURVE('',#432,#413,#247,.T.);
#527=EDGE_CURVE('',#433,#432,#248,.T.);
#528=EDGE_CURVE('',#414,#433,#249,.T.);
#529=EDGE_CURVE('',#434,#433,#250,.T.);
#530=EDGE_CURVE('',#415,#434,#251,.T.);
#531=EDGE_CURVE('',#435,#434,#252,.T.);
#532=EDGE_CURVE('',#416,#435,#253,.T.);
#533=EDGE_CURVE('',#432,#435,#254,.T.);
#534=EDGE_CURVE('',#436,#409,#255,.T.);
#535=EDGE_CURVE('',#437,#436,#256,.T.);
#536=EDGE_CURVE('',#410,#437,#257,.T.);
#537=EDGE_CURVE('',#438,#437,#258,.T.);
#538=EDGE_CURVE('',#411,#438,#259,.T.);
#539=EDGE_CURVE('',#439,#438,#260,.T.);
#540=EDGE_CURVE('',#412,#439,#261,.T.);
#541=EDGE_CURVE('',#436,#439,#262,.T.);
#542=EDGE_CURVE('',#440,#405,#263,.T.);
#543=EDGE_CURVE('',#441,#440,#264,.T.);
#544=EDGE_CURVE('',#406,#441,#265,.T.);
#545=EDGE_CURVE('',#442,#441,#266,.T.);
#546=EDGE_CURVE('',#407,#442,#267,.T.);
#547=EDGE_CURVE('',#443,#442,#268,.T.);
#548=EDGE_CURVE('',#408,#443,#269,.T.);
#549=EDGE_CURVE('',#440,#443,#270,.T.);
#550=EDGE_CURVE('',#444,#401,#271,.T.);
#551=EDGE_CURVE('',#445,#444,#272,.T.);
#552=EDGE_CURVE('',#402,#445,#273,.T.);
#553=EDGE_CURVE('',#446,#445,#274,.T.);
#554=EDGE_CURVE('',#403,#446,#275,.T.);
#555=EDGE_CURVE('',#447,#446,#276,.T.);
#556=EDGE_CURVE('',#404,#447,#277,.T.);
#557=EDGE_CURVE('',#444,#447,#278,.T.);
#558=EDGE_CURVE('',#448,#448,#40,.T.);
#559=EDGE_CURVE('',#448,#430,#279,.T.);
#560=EDGE_CURVE('',#449,#449,#41,.T.);
#561=EDGE_CURVE('',#449,#429,#280,.T.);
#562=EDGE_CURVE('',#450,#450,#42,.T.);
#563=EDGE_CURVE('',#450,#451,#281,.T.);
#564=EDGE_CURVE('',#451,#451,#43,.T.);
#565=EDGE_CURVE('',#452,#452,#44,.T.);
#566=EDGE_CURVE('',#452,#431,#282,.T.);
#567=ORIENTED_EDGE('',*,*,#453,.T.);
#568=ORIENTED_EDGE('',*,*,#454,.T.);
#569=ORIENTED_EDGE('',*,*,#455,.F.);
#570=ORIENTED_EDGE('',*,*,#456,.F.);
#571=ORIENTED_EDGE('',*,*,#457,.T.);
#572=ORIENTED_EDGE('',*,*,#458,.T.);
#573=ORIENTED_EDGE('',*,*,#459,.F.);
#574=ORIENTED_EDGE('',*,*,#454,.F.);
#575=ORIENTED_EDGE('',*,*,#460,.T.);
#576=ORIENTED_EDGE('',*,*,#456,.T.);
#577=ORIENTED_EDGE('',*,*,#461,.F.);
#578=ORIENTED_EDGE('',*,*,#462,.F.);
#579=ORIENTED_EDGE('',*,*,#463,.T.);
#580=ORIENTED_EDGE('',*,*,#462,.T.);
#581=ORIENTED_EDGE('',*,*,#464,.F.);
#582=ORIENTED_EDGE('',*,*,#458,.F.);
#583=ORIENTED_EDGE('',*,*,#465,.F.);
#584=ORIENTED_EDGE('',*,*,#466,.T.);
#585=ORIENTED_EDGE('',*,*,#467,.F.);
#586=ORIENTED_EDGE('',*,*,#468,.F.);
#587=ORIENTED_EDGE('',*,*,#469,.F.);
#588=ORIENTED_EDGE('',*,*,#468,.T.);
#589=ORIENTED_EDGE('',*,*,#470,.F.);
#590=ORIENTED_EDGE('',*,*,#471,.F.);
#591=ORIENTED_EDGE('',*,*,#472,.F.);
#592=ORIENTED_EDGE('',*,*,#471,.T.);
#593=ORIENTED_EDGE('',*,*,#473,.F.);
#594=ORIENTED_EDGE('',*,*,#474,.F.);
#595=ORIENTED_EDGE('',*,*,#475,.F.);
#596=ORIENTED_EDGE('',*,*,#474,.T.);
#597=ORIENTED_EDGE('',*,*,#476,.F.);
#598=ORIENTED_EDGE('',*,*,#466,.F.);
#599=ORIENTED_EDGE('',*,*,#476,.T.);
#600=ORIENTED_EDGE('',*,*,#473,.T.);
#601=ORIENTED_EDGE('',*,*,#470,.T.);
#602=ORIENTED_EDGE('',*,*,#467,.T.);
#603=ORIENTED_EDGE('',*,*,#459,.T.);
#604=ORIENTED_EDGE('',*,*,#464,.T.);
#605=ORIENTED_EDGE('',*,*,#461,.T.);
#606=ORIENTED_EDGE('',*,*,#455,.T.);
#607=ORIENTED_EDGE('',*,*,#477,.F.);
#608=ORIENTED_EDGE('',*,*,#478,.T.);
#609=ORIENTED_EDGE('',*,*,#479,.T.);
#610=ORIENTED_EDGE('',*,*,#480,.F.);
#611=ORIENTED_EDGE('',*,*,#481,.F.);
#612=ORIENTED_EDGE('',*,*,#482,.T.);
#613=ORIENTED_EDGE('',*,*,#483,.T.);
#614=ORIENTED_EDGE('',*,*,#478,.F.);
#615=ORIENTED_EDGE('',*,*,#484,.F.);
#616=ORIENTED_EDGE('',*,*,#485,.T.);
#617=ORIENTED_EDGE('',*,*,#486,.T.);
#618=ORIENTED_EDGE('',*,*,#482,.F.);
#619=ORIENTED_EDGE('',*,*,#487,.F.);
#620=ORIENTED_EDGE('',*,*,#480,.T.);
#621=ORIENTED_EDGE('',*,*,#488,.T.);
#622=ORIENTED_EDGE('',*,*,#485,.F.);
#623=ORIENTED_EDGE('',*,*,#488,.F.);
#624=ORIENTED_EDGE('',*,*,#479,.F.);
#625=ORIENTED_EDGE('',*,*,#483,.F.);
#626=ORIENTED_EDGE('',*,*,#486,.F.);
#627=ORIENTED_EDGE('',*,*,#489,.T.);
#628=ORIENTED_EDGE('',*,*,#490,.T.);
#629=ORIENTED_EDGE('',*,*,#491,.T.);
#630=ORIENTED_EDGE('',*,*,#492,.T.);
#631=ORIENTED_EDGE('',*,*,#493,.T.);
#632=ORIENTED_EDGE('',*,*,#494,.T.);
#633=ORIENTED_EDGE('',*,*,#495,.T.);
#634=ORIENTED_EDGE('',*,*,#496,.T.);
#635=ORIENTED_EDGE('',*,*,#497,.T.);
#636=ORIENTED_EDGE('',*,*,#498,.T.);
#637=ORIENTED_EDGE('',*,*,#499,.T.);
#638=ORIENTED_EDGE('',*,*,#500,.T.);
#639=ORIENTED_EDGE('',*,*,#501,.T.);
#640=ORIENTED_EDGE('',*,*,#502,.T.);
#641=ORIENTED_EDGE('',*,*,#503,.T.);
#642=ORIENTED_EDGE('',*,*,#504,.T.);
#643=ORIENTED_EDGE('',*,*,#505,.T.);
#644=ORIENTED_EDGE('',*,*,#506,.F.);
#645=ORIENTED_EDGE('',*,*,#507,.T.);
#646=ORIENTED_EDGE('',*,*,#508,.F.);
#647=ORIENTED_EDGE('',*,*,#509,.F.);
#648=ORIENTED_EDGE('',*,*,#510,.T.);
#649=ORIENTED_EDGE('',*,*,#508,.T.);
#650=ORIENTED_EDGE('',*,*,#510,.F.);
#651=ORIENTED_EDGE('',*,*,#511,.F.);
#652=ORIENTED_EDGE('',*,*,#512,.T.);
#653=ORIENTED_EDGE('',*,*,#506,.T.);
#654=ORIENTED_EDGE('',*,*,#512,.F.);
#655=ORIENTED_EDGE('',*,*,#475,.T.);
#656=ORIENTED_EDGE('',*,*,#465,.T.);
#657=ORIENTED_EDGE('',*,*,#469,.T.);
#658=ORIENTED_EDGE('',*,*,#472,.T.);
#659=ORIENTED_EDGE('',*,*,#513,.T.);
#660=ORIENTED_EDGE('',*,*,#514,.T.);
#661=ORIENTED_EDGE('',*,*,#511,.T.);
#662=ORIENTED_EDGE('',*,*,#509,.T.);
#663=ORIENTED_EDGE('',*,*,#513,.F.);
#664=ORIENTED_EDGE('',*,*,#515,.T.);
#665=ORIENTED_EDGE('',*,*,#516,.F.);
#666=ORIENTED_EDGE('',*,*,#515,.F.);
#667=ORIENTED_EDGE('',*,*,#514,.F.);
#668=ORIENTED_EDGE('',*,*,#517,.T.);
#669=ORIENTED_EDGE('',*,*,#518,.F.);
#670=ORIENTED_EDGE('',*,*,#517,.F.);
#671=ORIENTED_EDGE('',*,*,#507,.F.);
#672=ORIENTED_EDGE('',*,*,#519,.T.);
#673=ORIENTED_EDGE('',*,*,#520,.F.);
#674=ORIENTED_EDGE('',*,*,#519,.F.);
#675=ORIENTED_EDGE('',*,*,#505,.F.);
#676=ORIENTED_EDGE('',*,*,#521,.T.);
#677=ORIENTED_EDGE('',*,*,#522,.F.);
#678=ORIENTED_EDGE('',*,*,#521,.F.);
#679=ORIENTED_EDGE('',*,*,#522,.T.);
#680=ORIENTED_EDGE('',*,*,#523,.F.);
#681=ORIENTED_EDGE('',*,*,#520,.T.);
#682=ORIENTED_EDGE('',*,*,#524,.F.);
#683=ORIENTED_EDGE('',*,*,#518,.T.);
#684=ORIENTED_EDGE('',*,*,#525,.F.);
#685=ORIENTED_EDGE('',*,*,#526,.F.);
#686=ORIENTED_EDGE('',*,*,#527,.F.);
#687=ORIENTED_EDGE('',*,*,#528,.F.);
#688=ORIENTED_EDGE('',*,*,#501,.F.);
#689=ORIENTED_EDGE('',*,*,#528,.T.);
#690=ORIENTED_EDGE('',*,*,#529,.F.);
#691=ORIENTED_EDGE('',*,*,#530,.F.);
#692=ORIENTED_EDGE('',*,*,#502,.F.);
#693=ORIENTED_EDGE('',*,*,#530,.T.);
#694=ORIENTED_EDGE('',*,*,#531,.F.);
#695=ORIENTED_EDGE('',*,*,#532,.F.);
#696=ORIENTED_EDGE('',*,*,#503,.F.);
#697=ORIENTED_EDGE('',*,*,#532,.T.);
#698=ORIENTED_EDGE('',*,*,#533,.F.);
#699=ORIENTED_EDGE('',*,*,#526,.T.);
#700=ORIENTED_EDGE('',*,*,#504,.F.);
#701=ORIENTED_EDGE('',*,*,#534,.F.);
#702=ORIENTED_EDGE('',*,*,#535,.F.);
#703=ORIENTED_EDGE('',*,*,#536,.F.);
#704=ORIENTED_EDGE('',*,*,#497,.F.);
#705=ORIENTED_EDGE('',*,*,#536,.T.);
#706=ORIENTED_EDGE('',*,*,#537,.F.);
#707=ORIENTED_EDGE('',*,*,#538,.F.);
#708=ORIENTED_EDGE('',*,*,#498,.F.);
#709=ORIENTED_EDGE('',*,*,#538,.T.);
#710=ORIENTED_EDGE('',*,*,#539,.F.);
#711=ORIENTED_EDGE('',*,*,#540,.F.);
#712=ORIENTED_EDGE('',*,*,#499,.F.);
#713=ORIENTED_EDGE('',*,*,#540,.T.);
#714=ORIENTED_EDGE('',*,*,#541,.F.);
#715=ORIENTED_EDGE('',*,*,#534,.T.);
#716=ORIENTED_EDGE('',*,*,#500,.F.);
#717=ORIENTED_EDGE('',*,*,#542,.F.);
#718=ORIENTED_EDGE('',*,*,#543,.F.);
#719=ORIENTED_EDGE('',*,*,#544,.F.);
#720=ORIENTED_EDGE('',*,*,#493,.F.);
#721=ORIENTED_EDGE('',*,*,#544,.T.);
#722=ORIENTED_EDGE('',*,*,#545,.F.);
#723=ORIENTED_EDGE('',*,*,#546,.F.);
#724=ORIENTED_EDGE('',*,*,#494,.F.);
#725=ORIENTED_EDGE('',*,*,#546,.T.);
#726=ORIENTED_EDGE('',*,*,#547,.F.);
#727=ORIENTED_EDGE('',*,*,#548,.F.);
#728=ORIENTED_EDGE('',*,*,#495,.F.);
#729=ORIENTED_EDGE('',*,*,#548,.T.);
#730=ORIENTED_EDGE('',*,*,#549,.F.);
#731=ORIENTED_EDGE('',*,*,#542,.T.);
#732=ORIENTED_EDGE('',*,*,#496,.F.);
#733=ORIENTED_EDGE('',*,*,#550,.F.);
#734=ORIENTED_EDGE('',*,*,#551,.F.);
#735=ORIENTED_EDGE('',*,*,#552,.F.);
#736=ORIENTED_EDGE('',*,*,#489,.F.);
#737=ORIENTED_EDGE('',*,*,#552,.T.);
#738=ORIENTED_EDGE('',*,*,#553,.F.);
#739=ORIENTED_EDGE('',*,*,#554,.F.);
#740=ORIENTED_EDGE('',*,*,#490,.F.);
#741=ORIENTED_EDGE('',*,*,#554,.T.);
#742=ORIENTED_EDGE('',*,*,#555,.F.);
#743=ORIENTED_EDGE('',*,*,#556,.F.);
#744=ORIENTED_EDGE('',*,*,#491,.F.);
#745=ORIENTED_EDGE('',*,*,#556,.T.);
#746=ORIENTED_EDGE('',*,*,#557,.F.);
#747=ORIENTED_EDGE('',*,*,#550,.T.);
#748=ORIENTED_EDGE('',*,*,#492,.F.);
#749=ORIENTED_EDGE('',*,*,#558,.F.);
#750=ORIENTED_EDGE('',*,*,#559,.T.);
#751=ORIENTED_EDGE('',*,*,#524,.T.);
#752=ORIENTED_EDGE('',*,*,#559,.F.);
#753=ORIENTED_EDGE('',*,*,#560,.F.);
#754=ORIENTED_EDGE('',*,*,#561,.T.);
#755=ORIENTED_EDGE('',*,*,#523,.T.);
#756=ORIENTED_EDGE('',*,*,#561,.F.);
#757=ORIENTED_EDGE('',*,*,#562,.F.);
#758=ORIENTED_EDGE('',*,*,#563,.T.);
#759=ORIENTED_EDGE('',*,*,#564,.T.);
#760=ORIENTED_EDGE('',*,*,#563,.F.);
#761=ORIENTED_EDGE('',*,*,#565,.F.);
#762=ORIENTED_EDGE('',*,*,#566,.T.);
#763=ORIENTED_EDGE('',*,*,#525,.T.);
#764=ORIENTED_EDGE('',*,*,#566,.F.);
#765=ORIENTED_EDGE('',*,*,#453,.F.);
#766=ORIENTED_EDGE('',*,*,#460,.F.);
#767=ORIENTED_EDGE('',*,*,#463,.F.);
#768=ORIENTED_EDGE('',*,*,#457,.F.);
#769=ORIENTED_EDGE('',*,*,#477,.T.);
#770=ORIENTED_EDGE('',*,*,#487,.T.);
#771=ORIENTED_EDGE('',*,*,#484,.T.);
#772=ORIENTED_EDGE('',*,*,#481,.T.);
#773=ORIENTED_EDGE('',*,*,#565,.T.);
#774=ORIENTED_EDGE('',*,*,#562,.T.);
#775=ORIENTED_EDGE('',*,*,#560,.T.);
#776=ORIENTED_EDGE('',*,*,#558,.T.);
#777=ORIENTED_EDGE('',*,*,#557,.T.);
#778=ORIENTED_EDGE('',*,*,#555,.T.);
#779=ORIENTED_EDGE('',*,*,#553,.T.);
#780=ORIENTED_EDGE('',*,*,#551,.T.);
#781=ORIENTED_EDGE('',*,*,#549,.T.);
#782=ORIENTED_EDGE('',*,*,#547,.T.);
#783=ORIENTED_EDGE('',*,*,#545,.T.);
#784=ORIENTED_EDGE('',*,*,#543,.T.);
#785=ORIENTED_EDGE('',*,*,#541,.T.);
#786=ORIENTED_EDGE('',*,*,#539,.T.);
#787=ORIENTED_EDGE('',*,*,#537,.T.);
#788=ORIENTED_EDGE('',*,*,#535,.T.);
#789=ORIENTED_EDGE('',*,*,#533,.T.);
#790=ORIENTED_EDGE('',*,*,#531,.T.);
#791=ORIENTED_EDGE('',*,*,#529,.T.);
#792=ORIENTED_EDGE('',*,*,#527,.T.);
#793=ORIENTED_EDGE('',*,*,#516,.T.);
#794=ORIENTED_EDGE('',*,*,#564,.F.);
#795=PLANE('',#912);
#796=PLANE('',#913);
#797=PLANE('',#914);
#798=PLANE('',#915);
#799=PLANE('',#916);
#800=PLANE('',#917);
#801=PLANE('',#918);
#802=PLANE('',#919);
#803=PLANE('',#920);
#804=PLANE('',#921);
#805=PLANE('',#922);
#806=PLANE('',#923);
#807=PLANE('',#924);
#808=PLANE('',#925);
#809=PLANE('',#926);
#810=PLANE('',#927);
#811=PLANE('',#928);
#812=PLANE('',#929);
#813=PLANE('',#930);
#814=PLANE('',#933);
#815=PLANE('',#940);
#816=PLANE('',#951);
#817=PLANE('',#953);
#818=PLANE('',#955);
#819=PLANE('',#957);
#820=PLANE('',#958);
#821=PLANE('',#959);
#822=PLANE('',#960);
#823=PLANE('',#961);
#824=PLANE('',#962);
#825=PLANE('',#963);
#826=PLANE('',#964);
#827=PLANE('',#965);
#828=PLANE('',#966);
#829=PLANE('',#967);
#830=PLANE('',#968);
#831=PLANE('',#969);
#832=PLANE('',#970);
#833=PLANE('',#971);
#834=PLANE('',#972);
#835=PLANE('',#982);
#836=PLANE('',#983);
#837=ADVANCED_FACE('',(#65),#795,.T.);
#838=ADVANCED_FACE('',(#66),#796,.T.);
#839=ADVANCED_FACE('',(#67),#797,.T.);
#840=ADVANCED_FACE('',(#68),#798,.T.);
#841=ADVANCED_FACE('',(#69),#799,.T.);
#842=ADVANCED_FACE('',(#70),#800,.T.);
#843=ADVANCED_FACE('',(#71),#801,.T.);
#844=ADVANCED_FACE('',(#72),#802,.T.);
#845=ADVANCED_FACE('',(#73,#45),#803,.T.);
#846=ADVANCED_FACE('',(#74),#804,.F.);
#847=ADVANCED_FACE('',(#75),#805,.F.);
#848=ADVANCED_FACE('',(#76),#806,.F.);
#849=ADVANCED_FACE('',(#77),#807,.F.);
#850=ADVANCED_FACE('',(#78),#808,.F.);
#851=ADVANCED_FACE('',(#79),#809,.F.);
#852=ADVANCED_FACE('',(#80),#810,.F.);
#853=ADVANCED_FACE('',(#81),#811,.F.);
#854=ADVANCED_FACE('',(#82),#812,.F.);
#855=ADVANCED_FACE('',(#83,#46),#813,.F.);
#856=ADVANCED_FACE('',(#84,#47),#814,.F.);
#857=ADVANCED_FACE('',(#85),#15,.F.);
#858=ADVANCED_FACE('',(#86),#16,.F.);
#859=ADVANCED_FACE('',(#87,#48,#49,#50,#51),#815,.T.);
#860=ADVANCED_FACE('',(#88),#17,.F.);
#861=ADVANCED_FACE('',(#89),#18,.F.);
#862=ADVANCED_FACE('',(#90),#19,.F.);
#863=ADVANCED_FACE('',(#91),#20,.F.);
#864=ADVANCED_FACE('',(#92,#52),#816,.F.);
#865=ADVANCED_FACE('',(#93,#53),#817,.F.);
#866=ADVANCED_FACE('',(#94,#54),#818,.F.);
#867=ADVANCED_FACE('',(#95),#819,.T.);
#868=ADVANCED_FACE('',(#96),#820,.T.);
#869=ADVANCED_FACE('',(#97),#821,.T.);
#870=ADVANCED_FACE('',(#98),#822,.T.);
#871=ADVANCED_FACE('',(#99),#823,.T.);
#872=ADVANCED_FACE('',(#100),#824,.T.);
#873=ADVANCED_FACE('',(#101),#825,.T.);
#874=ADVANCED_FACE('',(#102),#826,.T.);
#875=ADVANCED_FACE('',(#103),#827,.T.);
#876=ADVANCED_FACE('',(#104),#828,.T.);
#877=ADVANCED_FACE('',(#105),#829,.T.);
#878=ADVANCED_FACE('',(#106),#830,.T.);
#879=ADVANCED_FACE('',(#107),#831,.T.);
#880=ADVANCED_FACE('',(#108),#832,.T.);
#881=ADVANCED_FACE('',(#109),#833,.T.);
#882=ADVANCED_FACE('',(#110),#834,.T.);
#883=ADVANCED_FACE('',(#111),#21,.F.);
#884=ADVANCED_FACE('',(#112),#22,.F.);
#885=ADVANCED_FACE('',(#113),#23,.F.);
#886=ADVANCED_FACE('',(#114),#24,.F.);
#887=ADVANCED_FACE('',(#115,#55,#56,#57,#58,#59,#60,#61,#62,#63),#835,.T.);
#888=ADVANCED_FACE('',(#116,#64),#836,.F.);
#889=CLOSED_SHELL('',(#837,#838,#839,#840,#841,#842,#843,#844,#845,#846,
#847,#848,#849,#850,#851,#852,#853,#854,#855,#856,#857,#858,#859,#860,#861,
#862,#863,#864,#865,#866,#867,#868,#869,#870,#871,#872,#873,#874,#875,#876,
#877,#878,#879,#880,#881,#882,#883,#884,#885,#886,#887,#888));
#890=DERIVED_UNIT_ELEMENT(#893,1.);
#891=DERIVED_UNIT_ELEMENT(#1472,-3.);
#892=DIMENSIONAL_EXPONENTS(0.,1.,0.,0.,0.,0.,0.);
#893=(
CONVERSION_BASED_UNIT('gram',#895)
MASS_UNIT()
NAMED_UNIT(#892)
);
#894=(
MASS_UNIT()
NAMED_UNIT(*)
SI_UNIT(.KILO.,.GRAM.)
);
#895=MASS_MEASURE_WITH_UNIT(MASS_MEASURE(0.001),#894);
#896=DERIVED_UNIT((#890,#891));
#897=MEASURE_REPRESENTATION_ITEM('density measure',
POSITIVE_RATIO_MEASURE(1.),#896);
#898=PROPERTY_DEFINITION_REPRESENTATION(#903,#900);
#899=PROPERTY_DEFINITION_REPRESENTATION(#904,#901);
#900=REPRESENTATION('material name',(#902),#1469);
#901=REPRESENTATION('density',(#897),#1469);
#902=DESCRIPTIVE_REPRESENTATION_ITEM('\X2\4E00822C\X0\','\X2\4E00822C\X0\');
#903=PROPERTY_DEFINITION('material property','material name',#1479);
#904=PROPERTY_DEFINITION('material property','density of part',#1479);
#905=DATE_TIME_ROLE('creation_date');
#906=APPLIED_DATE_AND_TIME_ASSIGNMENT(#907,#905,(#1479));
#907=DATE_AND_TIME(#908,#909);
#908=CALENDAR_DATE(2025,28,8);
#909=LOCAL_TIME(0,0,0.,#910);
#910=COORDINATED_UNIVERSAL_TIME_OFFSET(0,0,.BEHIND.);
#911=AXIS2_PLACEMENT_3D('',#1224,#984,#985);
#912=AXIS2_PLACEMENT_3D('',#1225,#986,#987);
#913=AXIS2_PLACEMENT_3D('',#1234,#992,#993);
#914=AXIS2_PLACEMENT_3D('',#1240,#997,#998);
#915=AXIS2_PLACEMENT_3D('',#1246,#1002,#1003);
#916=AXIS2_PLACEMENT_3D('',#1249,#1006,#1007);
#917=AXIS2_PLACEMENT_3D('',#1258,#1012,#1013);
#918=AXIS2_PLACEMENT_3D('',#1264,#1017,#1018);
#919=AXIS2_PLACEMENT_3D('',#1270,#1022,#1023);
#920=AXIS2_PLACEMENT_3D('',#1273,#1026,#1027);
#921=AXIS2_PLACEMENT_3D('',#1274,#1028,#1029);
#922=AXIS2_PLACEMENT_3D('',#1283,#1034,#1035);
#923=AXIS2_PLACEMENT_3D('',#1289,#1039,#1040);
#924=AXIS2_PLACEMENT_3D('',#1295,#1044,#1045);
#925=AXIS2_PLACEMENT_3D('',#1298,#1048,#1049);
#926=AXIS2_PLACEMENT_3D('',#1299,#1050,#1051);
#927=AXIS2_PLACEMENT_3D('',#1308,#1056,#1057);
#928=AXIS2_PLACEMENT_3D('',#1317,#1062,#1063);
#929=AXIS2_PLACEMENT_3D('',#1326,#1068,#1069);
#930=AXIS2_PLACEMENT_3D('',#1335,#1074,#1075);
#931=AXIS2_PLACEMENT_3D('',#1337,#1076,#1077);
#932=AXIS2_PLACEMENT_3D('',#1339,#1078,#1079);
#933=AXIS2_PLACEMENT_3D('',#1340,#1080,#1081);
#934=AXIS2_PLACEMENT_3D('',#1342,#1082,#1083);
#935=AXIS2_PLACEMENT_3D('',#1344,#1084,#1085);
#936=AXIS2_PLACEMENT_3D('',#1345,#1086,#1087);
#937=AXIS2_PLACEMENT_3D('',#1347,#1088,#1089);
#938=AXIS2_PLACEMENT_3D('',#1349,#1091,#1092);
#939=AXIS2_PLACEMENT_3D('',#1351,#1093,#1094);
#940=AXIS2_PLACEMENT_3D('',#1353,#1096,#1097);
#941=AXIS2_PLACEMENT_3D('',#1355,#1098,#1099);
#942=AXIS2_PLACEMENT_3D('',#1357,#1100,#1101);
#943=AXIS2_PLACEMENT_3D('',#1358,#1102,#1103);
#944=AXIS2_PLACEMENT_3D('',#1361,#1105,#1106);
#945=AXIS2_PLACEMENT_3D('',#1362,#1107,#1108);
#946=AXIS2_PLACEMENT_3D('',#1365,#1110,#1111);
#947=AXIS2_PLACEMENT_3D('',#1366,#1112,#1113);
#948=AXIS2_PLACEMENT_3D('',#1369,#1115,#1116);
#949=AXIS2_PLACEMENT_3D('',#1370,#1117,#1118);
#950=AXIS2_PLACEMENT_3D('',#1373,#1120,#1121);
#951=AXIS2_PLACEMENT_3D('',#1374,#1122,#1123);
#952=AXIS2_PLACEMENT_3D('',#1376,#1124,#1125);
#953=AXIS2_PLACEMENT_3D('',#1377,#1126,#1127);
#954=AXIS2_PLACEMENT_3D('',#1379,#1128,#1129);
#955=AXIS2_PLACEMENT_3D('',#1380,#1130,#1131);
#956=AXIS2_PLACEMENT_3D('',#1382,#1132,#1133);
#957=AXIS2_PLACEMENT_3D('',#1383,#1134,#1135);
#958=AXIS2_PLACEMENT_3D('',#1389,#1139,#1140);
#959=AXIS2_PLACEMENT_3D('',#1393,#1143,#1144);
#960=AXIS2_PLACEMENT_3D('',#1397,#1147,#1148);
#961=AXIS2_PLACEMENT_3D('',#1399,#1150,#1151);
#962=AXIS2_PLACEMENT_3D('',#1405,#1155,#1156);
#963=AXIS2_PLACEMENT_3D('',#1409,#1159,#1160);
#964=AXIS2_PLACEMENT_3D('',#1413,#1163,#1164);
#965=AXIS2_PLACEMENT_3D('',#1415,#1166,#1167);
#966=AXIS2_PLACEMENT_3D('',#1421,#1171,#1172);
#967=AXIS2_PLACEMENT_3D('',#1425,#1175,#1176);
#968=AXIS2_PLACEMENT_3D('',#1429,#1179,#1180);
#969=AXIS2_PLACEMENT_3D('',#1431,#1182,#1183);
#970=AXIS2_PLACEMENT_3D('',#1437,#1187,#1188);
#971=AXIS2_PLACEMENT_3D('',#1441,#1191,#1192);
#972=AXIS2_PLACEMENT_3D('',#1445,#1195,#1196);
#973=AXIS2_PLACEMENT_3D('',#1447,#1198,#1199);
#974=AXIS2_PLACEMENT_3D('',#1449,#1200,#1201);
#975=AXIS2_PLACEMENT_3D('',#1451,#1203,#1204);
#976=AXIS2_PLACEMENT_3D('',#1453,#1205,#1206);
#977=AXIS2_PLACEMENT_3D('',#1455,#1208,#1209);
#978=AXIS2_PLACEMENT_3D('',#1457,#1210,#1211);
#979=AXIS2_PLACEMENT_3D('',#1460,#1213,#1214);
#980=AXIS2_PLACEMENT_3D('',#1461,#1215,#1216);
#981=AXIS2_PLACEMENT_3D('',#1463,#1217,#1218);
#982=AXIS2_PLACEMENT_3D('',#1465,#1220,#1221);
#983=AXIS2_PLACEMENT_3D('',#1466,#1222,#1223);
#984=DIRECTION('axis',(0.,0.,1.));
#985=DIRECTION('refdir',(1.,0.,0.));
#986=DIRECTION('center_axis',(1.,0.,0.));
#987=DIRECTION('ref_axis',(0.,1.,0.));
#988=DIRECTION('',(0.,1.,0.));
#989=DIRECTION('',(0.,0.,1.));
#990=DIRECTION('',(0.,1.,0.));
#991=DIRECTION('',(0.,0.,1.));
#992=DIRECTION('center_axis',(0.,-1.,0.));
#993=DIRECTION('ref_axis',(1.,0.,0.));
#994=DIRECTION('',(1.,0.,0.));
#995=DIRECTION('',(0.,0.,1.));
#996=DIRECTION('',(1.,0.,0.));
#997=DIRECTION('center_axis',(0.,1.,0.));
#998=DIRECTION('ref_axis',(-1.,0.,0.));
#999=DIRECTION('',(-1.,0.,0.));
#1000=DIRECTION('',(-1.,0.,0.));
#1001=DIRECTION('',(0.,0.,1.));
#1002=DIRECTION('center_axis',(-1.,0.,0.));
#1003=DIRECTION('ref_axis',(0.,-1.,0.));
#1004=DIRECTION('',(0.,-1.,0.));
#1005=DIRECTION('',(0.,-1.,0.));
#1006=DIRECTION('center_axis',(0.,-1.,0.));
#1007=DIRECTION('ref_axis',(1.,0.,0.));
#1008=DIRECTION('',(-1.,0.,0.));
#1009=DIRECTION('',(0.,0.,1.));
#1010=DIRECTION('',(1.,0.,0.));
#1011=DIRECTION('',(0.,0.,1.));
#1012=DIRECTION('center_axis',(-1.,0.,0.));
#1013=DIRECTION('ref_axis',(0.,-1.,0.));
#1014=DIRECTION('',(0.,1.,0.));
#1015=DIRECTION('',(0.,-1.,0.));
#1016=DIRECTION('',(0.,0.,1.));
#1017=DIRECTION('center_axis',(0.,1.,0.));
#1018=DIRECTION('ref_axis',(-1.,0.,0.));
#1019=DIRECTION('',(1.,0.,0.));
#1020=DIRECTION('',(-1.,0.,0.));
#1021=DIRECTION('',(0.,0.,1.));
#1022=DIRECTION('center_axis',(1.,0.,0.));
#1023=DIRECTION('ref_axis',(0.,1.,0.));
#1024=DIRECTION('',(0.,-1.,0.));
#1025=DIRECTION('',(0.,1.,0.));
#1026=DIRECTION('center_axis',(0.,0.,1.));
#1027=DIRECTION('ref_axis',(1.,0.,0.));
#1028=DIRECTION('center_axis',(1.,0.,0.));
#1029=DIRECTION('ref_axis',(0.,-1.,0.));
#1030=DIRECTION('',(0.,-1.,0.));
#1031=DIRECTION('',(0.,0.,-1.));
#1032=DIRECTION('',(0.,-1.,0.));
#1033=DIRECTION('',(0.,0.,-1.));
#1034=DIRECTION('center_axis',(0.,1.,0.));
#1035=DIRECTION('ref_axis',(1.,0.,0.));
#1036=DIRECTION('',(1.,0.,0.));
#1037=DIRECTION('',(0.,0.,-1.));
#1038=DIRECTION('',(1.,0.,0.));
#1039=DIRECTION('center_axis',(-1.,0.,0.));
#1040=DIRECTION('ref_axis',(0.,1.,0.));
#1041=DIRECTION('',(0.,1.,0.));
#1042=DIRECTION('',(0.,0.,-1.));
#1043=DIRECTION('',(0.,1.,0.));
#1044=DIRECTION('center_axis',(0.,-1.,0.));
#1045=DIRECTION('ref_axis',(-1.,0.,0.));
#1046=DIRECTION('',(-1.,0.,0.));
#1047=DIRECTION('',(-1.,0.,0.));
#1048=DIRECTION('center_axis',(0.,0.,-1.));
#1049=DIRECTION('ref_axis',(-1.,0.,0.));
#1050=DIRECTION('center_axis',(0.,0.,-1.));
#1051=DIRECTION('ref_axis',(-1.,0.,0.));
#1052=DIRECTION('',(1.,0.,0.));
#1053=DIRECTION('',(-1.85037170770859E-16,1.,0.));
#1054=DIRECTION('',(-1.,0.,0.));
#1055=DIRECTION('',(0.,-1.,0.));
#1056=DIRECTION('center_axis',(0.,0.,-1.));
#1057=DIRECTION('ref_axis',(-1.,0.,0.));
#1058=DIRECTION('',(0.,1.,0.));
#1059=DIRECTION('',(-1.,0.,0.));
#1060=DIRECTION('',(0.,-1.,0.));
#1061=DIRECTION('',(1.,0.,0.));
#1062=DIRECTION('center_axis',(0.,0.,-1.));
#1063=DIRECTION('ref_axis',(-1.,0.,0.));
#1064=DIRECTION('',(1.,0.,0.));
#1065=DIRECTION('',(0.,1.,0.));
#1066=DIRECTION('',(-1.,0.,0.));
#1067=DIRECTION('',(0.,-1.,0.));
#1068=DIRECTION('center_axis',(0.,0.,-1.));
#1069=DIRECTION('ref_axis',(-1.,0.,0.));
#1070=DIRECTION('',(1.77635683940026E-15,1.,0.));
#1071=DIRECTION('',(-1.,0.,0.));
#1072=DIRECTION('',(0.,-1.,0.));
#1073=DIRECTION('',(1.,0.,0.));
#1074=DIRECTION('center_axis',(0.,0.,-1.));
#1075=DIRECTION('ref_axis',(-1.,0.,0.));
#1076=DIRECTION('center_axis',(0.,0.,1.));
#1077=DIRECTION('ref_axis',(1.,0.,0.));
#1078=DIRECTION('center_axis',(0.,0.,1.));
#1079=DIRECTION('ref_axis',(1.,0.,0.));
#1080=DIRECTION('center_axis',(0.,0.,-1.));
#1081=DIRECTION('ref_axis',(-1.,0.,0.));
#1082=DIRECTION('center_axis',(0.,0.,1.));
#1083=DIRECTION('ref_axis',(1.,0.,0.));
#1084=DIRECTION('center_axis',(0.,0.,1.));
#1085=DIRECTION('ref_axis',(1.,0.,0.));
#1086=DIRECTION('center_axis',(0.,0.,-1.));
#1087=DIRECTION('ref_axis',(1.,0.,0.));
#1088=DIRECTION('center_axis',(0.,0.,1.));
#1089=DIRECTION('ref_axis',(1.,0.,0.));
#1090=DIRECTION('',(0.,0.,1.));
#1091=DIRECTION('center_axis',(0.,0.,-1.));
#1092=DIRECTION('ref_axis',(1.,0.,0.));
#1093=DIRECTION('center_axis',(0.,0.,1.));
#1094=DIRECTION('ref_axis',(1.,0.,0.));
#1095=DIRECTION('',(0.,0.,1.));
#1096=DIRECTION('center_axis',(0.,0.,-1.));
#1097=DIRECTION('ref_axis',(-1.,0.,0.));
#1098=DIRECTION('center_axis',(0.,0.,1.));
#1099=DIRECTION('ref_axis',(1.,0.,0.));
#1100=DIRECTION('center_axis',(0.,0.,1.));
#1101=DIRECTION('ref_axis',(1.,0.,0.));
#1102=DIRECTION('center_axis',(0.,0.,-1.));
#1103=DIRECTION('ref_axis',(1.,0.,0.));
#1104=DIRECTION('',(0.,0.,1.));
#1105=DIRECTION('center_axis',(0.,0.,-1.));
#1106=DIRECTION('ref_axis',(1.,0.,0.));
#1107=DIRECTION('center_axis',(0.,0.,-1.));
#1108=DIRECTION('ref_axis',(1.,0.,0.));
#1109=DIRECTION('',(0.,0.,1.));
#1110=DIRECTION('center_axis',(0.,0.,-1.));
#1111=DIRECTION('ref_axis',(1.,0.,0.));
#1112=DIRECTION('center_axis',(0.,0.,-1.));
#1113=DIRECTION('ref_axis',(1.,0.,0.));
#1114=DIRECTION('',(0.,0.,1.));
#1115=DIRECTION('center_axis',(0.,0.,-1.));
#1116=DIRECTION('ref_axis',(1.,0.,0.));
#1117=DIRECTION('center_axis',(0.,0.,-1.));
#1118=DIRECTION('ref_axis',(1.,0.,0.));
#1119=DIRECTION('',(0.,0.,1.));
#1120=DIRECTION('center_axis',(0.,0.,-1.));
#1121=DIRECTION('ref_axis',(1.,0.,0.));
#1122=DIRECTION('center_axis',(0.,0.,1.));
#1123=DIRECTION('ref_axis',(1.,0.,0.));
#1124=DIRECTION('center_axis',(0.,0.,-1.));
#1125=DIRECTION('ref_axis',(-1.,0.,0.));
#1126=DIRECTION('center_axis',(0.,0.,1.));
#1127=DIRECTION('ref_axis',(1.,0.,0.));
#1128=DIRECTION('center_axis',(0.,0.,-1.));
#1129=DIRECTION('ref_axis',(-1.,0.,0.));
#1130=DIRECTION('center_axis',(0.,0.,1.));
#1131=DIRECTION('ref_axis',(1.,0.,0.));
#1132=DIRECTION('center_axis',(0.,0.,-1.));
#1133=DIRECTION('ref_axis',(-1.,0.,0.));
#1134=DIRECTION('center_axis',(-1.,1.77635683940026E-15,0.));
#1135=DIRECTION('ref_axis',(-1.77635683940026E-15,-1.,0.));
#1136=DIRECTION('',(0.,0.,-1.));
#1137=DIRECTION('',(-1.77635683940026E-15,-1.,0.));
#1138=DIRECTION('',(0.,0.,1.));
#1139=DIRECTION('center_axis',(2.61228946970625E-16,-1.,0.));
#1140=DIRECTION('ref_axis',(1.,2.61228946970625E-16,0.));
#1141=DIRECTION('',(1.,2.61228946970625E-16,0.));
#1142=DIRECTION('',(0.,0.,1.));
#1143=DIRECTION('center_axis',(1.,1.11022302462516E-16,0.));
#1144=DIRECTION('ref_axis',(-1.11022302462516E-16,1.,0.));
#1145=DIRECTION('',(-1.11022302462516E-16,1.,0.));
#1146=DIRECTION('',(0.,0.,1.));
#1147=DIRECTION('center_axis',(0.,1.,0.));
#1148=DIRECTION('ref_axis',(-1.,0.,0.));
#1149=DIRECTION('',(-1.,0.,0.));
#1150=DIRECTION('center_axis',(0.,1.,0.));
#1151=DIRECTION('ref_axis',(-1.,0.,0.));
#1152=DIRECTION('',(0.,0.,-1.));
#1153=DIRECTION('',(-1.,0.,0.));
#1154=DIRECTION('',(0.,0.,1.));
#1155=DIRECTION('center_axis',(-1.,0.,0.));
#1156=DIRECTION('ref_axis',(0.,-1.,0.));
#1157=DIRECTION('',(0.,-1.,0.));
#1158=DIRECTION('',(0.,0.,1.));
#1159=DIRECTION('center_axis',(3.70074341541719E-16,-1.,0.));
#1160=DIRECTION('ref_axis',(1.,3.70074341541719E-16,0.));
#1161=DIRECTION('',(1.,3.70074341541719E-16,0.));
#1162=DIRECTION('',(0.,0.,1.));
#1163=DIRECTION('center_axis',(1.,0.,0.));
#1164=DIRECTION('ref_axis',(0.,1.,0.));
#1165=DIRECTION('',(0.,1.,0.));
#1166=DIRECTION('center_axis',(-1.,0.,0.));
#1167=DIRECTION('ref_axis',(0.,-1.,0.));
#1168=DIRECTION('',(0.,0.,-1.));
#1169=DIRECTION('',(0.,-1.,0.));
#1170=DIRECTION('',(0.,0.,1.));
#1171=DIRECTION('center_axis',(9.86864910777917E-16,-1.,0.));
#1172=DIRECTION('ref_axis',(1.,9.86864910777917E-16,0.));
#1173=DIRECTION('',(1.,9.86864910777917E-16,0.));
#1174=DIRECTION('',(0.,0.,1.));
#1175=DIRECTION('center_axis',(1.,0.,0.));
#1176=DIRECTION('ref_axis',(0.,1.,0.));
#1177=DIRECTION('',(0.,1.,0.));
#1178=DIRECTION('',(0.,0.,1.));
#1179=DIRECTION('center_axis',(0.,1.,0.));
#1180=DIRECTION('ref_axis',(-1.,0.,0.));
#1181=DIRECTION('',(-1.,0.,0.));
#1182=DIRECTION('center_axis',(0.,1.,0.));
#1183=DIRECTION('ref_axis',(-1.,0.,0.));
#1184=DIRECTION('',(0.,0.,-1.));
#1185=DIRECTION('',(-1.,0.,0.));
#1186=DIRECTION('',(0.,0.,1.));
#1187=DIRECTION('center_axis',(-1.,-2.02384405530627E-16,0.));
#1188=DIRECTION('ref_axis',(2.02384405530627E-16,-1.,0.));
#1189=DIRECTION('',(2.02384405530627E-16,-1.,0.));
#1190=DIRECTION('',(0.,0.,1.));
#1191=DIRECTION('center_axis',(0.,-1.,0.));
#1192=DIRECTION('ref_axis',(1.,0.,0.));
#1193=DIRECTION('',(1.,0.,0.));
#1194=DIRECTION('',(0.,0.,1.));
#1195=DIRECTION('center_axis',(1.,4.93432455388958E-16,0.));
#1196=DIRECTION('ref_axis',(-4.93432455388958E-16,1.,0.));
#1197=DIRECTION('',(-4.93432455388958E-16,1.,0.));
#1198=DIRECTION('center_axis',(0.,0.,1.));
#1199=DIRECTION('ref_axis',(-1.,0.,0.));
#1200=DIRECTION('center_axis',(0.,0.,-1.));
#1201=DIRECTION('ref_axis',(-1.,0.,0.));
#1202=DIRECTION('',(0.,0.,-1.));
#1203=DIRECTION('center_axis',(0.,0.,1.));
#1204=DIRECTION('ref_axis',(-1.,0.,0.));
#1205=DIRECTION('center_axis',(0.,0.,-1.));
#1206=DIRECTION('ref_axis',(-1.,0.,0.));
#1207=DIRECTION('',(0.,0.,-1.));
#1208=DIRECTION('center_axis',(0.,0.,1.));
#1209=DIRECTION('ref_axis',(-1.,0.,0.));
#1210=DIRECTION('center_axis',(0.,0.,-1.));
#1211=DIRECTION('ref_axis',(-1.,0.,0.));
#1212=DIRECTION('',(0.,0.,-1.));
#1213=DIRECTION('center_axis',(0.,0.,-1.));
#1214=DIRECTION('ref_axis',(-1.,0.,0.));
#1215=DIRECTION('center_axis',(0.,0.,1.));
#1216=DIRECTION('ref_axis',(-1.,0.,0.));
#1217=DIRECTION('center_axis',(0.,0.,-1.));
#1218=DIRECTION('ref_axis',(-1.,0.,0.));
#1219=DIRECTION('',(0.,0.,-1.));
#1220=DIRECTION('center_axis',(0.,0.,1.));
#1221=DIRECTION('ref_axis',(1.,0.,0.));
#1222=DIRECTION('center_axis',(0.,0.,1.));
#1223=DIRECTION('ref_axis',(1.,0.,0.));
#1224=CARTESIAN_POINT('',(0.,0.,0.));
#1225=CARTESIAN_POINT('Origin',(-32.5500000000233,-45.1499999999971,-2.));
#1226=CARTESIAN_POINT('',(-32.5500000000233,-45.1499999999971,2.));
#1227=CARTESIAN_POINT('',(-32.5500000000233,45.1499999999971,2.));
#1228=CARTESIAN_POINT('',(-32.5500000000233,22.5749999999985,2.));
#1229=CARTESIAN_POINT('',(-32.5500000000233,45.1499999999971,3.5));
#1230=CARTESIAN_POINT('',(-32.5500000000233,45.1499999999971,-2.));
#1231=CARTESIAN_POINT('',(-32.5500000000233,-45.1499999999971,3.5));
#1232=CARTESIAN_POINT('',(-32.5500000000233,45.1499999999971,3.5));
#1233=CARTESIAN_POINT('',(-32.5500000000233,-45.1499999999971,-2.));
#1234=CARTESIAN_POINT('Origin',(-32.5500000000233,45.1499999999971,-2.));
#1235=CARTESIAN_POINT('',(32.5500000000233,45.1499999999971,2.));
#1236=CARTESIAN_POINT('',(16.2750000000116,45.1499999999971,2.));
#1237=CARTESIAN_POINT('',(32.5500000000233,45.1499999999971,3.5));
#1238=CARTESIAN_POINT('',(32.5500000000233,45.1499999999971,-2.));
#1239=CARTESIAN_POINT('',(32.5500000000233,45.1499999999971,3.5));
#1240=CARTESIAN_POINT('Origin',(32.5500000000233,-45.1499999999971,-2.));
#1241=CARTESIAN_POINT('',(32.5500000000233,-45.1499999999971,2.));
#1242=CARTESIAN_POINT('',(-16.2750000000116,-45.1499999999971,2.));
#1243=CARTESIAN_POINT('',(32.5500000000233,-45.1499999999971,3.5));
#1244=CARTESIAN_POINT('',(-32.5500000000233,-45.1499999999971,3.5));
#1245=CARTESIAN_POINT('',(32.5500000000233,-45.1499999999971,-2.));
#1246=CARTESIAN_POINT('Origin',(32.5500000000233,45.1499999999971,-2.));
#1247=CARTESIAN_POINT('',(32.5500000000233,-22.5749999999985,2.));
#1248=CARTESIAN_POINT('',(32.5500000000233,-45.1499999999971,3.5));
#1249=CARTESIAN_POINT('Origin',(-33.5499999999913,-46.1500000000247,-2.));
#1250=CARTESIAN_POINT('',(33.5499999999913,-46.1500000000247,-2.));
#1251=CARTESIAN_POINT('',(-33.5499999999913,-46.1500000000247,-2.));
#1252=CARTESIAN_POINT('',(33.5499999999913,-46.1500000000247,-2.));
#1253=CARTESIAN_POINT('',(33.5499999999913,-46.1500000000247,3.5));
#1254=CARTESIAN_POINT('',(33.5499999999913,-46.1500000000247,-2.));
#1255=CARTESIAN_POINT('',(-33.5499999999913,-46.1500000000247,3.5));
#1256=CARTESIAN_POINT('',(33.5499999999913,-46.1500000000247,3.5));
#1257=CARTESIAN_POINT('',(-33.5499999999913,-46.1500000000247,-2.));
#1258=CARTESIAN_POINT('Origin',(-33.5499999999913,46.1500000000247,-2.));
#1259=CARTESIAN_POINT('',(-33.5499999999913,46.1500000000247,-2.));
#1260=CARTESIAN_POINT('',(-33.5499999999913,-46.1500000000247,-2.));
#1261=CARTESIAN_POINT('',(-33.5499999999913,46.1500000000247,3.5));
#1262=CARTESIAN_POINT('',(-33.5499999999913,-46.1500000000247,3.5));
#1263=CARTESIAN_POINT('',(-33.5499999999913,46.1500000000247,-2.));
#1264=CARTESIAN_POINT('Origin',(33.5499999999913,46.1500000000247,-2.));
#1265=CARTESIAN_POINT('',(33.5499999999913,46.1500000000247,-2.));
#1266=CARTESIAN_POINT('',(-33.5499999999913,46.1500000000247,-2.));
#1267=CARTESIAN_POINT('',(33.5499999999913,46.1500000000247,3.5));
#1268=CARTESIAN_POINT('',(-33.5499999999913,46.1500000000247,3.5));
#1269=CARTESIAN_POINT('',(33.5499999999913,46.1500000000247,-2.));
#1270=CARTESIAN_POINT('Origin',(33.5499999999913,-46.1500000000247,-2.));
#1271=CARTESIAN_POINT('',(33.5499999999913,46.1500000000247,-2.));
#1272=CARTESIAN_POINT('',(33.5499999999913,46.1500000000247,3.5));
#1273=CARTESIAN_POINT('Origin',(0.,0.,3.5));
#1274=CARTESIAN_POINT('Origin',(-21.05,40.65,2.));
#1275=CARTESIAN_POINT('',(-21.05,40.65,2.));
#1276=CARTESIAN_POINT('',(-21.05,23.15,2.));
#1277=CARTESIAN_POINT('',(-21.05,20.325,2.));
#1278=CARTESIAN_POINT('',(-21.05,40.65,-1.));
#1279=CARTESIAN_POINT('',(-21.05,40.65,2.));
#1280=CARTESIAN_POINT('',(-21.05,23.15,-1.));
#1281=CARTESIAN_POINT('',(-21.05,23.15,-1.));
#1282=CARTESIAN_POINT('',(-21.05,23.15,2.));
#1283=CARTESIAN_POINT('Origin',(-27.55,40.65,2.));
#1284=CARTESIAN_POINT('',(-27.55,40.65,2.));
#1285=CARTESIAN_POINT('',(-13.775,40.65,2.));
#1286=CARTESIAN_POINT('',(-27.55,40.65,-1.));
#1287=CARTESIAN_POINT('',(-27.55,40.65,2.));
#1288=CARTESIAN_POINT('',(-21.05,40.65,-1.));
#1289=CARTESIAN_POINT('Origin',(-27.55,23.15,2.));
#1290=CARTESIAN_POINT('',(-27.55,23.15,2.));
#1291=CARTESIAN_POINT('',(-27.55,11.575,2.));
#1292=CARTESIAN_POINT('',(-27.55,23.15,-1.));
#1293=CARTESIAN_POINT('',(-27.55,23.15,2.));
#1294=CARTESIAN_POINT('',(-27.55,40.65,-1.));
#1295=CARTESIAN_POINT('Origin',(-21.05,23.15,2.));
#1296=CARTESIAN_POINT('',(-10.525,23.15,2.));
#1297=CARTESIAN_POINT('',(-27.55,23.15,-1.));
#1298=CARTESIAN_POINT('Origin',(-24.3,31.9,-1.));
#1299=CARTESIAN_POINT('Origin',(0.,0.,-1.));
#1300=CARTESIAN_POINT('',(-12.05,20.15,-1.));
#1301=CARTESIAN_POINT('',(-0.0499999999999989,20.15,-1.));
#1302=CARTESIAN_POINT('',(-12.05,20.15,-1.));
#1303=CARTESIAN_POINT('',(-0.0499999999999989,24.65,-1.));
#1304=CARTESIAN_POINT('',(-0.0499999999999967,20.15,-1.));
#1305=CARTESIAN_POINT('',(-12.05,24.65,-1.));
#1306=CARTESIAN_POINT('',(-0.0499999999999967,24.65,-1.));
#1307=CARTESIAN_POINT('',(-12.05,24.65,-1.));
#1308=CARTESIAN_POINT('Origin',(0.,0.,-1.));
#1309=CARTESIAN_POINT('',(-20.05,-32.65,-1.));
#1310=CARTESIAN_POINT('',(-20.05,-28.15,-1.));
#1311=CARTESIAN_POINT('',(-20.05,-32.65,-1.));
#1312=CARTESIAN_POINT('',(-29.05,-28.15,-1.));
#1313=CARTESIAN_POINT('',(-20.05,-28.15,-1.));
#1314=CARTESIAN_POINT('',(-29.05,-32.65,-1.));
#1315=CARTESIAN_POINT('',(-29.05,-28.15,-1.));
#1316=CARTESIAN_POINT('',(-29.05,-32.65,-1.));
#1317=CARTESIAN_POINT('Origin',(0.,0.,-1.));
#1318=CARTESIAN_POINT('',(-19.55,-38.15,-1.));
#1319=CARTESIAN_POINT('',(-7.55,-38.15,-1.));
#1320=CARTESIAN_POINT('',(-19.55,-38.15,-1.));
#1321=CARTESIAN_POINT('',(-7.55,-33.65,-1.));
#1322=CARTESIAN_POINT('',(-7.55,-38.15,-1.));
#1323=CARTESIAN_POINT('',(-19.55,-33.65,-1.));
#1324=CARTESIAN_POINT('',(-7.55,-33.65,-1.));
#1325=CARTESIAN_POINT('',(-19.55,-33.65,-1.));
#1326=CARTESIAN_POINT('Origin',(0.,0.,-1.));
#1327=CARTESIAN_POINT('',(29.55,-43.15,-1.));
#1328=CARTESIAN_POINT('',(29.55,-38.15,-1.));
#1329=CARTESIAN_POINT('',(29.55,-43.15,-1.));
#1330=CARTESIAN_POINT('',(-4.44999999999999,-38.15,-1.));
#1331=CARTESIAN_POINT('',(29.55,-38.15,-1.));
#1332=CARTESIAN_POINT('',(-4.44999999999999,-43.15,-1.));
#1333=CARTESIAN_POINT('',(-4.44999999999999,-38.15,-1.));
#1334=CARTESIAN_POINT('',(-4.44999999999999,-43.15,-1.));
#1335=CARTESIAN_POINT('Origin',(0.,0.,-1.));
#1336=CARTESIAN_POINT('',(21.061,4.43700000000001,-1.));
#1337=CARTESIAN_POINT('Origin',(24.111,4.43700000000001,-1.));
#1338=CARTESIAN_POINT('',(21.111,4.43700000000001,-1.));
#1339=CARTESIAN_POINT('Origin',(24.111,4.43700000000001,-1.));
#1340=CARTESIAN_POINT('Origin',(0.,0.,-1.));
#1341=CARTESIAN_POINT('',(21.061,-19.563,-1.));
#1342=CARTESIAN_POINT('Origin',(24.111,-19.563,-1.));
#1343=CARTESIAN_POINT('',(21.111,-19.563,-1.));
#1344=CARTESIAN_POINT('Origin',(24.111,-19.563,-1.));
#1345=CARTESIAN_POINT('Origin',(24.111,-19.563,-1.));
#1346=CARTESIAN_POINT('',(21.111,-19.563,-2.));
#1347=CARTESIAN_POINT('Origin',(24.111,-19.563,-2.));
#1348=CARTESIAN_POINT('',(21.111,-19.563,-1.));
#1349=CARTESIAN_POINT('Origin',(24.111,4.43700000000001,-1.));
#1350=CARTESIAN_POINT('',(21.111,4.43700000000001,-2.));
#1351=CARTESIAN_POINT('Origin',(24.111,4.43700000000001,-2.));
#1352=CARTESIAN_POINT('',(21.111,4.43700000000001,-1.));
#1353=CARTESIAN_POINT('Origin',(0.,0.,-2.));
#1354=CARTESIAN_POINT('',(-27.439,-19.563,-2.));
#1355=CARTESIAN_POINT('Origin',(-24.389,-19.563,-2.));
#1356=CARTESIAN_POINT('',(-27.439,4.43700000000001,-2.));
#1357=CARTESIAN_POINT('Origin',(-24.389,4.43700000000001,-2.));
#1358=CARTESIAN_POINT('Origin',(-24.389,-19.563,0.));
#1359=CARTESIAN_POINT('',(-27.439,-19.563,0.));
#1360=CARTESIAN_POINT('',(-27.439,-19.563,0.));
#1361=CARTESIAN_POINT('Origin',(-24.389,-19.563,0.));
#1362=CARTESIAN_POINT('Origin',(-24.389,4.43700000000001,0.));
#1363=CARTESIAN_POINT('',(-27.439,4.43700000000001,0.));
#1364=CARTESIAN_POINT('',(-27.439,4.43700000000001,0.));
#1365=CARTESIAN_POINT('Origin',(-24.389,4.43700000000001,0.));
#1366=CARTESIAN_POINT('Origin',(24.111,-19.563,0.));
#1367=CARTESIAN_POINT('',(21.061,-19.563,0.));
#1368=CARTESIAN_POINT('',(21.061,-19.563,0.));
#1369=CARTESIAN_POINT('Origin',(24.111,-19.563,0.));
#1370=CARTESIAN_POINT('Origin',(24.111,4.43700000000001,0.));
#1371=CARTESIAN_POINT('',(21.061,4.43700000000001,0.));
#1372=CARTESIAN_POINT('',(21.061,4.43700000000001,0.));
#1373=CARTESIAN_POINT('Origin',(24.111,4.43700000000001,0.));
#1374=CARTESIAN_POINT('Origin',(0.,0.,0.));
#1375=CARTESIAN_POINT('',(25.811,4.43700000000001,0.));
#1376=CARTESIAN_POINT('Origin',(24.111,4.43700000000001,0.));
#1377=CARTESIAN_POINT('Origin',(0.,0.,0.));
#1378=CARTESIAN_POINT('',(25.811,-19.563,0.));
#1379=CARTESIAN_POINT('Origin',(24.111,-19.563,0.));
#1380=CARTESIAN_POINT('Origin',(0.,0.,0.));
#1381=CARTESIAN_POINT('',(-22.689,4.43700000000001,0.));
#1382=CARTESIAN_POINT('Origin',(-24.389,4.43700000000001,0.));
#1383=CARTESIAN_POINT('Origin',(29.55,-38.15,0.));
#1384=CARTESIAN_POINT('',(29.55,-43.15,2.));
#1385=CARTESIAN_POINT('',(29.55,-43.15,0.));
#1386=CARTESIAN_POINT('',(29.55,-38.15,2.));
#1387=CARTESIAN_POINT('',(29.55,-38.15,2.));
#1388=CARTESIAN_POINT('',(29.55,-38.15,0.));
#1389=CARTESIAN_POINT('Origin',(-4.44999999999999,-38.15,0.));
#1390=CARTESIAN_POINT('',(-4.44999999999999,-38.15,2.));
#1391=CARTESIAN_POINT('',(-4.44999999999999,-38.15,2.));
#1392=CARTESIAN_POINT('',(-4.44999999999999,-38.15,0.));
#1393=CARTESIAN_POINT('Origin',(-4.44999999999999,-43.15,0.));
#1394=CARTESIAN_POINT('',(-4.44999999999999,-43.15,2.));
#1395=CARTESIAN_POINT('',(-4.44999999999999,-43.15,2.));
#1396=CARTESIAN_POINT('',(-4.44999999999999,-43.15,0.));
#1397=CARTESIAN_POINT('Origin',(29.55,-43.15,0.));
#1398=CARTESIAN_POINT('',(29.55,-43.15,2.));
#1399=CARTESIAN_POINT('Origin',(-7.55,-38.15,0.));
#1400=CARTESIAN_POINT('',(-19.55,-38.15,2.));
#1401=CARTESIAN_POINT('',(-19.55,-38.15,0.));
#1402=CARTESIAN_POINT('',(-7.55,-38.15,2.));
#1403=CARTESIAN_POINT('',(-7.55,-38.15,2.));
#1404=CARTESIAN_POINT('',(-7.55,-38.15,0.));
#1405=CARTESIAN_POINT('Origin',(-7.55,-33.65,0.));
#1406=CARTESIAN_POINT('',(-7.55,-33.65,2.));
#1407=CARTESIAN_POINT('',(-7.55,-33.65,2.));
#1408=CARTESIAN_POINT('',(-7.55,-33.65,0.));
#1409=CARTESIAN_POINT('Origin',(-19.55,-33.65,0.));
#1410=CARTESIAN_POINT('',(-19.55,-33.65,2.));
#1411=CARTESIAN_POINT('',(-19.55,-33.65,2.));
#1412=CARTESIAN_POINT('',(-19.55,-33.65,0.));
#1413=CARTESIAN_POINT('Origin',(-19.55,-38.15,0.));
#1414=CARTESIAN_POINT('',(-19.55,-38.15,2.));
#1415=CARTESIAN_POINT('Origin',(-20.05,-28.15,0.));
#1416=CARTESIAN_POINT('',(-20.05,-32.65,2.));
#1417=CARTESIAN_POINT('',(-20.05,-32.65,0.));
#1418=CARTESIAN_POINT('',(-20.05,-28.15,2.));
#1419=CARTESIAN_POINT('',(-20.05,-28.15,2.));
#1420=CARTESIAN_POINT('',(-20.05,-28.15,0.));
#1421=CARTESIAN_POINT('Origin',(-29.05,-28.15,0.));
#1422=CARTESIAN_POINT('',(-29.05,-28.15,2.));
#1423=CARTESIAN_POINT('',(-29.05,-28.15,2.));
#1424=CARTESIAN_POINT('',(-29.05,-28.15,0.));
#1425=CARTESIAN_POINT('Origin',(-29.05,-32.65,0.));
#1426=CARTESIAN_POINT('',(-29.05,-32.65,2.));
#1427=CARTESIAN_POINT('',(-29.05,-32.65,2.));
#1428=CARTESIAN_POINT('',(-29.05,-32.65,0.));
#1429=CARTESIAN_POINT('Origin',(-20.05,-32.65,0.));
#1430=CARTESIAN_POINT('',(-20.05,-32.65,2.));
#1431=CARTESIAN_POINT('Origin',(-0.0499999999999966,20.15,0.));
#1432=CARTESIAN_POINT('',(-12.05,20.15,2.));
#1433=CARTESIAN_POINT('',(-12.05,20.15,0.));
#1434=CARTESIAN_POINT('',(-0.0499999999999945,20.15,2.));
#1435=CARTESIAN_POINT('',(-0.0499999999999967,20.15,2.));
#1436=CARTESIAN_POINT('',(-0.0499999999999966,20.15,0.));
#1437=CARTESIAN_POINT('Origin',(-0.0499999999999975,24.65,0.));
#1438=CARTESIAN_POINT('',(-0.0499999999999989,24.65,2.));
#1439=CARTESIAN_POINT('',(-0.0499999999999975,24.65,2.));
#1440=CARTESIAN_POINT('',(-0.0499999999999975,24.65,0.));
#1441=CARTESIAN_POINT('Origin',(-12.05,24.65,0.));
#1442=CARTESIAN_POINT('',(-12.05,24.65,2.));
#1443=CARTESIAN_POINT('',(-12.05,24.65,2.));
#1444=CARTESIAN_POINT('',(-12.05,24.65,0.));
#1445=CARTESIAN_POINT('Origin',(-12.05,20.15,0.));
#1446=CARTESIAN_POINT('',(-12.05,20.15,2.));
#1447=CARTESIAN_POINT('Origin',(24.111,-19.563,0.));
#1448=CARTESIAN_POINT('',(25.811,-19.563,2.));
#1449=CARTESIAN_POINT('Origin',(24.111,-19.563,2.));
#1450=CARTESIAN_POINT('',(25.811,-19.563,0.));
#1451=CARTESIAN_POINT('Origin',(24.111,4.43700000000001,0.));
#1452=CARTESIAN_POINT('',(25.811,4.43700000000001,2.));
#1453=CARTESIAN_POINT('Origin',(24.111,4.43700000000001,2.));
#1454=CARTESIAN_POINT('',(25.811,4.43700000000001,0.));
#1455=CARTESIAN_POINT('Origin',(-24.389,-19.563,0.));
#1456=CARTESIAN_POINT('',(-22.689,-19.563,2.));
#1457=CARTESIAN_POINT('Origin',(-24.389,-19.563,2.));
#1458=CARTESIAN_POINT('',(-22.689,-19.563,0.));
#1459=CARTESIAN_POINT('',(-22.689,-19.563,0.));
#1460=CARTESIAN_POINT('Origin',(-24.389,-19.563,0.));
#1461=CARTESIAN_POINT('Origin',(-24.389,4.43700000000001,0.));
#1462=CARTESIAN_POINT('',(-22.689,4.43700000000001,2.));
#1463=CARTESIAN_POINT('Origin',(-24.389,4.43700000000001,2.));
#1464=CARTESIAN_POINT('',(-22.689,4.43700000000001,0.));
#1465=CARTESIAN_POINT('Origin',(0.,0.,2.));
#1466=CARTESIAN_POINT('Origin',(0.,0.,0.));
#1467=UNCERTAINTY_MEASURE_WITH_UNIT(LENGTH_MEASURE(0.01),#1471,
'DISTANCE_ACCURACY_VALUE',
'Maximum model space distance between geometric entities at asserted c
onnectivities');
#1468=UNCERTAINTY_MEASURE_WITH_UNIT(LENGTH_MEASURE(0.01),#1471,
'DISTANCE_ACCURACY_VALUE',
'Maximum model space distance between geometric entities at asserted c
onnectivities');
#1469=(
GEOMETRIC_REPRESENTATION_CONTEXT(3)
GLOBAL_UNCERTAINTY_ASSIGNED_CONTEXT((#1467))
GLOBAL_UNIT_ASSIGNED_CONTEXT((#1471,#1473,#1474))
REPRESENTATION_CONTEXT('','3D')
);
#1470=(
GEOMETRIC_REPRESENTATION_CONTEXT(3)
GLOBAL_UNCERTAINTY_ASSIGNED_CONTEXT((#1468))
GLOBAL_UNIT_ASSIGNED_CONTEXT((#1471,#1473,#1474))
REPRESENTATION_CONTEXT('','3D')
);
#1471=(
LENGTH_UNIT()
NAMED_UNIT(*)
SI_UNIT(.MILLI.,.METRE.)
);
#1472=(
LENGTH_UNIT()
NAMED_UNIT(*)
SI_UNIT(.CENTI.,.METRE.)
);
#1473=(
NAMED_UNIT(*)
PLANE_ANGLE_UNIT()
SI_UNIT($,.RADIAN.)
);
#1474=(
NAMED_UNIT(*)
SI_UNIT($,.STERADIAN.)
SOLID_ANGLE_UNIT()
);
#1475=SHAPE_DEFINITION_REPRESENTATION(#1476,#1477);
#1476=PRODUCT_DEFINITION_SHAPE('',$,#1479);
#1477=SHAPE_REPRESENTATION('',(#911),#1469);
#1478=PRODUCT_DEFINITION_CONTEXT('part definition',#1483,'design');
#1479=PRODUCT_DEFINITION('TES_ESP32-Case','TES_Controller_V1_Case_Base',
#1480,#1478);
#1480=PRODUCT_DEFINITION_FORMATION('',$,#1485);
#1481=PRODUCT_RELATED_PRODUCT_CATEGORY('TES_Controller_V1_Case_Base',
'TES_Controller_V1_Case_Base',(#1485));
#1482=APPLICATION_PROTOCOL_DEFINITION('international standard',
'automotive_design',2009,#1483);
#1483=APPLICATION_CONTEXT(
'Core Data for Automotive Mechanical Design Process');
#1484=PRODUCT_CONTEXT('part definition',#1483,'mechanical');
#1485=PRODUCT('TES_ESP32-Case','TES_Controller_V1_Case_Base',$,(#1484));
#1486=PRESENTATION_STYLE_ASSIGNMENT((#1487));
#1487=SURFACE_STYLE_USAGE(.BOTH.,#1490);
#1488=SURFACE_STYLE_RENDERING_WITH_PROPERTIES($,#1494,(#1489));
#1489=SURFACE_STYLE_TRANSPARENT(0.);
#1490=SURFACE_SIDE_STYLE('',(#1491,#1488));
#1491=SURFACE_STYLE_FILL_AREA(#1492);
#1492=FILL_AREA_STYLE('',(#1493));
#1493=FILL_AREA_STYLE_COLOUR('',#1494);
#1494=COLOUR_RGB('',0.749019607843137,0.749019607843137,0.749019607843137);
ENDSEC;
END-ISO-10303-21;
