G04 #@! TF.GenerationSoftware,KiCad,Pcbnew,10.0.6*
G04 #@! TF.CreationDate,2026-09-29T16:21:08+08:00*
G04 #@! TF.ProjectId,TES_Controller,5445535f-436f-46e7-9472-6f6c6c65722e,rev?*
G04 #@! TF.SameCoordinates,Original*
G04 #@! TF.FileFunction,Copper,L2,Bot*
G04 #@! TF.FilePolarity,Positive*
%FSLAX46Y46*%
G04 Gerber Fmt 4.6, Leading zero omitted, Abs format (unit mm)*
G04 Created by KiCad (PCBNEW 10.0.6) date 2026-09-29 16:21:08*
%MOMM*%
%LPD*%
G01*
G04 APERTURE LIST*
G04 #@! TA.AperFunction,ComponentPad*
%ADD10R,2.500000X2.500000*%
G04 #@! TD*
G04 #@! TA.AperFunction,ComponentPad*
%ADD11C,2.500000*%
G04 #@! TD*
G04 #@! TA.AperFunction,ComponentPad*
%ADD12R,3.048000X1.524000*%
G04 #@! TD*
G04 #@! TA.AperFunction,ComponentPad*
%ADD13C,1.900000*%
G04 #@! TD*
G04 #@! TA.AperFunction,ComponentPad*
%ADD14R,1.600000X1.600000*%
G04 #@! TD*
G04 #@! TA.AperFunction,ComponentPad*
%ADD15C,1.600000*%
G04 #@! TD*
G04 #@! TA.AperFunction,ComponentPad*
%ADD16R,1.700000X1.700000*%
G04 #@! TD*
G04 #@! TA.AperFunction,ComponentPad*
%ADD17C,1.700000*%
G04 #@! TD*
G04 #@! TA.AperFunction,ComponentPad*
%ADD18C,2.000000*%
G04 #@! TD*
G04 #@! TA.AperFunction,ComponentPad*
%ADD19O,2.100000X1.000000*%
G04 #@! TD*
G04 #@! TA.AperFunction,ComponentPad*
%ADD20O,1.800000X1.000000*%
G04 #@! TD*
G04 #@! TA.AperFunction,ComponentPad*
%ADD21R,1.575000X1.575000*%
G04 #@! TD*
G04 #@! TA.AperFunction,ComponentPad*
%ADD22C,1.575000*%
G04 #@! TD*
G04 #@! TA.AperFunction,ViaPad*
%ADD23C,0.600000*%
G04 #@! TD*
G04 #@! TA.AperFunction,Conductor*
%ADD24C,0.300000*%
G04 #@! TD*
G04 #@! TA.AperFunction,Conductor*
%ADD25C,0.500000*%
G04 #@! TD*
G04 #@! TA.AperFunction,Conductor*
%ADD26C,0.250000*%
G04 #@! TD*
G04 #@! TA.AperFunction,Conductor*
%ADD27C,0.200000*%
G04 #@! TD*
G04 #@! TA.AperFunction,Conductor*
%ADD28C,0.800000*%
G04 #@! TD*
G04 APERTURE END LIST*
D10*
G04 #@! TO.P,CN1,1*
G04 #@! TO.N,GND*
X125640000Y-134422000D03*
D11*
G04 #@! TO.P,CN1,2*
G04 #@! TO.N,VP*
X129600000Y-134422000D03*
G04 #@! TD*
D12*
G04 #@! TO.P,W1,1*
G04 #@! TO.N,120V*
X122663000Y-113211000D03*
G04 #@! TD*
D13*
G04 #@! TO.P,CN3,1*
G04 #@! TO.N,12V*
X175019000Y-145852000D03*
G04 #@! TO.P,CN3,2*
G04 #@! TO.N,DC_RELAY*
X178519000Y-145852000D03*
G04 #@! TD*
G04 #@! TO.P,CN5,1*
G04 #@! TO.N,12V*
X167272000Y-145852000D03*
G04 #@! TO.P,CN5,2*
G04 #@! TO.N,DC_RELAY*
X170772000Y-145852000D03*
G04 #@! TD*
G04 #@! TO.P,CN6,1*
G04 #@! TO.N,12V*
X159271000Y-145852000D03*
G04 #@! TO.P,CN6,2*
G04 #@! TO.N,COUPLER*
X162771000Y-145852000D03*
G04 #@! TD*
D14*
G04 #@! TO.P,D8,1*
G04 #@! TO.N,IO7*
X129643000Y-80158000D03*
D15*
G04 #@! TO.P,D8,2*
G04 #@! TO.N,LED_R_K*
X127103000Y-80158000D03*
G04 #@! TD*
D14*
G04 #@! TO.P,D7,1*
G04 #@! TO.N,IO6*
X129516000Y-73300000D03*
D15*
G04 #@! TO.P,D7,2*
G04 #@! TO.N,LED_G_K*
X126976000Y-73300000D03*
G04 #@! TD*
D14*
G04 #@! TO.P,D6,1*
G04 #@! TO.N,IO5*
X129494000Y-66315000D03*
D15*
G04 #@! TO.P,D6,2*
G04 #@! TO.N,LED_Y_K*
X126954000Y-66315000D03*
G04 #@! TD*
D16*
G04 #@! TO.P,H1,1*
G04 #@! TO.N,GND*
X150353000Y-82352000D03*
D17*
G04 #@! TO.P,H1,2*
G04 #@! TO.N,VDD33*
X147813000Y-82352000D03*
G04 #@! TO.P,H1,3*
G04 #@! TO.N,SCL*
X145273000Y-82352000D03*
G04 #@! TO.P,H1,4*
G04 #@! TO.N,SDA*
X142733000Y-82352000D03*
G04 #@! TD*
D12*
G04 #@! TO.P,W4,1*
G04 #@! TO.N,GND*
X181595000Y-117211000D03*
G04 #@! TD*
G04 #@! TO.P,W2,1*
G04 #@! TO.N,12V*
X181595000Y-113211000D03*
G04 #@! TD*
D18*
G04 #@! TO.P,U10,1*
G04 #@! TO.N,120V*
X149123000Y-146233000D03*
G04 #@! TO.P,U10,2*
G04 #@! TO.N,GND_BACK*
X154123000Y-146233000D03*
G04 #@! TD*
D12*
G04 #@! TO.P,W3,1*
G04 #@! TO.N,GND_BACK*
X122663000Y-117211000D03*
G04 #@! TD*
D19*
G04 #@! TO.P,USB1,1*
G04 #@! TO.N,GND*
X177023500Y-73982000D03*
G04 #@! TO.P,USB1,2*
X177023500Y-65342000D03*
D20*
G04 #@! TO.P,USB1,3*
X181173500Y-73982000D03*
G04 #@! TO.P,USB1,4*
X181173500Y-65342000D03*
G04 #@! TD*
D14*
G04 #@! TO.P,CN2,1*
G04 #@! TO.N,CANL*
X135046000Y-140137000D03*
D15*
G04 #@! TO.P,CN2,2*
G04 #@! TO.N,CANH*
X137546000Y-140137000D03*
G04 #@! TO.P,CN2,3*
G04 #@! TO.N,GND*
X140046000Y-140137000D03*
G04 #@! TO.P,CN2,4*
G04 #@! TO.N,CP*
X142546000Y-140137000D03*
G04 #@! TD*
D21*
G04 #@! TO.P,H2,1*
G04 #@! TO.N,GND*
X170038000Y-62794000D03*
D22*
G04 #@! TO.P,H2,2*
G04 #@! TO.N,TXD0*
X172578000Y-62794000D03*
G04 #@! TO.P,H2,3*
G04 #@! TO.N,RXD0*
X175118000Y-62794000D03*
G04 #@! TD*
D23*
G04 #@! TO.N,GND*
X172539000Y-93342500D03*
X122932137Y-66894869D03*
X175299000Y-72609121D03*
X182160500Y-84028000D03*
X166120000Y-61240500D03*
X138643000Y-61392000D03*
X133420000Y-88566621D03*
X147293000Y-67712000D03*
X174075262Y-67233717D03*
X134413000Y-65715000D03*
X144493000Y-67712000D03*
X130560500Y-61778000D03*
X149572000Y-135558500D03*
X166124501Y-63285621D03*
X168456637Y-92286869D03*
X154003000Y-94779500D03*
X123073137Y-80669369D03*
X166974500Y-72177121D03*
X170005500Y-92940500D03*
X166101500Y-78952500D03*
X137299000Y-128723000D03*
X166974500Y-87006621D03*
X166549500Y-62549500D03*
X175171500Y-78952500D03*
X133563000Y-65715000D03*
X126132000Y-130739000D03*
X181800000Y-104200000D03*
X182256000Y-75494000D03*
X146018001Y-71248121D03*
X139352100Y-86613586D03*
X167399500Y-77441000D03*
X136002000Y-89505000D03*
X180800000Y-104200000D03*
X139689000Y-84585621D03*
X139244001Y-132348121D03*
X164792000Y-93342500D03*
X129710500Y-61778000D03*
X135875000Y-60951000D03*
X126077762Y-85713783D03*
X167399500Y-80270500D03*
X137793000Y-61392000D03*
X147293000Y-69112000D03*
X144493000Y-70512000D03*
X154004000Y-86060000D03*
X166974500Y-69285621D03*
X150850000Y-93821000D03*
X176023500Y-65725879D03*
X161363000Y-137461500D03*
X176374000Y-86270500D03*
X133200000Y-91050000D03*
X136725000Y-60951000D03*
X183487209Y-82024055D03*
X122931137Y-73811369D03*
X176448500Y-66462000D03*
X177111000Y-137860000D03*
X183386846Y-79159924D03*
X144493000Y-69112000D03*
X155293000Y-61392000D03*
X172672000Y-69271000D03*
X166159500Y-70129000D03*
X176374000Y-80270500D03*
X156143000Y-61392000D03*
X165270000Y-61240500D03*
X141324500Y-91321500D03*
G04 #@! TO.N,GND_BACK*
X150473000Y-141773000D03*
X150473000Y-139823000D03*
G04 #@! TO.N,VDD33*
X154373000Y-87473000D03*
X138923000Y-63172999D03*
X139823000Y-64072999D03*
X155723000Y-86122999D03*
X143273000Y-71872999D03*
X143273000Y-73973000D03*
X147773000Y-77872999D03*
G04 #@! TO.N,SDA*
X132923000Y-76823000D03*
X132923000Y-76223000D03*
X137793000Y-71552000D03*
X142742000Y-84398500D03*
G04 #@! TO.N,SCL*
X136823000Y-88673000D03*
X133823000Y-78923000D03*
X143873000Y-88673000D03*
X133073000Y-74872999D03*
G04 #@! TO.N,12V*
X171923000Y-134873000D03*
X172973000Y-133673000D03*
G04 #@! TO.N,5V*
X170573000Y-78173000D03*
X169673000Y-84173000D03*
X169673000Y-82523000D03*
X138773000Y-87323000D03*
X149123000Y-87323000D03*
X169673000Y-79073000D03*
G04 #@! TO.N,CANL*
X137934500Y-91321500D03*
X136264500Y-136581000D03*
G04 #@! TO.N,CANH*
X137771500Y-136581000D03*
X139204500Y-91321500D03*
G04 #@! TO.N,IO9*
X142408582Y-80341110D03*
X142527500Y-128707000D03*
G04 #@! TO.N,IO10*
X156623000Y-85823000D03*
X155573000Y-84773000D03*
X157673000Y-88223000D03*
X157673000Y-90173000D03*
G04 #@! TO.N,IO11*
X170873000Y-135923000D03*
X147773000Y-76823000D03*
X159323000Y-91073000D03*
X154523000Y-78923000D03*
X153923000Y-77872999D03*
X146723000Y-77872999D03*
X157223000Y-85223000D03*
X159323000Y-89122999D03*
X172823000Y-135923000D03*
X156173000Y-84173000D03*
G04 #@! TO.N,RXD0*
X166073000Y-66322999D03*
X167273000Y-65122999D03*
G04 #@! TO.N,TXD0*
X166373000Y-64223000D03*
X165173000Y-65423000D03*
G04 #@! TO.N,USB_DN_ESD*
X168473000Y-67372999D03*
X139073000Y-72923000D03*
X156473000Y-64522999D03*
X136523000Y-73372999D03*
X167423000Y-66473000D03*
X154073000Y-64522999D03*
G04 #@! TO.N,USB_DP_ESD*
X168473000Y-69923000D03*
X143723000Y-74872999D03*
X139523000Y-77423000D03*
X154073000Y-67072999D03*
X134723000Y-77723000D03*
X166973000Y-67523000D03*
X144773000Y-73823000D03*
X157223000Y-67072999D03*
G04 #@! TO.N,120V*
X126623000Y-114023000D03*
X144023000Y-134722999D03*
X143873000Y-130673000D03*
X146763000Y-138613000D03*
G04 #@! TO.N,UD+*
X174623000Y-69173000D03*
X173573000Y-70223000D03*
G04 #@! TD*
G04 #@! TO.N,GND_BACK*
D24*
X150473000Y-139823000D02*
X150473000Y-141773000D01*
G04 #@! TO.N,VDD33*
D25*
X155723000Y-86122999D02*
X154373000Y-87473000D01*
X147773000Y-77872999D02*
X147773000Y-81473000D01*
X143273000Y-71872999D02*
X143273000Y-73973000D01*
X138923000Y-63172999D02*
X139823000Y-64072999D01*
G04 #@! TO.N,SDA*
D26*
X137793000Y-71552000D02*
X140333000Y-71552000D01*
X132923000Y-76223000D02*
X132923000Y-76823000D01*
X140333000Y-84398500D02*
X142742000Y-84398500D01*
X140333000Y-71552000D02*
X140333000Y-84398500D01*
G04 #@! TO.N,SCL*
D27*
X143873000Y-88673000D02*
X136823000Y-88673000D01*
X133823000Y-75622999D02*
X133073000Y-74872999D01*
X133823000Y-78923000D02*
X133823000Y-75622999D01*
G04 #@! TO.N,12V*
D28*
X171923000Y-134873000D02*
X172973000Y-133823000D01*
X172973000Y-133823000D02*
X172973000Y-133673000D01*
G04 #@! TO.N,5V*
D25*
X138773000Y-87323000D02*
X149123000Y-87323000D01*
X170573000Y-78173000D02*
X169673000Y-79073000D01*
X169673000Y-82523000D02*
X169673000Y-84173000D01*
G04 #@! TO.N,CANL*
D26*
X137934500Y-91321500D02*
X136264500Y-136581000D01*
G04 #@! TO.N,CANH*
X139204500Y-91321500D02*
X137771500Y-136581000D01*
G04 #@! TO.N,IO9*
X147923000Y-75923000D02*
X151823000Y-79823000D01*
X146723000Y-75923000D02*
X147923000Y-75923000D01*
X151823000Y-79823000D02*
X151823000Y-119423000D01*
X151823000Y-119423000D02*
X142523000Y-128722999D01*
X142373000Y-80273000D02*
X146723000Y-75923000D01*
G04 #@! TO.N,IO10*
X157673000Y-90173000D02*
X157673000Y-88223000D01*
X156623000Y-85823000D02*
X155573000Y-84773000D01*
G04 #@! TO.N,IO11*
X159323000Y-91073000D02*
X159323000Y-89122999D01*
X172823000Y-135923000D02*
X170873000Y-135923000D01*
X147773000Y-76823000D02*
X146723000Y-77872999D01*
X154523000Y-78923000D02*
X153923000Y-78323000D01*
X157223000Y-85223000D02*
X156173000Y-84173000D01*
X153923000Y-78323000D02*
X153923000Y-77872999D01*
G04 #@! TO.N,RXD0*
X166073000Y-66322999D02*
X167273000Y-65122999D01*
G04 #@! TO.N,TXD0*
X165173000Y-65423000D02*
X166373000Y-64223000D01*
G04 #@! TO.N,USB_DN_ESD*
X156473000Y-64522999D02*
X154073000Y-64522999D01*
X168323000Y-67372999D02*
X167423000Y-66473000D01*
X139073000Y-72923000D02*
X136973000Y-72923000D01*
X168473000Y-67372999D02*
X168323000Y-67372999D01*
X136973000Y-72923000D02*
X136523000Y-73372999D01*
G04 #@! TO.N,USB_DP_ESD*
X166973000Y-68273000D02*
X168473000Y-69773000D01*
X154073000Y-67072999D02*
X157223000Y-67072999D01*
X143723000Y-74872999D02*
X144773000Y-73823000D01*
X134873000Y-77423000D02*
X139523000Y-77423000D01*
X134723000Y-77573000D02*
X134873000Y-77423000D01*
X168473000Y-69773000D02*
X168473000Y-69923000D01*
X134723000Y-77723000D02*
X134723000Y-77573000D01*
X166973000Y-67523000D02*
X166973000Y-68273000D01*
G04 #@! TO.N,120V*
D24*
X149123000Y-146233000D02*
X146763000Y-138613000D01*
X126323000Y-113872999D02*
X124223000Y-113872999D01*
X143873000Y-134423000D02*
X143873000Y-130972999D01*
G04 #@! TO.N,UD+*
D26*
X173573000Y-70223000D02*
X174623000Y-69173000D01*
G04 #@! TD*
G04 #@! TA.AperFunction,Conductor*
G04 #@! TO.N,GND*
G36*
X183816194Y-60318806D02*
G01*
X183834500Y-60363000D01*
X183834500Y-148955000D01*
X183816194Y-148999194D01*
X183772000Y-149017500D01*
X120363000Y-149017500D01*
X120318806Y-148999194D01*
X120300500Y-148955000D01*
X120300500Y-140951819D01*
X134095499Y-140951819D01*
X134104233Y-140995722D01*
X134104233Y-140995723D01*
X134120864Y-141020613D01*
X134137496Y-141045504D01*
X134187278Y-141078767D01*
X134231180Y-141087500D01*
X134231181Y-141087500D01*
X135860819Y-141087500D01*
X135860820Y-141087500D01*
X135904722Y-141078767D01*
X135954504Y-141045504D01*
X135987767Y-140995722D01*
X135996500Y-140951820D01*
X135996500Y-140043383D01*
X136595500Y-140043383D01*
X136595500Y-140230616D01*
X136632026Y-140414249D01*
X136632027Y-140414251D01*
X136703678Y-140587231D01*
X136807698Y-140742908D01*
X136940092Y-140875302D01*
X137095769Y-140979322D01*
X137268749Y-141050973D01*
X137452384Y-141087500D01*
X137639616Y-141087500D01*
X137823251Y-141050973D01*
X137996231Y-140979322D01*
X138151908Y-140875302D01*
X138284302Y-140742908D01*
X138388322Y-140587231D01*
X138459973Y-140414251D01*
X138496500Y-140230616D01*
X138496500Y-140043384D01*
X138496500Y-140043383D01*
X141595500Y-140043383D01*
X141595500Y-140230616D01*
X141632026Y-140414249D01*
X141632027Y-140414251D01*
X141703678Y-140587231D01*
X141807698Y-140742908D01*
X141940092Y-140875302D01*
X142095769Y-140979322D01*
X142268749Y-141050973D01*
X142452384Y-141087500D01*
X142639616Y-141087500D01*
X142823251Y-141050973D01*
X142996231Y-140979322D01*
X143151908Y-140875302D01*
X143284302Y-140742908D01*
X143388322Y-140587231D01*
X143459973Y-140414251D01*
X143496500Y-140230616D01*
X143496500Y-140043384D01*
X143459973Y-139859749D01*
X143388322Y-139686769D01*
X143284302Y-139531092D01*
X143151908Y-139398698D01*
X143151907Y-139398697D01*
X142996233Y-139294679D01*
X142996231Y-139294678D01*
X142823249Y-139223026D01*
X142639616Y-139186500D01*
X142452384Y-139186500D01*
X142268750Y-139223026D01*
X142095768Y-139294678D01*
X142095766Y-139294679D01*
X141940092Y-139398697D01*
X141807697Y-139531092D01*
X141703679Y-139686766D01*
X141703678Y-139686768D01*
X141632026Y-139859750D01*
X141595500Y-140043383D01*
X138496500Y-140043383D01*
X138459973Y-139859749D01*
X138388322Y-139686769D01*
X138284302Y-139531092D01*
X138151908Y-139398698D01*
X138151907Y-139398697D01*
X137996233Y-139294679D01*
X137996231Y-139294678D01*
X137823249Y-139223026D01*
X137639616Y-139186500D01*
X137452384Y-139186500D01*
X137268750Y-139223026D01*
X137095768Y-139294678D01*
X137095766Y-139294679D01*
X136940092Y-139398697D01*
X136807697Y-139531092D01*
X136703679Y-139686766D01*
X136703678Y-139686768D01*
X136632026Y-139859750D01*
X136595500Y-140043383D01*
X135996500Y-140043383D01*
X135996500Y-139322180D01*
X135987767Y-139278278D01*
X135954504Y-139228496D01*
X135904722Y-139195233D01*
X135860820Y-139186500D01*
X134231180Y-139186500D01*
X134209229Y-139190866D01*
X134187277Y-139195233D01*
X134187276Y-139195233D01*
X134137496Y-139228496D01*
X134104233Y-139278276D01*
X134104233Y-139278277D01*
X134095500Y-139322180D01*
X134095500Y-140951819D01*
X134095499Y-140951819D01*
X120300500Y-140951819D01*
X120300500Y-138534157D01*
X145962500Y-138534157D01*
X145962500Y-138691842D01*
X145993262Y-138846495D01*
X146053606Y-138992180D01*
X146141210Y-139123288D01*
X146141211Y-139123289D01*
X146252711Y-139234789D01*
X146252714Y-139234791D01*
X146261877Y-139240914D01*
X146286855Y-139274390D01*
X148090092Y-145096703D01*
X148085681Y-145144334D01*
X148074584Y-145159387D01*
X147978489Y-145255482D01*
X147978482Y-145255490D01*
X147839658Y-145446564D01*
X147732435Y-145657001D01*
X147732431Y-145657009D01*
X147659448Y-145881627D01*
X147659447Y-145881630D01*
X147659447Y-145881632D01*
X147646467Y-145963583D01*
X147623325Y-146109701D01*
X147622500Y-146114908D01*
X147622500Y-146351092D01*
X147657001Y-146568927D01*
X147659448Y-146584372D01*
X147732431Y-146808990D01*
X147732435Y-146808998D01*
X147839658Y-147019435D01*
X147978482Y-147210509D01*
X147978489Y-147210517D01*
X148145482Y-147377510D01*
X148145490Y-147377517D01*
X148336567Y-147516343D01*
X148547008Y-147623568D01*
X148771632Y-147696553D01*
X149004908Y-147733500D01*
X149004910Y-147733500D01*
X149241090Y-147733500D01*
X149241092Y-147733500D01*
X149474368Y-147696553D01*
X149698992Y-147623568D01*
X149909433Y-147516343D01*
X150100510Y-147377517D01*
X150267517Y-147210510D01*
X150406343Y-147019433D01*
X150513568Y-146808992D01*
X150586553Y-146584368D01*
X150623500Y-146351092D01*
X150623500Y-146142456D01*
X152972500Y-146142456D01*
X152972500Y-146323543D01*
X152972501Y-146323559D01*
X153000828Y-146502403D01*
X153000831Y-146502416D01*
X153056787Y-146674633D01*
X153056789Y-146674640D01*
X153125245Y-146808990D01*
X153139004Y-146835994D01*
X153245447Y-146982501D01*
X153245450Y-146982504D01*
X153245453Y-146982508D01*
X153373491Y-147110546D01*
X153373494Y-147110548D01*
X153373499Y-147110553D01*
X153520006Y-147216996D01*
X153681361Y-147299211D01*
X153853591Y-147355171D01*
X153993922Y-147377397D01*
X154032440Y-147383498D01*
X154032446Y-147383498D01*
X154032454Y-147383500D01*
X154032456Y-147383500D01*
X154213544Y-147383500D01*
X154213546Y-147383500D01*
X154392409Y-147355171D01*
X154564639Y-147299211D01*
X154725994Y-147216996D01*
X154872501Y-147110553D01*
X155000553Y-146982501D01*
X155106996Y-146835994D01*
X155189211Y-146674639D01*
X155245171Y-146502409D01*
X155273500Y-146323546D01*
X155273500Y-146142454D01*
X155269137Y-146114910D01*
X155267397Y-146103922D01*
X155245171Y-145963591D01*
X155189211Y-145791361D01*
X155189205Y-145791350D01*
X155189203Y-145791344D01*
X155189187Y-145791312D01*
X155189184Y-145791308D01*
X155188351Y-145789673D01*
X155175979Y-145765391D01*
X158170500Y-145765391D01*
X158170500Y-145938608D01*
X158170501Y-145938624D01*
X158197597Y-146109698D01*
X158197597Y-146109699D01*
X158251126Y-146274443D01*
X158251130Y-146274451D01*
X158329769Y-146428790D01*
X158431585Y-146568927D01*
X158431592Y-146568935D01*
X158554064Y-146691407D01*
X158554072Y-146691414D01*
X158694212Y-146793232D01*
X158848555Y-146871873D01*
X159013299Y-146925402D01*
X159085407Y-146936822D01*
X159184375Y-146952498D01*
X159184381Y-146952498D01*
X159184389Y-146952500D01*
X159184391Y-146952500D01*
X159357609Y-146952500D01*
X159357611Y-146952500D01*
X159528701Y-146925402D01*
X159693445Y-146871873D01*
X159847788Y-146793232D01*
X159987928Y-146691414D01*
X160110414Y-146568928D01*
X160212232Y-146428788D01*
X160290873Y-146274445D01*
X160344402Y-146109701D01*
X160371500Y-145938611D01*
X160371500Y-145765391D01*
X161670500Y-145765391D01*
X161670500Y-145938608D01*
X161670501Y-145938624D01*
X161697597Y-146109698D01*
X161697597Y-146109699D01*
X161751126Y-146274443D01*
X161751130Y-146274451D01*
X161829769Y-146428790D01*
X161931585Y-146568927D01*
X161931592Y-146568935D01*
X162054064Y-146691407D01*
X162054072Y-146691414D01*
X162194212Y-146793232D01*
X162348555Y-146871873D01*
X162513299Y-146925402D01*
X162585407Y-146936822D01*
X162684375Y-146952498D01*
X162684381Y-146952498D01*
X162684389Y-146952500D01*
X162684391Y-146952500D01*
X162857609Y-146952500D01*
X162857611Y-146952500D01*
X163028701Y-146925402D01*
X163193445Y-146871873D01*
X163347788Y-146793232D01*
X163487928Y-146691414D01*
X163610414Y-146568928D01*
X163712232Y-146428788D01*
X163790873Y-146274445D01*
X163844402Y-146109701D01*
X163871500Y-145938611D01*
X163871500Y-145765391D01*
X166171500Y-145765391D01*
X166171500Y-145938608D01*
X166171501Y-145938624D01*
X166198597Y-146109698D01*
X166198597Y-146109699D01*
X166252126Y-146274443D01*
X166252130Y-146274451D01*
X166330769Y-146428790D01*
X166432585Y-146568927D01*
X166432592Y-146568935D01*
X166555064Y-146691407D01*
X166555072Y-146691414D01*
X166695212Y-146793232D01*
X166849555Y-146871873D01*
X167014299Y-146925402D01*
X167086407Y-146936822D01*
X167185375Y-146952498D01*
X167185381Y-146952498D01*
X167185389Y-146952500D01*
X167185391Y-146952500D01*
X167358609Y-146952500D01*
X167358611Y-146952500D01*
X167529701Y-146925402D01*
X167694445Y-146871873D01*
X167848788Y-146793232D01*
X167988928Y-146691414D01*
X168111414Y-146568928D01*
X168213232Y-146428788D01*
X168291873Y-146274445D01*
X168345402Y-146109701D01*
X168372500Y-145938611D01*
X168372500Y-145765391D01*
X169671500Y-145765391D01*
X169671500Y-145938608D01*
X169671501Y-145938624D01*
X169698597Y-146109698D01*
X169698597Y-146109699D01*
X169752126Y-146274443D01*
X169752130Y-146274451D01*
X169830769Y-146428790D01*
X169932585Y-146568927D01*
X169932592Y-146568935D01*
X170055064Y-146691407D01*
X170055072Y-146691414D01*
X170195212Y-146793232D01*
X170349555Y-146871873D01*
X170514299Y-146925402D01*
X170586407Y-146936822D01*
X170685375Y-146952498D01*
X170685381Y-146952498D01*
X170685389Y-146952500D01*
X170685391Y-146952500D01*
X170858609Y-146952500D01*
X170858611Y-146952500D01*
X171029701Y-146925402D01*
X171194445Y-146871873D01*
X171348788Y-146793232D01*
X171488928Y-146691414D01*
X171611414Y-146568928D01*
X171713232Y-146428788D01*
X171791873Y-146274445D01*
X171845402Y-146109701D01*
X171872500Y-145938611D01*
X171872500Y-145765391D01*
X173918500Y-145765391D01*
X173918500Y-145938608D01*
X173918501Y-145938624D01*
X173945597Y-146109698D01*
X173945597Y-146109699D01*
X173999126Y-146274443D01*
X173999130Y-146274451D01*
X174077769Y-146428790D01*
X174179585Y-146568927D01*
X174179592Y-146568935D01*
X174302064Y-146691407D01*
X174302072Y-146691414D01*
X174442212Y-146793232D01*
X174596555Y-146871873D01*
X174761299Y-146925402D01*
X174833407Y-146936822D01*
X174932375Y-146952498D01*
X174932381Y-146952498D01*
X174932389Y-146952500D01*
X174932391Y-146952500D01*
X175105609Y-146952500D01*
X175105611Y-146952500D01*
X175276701Y-146925402D01*
X175441445Y-146871873D01*
X175595788Y-146793232D01*
X175735928Y-146691414D01*
X175858414Y-146568928D01*
X175960232Y-146428788D01*
X176038873Y-146274445D01*
X176092402Y-146109701D01*
X176119500Y-145938611D01*
X176119500Y-145765391D01*
X177418500Y-145765391D01*
X177418500Y-145938608D01*
X177418501Y-145938624D01*
X177445597Y-146109698D01*
X177445597Y-146109699D01*
X177499126Y-146274443D01*
X177499130Y-146274451D01*
X177577769Y-146428790D01*
X177679585Y-146568927D01*
X177679592Y-146568935D01*
X177802064Y-146691407D01*
X177802072Y-146691414D01*
X177942212Y-146793232D01*
X178096555Y-146871873D01*
X178261299Y-146925402D01*
X178333407Y-146936822D01*
X178432375Y-146952498D01*
X178432381Y-146952498D01*
X178432389Y-146952500D01*
X178432391Y-146952500D01*
X178605609Y-146952500D01*
X178605611Y-146952500D01*
X178776701Y-146925402D01*
X178941445Y-146871873D01*
X179095788Y-146793232D01*
X179235928Y-146691414D01*
X179358414Y-146568928D01*
X179460232Y-146428788D01*
X179538873Y-146274445D01*
X179592402Y-146109701D01*
X179619500Y-145938611D01*
X179619500Y-145765389D01*
X179592402Y-145594299D01*
X179538873Y-145429555D01*
X179460232Y-145275212D01*
X179358414Y-145135072D01*
X179358407Y-145135064D01*
X179235935Y-145012592D01*
X179235927Y-145012585D01*
X179095790Y-144910769D01*
X178941451Y-144832130D01*
X178941443Y-144832126D01*
X178776699Y-144778597D01*
X178605624Y-144751501D01*
X178605612Y-144751500D01*
X178605611Y-144751500D01*
X178432389Y-144751500D01*
X178432387Y-144751500D01*
X178432375Y-144751501D01*
X178261301Y-144778597D01*
X178261300Y-144778597D01*
X178096556Y-144832126D01*
X178096548Y-144832130D01*
X177942209Y-144910769D01*
X177802072Y-145012585D01*
X177802064Y-145012592D01*
X177679592Y-145135064D01*
X177679585Y-145135072D01*
X177577769Y-145275209D01*
X177499130Y-145429548D01*
X177499126Y-145429556D01*
X177445597Y-145594300D01*
X177445597Y-145594301D01*
X177418501Y-145765375D01*
X177418500Y-145765391D01*
X176119500Y-145765391D01*
X176119500Y-145765389D01*
X176092402Y-145594299D01*
X176038873Y-145429555D01*
X175960232Y-145275212D01*
X175858414Y-145135072D01*
X175858407Y-145135064D01*
X175735935Y-145012592D01*
X175735927Y-145012585D01*
X175595790Y-144910769D01*
X175441451Y-144832130D01*
X175441443Y-144832126D01*
X175276699Y-144778597D01*
X175105624Y-144751501D01*
X175105612Y-144751500D01*
X175105611Y-144751500D01*
X174932389Y-144751500D01*
X174932387Y-144751500D01*
X174932375Y-144751501D01*
X174761301Y-144778597D01*
X174761300Y-144778597D01*
X174596556Y-144832126D01*
X174596548Y-144832130D01*
X174442209Y-144910769D01*
X174302072Y-145012585D01*
X174302064Y-145012592D01*
X174179592Y-145135064D01*
X174179585Y-145135072D01*
X174077769Y-145275209D01*
X173999130Y-145429548D01*
X173999126Y-145429556D01*
X173945597Y-145594300D01*
X173945597Y-145594301D01*
X173918501Y-145765375D01*
X173918500Y-145765391D01*
X171872500Y-145765391D01*
X171872500Y-145765389D01*
X171845402Y-145594299D01*
X171791873Y-145429555D01*
X171713232Y-145275212D01*
X171611414Y-145135072D01*
X171611407Y-145135064D01*
X171488935Y-145012592D01*
X171488927Y-145012585D01*
X171348790Y-144910769D01*
X171194451Y-144832130D01*
X171194443Y-144832126D01*
X171029699Y-144778597D01*
X170858624Y-144751501D01*
X170858612Y-144751500D01*
X170858611Y-144751500D01*
X170685389Y-144751500D01*
X170685387Y-144751500D01*
X170685375Y-144751501D01*
X170514301Y-144778597D01*
X170514300Y-144778597D01*
X170349556Y-144832126D01*
X170349548Y-144832130D01*
X170195209Y-144910769D01*
X170055072Y-145012585D01*
X170055064Y-145012592D01*
X169932592Y-145135064D01*
X169932585Y-145135072D01*
X169830769Y-145275209D01*
X169752130Y-145429548D01*
X169752126Y-145429556D01*
X169698597Y-145594300D01*
X169698597Y-145594301D01*
X169671501Y-145765375D01*
X169671500Y-145765391D01*
X168372500Y-145765391D01*
X168372500Y-145765389D01*
X168345402Y-145594299D01*
X168291873Y-145429555D01*
X168213232Y-145275212D01*
X168111414Y-145135072D01*
X168111407Y-145135064D01*
X167988935Y-145012592D01*
X167988927Y-145012585D01*
X167848790Y-144910769D01*
X167694451Y-144832130D01*
X167694443Y-144832126D01*
X167529699Y-144778597D01*
X167358624Y-144751501D01*
X167358612Y-144751500D01*
X167358611Y-144751500D01*
X167185389Y-144751500D01*
X167185387Y-144751500D01*
X167185375Y-144751501D01*
X167014301Y-144778597D01*
X167014300Y-144778597D01*
X166849556Y-144832126D01*
X166849548Y-144832130D01*
X166695209Y-144910769D01*
X166555072Y-145012585D01*
X166555064Y-145012592D01*
X166432592Y-145135064D01*
X166432585Y-145135072D01*
X166330769Y-145275209D01*
X166252130Y-145429548D01*
X166252126Y-145429556D01*
X166198597Y-145594300D01*
X166198597Y-145594301D01*
X166171501Y-145765375D01*
X166171500Y-145765391D01*
X163871500Y-145765391D01*
X163871500Y-145765389D01*
X163844402Y-145594299D01*
X163790873Y-145429555D01*
X163712232Y-145275212D01*
X163610414Y-145135072D01*
X163610407Y-145135064D01*
X163487935Y-145012592D01*
X163487927Y-145012585D01*
X163347790Y-144910769D01*
X163193451Y-144832130D01*
X163193443Y-144832126D01*
X163028699Y-144778597D01*
X162857624Y-144751501D01*
X162857612Y-144751500D01*
X162857611Y-144751500D01*
X162684389Y-144751500D01*
X162684387Y-144751500D01*
X162684375Y-144751501D01*
X162513301Y-144778597D01*
X162513300Y-144778597D01*
X162348556Y-144832126D01*
X162348548Y-144832130D01*
X162194209Y-144910769D01*
X162054072Y-145012585D01*
X162054064Y-145012592D01*
X161931592Y-145135064D01*
X161931585Y-145135072D01*
X161829769Y-145275209D01*
X161751130Y-145429548D01*
X161751126Y-145429556D01*
X161697597Y-145594300D01*
X161697597Y-145594301D01*
X161670501Y-145765375D01*
X161670500Y-145765391D01*
X160371500Y-145765391D01*
X160371500Y-145765389D01*
X160344402Y-145594299D01*
X160290873Y-145429555D01*
X160212232Y-145275212D01*
X160110414Y-145135072D01*
X160110407Y-145135064D01*
X159987935Y-145012592D01*
X159987927Y-145012585D01*
X159847790Y-144910769D01*
X159693451Y-144832130D01*
X159693443Y-144832126D01*
X159528699Y-144778597D01*
X159357624Y-144751501D01*
X159357612Y-144751500D01*
X159357611Y-144751500D01*
X159184389Y-144751500D01*
X159184387Y-144751500D01*
X159184375Y-144751501D01*
X159013301Y-144778597D01*
X159013300Y-144778597D01*
X158848556Y-144832126D01*
X158848548Y-144832130D01*
X158694209Y-144910769D01*
X158554072Y-145012585D01*
X158554064Y-145012592D01*
X158431592Y-145135064D01*
X158431585Y-145135072D01*
X158329769Y-145275209D01*
X158251130Y-145429548D01*
X158251126Y-145429556D01*
X158197597Y-145594300D01*
X158197597Y-145594301D01*
X158170501Y-145765375D01*
X158170500Y-145765391D01*
X155175979Y-145765391D01*
X155106996Y-145630006D01*
X155000553Y-145483499D01*
X155000548Y-145483494D01*
X155000546Y-145483491D01*
X154872508Y-145355453D01*
X154872504Y-145355450D01*
X154872501Y-145355447D01*
X154725994Y-145249004D01*
X154564640Y-145166789D01*
X154564633Y-145166787D01*
X154392416Y-145110831D01*
X154392413Y-145110830D01*
X154392409Y-145110829D01*
X154392403Y-145110828D01*
X154213559Y-145082501D01*
X154213547Y-145082500D01*
X154213546Y-145082500D01*
X154032454Y-145082500D01*
X154032452Y-145082500D01*
X154032440Y-145082501D01*
X153853596Y-145110828D01*
X153853593Y-145110828D01*
X153853591Y-145110829D01*
X153853589Y-145110829D01*
X153853583Y-145110831D01*
X153681366Y-145166787D01*
X153681359Y-145166789D01*
X153520005Y-145249004D01*
X153373491Y-145355453D01*
X153245453Y-145483491D01*
X153139004Y-145630005D01*
X153056789Y-145791359D01*
X153056787Y-145791366D01*
X153000831Y-145963583D01*
X153000828Y-145963596D01*
X152972501Y-146142440D01*
X152972500Y-146142456D01*
X150623500Y-146142456D01*
X150623500Y-146114908D01*
X150586553Y-145881632D01*
X150513568Y-145657008D01*
X150406343Y-145446567D01*
X150267517Y-145255490D01*
X150267510Y-145255482D01*
X150100517Y-145088489D01*
X150100509Y-145088482D01*
X149909435Y-144949658D01*
X149698998Y-144842435D01*
X149698990Y-144842431D01*
X149474366Y-144769446D01*
X149474367Y-144769446D01*
X149382742Y-144754934D01*
X149341956Y-144729940D01*
X149332818Y-144711694D01*
X148562196Y-142223500D01*
X147800366Y-139763692D01*
X150022500Y-139763692D01*
X150022500Y-139882307D01*
X150022501Y-139882315D01*
X150053200Y-139996885D01*
X150053203Y-139996891D01*
X150112508Y-140099609D01*
X150112511Y-140099613D01*
X150154194Y-140141296D01*
X150172500Y-140185489D01*
X150172500Y-141410509D01*
X150154194Y-141454703D01*
X150112515Y-141496381D01*
X150112508Y-141496390D01*
X150053203Y-141599108D01*
X150053200Y-141599114D01*
X150022501Y-141713684D01*
X150022500Y-141713692D01*
X150022500Y-141832307D01*
X150022501Y-141832315D01*
X150053200Y-141946885D01*
X150053203Y-141946891D01*
X150112508Y-142049609D01*
X150112515Y-142049618D01*
X150196381Y-142133484D01*
X150196390Y-142133491D01*
X150299108Y-142192796D01*
X150299114Y-142192799D01*
X150413691Y-142223500D01*
X150413692Y-142223500D01*
X150532308Y-142223500D01*
X150532309Y-142223500D01*
X150646886Y-142192799D01*
X150749613Y-142133489D01*
X150833489Y-142049613D01*
X150892799Y-141946886D01*
X150923500Y-141832309D01*
X150923500Y-141713691D01*
X150892799Y-141599114D01*
X150833489Y-141496387D01*
X150833487Y-141496385D01*
X150833484Y-141496381D01*
X150791806Y-141454703D01*
X150773500Y-141410509D01*
X150773500Y-140185490D01*
X150791806Y-140141296D01*
X150833489Y-140099613D01*
X150892799Y-139996886D01*
X150923500Y-139882309D01*
X150923500Y-139763691D01*
X150892799Y-139649114D01*
X150833489Y-139546387D01*
X150833487Y-139546385D01*
X150833484Y-139546381D01*
X150749618Y-139462515D01*
X150749609Y-139462508D01*
X150646891Y-139403203D01*
X150646885Y-139403200D01*
X150532315Y-139372501D01*
X150532310Y-139372500D01*
X150532309Y-139372500D01*
X150413691Y-139372500D01*
X150413690Y-139372500D01*
X150413684Y-139372501D01*
X150299114Y-139403200D01*
X150299108Y-139403203D01*
X150196390Y-139462508D01*
X150196381Y-139462515D01*
X150112515Y-139546381D01*
X150112508Y-139546390D01*
X150053203Y-139649108D01*
X150053200Y-139649114D01*
X150022501Y-139763684D01*
X150022500Y-139763692D01*
X147800366Y-139763692D01*
X147530008Y-138890756D01*
X147531921Y-138849456D01*
X147531846Y-138849434D01*
X147531935Y-138849137D01*
X147531972Y-138848341D01*
X147532737Y-138846497D01*
X147563500Y-138691842D01*
X147563500Y-138534158D01*
X147532737Y-138379503D01*
X147472394Y-138233821D01*
X147384789Y-138102711D01*
X147273289Y-137991211D01*
X147273288Y-137991210D01*
X147142180Y-137903606D01*
X146996495Y-137843262D01*
X146841842Y-137812500D01*
X146684158Y-137812500D01*
X146529504Y-137843262D01*
X146383819Y-137903606D01*
X146252711Y-137991210D01*
X146141210Y-138102711D01*
X146053606Y-138233819D01*
X145993262Y-138379504D01*
X145962500Y-138534157D01*
X120300500Y-138534157D01*
X120300500Y-136521692D01*
X135814000Y-136521692D01*
X135814000Y-136640307D01*
X135814001Y-136640315D01*
X135844700Y-136754885D01*
X135844703Y-136754891D01*
X135904008Y-136857609D01*
X135904015Y-136857618D01*
X135987881Y-136941484D01*
X135987890Y-136941491D01*
X136090608Y-137000796D01*
X136090614Y-137000799D01*
X136205191Y-137031500D01*
X136205192Y-137031500D01*
X136323808Y-137031500D01*
X136323809Y-137031500D01*
X136438386Y-137000799D01*
X136541113Y-136941489D01*
X136624989Y-136857613D01*
X136684299Y-136754886D01*
X136715000Y-136640309D01*
X136715000Y-136521692D01*
X137321000Y-136521692D01*
X137321000Y-136640307D01*
X137321001Y-136640315D01*
X137351700Y-136754885D01*
X137351703Y-136754891D01*
X137411008Y-136857609D01*
X137411015Y-136857618D01*
X137494881Y-136941484D01*
X137494890Y-136941491D01*
X137597608Y-137000796D01*
X137597614Y-137000799D01*
X137712191Y-137031500D01*
X137712192Y-137031500D01*
X137830808Y-137031500D01*
X137830809Y-137031500D01*
X137945386Y-137000799D01*
X138048113Y-136941489D01*
X138131989Y-136857613D01*
X138191299Y-136754886D01*
X138222000Y-136640309D01*
X138222000Y-136521691D01*
X138191299Y-136407114D01*
X138154166Y-136342799D01*
X138131991Y-136304390D01*
X138131984Y-136304381D01*
X138077362Y-136249759D01*
X138059056Y-136205565D01*
X138059087Y-136203587D01*
X138062465Y-136096891D01*
X138069849Y-135863692D01*
X170422500Y-135863692D01*
X170422500Y-135982307D01*
X170422501Y-135982315D01*
X170453200Y-136096885D01*
X170453203Y-136096891D01*
X170512508Y-136199609D01*
X170512515Y-136199618D01*
X170596381Y-136283484D01*
X170596390Y-136283491D01*
X170699108Y-136342796D01*
X170699114Y-136342799D01*
X170813691Y-136373500D01*
X170813692Y-136373500D01*
X170932308Y-136373500D01*
X170932309Y-136373500D01*
X171046886Y-136342799D01*
X171149613Y-136283489D01*
X171181388Y-136251714D01*
X171216297Y-136216806D01*
X171260491Y-136198500D01*
X172435509Y-136198500D01*
X172479703Y-136216806D01*
X172546381Y-136283484D01*
X172546390Y-136283491D01*
X172649108Y-136342796D01*
X172649114Y-136342799D01*
X172763691Y-136373500D01*
X172763692Y-136373500D01*
X172882308Y-136373500D01*
X172882309Y-136373500D01*
X172996886Y-136342799D01*
X173099613Y-136283489D01*
X173183489Y-136199613D01*
X173242799Y-136096886D01*
X173273500Y-135982309D01*
X173273500Y-135863691D01*
X173242799Y-135749114D01*
X173225929Y-135719895D01*
X173183491Y-135646390D01*
X173183484Y-135646381D01*
X173099618Y-135562515D01*
X173099609Y-135562508D01*
X172996891Y-135503203D01*
X172996885Y-135503200D01*
X172882315Y-135472501D01*
X172882310Y-135472500D01*
X172882309Y-135472500D01*
X172763691Y-135472500D01*
X172763690Y-135472500D01*
X172763684Y-135472501D01*
X172649114Y-135503200D01*
X172649108Y-135503203D01*
X172546390Y-135562508D01*
X172546381Y-135562515D01*
X172479703Y-135629194D01*
X172435509Y-135647500D01*
X171260491Y-135647500D01*
X171216297Y-135629194D01*
X171149618Y-135562515D01*
X171149609Y-135562508D01*
X171046891Y-135503203D01*
X171046885Y-135503200D01*
X170932315Y-135472501D01*
X170932310Y-135472500D01*
X170932309Y-135472500D01*
X170813691Y-135472500D01*
X170813690Y-135472500D01*
X170813684Y-135472501D01*
X170699114Y-135503200D01*
X170699108Y-135503203D01*
X170596390Y-135562508D01*
X170596381Y-135562515D01*
X170512515Y-135646381D01*
X170512508Y-135646390D01*
X170453203Y-135749108D01*
X170453200Y-135749114D01*
X170422501Y-135863684D01*
X170422500Y-135863692D01*
X138069849Y-135863692D01*
X138236692Y-130594157D01*
X143072500Y-130594157D01*
X143072500Y-130751842D01*
X143103262Y-130906495D01*
X143163606Y-131052180D01*
X143211967Y-131124556D01*
X143222500Y-131159279D01*
X143222500Y-134487072D01*
X143235697Y-134553420D01*
X143235697Y-134577804D01*
X143222500Y-134644154D01*
X143222500Y-134801841D01*
X143253262Y-134956494D01*
X143313606Y-135102179D01*
X143401210Y-135233287D01*
X143512711Y-135344788D01*
X143643819Y-135432392D01*
X143643820Y-135432392D01*
X143643821Y-135432393D01*
X143789503Y-135492736D01*
X143944158Y-135523499D01*
X144101842Y-135523499D01*
X144256497Y-135492736D01*
X144402179Y-135432393D01*
X144533289Y-135344788D01*
X144644789Y-135233288D01*
X144732394Y-135102178D01*
X144792737Y-134956496D01*
X144823500Y-134801841D01*
X144823500Y-134800527D01*
X171372500Y-134800527D01*
X171372500Y-134945472D01*
X171372501Y-134945480D01*
X171410014Y-135085481D01*
X171410015Y-135085484D01*
X171419654Y-135102179D01*
X171482490Y-135211015D01*
X171584985Y-135313510D01*
X171710515Y-135385984D01*
X171710518Y-135385985D01*
X171796200Y-135408943D01*
X171850526Y-135423500D01*
X171850527Y-135423500D01*
X171995473Y-135423500D01*
X171995474Y-135423500D01*
X172135485Y-135385984D01*
X172261015Y-135313510D01*
X173413510Y-134161015D01*
X173485984Y-134035485D01*
X173497239Y-133993480D01*
X173523500Y-133895475D01*
X173523500Y-133600525D01*
X173521468Y-133592943D01*
X173499146Y-133509635D01*
X173485984Y-133460515D01*
X173413509Y-133334985D01*
X173413507Y-133334983D01*
X173413504Y-133334979D01*
X173311020Y-133232495D01*
X173311016Y-133232492D01*
X173311015Y-133232491D01*
X173185485Y-133160016D01*
X173185484Y-133160015D01*
X173185483Y-133160015D01*
X173045479Y-133122500D01*
X173045475Y-133122500D01*
X172900525Y-133122500D01*
X172900520Y-133122500D01*
X172760517Y-133160015D01*
X172760515Y-133160015D01*
X172634983Y-133232492D01*
X172634979Y-133232495D01*
X172532495Y-133334979D01*
X172532488Y-133334988D01*
X172460018Y-133460509D01*
X172460016Y-133460514D01*
X172428865Y-133576767D01*
X172412689Y-133604784D01*
X171482494Y-134534980D01*
X171482491Y-134534984D01*
X171410015Y-134660515D01*
X171410014Y-134660518D01*
X171372501Y-134800519D01*
X171372500Y-134800527D01*
X144823500Y-134800527D01*
X144823500Y-134644157D01*
X144792737Y-134489502D01*
X144732394Y-134343820D01*
X144644789Y-134212710D01*
X144541806Y-134109727D01*
X144523500Y-134065533D01*
X144523500Y-131159279D01*
X144534033Y-131124556D01*
X144582393Y-131052180D01*
X144582394Y-131052179D01*
X144642737Y-130906497D01*
X144673500Y-130751842D01*
X144673500Y-130594158D01*
X144642737Y-130439503D01*
X144582394Y-130293821D01*
X144494789Y-130162711D01*
X144383289Y-130051211D01*
X144383288Y-130051210D01*
X144252180Y-129963606D01*
X144106495Y-129903262D01*
X143951842Y-129872500D01*
X143794158Y-129872500D01*
X143639504Y-129903262D01*
X143493819Y-129963606D01*
X143362711Y-130051210D01*
X143251210Y-130162711D01*
X143163606Y-130293819D01*
X143103262Y-130439504D01*
X143072500Y-130594157D01*
X138236692Y-130594157D01*
X139467535Y-91719506D01*
X139485810Y-91677292D01*
X139512318Y-91650784D01*
X139564989Y-91598113D01*
X139624299Y-91495386D01*
X139655000Y-91380809D01*
X139655000Y-91262191D01*
X139624299Y-91147614D01*
X139615461Y-91132307D01*
X139564991Y-91044890D01*
X139564984Y-91044881D01*
X139481118Y-90961015D01*
X139481109Y-90961008D01*
X139378391Y-90901703D01*
X139378385Y-90901700D01*
X139263815Y-90871001D01*
X139263810Y-90871000D01*
X139263809Y-90871000D01*
X139145191Y-90871000D01*
X139145190Y-90871000D01*
X139145184Y-90871001D01*
X139030614Y-90901700D01*
X139030608Y-90901703D01*
X138927890Y-90961008D01*
X138927881Y-90961015D01*
X138844015Y-91044881D01*
X138844008Y-91044890D01*
X138784703Y-91147608D01*
X138784700Y-91147614D01*
X138754001Y-91262184D01*
X138754000Y-91262192D01*
X138754000Y-91380807D01*
X138754001Y-91380815D01*
X138784700Y-91495385D01*
X138784703Y-91495391D01*
X138844008Y-91598109D01*
X138844015Y-91598118D01*
X138898636Y-91652739D01*
X138916942Y-91696933D01*
X138916911Y-91698911D01*
X137508463Y-136182992D01*
X137490188Y-136225208D01*
X137411015Y-136304381D01*
X137411008Y-136304390D01*
X137351703Y-136407108D01*
X137351700Y-136407114D01*
X137321001Y-136521684D01*
X137321000Y-136521692D01*
X136715000Y-136521692D01*
X136715000Y-136521691D01*
X136684299Y-136407114D01*
X136647166Y-136342799D01*
X136624991Y-136304390D01*
X136624988Y-136304386D01*
X136604086Y-136283484D01*
X136572314Y-136251712D01*
X136554009Y-136207520D01*
X136554051Y-136205258D01*
X138195435Y-91721291D01*
X138213698Y-91679404D01*
X138294984Y-91598118D01*
X138294985Y-91598117D01*
X138294989Y-91598113D01*
X138354299Y-91495386D01*
X138385000Y-91380809D01*
X138385000Y-91262191D01*
X138354299Y-91147614D01*
X138345461Y-91132307D01*
X138294991Y-91044890D01*
X138294984Y-91044881D01*
X138211118Y-90961015D01*
X138211109Y-90961008D01*
X138108391Y-90901703D01*
X138108385Y-90901700D01*
X137993815Y-90871001D01*
X137993810Y-90871000D01*
X137993809Y-90871000D01*
X137875191Y-90871000D01*
X137875190Y-90871000D01*
X137875184Y-90871001D01*
X137760614Y-90901700D01*
X137760608Y-90901703D01*
X137657890Y-90961008D01*
X137657881Y-90961015D01*
X137574015Y-91044881D01*
X137574008Y-91044890D01*
X137514703Y-91147608D01*
X137514700Y-91147614D01*
X137484001Y-91262184D01*
X137484000Y-91262192D01*
X137484000Y-91380807D01*
X137484001Y-91380815D01*
X137514700Y-91495385D01*
X137514703Y-91495391D01*
X137574008Y-91598109D01*
X137574011Y-91598113D01*
X137626683Y-91650785D01*
X137644989Y-91694978D01*
X137644946Y-91697284D01*
X136003563Y-136181208D01*
X135985300Y-136223097D01*
X135904015Y-136304381D01*
X135904008Y-136304390D01*
X135844703Y-136407108D01*
X135844700Y-136407114D01*
X135814001Y-136521684D01*
X135814000Y-136521692D01*
X120300500Y-136521692D01*
X120300500Y-134311780D01*
X128199500Y-134311780D01*
X128199500Y-134532219D01*
X128199501Y-134532235D01*
X128233984Y-134749948D01*
X128233985Y-134749953D01*
X128302104Y-134959603D01*
X128302106Y-134959609D01*
X128374750Y-135102179D01*
X128402185Y-135156022D01*
X128531758Y-135334365D01*
X128531761Y-135334368D01*
X128531764Y-135334372D01*
X128687627Y-135490235D01*
X128687630Y-135490237D01*
X128687635Y-135490242D01*
X128865978Y-135619815D01*
X129062394Y-135719895D01*
X129272049Y-135788015D01*
X129401160Y-135808464D01*
X129489764Y-135822498D01*
X129489770Y-135822498D01*
X129489778Y-135822500D01*
X129489780Y-135822500D01*
X129710220Y-135822500D01*
X129710222Y-135822500D01*
X129927951Y-135788015D01*
X130137606Y-135719895D01*
X130334022Y-135619815D01*
X130512365Y-135490242D01*
X130668242Y-135334365D01*
X130797815Y-135156022D01*
X130897895Y-134959606D01*
X130966015Y-134749951D01*
X131000500Y-134532222D01*
X131000500Y-134311778D01*
X130966015Y-134094049D01*
X130897895Y-133884394D01*
X130797815Y-133687978D01*
X130668242Y-133509635D01*
X130668237Y-133509630D01*
X130668235Y-133509627D01*
X130512372Y-133353764D01*
X130512368Y-133353761D01*
X130512365Y-133353758D01*
X130334022Y-133224185D01*
X130334021Y-133224184D01*
X130334019Y-133224183D01*
X130137609Y-133124106D01*
X130137603Y-133124104D01*
X129927953Y-133055985D01*
X129927948Y-133055984D01*
X129710235Y-133021501D01*
X129710223Y-133021500D01*
X129710222Y-133021500D01*
X129489778Y-133021500D01*
X129489776Y-133021500D01*
X129489764Y-133021501D01*
X129272051Y-133055984D01*
X129272046Y-133055985D01*
X129062396Y-133124104D01*
X129062390Y-133124106D01*
X128865980Y-133224183D01*
X128687627Y-133353764D01*
X128531764Y-133509627D01*
X128402183Y-133687980D01*
X128302106Y-133884390D01*
X128302104Y-133884396D01*
X128233985Y-134094046D01*
X128233984Y-134094051D01*
X128199501Y-134311764D01*
X128199500Y-134311780D01*
X120300500Y-134311780D01*
X120300500Y-124218697D01*
X125661000Y-124218697D01*
X125661000Y-124218702D01*
X125680676Y-124518901D01*
X125680678Y-124518918D01*
X125739371Y-124813984D01*
X125836077Y-125098868D01*
X125969143Y-125368701D01*
X126136290Y-125618854D01*
X126219288Y-125713495D01*
X126334655Y-125845045D01*
X126484657Y-125976593D01*
X126560845Y-126043409D01*
X126560847Y-126043410D01*
X126560849Y-126043412D01*
X126811001Y-126210558D01*
X127080829Y-126343622D01*
X127365717Y-126440329D01*
X127660790Y-126499023D01*
X127900958Y-126514764D01*
X127960998Y-126518700D01*
X127961000Y-126518700D01*
X127961002Y-126518700D01*
X128015583Y-126515122D01*
X128261210Y-126499023D01*
X128556283Y-126440329D01*
X128841171Y-126343622D01*
X129111000Y-126210558D01*
X129361151Y-126043412D01*
X129587345Y-125845045D01*
X129785712Y-125618851D01*
X129952858Y-125368699D01*
X130085922Y-125098871D01*
X130182629Y-124813983D01*
X130241323Y-124518910D01*
X130261000Y-124218700D01*
X130241323Y-123918490D01*
X130182629Y-123623417D01*
X130085922Y-123338529D01*
X129952858Y-123068700D01*
X129785712Y-122818549D01*
X129587345Y-122592355D01*
X129361151Y-122393988D01*
X129195143Y-122283064D01*
X129111002Y-122226843D01*
X128841178Y-122093781D01*
X128841174Y-122093779D01*
X128841171Y-122093778D01*
X128698727Y-122045424D01*
X128556284Y-121997071D01*
X128261218Y-121938378D01*
X128261201Y-121938376D01*
X127961002Y-121918700D01*
X127960998Y-121918700D01*
X127660798Y-121938376D01*
X127660781Y-121938378D01*
X127365715Y-121997071D01*
X127080829Y-122093778D01*
X127080821Y-122093781D01*
X126810997Y-122226843D01*
X126560846Y-122393990D01*
X126334655Y-122592355D01*
X126136290Y-122818545D01*
X125969143Y-123068698D01*
X125836077Y-123338531D01*
X125739371Y-123623415D01*
X125680678Y-123918481D01*
X125680676Y-123918498D01*
X125661000Y-124218697D01*
X120300500Y-124218697D01*
X120300500Y-117987819D01*
X120988499Y-117987819D01*
X120997233Y-118031722D01*
X120997233Y-118031723D01*
X121013864Y-118056613D01*
X121030496Y-118081504D01*
X121080278Y-118114767D01*
X121124180Y-118123500D01*
X121124181Y-118123500D01*
X124201819Y-118123500D01*
X124201820Y-118123500D01*
X124245722Y-118114767D01*
X124295504Y-118081504D01*
X124328767Y-118031722D01*
X124337500Y-117987820D01*
X124337500Y-116434180D01*
X124328767Y-116390278D01*
X124295504Y-116340496D01*
X124245722Y-116307233D01*
X124201820Y-116298500D01*
X121124180Y-116298500D01*
X121102229Y-116302866D01*
X121080277Y-116307233D01*
X121080276Y-116307233D01*
X121030496Y-116340496D01*
X120997233Y-116390276D01*
X120997233Y-116390277D01*
X120988500Y-116434180D01*
X120988500Y-117987819D01*
X120988499Y-117987819D01*
X120300500Y-117987819D01*
X120300500Y-112401119D01*
X120638500Y-112401119D01*
X120638500Y-114020864D01*
X120638501Y-114020881D01*
X120644909Y-114080486D01*
X120695203Y-114215331D01*
X120695206Y-114215336D01*
X120781451Y-114330543D01*
X120781456Y-114330548D01*
X120896663Y-114416793D01*
X120896668Y-114416796D01*
X121031514Y-114467090D01*
X121031515Y-114467090D01*
X121031517Y-114467091D01*
X121091127Y-114473500D01*
X123960464Y-114473499D01*
X123984380Y-114478256D01*
X124019134Y-114492650D01*
X124033256Y-114498500D01*
X124158931Y-114523499D01*
X125965532Y-114523499D01*
X126009726Y-114541805D01*
X126112709Y-114644787D01*
X126112711Y-114644789D01*
X126243819Y-114732393D01*
X126243820Y-114732393D01*
X126243821Y-114732394D01*
X126389503Y-114792737D01*
X126544158Y-114823500D01*
X126701842Y-114823500D01*
X126856497Y-114792737D01*
X127002179Y-114732394D01*
X127133289Y-114644789D01*
X127244789Y-114533289D01*
X127332394Y-114402179D01*
X127392737Y-114256497D01*
X127423500Y-114101842D01*
X127423500Y-113944158D01*
X127392737Y-113789503D01*
X127332394Y-113643821D01*
X127244789Y-113512711D01*
X127133289Y-113401211D01*
X127133288Y-113401210D01*
X127002180Y-113313606D01*
X126856495Y-113253262D01*
X126701842Y-113222500D01*
X126544158Y-113222500D01*
X126544154Y-113222500D01*
X126477807Y-113235697D01*
X126453422Y-113235697D01*
X126387069Y-113222499D01*
X124750000Y-113222499D01*
X124705806Y-113204193D01*
X124687500Y-113159999D01*
X124687499Y-112401135D01*
X124687498Y-112401118D01*
X124686332Y-112390276D01*
X124681091Y-112341517D01*
X124680710Y-112340496D01*
X124630796Y-112206668D01*
X124630793Y-112206663D01*
X124544548Y-112091456D01*
X124544543Y-112091451D01*
X124429336Y-112005206D01*
X124429331Y-112005203D01*
X124294485Y-111954909D01*
X124294487Y-111954909D01*
X124234873Y-111948500D01*
X121091135Y-111948500D01*
X121091118Y-111948501D01*
X121031513Y-111954909D01*
X120896668Y-112005203D01*
X120896663Y-112005206D01*
X120781456Y-112091451D01*
X120781451Y-112091456D01*
X120695206Y-112206663D01*
X120695203Y-112206668D01*
X120644909Y-112341513D01*
X120638500Y-112401119D01*
X120300500Y-112401119D01*
X120300500Y-100218697D01*
X125661000Y-100218697D01*
X125661000Y-100218702D01*
X125680676Y-100518901D01*
X125680678Y-100518918D01*
X125739371Y-100813984D01*
X125836077Y-101098868D01*
X125969143Y-101368701D01*
X126136290Y-101618854D01*
X126219288Y-101713495D01*
X126334655Y-101845045D01*
X126484657Y-101976593D01*
X126560845Y-102043409D01*
X126560847Y-102043410D01*
X126560849Y-102043412D01*
X126811001Y-102210558D01*
X127080829Y-102343622D01*
X127365717Y-102440329D01*
X127660790Y-102499023D01*
X127900958Y-102514764D01*
X127960998Y-102518700D01*
X127961000Y-102518700D01*
X127961002Y-102518700D01*
X128015583Y-102515122D01*
X128261210Y-102499023D01*
X128556283Y-102440329D01*
X128841171Y-102343622D01*
X129111000Y-102210558D01*
X129361151Y-102043412D01*
X129587345Y-101845045D01*
X129785712Y-101618851D01*
X129952858Y-101368699D01*
X130085922Y-101098871D01*
X130182629Y-100813983D01*
X130241323Y-100518910D01*
X130261000Y-100218700D01*
X130241323Y-99918490D01*
X130182629Y-99623417D01*
X130085922Y-99338529D01*
X129952858Y-99068700D01*
X129785712Y-98818549D01*
X129587345Y-98592355D01*
X129361151Y-98393988D01*
X129195143Y-98283064D01*
X129111002Y-98226843D01*
X128841178Y-98093781D01*
X128841174Y-98093779D01*
X128841171Y-98093778D01*
X128698727Y-98045424D01*
X128556284Y-97997071D01*
X128261218Y-97938378D01*
X128261201Y-97938376D01*
X127961002Y-97918700D01*
X127960998Y-97918700D01*
X127660798Y-97938376D01*
X127660781Y-97938378D01*
X127365715Y-97997071D01*
X127080829Y-98093778D01*
X127080821Y-98093781D01*
X126810997Y-98226843D01*
X126560846Y-98393990D01*
X126334655Y-98592355D01*
X126136290Y-98818545D01*
X125969143Y-99068698D01*
X125836077Y-99338531D01*
X125739371Y-99623415D01*
X125680678Y-99918481D01*
X125680676Y-99918498D01*
X125661000Y-100218697D01*
X120300500Y-100218697D01*
X120300500Y-88613692D01*
X136372500Y-88613692D01*
X136372500Y-88732307D01*
X136372501Y-88732315D01*
X136403200Y-88846885D01*
X136403203Y-88846891D01*
X136462508Y-88949609D01*
X136462515Y-88949618D01*
X136546381Y-89033484D01*
X136546390Y-89033491D01*
X136649108Y-89092796D01*
X136649114Y-89092799D01*
X136763691Y-89123500D01*
X136763692Y-89123500D01*
X136882308Y-89123500D01*
X136882309Y-89123500D01*
X136996886Y-89092799D01*
X137099613Y-89033489D01*
X137183489Y-88949613D01*
X137183492Y-88949606D01*
X137184765Y-88947950D01*
X137185680Y-88947421D01*
X137186386Y-88946716D01*
X137186575Y-88946905D01*
X137226193Y-88924034D01*
X137234348Y-88923500D01*
X143461652Y-88923500D01*
X143505846Y-88941806D01*
X143511235Y-88947950D01*
X143512512Y-88949614D01*
X143596381Y-89033484D01*
X143596390Y-89033491D01*
X143699108Y-89092796D01*
X143699114Y-89092799D01*
X143813691Y-89123500D01*
X143813692Y-89123500D01*
X143932308Y-89123500D01*
X143932309Y-89123500D01*
X144046886Y-89092799D01*
X144149613Y-89033489D01*
X144233489Y-88949613D01*
X144292799Y-88846886D01*
X144323500Y-88732309D01*
X144323500Y-88613691D01*
X144292799Y-88499114D01*
X144248565Y-88422500D01*
X144233491Y-88396390D01*
X144233484Y-88396381D01*
X144149618Y-88312515D01*
X144149609Y-88312508D01*
X144046891Y-88253203D01*
X144046885Y-88253200D01*
X143932315Y-88222501D01*
X143932310Y-88222500D01*
X143932309Y-88222500D01*
X143813691Y-88222500D01*
X143813690Y-88222500D01*
X143813684Y-88222501D01*
X143699114Y-88253200D01*
X143699108Y-88253203D01*
X143596390Y-88312508D01*
X143596381Y-88312515D01*
X143512512Y-88396385D01*
X143511235Y-88398050D01*
X143510319Y-88398578D01*
X143509614Y-88399284D01*
X143509424Y-88399094D01*
X143469807Y-88421966D01*
X143461652Y-88422500D01*
X137234348Y-88422500D01*
X137190154Y-88404194D01*
X137184765Y-88398050D01*
X137183487Y-88396385D01*
X137099618Y-88312515D01*
X137099609Y-88312508D01*
X136996891Y-88253203D01*
X136996885Y-88253200D01*
X136882315Y-88222501D01*
X136882310Y-88222500D01*
X136882309Y-88222500D01*
X136763691Y-88222500D01*
X136763690Y-88222500D01*
X136763684Y-88222501D01*
X136649114Y-88253200D01*
X136649108Y-88253203D01*
X136546390Y-88312508D01*
X136546381Y-88312515D01*
X136462515Y-88396381D01*
X136462508Y-88396390D01*
X136403203Y-88499108D01*
X136403200Y-88499114D01*
X136372501Y-88613684D01*
X136372500Y-88613692D01*
X120300500Y-88613692D01*
X120300500Y-87263692D01*
X138322500Y-87263692D01*
X138322500Y-87382307D01*
X138322501Y-87382315D01*
X138353200Y-87496885D01*
X138353203Y-87496891D01*
X138412508Y-87599609D01*
X138412515Y-87599618D01*
X138496381Y-87683484D01*
X138496390Y-87683491D01*
X138599108Y-87742796D01*
X138599112Y-87742798D01*
X138599114Y-87742799D01*
X138713691Y-87773500D01*
X138713692Y-87773500D01*
X138832308Y-87773500D01*
X138832309Y-87773500D01*
X138946886Y-87742799D01*
X138965810Y-87731872D01*
X138997060Y-87723500D01*
X148898940Y-87723500D01*
X148930189Y-87731872D01*
X148949114Y-87742799D01*
X149063691Y-87773500D01*
X149063692Y-87773500D01*
X149182308Y-87773500D01*
X149182309Y-87773500D01*
X149296886Y-87742799D01*
X149399613Y-87683489D01*
X149483489Y-87599613D01*
X149542799Y-87496886D01*
X149573500Y-87382309D01*
X149573500Y-87263691D01*
X149542799Y-87149114D01*
X149521668Y-87112515D01*
X149483491Y-87046390D01*
X149483484Y-87046381D01*
X149399618Y-86962515D01*
X149399609Y-86962508D01*
X149296891Y-86903203D01*
X149296885Y-86903200D01*
X149182315Y-86872501D01*
X149182310Y-86872500D01*
X149182309Y-86872500D01*
X149063691Y-86872500D01*
X149063690Y-86872500D01*
X149063684Y-86872501D01*
X148949118Y-86903199D01*
X148949114Y-86903201D01*
X148930190Y-86914127D01*
X148898940Y-86922500D01*
X138997060Y-86922500D01*
X138965810Y-86914127D01*
X138946886Y-86903201D01*
X138946883Y-86903200D01*
X138946881Y-86903199D01*
X138832315Y-86872501D01*
X138832310Y-86872500D01*
X138832309Y-86872500D01*
X138713691Y-86872500D01*
X138713690Y-86872500D01*
X138713684Y-86872501D01*
X138599114Y-86903200D01*
X138599108Y-86903203D01*
X138496390Y-86962508D01*
X138496381Y-86962515D01*
X138412515Y-87046381D01*
X138412508Y-87046390D01*
X138353203Y-87149108D01*
X138353200Y-87149114D01*
X138322501Y-87263684D01*
X138322500Y-87263692D01*
X120300500Y-87263692D01*
X120300500Y-80064383D01*
X126152500Y-80064383D01*
X126152500Y-80251616D01*
X126189026Y-80435249D01*
X126260678Y-80608231D01*
X126260679Y-80608233D01*
X126362692Y-80760906D01*
X126364698Y-80763908D01*
X126497092Y-80896302D01*
X126652769Y-81000322D01*
X126825749Y-81071973D01*
X127009384Y-81108500D01*
X127196616Y-81108500D01*
X127380251Y-81071973D01*
X127553231Y-81000322D01*
X127594392Y-80972819D01*
X128692499Y-80972819D01*
X128701233Y-81016722D01*
X128701233Y-81016723D01*
X128717864Y-81041613D01*
X128734496Y-81066504D01*
X128784278Y-81099767D01*
X128828180Y-81108500D01*
X128828181Y-81108500D01*
X130457819Y-81108500D01*
X130457820Y-81108500D01*
X130501722Y-81099767D01*
X130551504Y-81066504D01*
X130584767Y-81016722D01*
X130593500Y-80972820D01*
X130593500Y-79343180D01*
X130584767Y-79299278D01*
X130551504Y-79249496D01*
X130501722Y-79216233D01*
X130457820Y-79207500D01*
X128828180Y-79207500D01*
X128817603Y-79209604D01*
X128784277Y-79216233D01*
X128784276Y-79216233D01*
X128734496Y-79249496D01*
X128701233Y-79299276D01*
X128701233Y-79299277D01*
X128692500Y-79343180D01*
X128692500Y-80972819D01*
X128692499Y-80972819D01*
X127594392Y-80972819D01*
X127708908Y-80896302D01*
X127841302Y-80763908D01*
X127945322Y-80608231D01*
X128016973Y-80435251D01*
X128053500Y-80251616D01*
X128053500Y-80064384D01*
X128016973Y-79880749D01*
X127945322Y-79707769D01*
X127841302Y-79552092D01*
X127708908Y-79419698D01*
X127604026Y-79349618D01*
X127553233Y-79315679D01*
X127553231Y-79315678D01*
X127380249Y-79244026D01*
X127196616Y-79207500D01*
X127009384Y-79207500D01*
X126825750Y-79244026D01*
X126652768Y-79315678D01*
X126652766Y-79315679D01*
X126497092Y-79419697D01*
X126364697Y-79552092D01*
X126260679Y-79707766D01*
X126260678Y-79707768D01*
X126189026Y-79880750D01*
X126152500Y-80064383D01*
X120300500Y-80064383D01*
X120300500Y-76163692D01*
X132472500Y-76163692D01*
X132472500Y-76282307D01*
X132472501Y-76282315D01*
X132503200Y-76396885D01*
X132503203Y-76396891D01*
X132557970Y-76491750D01*
X132564214Y-76539176D01*
X132557970Y-76554250D01*
X132503203Y-76649108D01*
X132503200Y-76649114D01*
X132472501Y-76763684D01*
X132472500Y-76763692D01*
X132472500Y-76882307D01*
X132472501Y-76882315D01*
X132503200Y-76996885D01*
X132503203Y-76996891D01*
X132562508Y-77099609D01*
X132562515Y-77099618D01*
X132646381Y-77183484D01*
X132646390Y-77183491D01*
X132749108Y-77242796D01*
X132749114Y-77242799D01*
X132863691Y-77273500D01*
X132863692Y-77273500D01*
X132982308Y-77273500D01*
X132982309Y-77273500D01*
X133096886Y-77242799D01*
X133199613Y-77183489D01*
X133283489Y-77099613D01*
X133342799Y-76996886D01*
X133373500Y-76882309D01*
X133373500Y-76763691D01*
X133342799Y-76649114D01*
X133342798Y-76649111D01*
X133288029Y-76554251D01*
X133281784Y-76506824D01*
X133288029Y-76491749D01*
X133342798Y-76396888D01*
X133342799Y-76396885D01*
X133373498Y-76282315D01*
X133373500Y-76282307D01*
X133373500Y-76163692D01*
X133373498Y-76163684D01*
X133342799Y-76049114D01*
X133342796Y-76049108D01*
X133283491Y-75946390D01*
X133283484Y-75946381D01*
X133199618Y-75862515D01*
X133199609Y-75862508D01*
X133096891Y-75803203D01*
X133096885Y-75803200D01*
X132982315Y-75772501D01*
X132982310Y-75772500D01*
X132982309Y-75772500D01*
X132863691Y-75772500D01*
X132863690Y-75772500D01*
X132863684Y-75772501D01*
X132749114Y-75803200D01*
X132749108Y-75803203D01*
X132646390Y-75862508D01*
X132646381Y-75862515D01*
X132562515Y-75946381D01*
X132562508Y-75946390D01*
X132503203Y-76049108D01*
X132503200Y-76049114D01*
X132472501Y-76163684D01*
X132472500Y-76163692D01*
X120300500Y-76163692D01*
X120300500Y-74813691D01*
X132622500Y-74813691D01*
X132622500Y-74932306D01*
X132622501Y-74932314D01*
X132653200Y-75046884D01*
X132653203Y-75046890D01*
X132712508Y-75149608D01*
X132712515Y-75149617D01*
X132796381Y-75233483D01*
X132796390Y-75233490D01*
X132899108Y-75292795D01*
X132899114Y-75292798D01*
X133013691Y-75323499D01*
X133013692Y-75323499D01*
X133132301Y-75323499D01*
X133132309Y-75323499D01*
X133132316Y-75323496D01*
X133134372Y-75323226D01*
X133135392Y-75323499D01*
X133136406Y-75323499D01*
X133136406Y-75323770D01*
X133180580Y-75335598D01*
X133186736Y-75340996D01*
X133554194Y-75708454D01*
X133572500Y-75752648D01*
X133572500Y-78511652D01*
X133554194Y-78555846D01*
X133548045Y-78561238D01*
X133546386Y-78562510D01*
X133462515Y-78646381D01*
X133462508Y-78646390D01*
X133403203Y-78749108D01*
X133403200Y-78749114D01*
X133372501Y-78863684D01*
X133372500Y-78863692D01*
X133372500Y-78982307D01*
X133372501Y-78982315D01*
X133403200Y-79096885D01*
X133403203Y-79096891D01*
X133462508Y-79199609D01*
X133462515Y-79199618D01*
X133546381Y-79283484D01*
X133546390Y-79283491D01*
X133649108Y-79342796D01*
X133649114Y-79342799D01*
X133763691Y-79373500D01*
X133763692Y-79373500D01*
X133882308Y-79373500D01*
X133882309Y-79373500D01*
X133996886Y-79342799D01*
X134099613Y-79283489D01*
X134183489Y-79199613D01*
X134242799Y-79096886D01*
X134273500Y-78982309D01*
X134273500Y-78863691D01*
X134242799Y-78749114D01*
X134221668Y-78712515D01*
X134183491Y-78646390D01*
X134183484Y-78646381D01*
X134099613Y-78562510D01*
X134097955Y-78561238D01*
X134097427Y-78560324D01*
X134096717Y-78559614D01*
X134096907Y-78559423D01*
X134074035Y-78519813D01*
X134073500Y-78511652D01*
X134073500Y-77663692D01*
X134272500Y-77663692D01*
X134272500Y-77782307D01*
X134272501Y-77782315D01*
X134303200Y-77896885D01*
X134303203Y-77896891D01*
X134362508Y-77999609D01*
X134362515Y-77999618D01*
X134446381Y-78083484D01*
X134446390Y-78083491D01*
X134549108Y-78142796D01*
X134549114Y-78142799D01*
X134663691Y-78173500D01*
X134663692Y-78173500D01*
X134782308Y-78173500D01*
X134782309Y-78173500D01*
X134896886Y-78142799D01*
X134999613Y-78083489D01*
X135083489Y-77999613D01*
X135142799Y-77896886D01*
X135173500Y-77782309D01*
X135173500Y-77761000D01*
X135191806Y-77716806D01*
X135236000Y-77698500D01*
X139135509Y-77698500D01*
X139179703Y-77716806D01*
X139246381Y-77783484D01*
X139246390Y-77783491D01*
X139349108Y-77842796D01*
X139349114Y-77842799D01*
X139463691Y-77873500D01*
X139463692Y-77873500D01*
X139582308Y-77873500D01*
X139582309Y-77873500D01*
X139696886Y-77842799D01*
X139799613Y-77783489D01*
X139883489Y-77699613D01*
X139922831Y-77631472D01*
X139940874Y-77600222D01*
X139978824Y-77571102D01*
X140026250Y-77577346D01*
X140055370Y-77615296D01*
X140057500Y-77631472D01*
X140057500Y-84453302D01*
X140099440Y-84554554D01*
X140099442Y-84554557D01*
X140099443Y-84554558D01*
X140176942Y-84632057D01*
X140176943Y-84632057D01*
X140176945Y-84632059D01*
X140278197Y-84673999D01*
X140278200Y-84674000D01*
X140387800Y-84674000D01*
X142354509Y-84674000D01*
X142398703Y-84692306D01*
X142465381Y-84758984D01*
X142465390Y-84758991D01*
X142568108Y-84818296D01*
X142568114Y-84818299D01*
X142682691Y-84849000D01*
X142682692Y-84849000D01*
X142801308Y-84849000D01*
X142801309Y-84849000D01*
X142915886Y-84818299D01*
X143018613Y-84758989D01*
X143102489Y-84675113D01*
X143161799Y-84572386D01*
X143192500Y-84457809D01*
X143192500Y-84339191D01*
X143161799Y-84224614D01*
X143102489Y-84121887D01*
X143102487Y-84121885D01*
X143102484Y-84121881D01*
X143018618Y-84038015D01*
X143018609Y-84038008D01*
X142915891Y-83978703D01*
X142915885Y-83978700D01*
X142801315Y-83948001D01*
X142801310Y-83948000D01*
X142801309Y-83948000D01*
X142682691Y-83948000D01*
X142682690Y-83948000D01*
X142682684Y-83948001D01*
X142568114Y-83978700D01*
X142568108Y-83978703D01*
X142465390Y-84038008D01*
X142465381Y-84038015D01*
X142398703Y-84104694D01*
X142354509Y-84123000D01*
X140671000Y-84123000D01*
X140626806Y-84104694D01*
X140608500Y-84060500D01*
X140608500Y-82253458D01*
X141732500Y-82253458D01*
X141732500Y-82450541D01*
X141770948Y-82643833D01*
X141770949Y-82643835D01*
X141846368Y-82825914D01*
X141955861Y-82989782D01*
X142095218Y-83129139D01*
X142259086Y-83238632D01*
X142441165Y-83314051D01*
X142634459Y-83352500D01*
X142831541Y-83352500D01*
X143024835Y-83314051D01*
X143206914Y-83238632D01*
X143370782Y-83129139D01*
X143510139Y-82989782D01*
X143619632Y-82825914D01*
X143695051Y-82643835D01*
X143733500Y-82450541D01*
X143733500Y-82253459D01*
X143733500Y-82253458D01*
X144272500Y-82253458D01*
X144272500Y-82450541D01*
X144310948Y-82643833D01*
X144310949Y-82643835D01*
X144386368Y-82825914D01*
X144495861Y-82989782D01*
X144635218Y-83129139D01*
X144799086Y-83238632D01*
X144981165Y-83314051D01*
X145174459Y-83352500D01*
X145371541Y-83352500D01*
X145564835Y-83314051D01*
X145746914Y-83238632D01*
X145910782Y-83129139D01*
X146050139Y-82989782D01*
X146159632Y-82825914D01*
X146235051Y-82643835D01*
X146273500Y-82450541D01*
X146273500Y-82253459D01*
X146235051Y-82060165D01*
X146159632Y-81878086D01*
X146050139Y-81714218D01*
X145910782Y-81574861D01*
X145746914Y-81465368D01*
X145564835Y-81389949D01*
X145564833Y-81389948D01*
X145371541Y-81351500D01*
X145174459Y-81351500D01*
X144981166Y-81389948D01*
X144873920Y-81434371D01*
X144799094Y-81465365D01*
X144799084Y-81465369D01*
X144635218Y-81574860D01*
X144495860Y-81714218D01*
X144386369Y-81878084D01*
X144310948Y-82060166D01*
X144272500Y-82253458D01*
X143733500Y-82253458D01*
X143695051Y-82060165D01*
X143619632Y-81878086D01*
X143510139Y-81714218D01*
X143370782Y-81574861D01*
X143206914Y-81465368D01*
X143024835Y-81389949D01*
X143024833Y-81389948D01*
X142831541Y-81351500D01*
X142634459Y-81351500D01*
X142441166Y-81389948D01*
X142333920Y-81434371D01*
X142259094Y-81465365D01*
X142259084Y-81465369D01*
X142095218Y-81574860D01*
X141955860Y-81714218D01*
X141846369Y-81878084D01*
X141770948Y-82060166D01*
X141732500Y-82253458D01*
X140608500Y-82253458D01*
X140608500Y-80281802D01*
X141958082Y-80281802D01*
X141958082Y-80400417D01*
X141958083Y-80400425D01*
X141988782Y-80514995D01*
X141988785Y-80515001D01*
X142048090Y-80617719D01*
X142048097Y-80617728D01*
X142131963Y-80701594D01*
X142131972Y-80701601D01*
X142234690Y-80760906D01*
X142234696Y-80760909D01*
X142349273Y-80791610D01*
X142349274Y-80791610D01*
X142467890Y-80791610D01*
X142467891Y-80791610D01*
X142582468Y-80760909D01*
X142685195Y-80701599D01*
X142769071Y-80617723D01*
X142828381Y-80514996D01*
X142859082Y-80400419D01*
X142859082Y-80281801D01*
X142846175Y-80233632D01*
X142852418Y-80186207D01*
X142862347Y-80173266D01*
X146818809Y-76216806D01*
X146863003Y-76198500D01*
X147782997Y-76198500D01*
X147827191Y-76216806D01*
X147876191Y-76265806D01*
X147894497Y-76310000D01*
X147876191Y-76354194D01*
X147831997Y-76372500D01*
X147713691Y-76372500D01*
X147713690Y-76372500D01*
X147713684Y-76372501D01*
X147599114Y-76403200D01*
X147599108Y-76403203D01*
X147496390Y-76462508D01*
X147496381Y-76462515D01*
X147412515Y-76546381D01*
X147412508Y-76546390D01*
X147353203Y-76649108D01*
X147353200Y-76649114D01*
X147322501Y-76763684D01*
X147322500Y-76763692D01*
X147322500Y-76857994D01*
X147304194Y-76902188D01*
X146802189Y-77404193D01*
X146757995Y-77422499D01*
X146663691Y-77422499D01*
X146663690Y-77422499D01*
X146663684Y-77422500D01*
X146549114Y-77453199D01*
X146549108Y-77453202D01*
X146446390Y-77512507D01*
X146446381Y-77512514D01*
X146362515Y-77596380D01*
X146362508Y-77596389D01*
X146303203Y-77699107D01*
X146303200Y-77699113D01*
X146272501Y-77813683D01*
X146272500Y-77813691D01*
X146272500Y-77932306D01*
X146272501Y-77932314D01*
X146303200Y-78046884D01*
X146303203Y-78046890D01*
X146362508Y-78149608D01*
X146362515Y-78149617D01*
X146446381Y-78233483D01*
X146446390Y-78233490D01*
X146549108Y-78292795D01*
X146549114Y-78292798D01*
X146663691Y-78323499D01*
X146663692Y-78323499D01*
X146782308Y-78323499D01*
X146782309Y-78323499D01*
X146896886Y-78292798D01*
X146999613Y-78233488D01*
X147083489Y-78149612D01*
X147142799Y-78046885D01*
X147173500Y-77932308D01*
X147173500Y-77838002D01*
X147191806Y-77793808D01*
X147215806Y-77769808D01*
X147260000Y-77751502D01*
X147304194Y-77769808D01*
X147322500Y-77814002D01*
X147322500Y-77932306D01*
X147322501Y-77932314D01*
X147346056Y-78020220D01*
X147353201Y-78046885D01*
X147364126Y-78065808D01*
X147372500Y-78097058D01*
X147372500Y-81410046D01*
X147354194Y-81454240D01*
X147341590Y-81463589D01*
X147341639Y-81463662D01*
X147340159Y-81464650D01*
X147339470Y-81465162D01*
X147339090Y-81465365D01*
X147175218Y-81574860D01*
X147035860Y-81714218D01*
X146926369Y-81878084D01*
X146850948Y-82060166D01*
X146812500Y-82253458D01*
X146812500Y-82450541D01*
X146850948Y-82643833D01*
X146850949Y-82643835D01*
X146926368Y-82825914D01*
X147035861Y-82989782D01*
X147175218Y-83129139D01*
X147339086Y-83238632D01*
X147521165Y-83314051D01*
X147714459Y-83352500D01*
X147911541Y-83352500D01*
X148104835Y-83314051D01*
X148286914Y-83238632D01*
X148450782Y-83129139D01*
X148590139Y-82989782D01*
X148699632Y-82825914D01*
X148775051Y-82643835D01*
X148813500Y-82450541D01*
X148813500Y-82253459D01*
X148775051Y-82060165D01*
X148699632Y-81878086D01*
X148590139Y-81714218D01*
X148450782Y-81574861D01*
X148286914Y-81465368D01*
X148286913Y-81465367D01*
X148286911Y-81465366D01*
X148212082Y-81434371D01*
X148178257Y-81400546D01*
X148173500Y-81376629D01*
X148173500Y-78097058D01*
X148181873Y-78065808D01*
X148192799Y-78046885D01*
X148223500Y-77932308D01*
X148223500Y-77813690D01*
X148192799Y-77699113D01*
X148192445Y-77698500D01*
X148133491Y-77596389D01*
X148133484Y-77596380D01*
X148049618Y-77512514D01*
X148049609Y-77512507D01*
X147946891Y-77453202D01*
X147946885Y-77453199D01*
X147832315Y-77422500D01*
X147832310Y-77422499D01*
X147832309Y-77422499D01*
X147714004Y-77422499D01*
X147669810Y-77404193D01*
X147651504Y-77359999D01*
X147669810Y-77315805D01*
X147693809Y-77291806D01*
X147738003Y-77273500D01*
X147832308Y-77273500D01*
X147832309Y-77273500D01*
X147946886Y-77242799D01*
X148049613Y-77183489D01*
X148133489Y-77099613D01*
X148192799Y-76996886D01*
X148223500Y-76882309D01*
X148223500Y-76764003D01*
X148241806Y-76719809D01*
X148286000Y-76701503D01*
X148330194Y-76719809D01*
X151529194Y-79918809D01*
X151547500Y-79963003D01*
X151547500Y-119282995D01*
X151529194Y-119327189D01*
X142618189Y-128238194D01*
X142573995Y-128256500D01*
X142468191Y-128256500D01*
X142468190Y-128256500D01*
X142468184Y-128256501D01*
X142353614Y-128287200D01*
X142353608Y-128287203D01*
X142250890Y-128346508D01*
X142250881Y-128346515D01*
X142167015Y-128430381D01*
X142167008Y-128430390D01*
X142107703Y-128533108D01*
X142107700Y-128533114D01*
X142077001Y-128647684D01*
X142077000Y-128647692D01*
X142077000Y-128766307D01*
X142077001Y-128766315D01*
X142107700Y-128880885D01*
X142107703Y-128880891D01*
X142167008Y-128983609D01*
X142167015Y-128983618D01*
X142250881Y-129067484D01*
X142250890Y-129067491D01*
X142353608Y-129126796D01*
X142353614Y-129126799D01*
X142468191Y-129157500D01*
X142468192Y-129157500D01*
X142586808Y-129157500D01*
X142586809Y-129157500D01*
X142701386Y-129126799D01*
X142804113Y-129067489D01*
X142887989Y-128983613D01*
X142947299Y-128880886D01*
X142978000Y-128766309D01*
X142978000Y-128683502D01*
X142996306Y-128639308D01*
X147416918Y-124218697D01*
X174161000Y-124218697D01*
X174161000Y-124218702D01*
X174180676Y-124518901D01*
X174180678Y-124518918D01*
X174239371Y-124813984D01*
X174336077Y-125098868D01*
X174469143Y-125368701D01*
X174636290Y-125618854D01*
X174719288Y-125713495D01*
X174834655Y-125845045D01*
X174984657Y-125976593D01*
X175060845Y-126043409D01*
X175060847Y-126043410D01*
X175060849Y-126043412D01*
X175311001Y-126210558D01*
X175580829Y-126343622D01*
X175865717Y-126440329D01*
X176160790Y-126499023D01*
X176400958Y-126514764D01*
X176460998Y-126518700D01*
X176461000Y-126518700D01*
X176461002Y-126518700D01*
X176515583Y-126515122D01*
X176761210Y-126499023D01*
X177056283Y-126440329D01*
X177341171Y-126343622D01*
X177611000Y-126210558D01*
X177861151Y-126043412D01*
X178087345Y-125845045D01*
X178285712Y-125618851D01*
X178452858Y-125368699D01*
X178585922Y-125098871D01*
X178682629Y-124813983D01*
X178741323Y-124518910D01*
X178761000Y-124218700D01*
X178741323Y-123918490D01*
X178682629Y-123623417D01*
X178585922Y-123338529D01*
X178452858Y-123068700D01*
X178285712Y-122818549D01*
X178087345Y-122592355D01*
X177861151Y-122393988D01*
X177695143Y-122283064D01*
X177611002Y-122226843D01*
X177341178Y-122093781D01*
X177341174Y-122093779D01*
X177341171Y-122093778D01*
X177198727Y-122045424D01*
X177056284Y-121997071D01*
X176761218Y-121938378D01*
X176761201Y-121938376D01*
X176461002Y-121918700D01*
X176460998Y-121918700D01*
X176160798Y-121938376D01*
X176160781Y-121938378D01*
X175865715Y-121997071D01*
X175580829Y-122093778D01*
X175580821Y-122093781D01*
X175310997Y-122226843D01*
X175060846Y-122393990D01*
X174834655Y-122592355D01*
X174636290Y-122818545D01*
X174469143Y-123068698D01*
X174336077Y-123338531D01*
X174239371Y-123623415D01*
X174180678Y-123918481D01*
X174180676Y-123918498D01*
X174161000Y-124218697D01*
X147416918Y-124218697D01*
X147463155Y-124172460D01*
X149716915Y-121918700D01*
X152056557Y-119579059D01*
X152068841Y-119549400D01*
X152098500Y-119477800D01*
X152098500Y-113987819D01*
X179920499Y-113987819D01*
X179929233Y-114031722D01*
X179929233Y-114031723D01*
X179945864Y-114056613D01*
X179962496Y-114081504D01*
X180012278Y-114114767D01*
X180056180Y-114123500D01*
X180056181Y-114123500D01*
X183133819Y-114123500D01*
X183133820Y-114123500D01*
X183177722Y-114114767D01*
X183227504Y-114081504D01*
X183260767Y-114031722D01*
X183269500Y-113987820D01*
X183269500Y-112434180D01*
X183260767Y-112390278D01*
X183227504Y-112340496D01*
X183177722Y-112307233D01*
X183133820Y-112298500D01*
X180056180Y-112298500D01*
X180034229Y-112302866D01*
X180012277Y-112307233D01*
X180012276Y-112307233D01*
X179962496Y-112340496D01*
X179929233Y-112390276D01*
X179929233Y-112390277D01*
X179920500Y-112434180D01*
X179920500Y-113987819D01*
X179920499Y-113987819D01*
X152098500Y-113987819D01*
X152098500Y-100218697D01*
X174161000Y-100218697D01*
X174161000Y-100218702D01*
X174180676Y-100518901D01*
X174180678Y-100518918D01*
X174239371Y-100813984D01*
X174336077Y-101098868D01*
X174469143Y-101368701D01*
X174636290Y-101618854D01*
X174719288Y-101713495D01*
X174834655Y-101845045D01*
X174984657Y-101976593D01*
X175060845Y-102043409D01*
X175060847Y-102043410D01*
X175060849Y-102043412D01*
X175311001Y-102210558D01*
X175580829Y-102343622D01*
X175865717Y-102440329D01*
X176160790Y-102499023D01*
X176400958Y-102514764D01*
X176460998Y-102518700D01*
X176461000Y-102518700D01*
X176461002Y-102518700D01*
X176515583Y-102515122D01*
X176761210Y-102499023D01*
X177056283Y-102440329D01*
X177341171Y-102343622D01*
X177611000Y-102210558D01*
X177861151Y-102043412D01*
X178087345Y-101845045D01*
X178285712Y-101618851D01*
X178452858Y-101368699D01*
X178585922Y-101098871D01*
X178682629Y-100813983D01*
X178741323Y-100518910D01*
X178761000Y-100218700D01*
X178741323Y-99918490D01*
X178682629Y-99623417D01*
X178585922Y-99338529D01*
X178452858Y-99068700D01*
X178285712Y-98818549D01*
X178087345Y-98592355D01*
X177861151Y-98393988D01*
X177695143Y-98283064D01*
X177611002Y-98226843D01*
X177341178Y-98093781D01*
X177341174Y-98093779D01*
X177341171Y-98093778D01*
X177198727Y-98045424D01*
X177056284Y-97997071D01*
X176761218Y-97938378D01*
X176761201Y-97938376D01*
X176461002Y-97918700D01*
X176460998Y-97918700D01*
X176160798Y-97938376D01*
X176160781Y-97938378D01*
X175865715Y-97997071D01*
X175580829Y-98093778D01*
X175580821Y-98093781D01*
X175310997Y-98226843D01*
X175060846Y-98393990D01*
X174834655Y-98592355D01*
X174636290Y-98818545D01*
X174469143Y-99068698D01*
X174336077Y-99338531D01*
X174239371Y-99623415D01*
X174180678Y-99918481D01*
X174180676Y-99918498D01*
X174161000Y-100218697D01*
X152098500Y-100218697D01*
X152098500Y-88163692D01*
X157222500Y-88163692D01*
X157222500Y-88282307D01*
X157222501Y-88282315D01*
X157253200Y-88396885D01*
X157253203Y-88396891D01*
X157312508Y-88499609D01*
X157312515Y-88499617D01*
X157379194Y-88566296D01*
X157397500Y-88610490D01*
X157397500Y-89785509D01*
X157379194Y-89829703D01*
X157312515Y-89896381D01*
X157312508Y-89896390D01*
X157253203Y-89999108D01*
X157253200Y-89999114D01*
X157222501Y-90113684D01*
X157222500Y-90113692D01*
X157222500Y-90232307D01*
X157222501Y-90232315D01*
X157253200Y-90346885D01*
X157253203Y-90346891D01*
X157312508Y-90449609D01*
X157312515Y-90449618D01*
X157396381Y-90533484D01*
X157396390Y-90533491D01*
X157499108Y-90592796D01*
X157499114Y-90592799D01*
X157613691Y-90623500D01*
X157613692Y-90623500D01*
X157732308Y-90623500D01*
X157732309Y-90623500D01*
X157846886Y-90592799D01*
X157949613Y-90533489D01*
X158033489Y-90449613D01*
X158092799Y-90346886D01*
X158123500Y-90232309D01*
X158123500Y-90113691D01*
X158092799Y-89999114D01*
X158033489Y-89896387D01*
X158033487Y-89896385D01*
X158033484Y-89896381D01*
X157966806Y-89829703D01*
X157948500Y-89785509D01*
X157948500Y-89063691D01*
X158872500Y-89063691D01*
X158872500Y-89182306D01*
X158872501Y-89182314D01*
X158903200Y-89296884D01*
X158903203Y-89296890D01*
X158962508Y-89399608D01*
X158962515Y-89399616D01*
X159029194Y-89466295D01*
X159047500Y-89510489D01*
X159047500Y-90685509D01*
X159029194Y-90729703D01*
X158962515Y-90796381D01*
X158962508Y-90796390D01*
X158903203Y-90899108D01*
X158903200Y-90899114D01*
X158872501Y-91013684D01*
X158872500Y-91013692D01*
X158872500Y-91132307D01*
X158872501Y-91132315D01*
X158903200Y-91246885D01*
X158903203Y-91246891D01*
X158962508Y-91349609D01*
X158962515Y-91349618D01*
X159046381Y-91433484D01*
X159046390Y-91433491D01*
X159149108Y-91492796D01*
X159149114Y-91492799D01*
X159263691Y-91523500D01*
X159263692Y-91523500D01*
X159382308Y-91523500D01*
X159382309Y-91523500D01*
X159496886Y-91492799D01*
X159599613Y-91433489D01*
X159683489Y-91349613D01*
X159742799Y-91246886D01*
X159773500Y-91132309D01*
X159773500Y-91013691D01*
X159742799Y-90899114D01*
X159726567Y-90871000D01*
X159683491Y-90796390D01*
X159683484Y-90796381D01*
X159616806Y-90729703D01*
X159598500Y-90685509D01*
X159598500Y-89510489D01*
X159616806Y-89466295D01*
X159683489Y-89399612D01*
X159742799Y-89296885D01*
X159773500Y-89182308D01*
X159773500Y-89063690D01*
X159742799Y-88949113D01*
X159741822Y-88947421D01*
X159683491Y-88846389D01*
X159683484Y-88846380D01*
X159599618Y-88762514D01*
X159599609Y-88762507D01*
X159496891Y-88703202D01*
X159496885Y-88703199D01*
X159382315Y-88672500D01*
X159382310Y-88672499D01*
X159382309Y-88672499D01*
X159263691Y-88672499D01*
X159263690Y-88672499D01*
X159263684Y-88672500D01*
X159149114Y-88703199D01*
X159149108Y-88703202D01*
X159046390Y-88762507D01*
X159046381Y-88762514D01*
X158962515Y-88846380D01*
X158962508Y-88846389D01*
X158903203Y-88949107D01*
X158903200Y-88949113D01*
X158872501Y-89063683D01*
X158872500Y-89063691D01*
X157948500Y-89063691D01*
X157948500Y-88610490D01*
X157966806Y-88566296D01*
X158033489Y-88499613D01*
X158092799Y-88396886D01*
X158123500Y-88282309D01*
X158123500Y-88163691D01*
X158092799Y-88049114D01*
X158033489Y-87946387D01*
X158033487Y-87946385D01*
X158033484Y-87946381D01*
X157949618Y-87862515D01*
X157949609Y-87862508D01*
X157846891Y-87803203D01*
X157846885Y-87803200D01*
X157732315Y-87772501D01*
X157732310Y-87772500D01*
X157732309Y-87772500D01*
X157613691Y-87772500D01*
X157613690Y-87772500D01*
X157613684Y-87772501D01*
X157499114Y-87803200D01*
X157499108Y-87803203D01*
X157396390Y-87862508D01*
X157396381Y-87862515D01*
X157312515Y-87946381D01*
X157312508Y-87946390D01*
X157253203Y-88049108D01*
X157253200Y-88049114D01*
X157222501Y-88163684D01*
X157222500Y-88163692D01*
X152098500Y-88163692D01*
X152098500Y-87413692D01*
X153922500Y-87413692D01*
X153922500Y-87532307D01*
X153922501Y-87532315D01*
X153953200Y-87646885D01*
X153953203Y-87646891D01*
X154012508Y-87749609D01*
X154012515Y-87749618D01*
X154096381Y-87833484D01*
X154096390Y-87833491D01*
X154199108Y-87892796D01*
X154199114Y-87892799D01*
X154313691Y-87923500D01*
X154313692Y-87923500D01*
X154432308Y-87923500D01*
X154432309Y-87923500D01*
X154546886Y-87892799D01*
X154649613Y-87833489D01*
X154733489Y-87749613D01*
X154792799Y-87646886D01*
X154798454Y-87625776D01*
X154814628Y-87597763D01*
X155847763Y-86564627D01*
X155875776Y-86548453D01*
X155896886Y-86542798D01*
X155999613Y-86483488D01*
X156083489Y-86399612D01*
X156142799Y-86296885D01*
X156173500Y-86182308D01*
X156173500Y-86161491D01*
X156191806Y-86117297D01*
X156236000Y-86098991D01*
X156280194Y-86117297D01*
X156346381Y-86183484D01*
X156346390Y-86183491D01*
X156449108Y-86242796D01*
X156449114Y-86242799D01*
X156563691Y-86273500D01*
X156563692Y-86273500D01*
X156682308Y-86273500D01*
X156682309Y-86273500D01*
X156796886Y-86242799D01*
X156899613Y-86183489D01*
X156983489Y-86099613D01*
X157042799Y-85996886D01*
X157073500Y-85882309D01*
X157073500Y-85763691D01*
X157073006Y-85761849D01*
X157068506Y-85745053D01*
X157074749Y-85697627D01*
X157112699Y-85668506D01*
X157145053Y-85668506D01*
X157163686Y-85673499D01*
X157163689Y-85673499D01*
X157163691Y-85673500D01*
X157163692Y-85673500D01*
X157282308Y-85673500D01*
X157282309Y-85673500D01*
X157396886Y-85642799D01*
X157499613Y-85583489D01*
X157583489Y-85499613D01*
X157642799Y-85396886D01*
X157673500Y-85282309D01*
X157673500Y-85163691D01*
X157642799Y-85049114D01*
X157583489Y-84946387D01*
X157583487Y-84946385D01*
X157583484Y-84946381D01*
X157499618Y-84862515D01*
X157499609Y-84862508D01*
X157396891Y-84803203D01*
X157396885Y-84803200D01*
X157282315Y-84772501D01*
X157282310Y-84772500D01*
X157282309Y-84772500D01*
X157188004Y-84772500D01*
X157143810Y-84754194D01*
X156641806Y-84252190D01*
X156623500Y-84207996D01*
X156623500Y-84113692D01*
X156623498Y-84113684D01*
X156592799Y-83999114D01*
X156592796Y-83999108D01*
X156533491Y-83896390D01*
X156533484Y-83896381D01*
X156449618Y-83812515D01*
X156449609Y-83812508D01*
X156346891Y-83753203D01*
X156346885Y-83753200D01*
X156232315Y-83722501D01*
X156232310Y-83722500D01*
X156232309Y-83722500D01*
X156113691Y-83722500D01*
X156113690Y-83722500D01*
X156113684Y-83722501D01*
X155999114Y-83753200D01*
X155999108Y-83753203D01*
X155896390Y-83812508D01*
X155896381Y-83812515D01*
X155812515Y-83896381D01*
X155812508Y-83896390D01*
X155753203Y-83999108D01*
X155753200Y-83999114D01*
X155722501Y-84113684D01*
X155722500Y-84113692D01*
X155722500Y-84232310D01*
X155727494Y-84250948D01*
X155721249Y-84298374D01*
X155683298Y-84327494D01*
X155650948Y-84327494D01*
X155632310Y-84322500D01*
X155632309Y-84322500D01*
X155513691Y-84322500D01*
X155513690Y-84322500D01*
X155513684Y-84322501D01*
X155399114Y-84353200D01*
X155399108Y-84353203D01*
X155296390Y-84412508D01*
X155296381Y-84412515D01*
X155212515Y-84496381D01*
X155212508Y-84496390D01*
X155153203Y-84599108D01*
X155153200Y-84599114D01*
X155122501Y-84713684D01*
X155122500Y-84713692D01*
X155122500Y-84832307D01*
X155122501Y-84832315D01*
X155153200Y-84946885D01*
X155153203Y-84946891D01*
X155212508Y-85049609D01*
X155212515Y-85049618D01*
X155296381Y-85133484D01*
X155296390Y-85133491D01*
X155399108Y-85192796D01*
X155399114Y-85192799D01*
X155513691Y-85223500D01*
X155513692Y-85223500D01*
X155607996Y-85223500D01*
X155652190Y-85241806D01*
X156073913Y-85663529D01*
X156092219Y-85707723D01*
X156073913Y-85751917D01*
X156029719Y-85770223D01*
X155998469Y-85761849D01*
X155896891Y-85703202D01*
X155896885Y-85703199D01*
X155782315Y-85672500D01*
X155782310Y-85672499D01*
X155782309Y-85672499D01*
X155663691Y-85672499D01*
X155663690Y-85672499D01*
X155663684Y-85672500D01*
X155549114Y-85703199D01*
X155549108Y-85703202D01*
X155446390Y-85762507D01*
X155446381Y-85762514D01*
X155362515Y-85846380D01*
X155362508Y-85846389D01*
X155303203Y-85949107D01*
X155303200Y-85949112D01*
X155297545Y-85970219D01*
X155281369Y-85998235D01*
X154248236Y-87031369D01*
X154220220Y-87047545D01*
X154199113Y-87053200D01*
X154199108Y-87053203D01*
X154096390Y-87112508D01*
X154096381Y-87112515D01*
X154012515Y-87196381D01*
X154012508Y-87196390D01*
X153953203Y-87299108D01*
X153953200Y-87299114D01*
X153922501Y-87413684D01*
X153922500Y-87413692D01*
X152098500Y-87413692D01*
X152098500Y-82463692D01*
X169222500Y-82463692D01*
X169222500Y-82582307D01*
X169222501Y-82582315D01*
X169253200Y-82696884D01*
X169253201Y-82696886D01*
X169264126Y-82715809D01*
X169272500Y-82747059D01*
X169272500Y-83948939D01*
X169264127Y-83980188D01*
X169253202Y-83999110D01*
X169253199Y-83999118D01*
X169222501Y-84113684D01*
X169222500Y-84113692D01*
X169222500Y-84232307D01*
X169222501Y-84232315D01*
X169253200Y-84346885D01*
X169253203Y-84346891D01*
X169312508Y-84449609D01*
X169312515Y-84449618D01*
X169396381Y-84533484D01*
X169396390Y-84533491D01*
X169499108Y-84592796D01*
X169499114Y-84592799D01*
X169613691Y-84623500D01*
X169613692Y-84623500D01*
X169732308Y-84623500D01*
X169732309Y-84623500D01*
X169846886Y-84592799D01*
X169949613Y-84533489D01*
X170033489Y-84449613D01*
X170092799Y-84346886D01*
X170123500Y-84232309D01*
X170123500Y-84113691D01*
X170092799Y-83999114D01*
X170092796Y-83999108D01*
X170081873Y-83980188D01*
X170073500Y-83948939D01*
X170073500Y-82747059D01*
X170081873Y-82715809D01*
X170092799Y-82696886D01*
X170123500Y-82582309D01*
X170123500Y-82463691D01*
X170092799Y-82349114D01*
X170037571Y-82253458D01*
X170033491Y-82246390D01*
X170033484Y-82246381D01*
X169949618Y-82162515D01*
X169949609Y-82162508D01*
X169846891Y-82103203D01*
X169846885Y-82103200D01*
X169732315Y-82072501D01*
X169732310Y-82072500D01*
X169732309Y-82072500D01*
X169613691Y-82072500D01*
X169613690Y-82072500D01*
X169613684Y-82072501D01*
X169499114Y-82103200D01*
X169499108Y-82103203D01*
X169396390Y-82162508D01*
X169396381Y-82162515D01*
X169312515Y-82246381D01*
X169312508Y-82246390D01*
X169253203Y-82349108D01*
X169253200Y-82349114D01*
X169222501Y-82463684D01*
X169222500Y-82463692D01*
X152098500Y-82463692D01*
X152098500Y-79768200D01*
X152098499Y-79768197D01*
X152056559Y-79666945D01*
X152056555Y-79666940D01*
X150203306Y-77813691D01*
X153472500Y-77813691D01*
X153472500Y-77932306D01*
X153472501Y-77932314D01*
X153503200Y-78046884D01*
X153503203Y-78046890D01*
X153562508Y-78149608D01*
X153562515Y-78149616D01*
X153629194Y-78216295D01*
X153647500Y-78260489D01*
X153647500Y-78377801D01*
X153686725Y-78472496D01*
X153686726Y-78472499D01*
X153689442Y-78479057D01*
X153689444Y-78479060D01*
X154054194Y-78843810D01*
X154072500Y-78888004D01*
X154072500Y-78982307D01*
X154072501Y-78982315D01*
X154103200Y-79096885D01*
X154103203Y-79096891D01*
X154162508Y-79199609D01*
X154162515Y-79199618D01*
X154246381Y-79283484D01*
X154246390Y-79283491D01*
X154349108Y-79342796D01*
X154349114Y-79342799D01*
X154463691Y-79373500D01*
X154463692Y-79373500D01*
X154582308Y-79373500D01*
X154582309Y-79373500D01*
X154696886Y-79342799D01*
X154799613Y-79283489D01*
X154883489Y-79199613D01*
X154942799Y-79096886D01*
X154965091Y-79013692D01*
X169222500Y-79013692D01*
X169222500Y-79132307D01*
X169222501Y-79132315D01*
X169253200Y-79246885D01*
X169253203Y-79246891D01*
X169312508Y-79349609D01*
X169312515Y-79349618D01*
X169396381Y-79433484D01*
X169396390Y-79433491D01*
X169499108Y-79492796D01*
X169499114Y-79492799D01*
X169613691Y-79523500D01*
X169613692Y-79523500D01*
X169732308Y-79523500D01*
X169732309Y-79523500D01*
X169846886Y-79492799D01*
X169949613Y-79433489D01*
X170033489Y-79349613D01*
X170092799Y-79246886D01*
X170098454Y-79225776D01*
X170114628Y-79197763D01*
X170697763Y-78614628D01*
X170725776Y-78598454D01*
X170746886Y-78592799D01*
X170849613Y-78533489D01*
X170933489Y-78449613D01*
X170992799Y-78346886D01*
X171023500Y-78232309D01*
X171023500Y-78113691D01*
X170992799Y-77999114D01*
X170992796Y-77999108D01*
X170933491Y-77896390D01*
X170933484Y-77896381D01*
X170849618Y-77812515D01*
X170849609Y-77812508D01*
X170746891Y-77753203D01*
X170746885Y-77753200D01*
X170632315Y-77722501D01*
X170632310Y-77722500D01*
X170632309Y-77722500D01*
X170513691Y-77722500D01*
X170513690Y-77722500D01*
X170513684Y-77722501D01*
X170399114Y-77753200D01*
X170399108Y-77753203D01*
X170296390Y-77812508D01*
X170296381Y-77812515D01*
X170212515Y-77896381D01*
X170212508Y-77896390D01*
X170153203Y-77999108D01*
X170153200Y-77999113D01*
X170147545Y-78020220D01*
X170131369Y-78048236D01*
X169548236Y-78631369D01*
X169520220Y-78647545D01*
X169499113Y-78653200D01*
X169499108Y-78653203D01*
X169396390Y-78712508D01*
X169396381Y-78712515D01*
X169312515Y-78796381D01*
X169312508Y-78796390D01*
X169253203Y-78899108D01*
X169253200Y-78899114D01*
X169222501Y-79013684D01*
X169222500Y-79013692D01*
X154965091Y-79013692D01*
X154970524Y-78993418D01*
X154973498Y-78982315D01*
X154973500Y-78982309D01*
X154973500Y-78863691D01*
X154942799Y-78749114D01*
X154921668Y-78712515D01*
X154883491Y-78646390D01*
X154883484Y-78646381D01*
X154799618Y-78562515D01*
X154799609Y-78562508D01*
X154696891Y-78503203D01*
X154696885Y-78503200D01*
X154582315Y-78472501D01*
X154582310Y-78472500D01*
X154582309Y-78472500D01*
X154488004Y-78472500D01*
X154443810Y-78454194D01*
X154255552Y-78265936D01*
X154237246Y-78221742D01*
X154255551Y-78177549D01*
X154283489Y-78149612D01*
X154342799Y-78046885D01*
X154373500Y-77932308D01*
X154373500Y-77813690D01*
X154342799Y-77699113D01*
X154342445Y-77698500D01*
X154283491Y-77596389D01*
X154283484Y-77596380D01*
X154199618Y-77512514D01*
X154199609Y-77512507D01*
X154096891Y-77453202D01*
X154096885Y-77453199D01*
X153982315Y-77422500D01*
X153982310Y-77422499D01*
X153982309Y-77422499D01*
X153863691Y-77422499D01*
X153863690Y-77422499D01*
X153863684Y-77422500D01*
X153749114Y-77453199D01*
X153749108Y-77453202D01*
X153646390Y-77512507D01*
X153646381Y-77512514D01*
X153562515Y-77596380D01*
X153562508Y-77596389D01*
X153503203Y-77699107D01*
X153503200Y-77699113D01*
X153472501Y-77813683D01*
X153472500Y-77813691D01*
X150203306Y-77813691D01*
X148079059Y-75689444D01*
X148079054Y-75689440D01*
X147977802Y-75647500D01*
X147977800Y-75647500D01*
X146668200Y-75647500D01*
X146668197Y-75647500D01*
X146566945Y-75689440D01*
X146566940Y-75689444D01*
X142383279Y-79873105D01*
X142352846Y-79888118D01*
X142353230Y-79889549D01*
X142234696Y-79921310D01*
X142234690Y-79921313D01*
X142131972Y-79980618D01*
X142131963Y-79980625D01*
X142048097Y-80064491D01*
X142048090Y-80064500D01*
X141988785Y-80167218D01*
X141988782Y-80167224D01*
X141958083Y-80281794D01*
X141958082Y-80281802D01*
X140608500Y-80281802D01*
X140608500Y-71813691D01*
X142822500Y-71813691D01*
X142822500Y-71932306D01*
X142822501Y-71932314D01*
X142853200Y-72046883D01*
X142853201Y-72046885D01*
X142864126Y-72065808D01*
X142872500Y-72097058D01*
X142872500Y-73748939D01*
X142864127Y-73780188D01*
X142853202Y-73799110D01*
X142853199Y-73799118D01*
X142822501Y-73913684D01*
X142822500Y-73913692D01*
X142822500Y-74032307D01*
X142822501Y-74032315D01*
X142853200Y-74146885D01*
X142853203Y-74146891D01*
X142912508Y-74249609D01*
X142912515Y-74249618D01*
X142996381Y-74333484D01*
X142996390Y-74333491D01*
X143099108Y-74392796D01*
X143099114Y-74392799D01*
X143213691Y-74423500D01*
X143213692Y-74423500D01*
X143332308Y-74423500D01*
X143332309Y-74423500D01*
X143332317Y-74423498D01*
X143339148Y-74421667D01*
X143384426Y-74409535D01*
X143431851Y-74415778D01*
X143460972Y-74453728D01*
X143454729Y-74501154D01*
X143444796Y-74514099D01*
X143362515Y-74596380D01*
X143362508Y-74596389D01*
X143303203Y-74699107D01*
X143303200Y-74699113D01*
X143272501Y-74813683D01*
X143272500Y-74813691D01*
X143272500Y-74932306D01*
X143272501Y-74932314D01*
X143303200Y-75046884D01*
X143303203Y-75046890D01*
X143362508Y-75149608D01*
X143362515Y-75149617D01*
X143446381Y-75233483D01*
X143446390Y-75233490D01*
X143549108Y-75292795D01*
X143549114Y-75292798D01*
X143663691Y-75323499D01*
X143663692Y-75323499D01*
X143782308Y-75323499D01*
X143782309Y-75323499D01*
X143896886Y-75292798D01*
X143999613Y-75233488D01*
X144083489Y-75149612D01*
X144142799Y-75046885D01*
X144173500Y-74932308D01*
X144173500Y-74838002D01*
X144191806Y-74793808D01*
X144693809Y-74291806D01*
X144738003Y-74273500D01*
X144832308Y-74273500D01*
X144832309Y-74273500D01*
X144946886Y-74242799D01*
X145049613Y-74183489D01*
X145133489Y-74099613D01*
X145192799Y-73996886D01*
X145223500Y-73882309D01*
X145223500Y-73763691D01*
X145192799Y-73649114D01*
X145151307Y-73577249D01*
X145133491Y-73546390D01*
X145133484Y-73546381D01*
X145049618Y-73462515D01*
X145049609Y-73462508D01*
X144946891Y-73403203D01*
X144946885Y-73403200D01*
X144832315Y-73372501D01*
X144832310Y-73372500D01*
X144832309Y-73372500D01*
X144713691Y-73372500D01*
X144713690Y-73372500D01*
X144713684Y-73372501D01*
X144599114Y-73403200D01*
X144599108Y-73403203D01*
X144496390Y-73462508D01*
X144496381Y-73462515D01*
X144412515Y-73546381D01*
X144412508Y-73546390D01*
X144353203Y-73649108D01*
X144353200Y-73649114D01*
X144322501Y-73763684D01*
X144322500Y-73763692D01*
X144322500Y-73857994D01*
X144304194Y-73902188D01*
X143802189Y-74404193D01*
X143757995Y-74422499D01*
X143663691Y-74422499D01*
X143663690Y-74422499D01*
X143663684Y-74422500D01*
X143611573Y-74436463D01*
X143564147Y-74430219D01*
X143535027Y-74392269D01*
X143541271Y-74344843D01*
X143551203Y-74331899D01*
X143633484Y-74249618D01*
X143633489Y-74249613D01*
X143692799Y-74146886D01*
X143723500Y-74032309D01*
X143723500Y-73913691D01*
X143692799Y-73799114D01*
X143692797Y-73799110D01*
X143681873Y-73780188D01*
X143673500Y-73748939D01*
X143673500Y-72509574D01*
X177045280Y-72509574D01*
X177045280Y-72594425D01*
X177050578Y-72634661D01*
X177050581Y-72634680D01*
X177072536Y-72716615D01*
X177088070Y-72754118D01*
X177088073Y-72754125D01*
X177117888Y-72805766D01*
X177130493Y-72827597D01*
X177130498Y-72827603D01*
X177130503Y-72827611D01*
X177147506Y-72849769D01*
X177155205Y-72859802D01*
X177215198Y-72919795D01*
X177215206Y-72919801D01*
X177247388Y-72944496D01*
X177247393Y-72944499D01*
X177247403Y-72944507D01*
X177299047Y-72974323D01*
X177320874Y-72986926D01*
X177320876Y-72986926D01*
X177320878Y-72986928D01*
X177358381Y-73002462D01*
X177358382Y-73002462D01*
X177358384Y-73002463D01*
X177440319Y-73024418D01*
X177440323Y-73024418D01*
X177440332Y-73024421D01*
X177480579Y-73029720D01*
X177480584Y-73029720D01*
X177565416Y-73029720D01*
X177565421Y-73029720D01*
X177605668Y-73024421D01*
X177605678Y-73024418D01*
X177605680Y-73024418D01*
X177687615Y-73002463D01*
X177687614Y-73002463D01*
X177687619Y-73002462D01*
X177725122Y-72986928D01*
X177798597Y-72944507D01*
X177830802Y-72919795D01*
X177890795Y-72859802D01*
X177915507Y-72827597D01*
X177957928Y-72754122D01*
X177973462Y-72716619D01*
X177980744Y-72689442D01*
X177995418Y-72634680D01*
X177995418Y-72634678D01*
X177995421Y-72634668D01*
X178000720Y-72594421D01*
X178000720Y-72509579D01*
X177995421Y-72469332D01*
X177992298Y-72457678D01*
X177973463Y-72387384D01*
X177961389Y-72358233D01*
X177957928Y-72349878D01*
X177915507Y-72276403D01*
X177915499Y-72276393D01*
X177915496Y-72276388D01*
X177890801Y-72244206D01*
X177890795Y-72244198D01*
X177830802Y-72184205D01*
X177830793Y-72184198D01*
X177798611Y-72159503D01*
X177798603Y-72159498D01*
X177798597Y-72159493D01*
X177776766Y-72146888D01*
X177725125Y-72117073D01*
X177725118Y-72117070D01*
X177687615Y-72101536D01*
X177605680Y-72079581D01*
X177605668Y-72079579D01*
X177605663Y-72079578D01*
X177605661Y-72079578D01*
X177565425Y-72074280D01*
X177565421Y-72074280D01*
X177480579Y-72074280D01*
X177480574Y-72074280D01*
X177440338Y-72079578D01*
X177440319Y-72079581D01*
X177358384Y-72101536D01*
X177320881Y-72117070D01*
X177320874Y-72117073D01*
X177247406Y-72159491D01*
X177247388Y-72159503D01*
X177215206Y-72184198D01*
X177215193Y-72184209D01*
X177155209Y-72244193D01*
X177155198Y-72244206D01*
X177130503Y-72276388D01*
X177130491Y-72276406D01*
X177088073Y-72349874D01*
X177088070Y-72349881D01*
X177072536Y-72387384D01*
X177050581Y-72469319D01*
X177050578Y-72469338D01*
X177045280Y-72509574D01*
X143673500Y-72509574D01*
X143673500Y-72097058D01*
X143681873Y-72065808D01*
X143692799Y-72046885D01*
X143723500Y-71932308D01*
X143723500Y-71813690D01*
X143692799Y-71699113D01*
X143642108Y-71611315D01*
X143633491Y-71596389D01*
X143633484Y-71596380D01*
X143549618Y-71512514D01*
X143549609Y-71512507D01*
X143446891Y-71453202D01*
X143446885Y-71453199D01*
X143332315Y-71422500D01*
X143332310Y-71422499D01*
X143332309Y-71422499D01*
X143213691Y-71422499D01*
X143213690Y-71422499D01*
X143213684Y-71422500D01*
X143099114Y-71453199D01*
X143099108Y-71453202D01*
X142996390Y-71512507D01*
X142996381Y-71512514D01*
X142912515Y-71596380D01*
X142912508Y-71596389D01*
X142853203Y-71699107D01*
X142853200Y-71699113D01*
X142822501Y-71813683D01*
X142822500Y-71813691D01*
X140608500Y-71813691D01*
X140608500Y-71497200D01*
X140608499Y-71497197D01*
X140566559Y-71395945D01*
X140566555Y-71395940D01*
X140489059Y-71318444D01*
X140489054Y-71318440D01*
X140387802Y-71276500D01*
X140387800Y-71276500D01*
X138180491Y-71276500D01*
X138136297Y-71258194D01*
X138069618Y-71191515D01*
X138069609Y-71191508D01*
X137966891Y-71132203D01*
X137966885Y-71132200D01*
X137852315Y-71101501D01*
X137852310Y-71101500D01*
X137852309Y-71101500D01*
X137733691Y-71101500D01*
X137733690Y-71101500D01*
X137733684Y-71101501D01*
X137619114Y-71132200D01*
X137619108Y-71132203D01*
X137516390Y-71191508D01*
X137516381Y-71191515D01*
X137432515Y-71275381D01*
X137432508Y-71275390D01*
X137373203Y-71378108D01*
X137373200Y-71378114D01*
X137342501Y-71492684D01*
X137342500Y-71492692D01*
X137342500Y-71611307D01*
X137342501Y-71611315D01*
X137373200Y-71725885D01*
X137373203Y-71725891D01*
X137432508Y-71828609D01*
X137432515Y-71828618D01*
X137516381Y-71912484D01*
X137516390Y-71912491D01*
X137619108Y-71971796D01*
X137619114Y-71971799D01*
X137733691Y-72002500D01*
X137733692Y-72002500D01*
X137852308Y-72002500D01*
X137852309Y-72002500D01*
X137966886Y-71971799D01*
X138069613Y-71912489D01*
X138092102Y-71890000D01*
X138136297Y-71845806D01*
X138180491Y-71827500D01*
X139995000Y-71827500D01*
X140039194Y-71845806D01*
X140057500Y-71890000D01*
X140057500Y-77214527D01*
X140039194Y-77258721D01*
X139995000Y-77277027D01*
X139950806Y-77258721D01*
X139940874Y-77245778D01*
X139883489Y-77146387D01*
X139883484Y-77146381D01*
X139799618Y-77062515D01*
X139799609Y-77062508D01*
X139696891Y-77003203D01*
X139696885Y-77003200D01*
X139582315Y-76972501D01*
X139582310Y-76972500D01*
X139582309Y-76972500D01*
X139463691Y-76972500D01*
X139463690Y-76972500D01*
X139463684Y-76972501D01*
X139349114Y-77003200D01*
X139349108Y-77003203D01*
X139246390Y-77062508D01*
X139246381Y-77062515D01*
X139179703Y-77129194D01*
X139135509Y-77147500D01*
X134818198Y-77147500D01*
X134746772Y-77177087D01*
X134731857Y-77183265D01*
X134716943Y-77189442D01*
X134634816Y-77271568D01*
X134606799Y-77287743D01*
X134549115Y-77303200D01*
X134549108Y-77303203D01*
X134446390Y-77362508D01*
X134446381Y-77362515D01*
X134362515Y-77446381D01*
X134362508Y-77446390D01*
X134303203Y-77549108D01*
X134303200Y-77549114D01*
X134272501Y-77663684D01*
X134272500Y-77663692D01*
X134073500Y-77663692D01*
X134073500Y-75573173D01*
X134073500Y-75573171D01*
X134035364Y-75481102D01*
X133964897Y-75410635D01*
X133540997Y-74986735D01*
X133522691Y-74942541D01*
X133523227Y-74934371D01*
X133523498Y-74932314D01*
X133523500Y-74932308D01*
X133523500Y-74813690D01*
X133492799Y-74699113D01*
X133433489Y-74596386D01*
X133433487Y-74596384D01*
X133433484Y-74596380D01*
X133349618Y-74512514D01*
X133349609Y-74512507D01*
X133246891Y-74453202D01*
X133246885Y-74453199D01*
X133132315Y-74422500D01*
X133132310Y-74422499D01*
X133132309Y-74422499D01*
X133013691Y-74422499D01*
X133013690Y-74422499D01*
X133013684Y-74422500D01*
X132899114Y-74453199D01*
X132899108Y-74453202D01*
X132796390Y-74512507D01*
X132796381Y-74512514D01*
X132712515Y-74596380D01*
X132712508Y-74596389D01*
X132653203Y-74699107D01*
X132653200Y-74699113D01*
X132622501Y-74813683D01*
X132622500Y-74813691D01*
X120300500Y-74813691D01*
X120300500Y-73206383D01*
X126025500Y-73206383D01*
X126025500Y-73393616D01*
X126062026Y-73577249D01*
X126133678Y-73750231D01*
X126133679Y-73750233D01*
X126222759Y-73883550D01*
X126237698Y-73905908D01*
X126370092Y-74038302D01*
X126525769Y-74142322D01*
X126698749Y-74213973D01*
X126882384Y-74250500D01*
X127069616Y-74250500D01*
X127253251Y-74213973D01*
X127426231Y-74142322D01*
X127467392Y-74114819D01*
X128565499Y-74114819D01*
X128574233Y-74158722D01*
X128574233Y-74158723D01*
X128590778Y-74183484D01*
X128607496Y-74208504D01*
X128657278Y-74241767D01*
X128701180Y-74250500D01*
X128701181Y-74250500D01*
X130330819Y-74250500D01*
X130330820Y-74250500D01*
X130374722Y-74241767D01*
X130424504Y-74208504D01*
X130457767Y-74158722D01*
X130466500Y-74114820D01*
X130466500Y-73313691D01*
X136072500Y-73313691D01*
X136072500Y-73432306D01*
X136072501Y-73432314D01*
X136103200Y-73546884D01*
X136103203Y-73546890D01*
X136162508Y-73649608D01*
X136162515Y-73649617D01*
X136246381Y-73733483D01*
X136246390Y-73733490D01*
X136349108Y-73792795D01*
X136349114Y-73792798D01*
X136463691Y-73823499D01*
X136463692Y-73823499D01*
X136582308Y-73823499D01*
X136582309Y-73823499D01*
X136696886Y-73792798D01*
X136799613Y-73733488D01*
X136883489Y-73649612D01*
X136942799Y-73546885D01*
X136973500Y-73432308D01*
X136973500Y-73338003D01*
X136991806Y-73293809D01*
X137068810Y-73216806D01*
X137113004Y-73198500D01*
X138685509Y-73198500D01*
X138729703Y-73216806D01*
X138796381Y-73283484D01*
X138796390Y-73283491D01*
X138899108Y-73342796D01*
X138899114Y-73342799D01*
X139013691Y-73373500D01*
X139013692Y-73373500D01*
X139132308Y-73373500D01*
X139132309Y-73373500D01*
X139246886Y-73342799D01*
X139349613Y-73283489D01*
X139433489Y-73199613D01*
X139492799Y-73096886D01*
X139523500Y-72982309D01*
X139523500Y-72863691D01*
X139492799Y-72749114D01*
X139458348Y-72689444D01*
X139433491Y-72646390D01*
X139433484Y-72646381D01*
X139349618Y-72562515D01*
X139349609Y-72562508D01*
X139246891Y-72503203D01*
X139246885Y-72503200D01*
X139132315Y-72472501D01*
X139132310Y-72472500D01*
X139132309Y-72472500D01*
X139013691Y-72472500D01*
X139013690Y-72472500D01*
X139013684Y-72472501D01*
X138899114Y-72503200D01*
X138899108Y-72503203D01*
X138796390Y-72562508D01*
X138796381Y-72562515D01*
X138729703Y-72629194D01*
X138685509Y-72647500D01*
X136918198Y-72647500D01*
X136846772Y-72677087D01*
X136831857Y-72683265D01*
X136816943Y-72689442D01*
X136816940Y-72689444D01*
X136602191Y-72904193D01*
X136557997Y-72922499D01*
X136463691Y-72922499D01*
X136463690Y-72922499D01*
X136463684Y-72922500D01*
X136349114Y-72953199D01*
X136349108Y-72953202D01*
X136246390Y-73012507D01*
X136246381Y-73012514D01*
X136162515Y-73096380D01*
X136162508Y-73096389D01*
X136103203Y-73199107D01*
X136103200Y-73199113D01*
X136072501Y-73313683D01*
X136072500Y-73313691D01*
X130466500Y-73313691D01*
X130466500Y-72485180D01*
X130457767Y-72441278D01*
X130424504Y-72391496D01*
X130374722Y-72358233D01*
X130330820Y-72349500D01*
X128701180Y-72349500D01*
X128679229Y-72353866D01*
X128657277Y-72358233D01*
X128657276Y-72358233D01*
X128607496Y-72391496D01*
X128574233Y-72441276D01*
X128574233Y-72441277D01*
X128565500Y-72485180D01*
X128565500Y-74114819D01*
X128565499Y-74114819D01*
X127467392Y-74114819D01*
X127581908Y-74038302D01*
X127714302Y-73905908D01*
X127818322Y-73750231D01*
X127889973Y-73577251D01*
X127926500Y-73393616D01*
X127926500Y-73206384D01*
X127889973Y-73022749D01*
X127818322Y-72849769D01*
X127751062Y-72749108D01*
X127714302Y-72694092D01*
X127581907Y-72561697D01*
X127540569Y-72534076D01*
X127426233Y-72457679D01*
X127426231Y-72457678D01*
X127253249Y-72386026D01*
X127069616Y-72349500D01*
X126882384Y-72349500D01*
X126698750Y-72386026D01*
X126525768Y-72457678D01*
X126525766Y-72457679D01*
X126370092Y-72561697D01*
X126237697Y-72694092D01*
X126133679Y-72849766D01*
X126133678Y-72849768D01*
X126062026Y-73022750D01*
X126025500Y-73206383D01*
X120300500Y-73206383D01*
X120300500Y-66221383D01*
X126003500Y-66221383D01*
X126003500Y-66408616D01*
X126040026Y-66592249D01*
X126111678Y-66765231D01*
X126111679Y-66765233D01*
X126157288Y-66833491D01*
X126215698Y-66920908D01*
X126348092Y-67053302D01*
X126503769Y-67157322D01*
X126676749Y-67228973D01*
X126860384Y-67265500D01*
X127047616Y-67265500D01*
X127231251Y-67228973D01*
X127404231Y-67157322D01*
X127445392Y-67129819D01*
X128543499Y-67129819D01*
X128552233Y-67173722D01*
X128552233Y-67173723D01*
X128568864Y-67198613D01*
X128585496Y-67223504D01*
X128635278Y-67256767D01*
X128679180Y-67265500D01*
X128679181Y-67265500D01*
X130308819Y-67265500D01*
X130308820Y-67265500D01*
X130352722Y-67256767D01*
X130402504Y-67223504D01*
X130435767Y-67173722D01*
X130444500Y-67129820D01*
X130444500Y-67013691D01*
X153622500Y-67013691D01*
X153622500Y-67132306D01*
X153622501Y-67132314D01*
X153653200Y-67246884D01*
X153653203Y-67246890D01*
X153712508Y-67349608D01*
X153712515Y-67349617D01*
X153796381Y-67433483D01*
X153796390Y-67433490D01*
X153899108Y-67492795D01*
X153899114Y-67492798D01*
X154013691Y-67523499D01*
X154013692Y-67523499D01*
X154132308Y-67523499D01*
X154132309Y-67523499D01*
X154246886Y-67492798D01*
X154349613Y-67433488D01*
X154367700Y-67415401D01*
X154416297Y-67366805D01*
X154460491Y-67348499D01*
X156835509Y-67348499D01*
X156879703Y-67366805D01*
X156946381Y-67433483D01*
X156946390Y-67433490D01*
X157049108Y-67492795D01*
X157049114Y-67492798D01*
X157163691Y-67523499D01*
X157163692Y-67523499D01*
X157282308Y-67523499D01*
X157282309Y-67523499D01*
X157396886Y-67492798D01*
X157447299Y-67463692D01*
X166522500Y-67463692D01*
X166522500Y-67582307D01*
X166522501Y-67582315D01*
X166553200Y-67696885D01*
X166553203Y-67696891D01*
X166612508Y-67799609D01*
X166612515Y-67799617D01*
X166679194Y-67866296D01*
X166697500Y-67910490D01*
X166697500Y-68327802D01*
X166739440Y-68429054D01*
X166739444Y-68429059D01*
X168029016Y-69718632D01*
X168047322Y-69762826D01*
X168045192Y-69779002D01*
X168022501Y-69863684D01*
X168022500Y-69863692D01*
X168022500Y-69982307D01*
X168022501Y-69982315D01*
X168053200Y-70096885D01*
X168053203Y-70096891D01*
X168112508Y-70199609D01*
X168112515Y-70199618D01*
X168196381Y-70283484D01*
X168196390Y-70283491D01*
X168299108Y-70342796D01*
X168299114Y-70342799D01*
X168413691Y-70373500D01*
X168413692Y-70373500D01*
X168532308Y-70373500D01*
X168532309Y-70373500D01*
X168646886Y-70342799D01*
X168749613Y-70283489D01*
X168833489Y-70199613D01*
X168854228Y-70163692D01*
X173122500Y-70163692D01*
X173122500Y-70282307D01*
X173122501Y-70282315D01*
X173153200Y-70396885D01*
X173153203Y-70396891D01*
X173212508Y-70499609D01*
X173212515Y-70499618D01*
X173296381Y-70583484D01*
X173296390Y-70583491D01*
X173399108Y-70642796D01*
X173399114Y-70642799D01*
X173513691Y-70673500D01*
X173513692Y-70673500D01*
X173632308Y-70673500D01*
X173632309Y-70673500D01*
X173746886Y-70642799D01*
X173849613Y-70583489D01*
X173933489Y-70499613D01*
X173992799Y-70396886D01*
X174023500Y-70282309D01*
X174023500Y-70188003D01*
X174041806Y-70143809D01*
X174543809Y-69641806D01*
X174588003Y-69623500D01*
X174682308Y-69623500D01*
X174682309Y-69623500D01*
X174796886Y-69592799D01*
X174899613Y-69533489D01*
X174983489Y-69449613D01*
X175042799Y-69346886D01*
X175073500Y-69232309D01*
X175073500Y-69113691D01*
X175042799Y-68999114D01*
X174983489Y-68896387D01*
X174983487Y-68896385D01*
X174983484Y-68896381D01*
X174899618Y-68812515D01*
X174899609Y-68812508D01*
X174796891Y-68753203D01*
X174796885Y-68753200D01*
X174682315Y-68722501D01*
X174682310Y-68722500D01*
X174682309Y-68722500D01*
X174563691Y-68722500D01*
X174563690Y-68722500D01*
X174563684Y-68722501D01*
X174449114Y-68753200D01*
X174449108Y-68753203D01*
X174346390Y-68812508D01*
X174346381Y-68812515D01*
X174262515Y-68896381D01*
X174262508Y-68896390D01*
X174203203Y-68999108D01*
X174203200Y-68999114D01*
X174172501Y-69113684D01*
X174172500Y-69113692D01*
X174172500Y-69207995D01*
X174154194Y-69252189D01*
X173652189Y-69754194D01*
X173607995Y-69772500D01*
X173513691Y-69772500D01*
X173513690Y-69772500D01*
X173513684Y-69772501D01*
X173399114Y-69803200D01*
X173399108Y-69803203D01*
X173296390Y-69862508D01*
X173296381Y-69862515D01*
X173212515Y-69946381D01*
X173212508Y-69946390D01*
X173153203Y-70049108D01*
X173153200Y-70049114D01*
X173122501Y-70163684D01*
X173122500Y-70163692D01*
X168854228Y-70163692D01*
X168874637Y-70128344D01*
X168874638Y-70128343D01*
X168892796Y-70096891D01*
X168892799Y-70096886D01*
X168923500Y-69982309D01*
X168923500Y-69863691D01*
X168892799Y-69749114D01*
X168833489Y-69646387D01*
X168833487Y-69646385D01*
X168833484Y-69646381D01*
X168749618Y-69562515D01*
X168749609Y-69562508D01*
X168646891Y-69503203D01*
X168646886Y-69503201D01*
X168589201Y-69487744D01*
X168561184Y-69471568D01*
X167266806Y-68177190D01*
X167248500Y-68132996D01*
X167248500Y-67910490D01*
X167266806Y-67866296D01*
X167333489Y-67799613D01*
X167392799Y-67696886D01*
X167423500Y-67582309D01*
X167423500Y-67463691D01*
X167392799Y-67349114D01*
X167372347Y-67313691D01*
X167333491Y-67246390D01*
X167333484Y-67246381D01*
X167249618Y-67162515D01*
X167249609Y-67162508D01*
X167146891Y-67103203D01*
X167146885Y-67103200D01*
X167032315Y-67072501D01*
X167032310Y-67072500D01*
X167032309Y-67072500D01*
X166913691Y-67072500D01*
X166913690Y-67072500D01*
X166913684Y-67072501D01*
X166799114Y-67103200D01*
X166799108Y-67103203D01*
X166696390Y-67162508D01*
X166696381Y-67162515D01*
X166612515Y-67246381D01*
X166612508Y-67246390D01*
X166553203Y-67349108D01*
X166553200Y-67349114D01*
X166522501Y-67463684D01*
X166522500Y-67463692D01*
X157447299Y-67463692D01*
X157499613Y-67433488D01*
X157500795Y-67432306D01*
X157517701Y-67415401D01*
X157583484Y-67349617D01*
X157583489Y-67349612D01*
X157642799Y-67246885D01*
X157673500Y-67132308D01*
X157673500Y-67013690D01*
X157642799Y-66899113D01*
X157617145Y-66854680D01*
X157583491Y-66796389D01*
X157583484Y-66796380D01*
X157499618Y-66712514D01*
X157499609Y-66712507D01*
X157396891Y-66653202D01*
X157396885Y-66653199D01*
X157282315Y-66622500D01*
X157282310Y-66622499D01*
X157282309Y-66622499D01*
X157163691Y-66622499D01*
X157163690Y-66622499D01*
X157163684Y-66622500D01*
X157049114Y-66653199D01*
X157049108Y-66653202D01*
X156946390Y-66712507D01*
X156946381Y-66712514D01*
X156879703Y-66779193D01*
X156835509Y-66797499D01*
X154460491Y-66797499D01*
X154416297Y-66779193D01*
X154349618Y-66712514D01*
X154349609Y-66712507D01*
X154246891Y-66653202D01*
X154246885Y-66653199D01*
X154132315Y-66622500D01*
X154132310Y-66622499D01*
X154132309Y-66622499D01*
X154013691Y-66622499D01*
X154013690Y-66622499D01*
X154013684Y-66622500D01*
X153899114Y-66653199D01*
X153899108Y-66653202D01*
X153796390Y-66712507D01*
X153796381Y-66712514D01*
X153712515Y-66796380D01*
X153712508Y-66796389D01*
X153653203Y-66899107D01*
X153653200Y-66899113D01*
X153622501Y-67013683D01*
X153622500Y-67013691D01*
X130444500Y-67013691D01*
X130444500Y-66263691D01*
X165622500Y-66263691D01*
X165622500Y-66382306D01*
X165622501Y-66382314D01*
X165653200Y-66496884D01*
X165653203Y-66496890D01*
X165712508Y-66599608D01*
X165712515Y-66599617D01*
X165796381Y-66683483D01*
X165796390Y-66683490D01*
X165899108Y-66742795D01*
X165899114Y-66742798D01*
X166013691Y-66773499D01*
X166013692Y-66773499D01*
X166132308Y-66773499D01*
X166132309Y-66773499D01*
X166246886Y-66742798D01*
X166349613Y-66683488D01*
X166433489Y-66599612D01*
X166492799Y-66496885D01*
X166515091Y-66413692D01*
X166972500Y-66413692D01*
X166972500Y-66532307D01*
X166972501Y-66532315D01*
X167003200Y-66646885D01*
X167003203Y-66646891D01*
X167062508Y-66749609D01*
X167062515Y-66749618D01*
X167146381Y-66833484D01*
X167146390Y-66833491D01*
X167249108Y-66892796D01*
X167249114Y-66892799D01*
X167363691Y-66923500D01*
X167363692Y-66923500D01*
X167457996Y-66923500D01*
X167502190Y-66941806D01*
X168021568Y-67461183D01*
X168037744Y-67489200D01*
X168053201Y-67546885D01*
X168053203Y-67546890D01*
X168112508Y-67649608D01*
X168112515Y-67649617D01*
X168196381Y-67733483D01*
X168196390Y-67733490D01*
X168299108Y-67792795D01*
X168299114Y-67792798D01*
X168413691Y-67823499D01*
X168413692Y-67823499D01*
X168532308Y-67823499D01*
X168532309Y-67823499D01*
X168646886Y-67792798D01*
X168749613Y-67733488D01*
X168833489Y-67649612D01*
X168892799Y-67546885D01*
X168923500Y-67432308D01*
X168923500Y-67313690D01*
X168892799Y-67199113D01*
X168878139Y-67173722D01*
X168833491Y-67096389D01*
X168833484Y-67096380D01*
X168749618Y-67012514D01*
X168749609Y-67012507D01*
X168646891Y-66953202D01*
X168646885Y-66953199D01*
X168532315Y-66922500D01*
X168532310Y-66922499D01*
X168532309Y-66922499D01*
X168413691Y-66922499D01*
X168413690Y-66922499D01*
X168413684Y-66922500D01*
X168329001Y-66945191D01*
X168281575Y-66938948D01*
X168268631Y-66929015D01*
X168069190Y-66729574D01*
X177045280Y-66729574D01*
X177045280Y-66814425D01*
X177050578Y-66854661D01*
X177050581Y-66854680D01*
X177072536Y-66936615D01*
X177088070Y-66974118D01*
X177088073Y-66974125D01*
X177110917Y-67013690D01*
X177130493Y-67047597D01*
X177130498Y-67047603D01*
X177130503Y-67047611D01*
X177155198Y-67079793D01*
X177155205Y-67079802D01*
X177215198Y-67139795D01*
X177215206Y-67139801D01*
X177247388Y-67164496D01*
X177247393Y-67164499D01*
X177247403Y-67164507D01*
X177263366Y-67173723D01*
X177320874Y-67206926D01*
X177320876Y-67206926D01*
X177320878Y-67206928D01*
X177358381Y-67222462D01*
X177358382Y-67222462D01*
X177358384Y-67222463D01*
X177440319Y-67244418D01*
X177440323Y-67244418D01*
X177440332Y-67244421D01*
X177480579Y-67249720D01*
X177480584Y-67249720D01*
X177565416Y-67249720D01*
X177565421Y-67249720D01*
X177605668Y-67244421D01*
X177605678Y-67244418D01*
X177605680Y-67244418D01*
X177687615Y-67222463D01*
X177687614Y-67222463D01*
X177687619Y-67222462D01*
X177725122Y-67206928D01*
X177798597Y-67164507D01*
X177830802Y-67139795D01*
X177890795Y-67079802D01*
X177915507Y-67047597D01*
X177957928Y-66974122D01*
X177973462Y-66936619D01*
X177983512Y-66899113D01*
X177995418Y-66854680D01*
X177995418Y-66854678D01*
X177995421Y-66854668D01*
X178000720Y-66814421D01*
X178000720Y-66729579D01*
X177995421Y-66689332D01*
X177993855Y-66683488D01*
X177973463Y-66607384D01*
X177957929Y-66569881D01*
X177957926Y-66569874D01*
X177945323Y-66548047D01*
X177915507Y-66496403D01*
X177915499Y-66496393D01*
X177915496Y-66496388D01*
X177890801Y-66464206D01*
X177890795Y-66464198D01*
X177830802Y-66404205D01*
X177825430Y-66400083D01*
X177798611Y-66379503D01*
X177798603Y-66379498D01*
X177798597Y-66379493D01*
X177776766Y-66366888D01*
X177725125Y-66337073D01*
X177725118Y-66337070D01*
X177687615Y-66321536D01*
X177605680Y-66299581D01*
X177605668Y-66299579D01*
X177605663Y-66299578D01*
X177605661Y-66299578D01*
X177565425Y-66294280D01*
X177565421Y-66294280D01*
X177480579Y-66294280D01*
X177480574Y-66294280D01*
X177440338Y-66299578D01*
X177440319Y-66299581D01*
X177358384Y-66321536D01*
X177320881Y-66337070D01*
X177320874Y-66337073D01*
X177247406Y-66379491D01*
X177247388Y-66379503D01*
X177215206Y-66404198D01*
X177215193Y-66404209D01*
X177155209Y-66464193D01*
X177155198Y-66464206D01*
X177130503Y-66496388D01*
X177130491Y-66496406D01*
X177088073Y-66569874D01*
X177088070Y-66569881D01*
X177072536Y-66607384D01*
X177050581Y-66689319D01*
X177050578Y-66689338D01*
X177045280Y-66729574D01*
X168069190Y-66729574D01*
X167891806Y-66552190D01*
X167873500Y-66507996D01*
X167873500Y-66413692D01*
X167873498Y-66413684D01*
X167865092Y-66382314D01*
X167842799Y-66299114D01*
X167840008Y-66294280D01*
X167783491Y-66196390D01*
X167783484Y-66196381D01*
X167699618Y-66112515D01*
X167699609Y-66112508D01*
X167596891Y-66053203D01*
X167596885Y-66053200D01*
X167482315Y-66022501D01*
X167482310Y-66022500D01*
X167482309Y-66022500D01*
X167363691Y-66022500D01*
X167363690Y-66022500D01*
X167363684Y-66022501D01*
X167249114Y-66053200D01*
X167249108Y-66053203D01*
X167146390Y-66112508D01*
X167146381Y-66112515D01*
X167062515Y-66196381D01*
X167062508Y-66196390D01*
X167003203Y-66299108D01*
X167003200Y-66299114D01*
X166972501Y-66413684D01*
X166972500Y-66413692D01*
X166515091Y-66413692D01*
X166523500Y-66382308D01*
X166523500Y-66286687D01*
X166523555Y-66285378D01*
X166533120Y-66264775D01*
X166541806Y-66243807D01*
X167193809Y-65591805D01*
X167238003Y-65573499D01*
X167332308Y-65573499D01*
X167332309Y-65573499D01*
X167446886Y-65542798D01*
X167549613Y-65483488D01*
X167633489Y-65399612D01*
X167692799Y-65296885D01*
X167723500Y-65182308D01*
X167723500Y-65063690D01*
X167692799Y-64949113D01*
X167689151Y-64942795D01*
X167633491Y-64846389D01*
X167633484Y-64846380D01*
X167549618Y-64762514D01*
X167549609Y-64762507D01*
X167446891Y-64703202D01*
X167446885Y-64703199D01*
X167332315Y-64672500D01*
X167332310Y-64672499D01*
X167332309Y-64672499D01*
X167213691Y-64672499D01*
X167213690Y-64672499D01*
X167213684Y-64672500D01*
X167099114Y-64703199D01*
X167099108Y-64703202D01*
X166996390Y-64762507D01*
X166996381Y-64762514D01*
X166912515Y-64846380D01*
X166912508Y-64846389D01*
X166853203Y-64949107D01*
X166853200Y-64949113D01*
X166822501Y-65063683D01*
X166822500Y-65063691D01*
X166822500Y-65157994D01*
X166804194Y-65202188D01*
X166152190Y-65854193D01*
X166107996Y-65872499D01*
X166013691Y-65872499D01*
X166013690Y-65872499D01*
X166013684Y-65872500D01*
X165899114Y-65903199D01*
X165899108Y-65903202D01*
X165796390Y-65962507D01*
X165796381Y-65962514D01*
X165712515Y-66046380D01*
X165712508Y-66046389D01*
X165653203Y-66149107D01*
X165653200Y-66149113D01*
X165622501Y-66263683D01*
X165622500Y-66263691D01*
X130444500Y-66263691D01*
X130444500Y-65500180D01*
X130435767Y-65456278D01*
X130402504Y-65406496D01*
X130352722Y-65373233D01*
X130308820Y-65364500D01*
X128679180Y-65364500D01*
X128657229Y-65368866D01*
X128635277Y-65373233D01*
X128635276Y-65373233D01*
X128585496Y-65406496D01*
X128552233Y-65456276D01*
X128552233Y-65456277D01*
X128543500Y-65500180D01*
X128543500Y-67129819D01*
X128543499Y-67129819D01*
X127445392Y-67129819D01*
X127559908Y-67053302D01*
X127692302Y-66920908D01*
X127796322Y-66765231D01*
X127867973Y-66592251D01*
X127904500Y-66408616D01*
X127904500Y-66221384D01*
X127867973Y-66037749D01*
X127796322Y-65864769D01*
X127692302Y-65709092D01*
X127559908Y-65576698D01*
X127555120Y-65573499D01*
X127518569Y-65549076D01*
X127404233Y-65472679D01*
X127404231Y-65472678D01*
X127231249Y-65401026D01*
X127047616Y-65364500D01*
X126860384Y-65364500D01*
X126676750Y-65401026D01*
X126503768Y-65472678D01*
X126503766Y-65472679D01*
X126348092Y-65576697D01*
X126215697Y-65709092D01*
X126111679Y-65864766D01*
X126111678Y-65864768D01*
X126040026Y-66037750D01*
X126003500Y-66221383D01*
X120300500Y-66221383D01*
X120300500Y-65363692D01*
X164722500Y-65363692D01*
X164722500Y-65482307D01*
X164722501Y-65482315D01*
X164753200Y-65596885D01*
X164753203Y-65596891D01*
X164812508Y-65699609D01*
X164812515Y-65699618D01*
X164896381Y-65783484D01*
X164896390Y-65783491D01*
X164999108Y-65842796D01*
X164999114Y-65842799D01*
X165113691Y-65873500D01*
X165113692Y-65873500D01*
X165232308Y-65873500D01*
X165232309Y-65873500D01*
X165346886Y-65842799D01*
X165449613Y-65783489D01*
X165533489Y-65699613D01*
X165592799Y-65596886D01*
X165623500Y-65482309D01*
X165623500Y-65388002D01*
X165641806Y-65343808D01*
X166293809Y-64691806D01*
X166338003Y-64673500D01*
X166432308Y-64673500D01*
X166432309Y-64673500D01*
X166546886Y-64642799D01*
X166649613Y-64583489D01*
X166733489Y-64499613D01*
X166792799Y-64396886D01*
X166823500Y-64282309D01*
X166823500Y-64163691D01*
X166792799Y-64049114D01*
X166772347Y-64013691D01*
X166733491Y-63946390D01*
X166733484Y-63946381D01*
X166649618Y-63862515D01*
X166649609Y-63862508D01*
X166546891Y-63803203D01*
X166546885Y-63803200D01*
X166432315Y-63772501D01*
X166432310Y-63772500D01*
X166432309Y-63772500D01*
X166313691Y-63772500D01*
X166313690Y-63772500D01*
X166313684Y-63772501D01*
X166199114Y-63803200D01*
X166199108Y-63803203D01*
X166096390Y-63862508D01*
X166096381Y-63862515D01*
X166012515Y-63946381D01*
X166012508Y-63946390D01*
X165953203Y-64049108D01*
X165953200Y-64049114D01*
X165922501Y-64163684D01*
X165922500Y-64163692D01*
X165922500Y-64257995D01*
X165904194Y-64302189D01*
X165252190Y-64954194D01*
X165207996Y-64972500D01*
X165113691Y-64972500D01*
X165113690Y-64972500D01*
X165113684Y-64972501D01*
X164999114Y-65003200D01*
X164999108Y-65003203D01*
X164896390Y-65062508D01*
X164896381Y-65062515D01*
X164812515Y-65146381D01*
X164812508Y-65146390D01*
X164753203Y-65249108D01*
X164753200Y-65249114D01*
X164722501Y-65363684D01*
X164722500Y-65363692D01*
X120300500Y-65363692D01*
X120300500Y-63113691D01*
X138472500Y-63113691D01*
X138472500Y-63232306D01*
X138472501Y-63232314D01*
X138503200Y-63346884D01*
X138503203Y-63346890D01*
X138562508Y-63449608D01*
X138562515Y-63449617D01*
X138646381Y-63533483D01*
X138646390Y-63533490D01*
X138749108Y-63592795D01*
X138749112Y-63592797D01*
X138749114Y-63592798D01*
X138770219Y-63598453D01*
X138798237Y-63614629D01*
X139381369Y-64197761D01*
X139397545Y-64225778D01*
X139403201Y-64246885D01*
X139403203Y-64246890D01*
X139462508Y-64349608D01*
X139462515Y-64349617D01*
X139546381Y-64433483D01*
X139546390Y-64433490D01*
X139649108Y-64492795D01*
X139649114Y-64492798D01*
X139763691Y-64523499D01*
X139763692Y-64523499D01*
X139882308Y-64523499D01*
X139882309Y-64523499D01*
X139996886Y-64492798D01*
X140047300Y-64463691D01*
X153622500Y-64463691D01*
X153622500Y-64582306D01*
X153622501Y-64582314D01*
X153653200Y-64696884D01*
X153653203Y-64696890D01*
X153712508Y-64799608D01*
X153712515Y-64799617D01*
X153796381Y-64883483D01*
X153796390Y-64883490D01*
X153899108Y-64942795D01*
X153899114Y-64942798D01*
X154013691Y-64973499D01*
X154013692Y-64973499D01*
X154132308Y-64973499D01*
X154132309Y-64973499D01*
X154246886Y-64942798D01*
X154349613Y-64883488D01*
X154349618Y-64883483D01*
X154416297Y-64816805D01*
X154460491Y-64798499D01*
X156085509Y-64798499D01*
X156129703Y-64816805D01*
X156196381Y-64883483D01*
X156196390Y-64883490D01*
X156299108Y-64942795D01*
X156299114Y-64942798D01*
X156413691Y-64973499D01*
X156413692Y-64973499D01*
X156532308Y-64973499D01*
X156532309Y-64973499D01*
X156646886Y-64942798D01*
X156749613Y-64883488D01*
X156833489Y-64799612D01*
X156892799Y-64696885D01*
X156923500Y-64582308D01*
X156923500Y-64463690D01*
X156892799Y-64349113D01*
X156865707Y-64302189D01*
X156833491Y-64246389D01*
X156833484Y-64246380D01*
X156749618Y-64162514D01*
X156749609Y-64162507D01*
X156646891Y-64103202D01*
X156646885Y-64103199D01*
X156532315Y-64072500D01*
X156532310Y-64072499D01*
X156532309Y-64072499D01*
X156413691Y-64072499D01*
X156413690Y-64072499D01*
X156413684Y-64072500D01*
X156299114Y-64103199D01*
X156299108Y-64103202D01*
X156196390Y-64162507D01*
X156196381Y-64162514D01*
X156129703Y-64229193D01*
X156085509Y-64247499D01*
X154460491Y-64247499D01*
X154416297Y-64229193D01*
X154349618Y-64162514D01*
X154349609Y-64162507D01*
X154246891Y-64103202D01*
X154246885Y-64103199D01*
X154132315Y-64072500D01*
X154132310Y-64072499D01*
X154132309Y-64072499D01*
X154013691Y-64072499D01*
X154013690Y-64072499D01*
X154013684Y-64072500D01*
X153899114Y-64103199D01*
X153899108Y-64103202D01*
X153796390Y-64162507D01*
X153796381Y-64162514D01*
X153712515Y-64246380D01*
X153712508Y-64246389D01*
X153653203Y-64349107D01*
X153653200Y-64349113D01*
X153622501Y-64463683D01*
X153622500Y-64463691D01*
X140047300Y-64463691D01*
X140099613Y-64433488D01*
X140099618Y-64433483D01*
X140117702Y-64415400D01*
X140183484Y-64349617D01*
X140183489Y-64349612D01*
X140242799Y-64246885D01*
X140273500Y-64132308D01*
X140273500Y-64013690D01*
X140242799Y-63899113D01*
X140183489Y-63796386D01*
X140183487Y-63796384D01*
X140183484Y-63796380D01*
X140099618Y-63712514D01*
X140099609Y-63712507D01*
X139996891Y-63653202D01*
X139996886Y-63653200D01*
X139975779Y-63647544D01*
X139947762Y-63631368D01*
X139364630Y-63048236D01*
X139348454Y-63020218D01*
X139342799Y-62999113D01*
X139283489Y-62896386D01*
X139283487Y-62896384D01*
X139283484Y-62896380D01*
X139199618Y-62812514D01*
X139199612Y-62812509D01*
X139096889Y-62753201D01*
X139096885Y-62753199D01*
X138982315Y-62722500D01*
X138982310Y-62722499D01*
X138982309Y-62722499D01*
X138863691Y-62722499D01*
X138863690Y-62722499D01*
X138863684Y-62722500D01*
X138749114Y-62753199D01*
X138749108Y-62753202D01*
X138646390Y-62812507D01*
X138646381Y-62812514D01*
X138562515Y-62896380D01*
X138562508Y-62896389D01*
X138503203Y-62999107D01*
X138503200Y-62999113D01*
X138472501Y-63113683D01*
X138472500Y-63113691D01*
X120300500Y-63113691D01*
X120300500Y-62701614D01*
X171640000Y-62701614D01*
X171640000Y-62886385D01*
X171676045Y-63067603D01*
X171676046Y-63067606D01*
X171746753Y-63238307D01*
X171746754Y-63238309D01*
X171746755Y-63238310D01*
X171849408Y-63391940D01*
X171980060Y-63522592D01*
X172133690Y-63625245D01*
X172133691Y-63625245D01*
X172133692Y-63625246D01*
X172219042Y-63660599D01*
X172304395Y-63695954D01*
X172485615Y-63732000D01*
X172485616Y-63732000D01*
X172670384Y-63732000D01*
X172670385Y-63732000D01*
X172851605Y-63695954D01*
X173022310Y-63625245D01*
X173175940Y-63522592D01*
X173306592Y-63391940D01*
X173409245Y-63238310D01*
X173479954Y-63067605D01*
X173516000Y-62886385D01*
X173516000Y-62701615D01*
X173516000Y-62701614D01*
X174180000Y-62701614D01*
X174180000Y-62886385D01*
X174216045Y-63067603D01*
X174216046Y-63067606D01*
X174286753Y-63238307D01*
X174286754Y-63238309D01*
X174286755Y-63238310D01*
X174389408Y-63391940D01*
X174520060Y-63522592D01*
X174673690Y-63625245D01*
X174673691Y-63625245D01*
X174673692Y-63625246D01*
X174759042Y-63660599D01*
X174844395Y-63695954D01*
X175025615Y-63732000D01*
X175025616Y-63732000D01*
X175210384Y-63732000D01*
X175210385Y-63732000D01*
X175391605Y-63695954D01*
X175562310Y-63625245D01*
X175715940Y-63522592D01*
X175846592Y-63391940D01*
X175949245Y-63238310D01*
X176019954Y-63067605D01*
X176056000Y-62886385D01*
X176056000Y-62701615D01*
X176019954Y-62520395D01*
X175949245Y-62349690D01*
X175846592Y-62196060D01*
X175715940Y-62065408D01*
X175562310Y-61962755D01*
X175562309Y-61962754D01*
X175562307Y-61962753D01*
X175391606Y-61892046D01*
X175391603Y-61892045D01*
X175210385Y-61856000D01*
X175025615Y-61856000D01*
X175025614Y-61856000D01*
X174844396Y-61892045D01*
X174844393Y-61892046D01*
X174673692Y-61962753D01*
X174673688Y-61962756D01*
X174520060Y-62065407D01*
X174389407Y-62196060D01*
X174286756Y-62349688D01*
X174286753Y-62349692D01*
X174216046Y-62520393D01*
X174216045Y-62520396D01*
X174180000Y-62701614D01*
X173516000Y-62701614D01*
X173479954Y-62520395D01*
X173409245Y-62349690D01*
X173306592Y-62196060D01*
X173175940Y-62065408D01*
X173022310Y-61962755D01*
X173022309Y-61962754D01*
X173022307Y-61962753D01*
X172851606Y-61892046D01*
X172851603Y-61892045D01*
X172670385Y-61856000D01*
X172485615Y-61856000D01*
X172485614Y-61856000D01*
X172304396Y-61892045D01*
X172304393Y-61892046D01*
X172133692Y-61962753D01*
X172133688Y-61962756D01*
X171980060Y-62065407D01*
X171849407Y-62196060D01*
X171746756Y-62349688D01*
X171746753Y-62349692D01*
X171676046Y-62520393D01*
X171676045Y-62520396D01*
X171640000Y-62701614D01*
X120300500Y-62701614D01*
X120300500Y-60363000D01*
X120318806Y-60318806D01*
X120363000Y-60300500D01*
X183772000Y-60300500D01*
X183816194Y-60318806D01*
G37*
G04 #@! TD.AperFunction*
G04 #@! TD*
M02*
