M48
; DRILL file KiCad 10.0.6 date 2026-09-29T16:21:09
; FORMAT={-:-/ absolute / metric / decimal}
; #@! TF.CreationDate,2026-09-29T16:21:09+08:00
; #@! TF.GenerationSoftware,Kicad,Pcbnew,10.0.6
; #@! TF.FileFunction,Plated,1,2,PTH
FMAT,2
METRIC
; #@! TA.AperFunction,Plated,PTH,ViaDrill
T1C0.300
; #@! TA.AperFunction,Plated,PTH,ComponentDrill
T2C0.600
; #@! TA.AperFunction,Plated,PTH,ComponentDrill
T3C0.914
; #@! TA.AperFunction,Plated,PTH,ComponentDrill
T4C1.000
; #@! TA.AperFunction,Plated,PTH,ComponentDrill
T5C1.020
; #@! TA.AperFunction,Plated,PTH,ComponentDrill
T6C1.100
; #@! TA.AperFunction,Plated,PTH,ComponentDrill
T7C1.200
; #@! TA.AperFunction,Plated,PTH,ComponentDrill
T8C1.300
; #@! TA.AperFunction,Plated,PTH,ComponentDrill
T9C1.800
%
G90
G05
T1
X122.931Y-73.811
X122.932Y-66.895
X123.073Y-80.669
X126.078Y-85.714
X126.132Y-130.739
X126.623Y-114.023
X129.71Y-61.778
X130.56Y-61.778
X132.923Y-76.223
X132.923Y-76.823
X133.073Y-74.873
X133.2Y-91.05
X133.42Y-88.567
X133.563Y-65.715
X133.823Y-78.923
X134.413Y-65.715
X134.723Y-77.723
X135.875Y-60.951
X136.002Y-89.505
X136.264Y-136.581
X136.523Y-73.373
X136.725Y-60.951
X136.823Y-88.673
X137.299Y-128.723
X137.772Y-136.581
X137.793Y-61.392
X137.793Y-71.552
X137.934Y-91.322
X138.643Y-61.392
X138.773Y-87.323
X138.923Y-63.173
X139.073Y-72.923
X139.204Y-91.322
X139.244Y-132.348
X139.352Y-86.614
X139.523Y-77.423
X139.689Y-84.586
X139.823Y-64.073
X141.325Y-91.322
X142.409Y-80.341
X142.528Y-128.707
X142.742Y-84.398
X143.273Y-71.873
X143.273Y-73.973
X143.723Y-74.873
X143.873Y-88.673
X143.873Y-130.673
X144.023Y-134.723
X144.493Y-67.712
X144.493Y-69.112
X144.493Y-70.512
X144.773Y-73.823
X146.018Y-71.248
X146.723Y-77.873
X146.763Y-138.613
X147.293Y-67.712
X147.293Y-69.112
X147.773Y-76.823
X147.773Y-77.873
X149.123Y-87.323
X149.572Y-135.558
X150.473Y-139.823
X150.473Y-141.773
X150.85Y-93.821
X153.923Y-77.873
X154.003Y-94.779
X154.004Y-86.06
X154.073Y-64.523
X154.073Y-67.073
X154.373Y-87.473
X154.523Y-78.923
X155.293Y-61.392
X155.573Y-84.773
X155.723Y-86.123
X156.143Y-61.392
X156.173Y-84.173
X156.473Y-64.523
X156.623Y-85.823
X157.223Y-67.073
X157.223Y-85.223
X157.673Y-88.223
X157.673Y-90.173
X159.323Y-89.123
X159.323Y-91.073
X161.363Y-137.462
X164.792Y-93.343
X165.173Y-65.423
X165.27Y-61.24
X166.073Y-66.323
X166.101Y-78.953
X166.12Y-61.24
X166.125Y-63.286
X166.159Y-70.129
X166.373Y-64.223
X166.549Y-62.549
X166.973Y-67.523
X166.975Y-69.286
X166.975Y-72.177
X166.975Y-87.007
X167.273Y-65.123
X167.399Y-77.441
X167.399Y-80.27
X167.423Y-66.473
X168.457Y-92.287
X168.473Y-67.373
X168.473Y-69.923
X169.673Y-79.073
X169.673Y-82.523
X169.673Y-84.173
X170.005Y-92.941
X170.573Y-78.173
X170.873Y-135.923
X171.923Y-134.873
X172.539Y-93.343
X172.672Y-69.271
X172.823Y-135.923
X172.973Y-133.673
X173.573Y-70.223
X174.075Y-67.234
X174.623Y-69.173
X175.171Y-78.953
X175.299Y-72.609
X176.023Y-65.726
X176.374Y-80.27
X176.374Y-86.27
X176.448Y-66.462
X177.111Y-137.86
X180.8Y-104.2
X181.8Y-104.2
X182.16Y-84.028
X182.256Y-75.494
X183.387Y-79.16
X183.487Y-82.024
T3
X122.663Y-113.211
X122.663Y-117.211
X181.595Y-113.211
X181.595Y-117.211
T4
X126.954Y-66.315
X126.976Y-73.3
X127.103Y-80.158
X129.494Y-66.315
X129.516Y-73.3
X129.643Y-80.158
X135.046Y-140.137
X137.546Y-140.137
X140.046Y-140.137
X142.546Y-140.137
T5
X170.038Y-62.794
X172.578Y-62.794
X175.118Y-62.794
T6
X142.733Y-82.352
X145.273Y-82.352
X147.813Y-82.352
X150.353Y-82.352
T7
X149.123Y-146.233
X154.123Y-146.233
T8
X159.271Y-145.852
X162.771Y-145.852
X167.272Y-145.852
X170.772Y-145.852
X175.019Y-145.852
X178.519Y-145.852
T9
X125.64Y-134.422
X129.6Y-134.422
T2
X176.474Y-65.342G85X177.573Y-65.342
G05
X176.474Y-73.982G85X177.573Y-73.982
G05
X180.773Y-65.342G85X181.573Y-65.342
G05
X180.773Y-73.982G85X181.573Y-73.982
G05
M30
