%TF.GenerationSoftware,KiCad,Pcbnew,10.0.6*%
%TF.CreationDate,2026-09-29T16:13:58+08:00*%
%TF.ProjectId,TES_Controller,5445535f-436f-46e7-9472-6f6c6c65722e,rev?*%
%TF.SameCoordinates,Original*%
%TF.FileFunction,Drillmap*%
%TF.FilePolarity,Positive*%
%FSLAX45Y45*%
G04 Gerber Fmt 4.5, Leading zero omitted, Abs format (unit mm)*
G04 Created by KiCad (PCBNEW 10.0.6) date 2026-09-29 16:13:58*
%MOMM*%
%LPD*%
G01*
G04 APERTURE LIST*
%ADD10C,0.254000*%
%ADD11C,0.000000*%
%ADD12C,0.200000*%
%ADD13C,0.320000*%
G04 APERTURE END LIST*
D10*
X12000000Y-6000000D02*
X18413500Y-6000000D01*
X18413500Y-14931800D01*
X12000000Y-14931800D01*
X12000000Y-6000000D01*
D11*
G36*
X17764737Y-6647174D02*
G01*
X17772085Y-6651416D01*
X17778084Y-6657415D01*
X17782326Y-6664763D01*
X17784522Y-6672958D01*
X17784522Y-6681442D01*
X17782326Y-6689637D01*
X17778084Y-6696985D01*
X17772085Y-6702984D01*
X17764737Y-6707226D01*
X17756542Y-6709422D01*
X17748058Y-6709422D01*
X17739863Y-6707226D01*
X17732515Y-6702984D01*
X17726516Y-6696985D01*
X17722274Y-6689637D01*
X17720078Y-6681442D01*
X17720078Y-6672958D01*
X17722274Y-6664763D01*
X17726516Y-6657415D01*
X17732515Y-6651416D01*
X17739863Y-6647174D01*
X17748058Y-6644978D01*
X17756542Y-6644978D01*
X17764737Y-6647174D01*
G37*
G36*
X17764737Y-7225174D02*
G01*
X17772085Y-7229416D01*
X17778084Y-7235415D01*
X17782326Y-7242763D01*
X17784522Y-7250958D01*
X17784522Y-7259442D01*
X17782326Y-7267637D01*
X17778084Y-7274985D01*
X17772085Y-7280984D01*
X17764737Y-7285226D01*
X17756542Y-7287422D01*
X17748058Y-7287422D01*
X17739863Y-7285226D01*
X17732515Y-7280984D01*
X17726516Y-7274985D01*
X17722274Y-7267637D01*
X17720078Y-7259442D01*
X17720078Y-7250958D01*
X17722274Y-7242763D01*
X17726516Y-7235415D01*
X17732515Y-7229416D01*
X17739863Y-7225174D01*
X17748058Y-7222978D01*
X17756542Y-7222978D01*
X17764737Y-7225174D01*
G37*
D12*
D13*
X12636100Y-9861870D02*
X12956100Y-10181870D01*
X12956100Y-9861870D02*
X12636100Y-10181870D01*
X12636100Y-12261870D02*
X12956100Y-12581870D01*
X12956100Y-12261870D02*
X12636100Y-12581870D01*
X17486100Y-9861870D02*
X17806100Y-10181870D01*
X17806100Y-9861870D02*
X17486100Y-10181870D01*
X17486100Y-12261870D02*
X17806100Y-12581870D01*
X17806100Y-12261870D02*
X17486100Y-12581870D01*
D12*
X12248077Y-15255984D02*
X12248077Y-15055984D01*
X12248077Y-15055984D02*
X12295696Y-15055984D01*
X12295696Y-15055984D02*
X12324267Y-15065508D01*
X12324267Y-15065508D02*
X12343315Y-15084555D01*
X12343315Y-15084555D02*
X12352839Y-15103603D01*
X12352839Y-15103603D02*
X12362362Y-15141698D01*
X12362362Y-15141698D02*
X12362362Y-15170269D01*
X12362362Y-15170269D02*
X12352839Y-15208365D01*
X12352839Y-15208365D02*
X12343315Y-15227412D01*
X12343315Y-15227412D02*
X12324267Y-15246460D01*
X12324267Y-15246460D02*
X12295696Y-15255984D01*
X12295696Y-15255984D02*
X12248077Y-15255984D01*
X12448077Y-15255984D02*
X12448077Y-15122650D01*
X12448077Y-15160746D02*
X12457601Y-15141698D01*
X12457601Y-15141698D02*
X12467124Y-15132174D01*
X12467124Y-15132174D02*
X12486172Y-15122650D01*
X12486172Y-15122650D02*
X12505220Y-15122650D01*
X12571886Y-15255984D02*
X12571886Y-15122650D01*
X12571886Y-15055984D02*
X12562362Y-15065508D01*
X12562362Y-15065508D02*
X12571886Y-15075031D01*
X12571886Y-15075031D02*
X12581410Y-15065508D01*
X12581410Y-15065508D02*
X12571886Y-15055984D01*
X12571886Y-15055984D02*
X12571886Y-15075031D01*
X12695696Y-15255984D02*
X12676648Y-15246460D01*
X12676648Y-15246460D02*
X12667124Y-15227412D01*
X12667124Y-15227412D02*
X12667124Y-15055984D01*
X12800458Y-15255984D02*
X12781410Y-15246460D01*
X12781410Y-15246460D02*
X12771886Y-15227412D01*
X12771886Y-15227412D02*
X12771886Y-15055984D01*
X13029029Y-15255984D02*
X13029029Y-15055984D01*
X13029029Y-15055984D02*
X13095696Y-15198841D01*
X13095696Y-15198841D02*
X13162362Y-15055984D01*
X13162362Y-15055984D02*
X13162362Y-15255984D01*
X13343315Y-15255984D02*
X13343315Y-15151222D01*
X13343315Y-15151222D02*
X13333791Y-15132174D01*
X13333791Y-15132174D02*
X13314743Y-15122650D01*
X13314743Y-15122650D02*
X13276648Y-15122650D01*
X13276648Y-15122650D02*
X13257601Y-15132174D01*
X13343315Y-15246460D02*
X13324267Y-15255984D01*
X13324267Y-15255984D02*
X13276648Y-15255984D01*
X13276648Y-15255984D02*
X13257601Y-15246460D01*
X13257601Y-15246460D02*
X13248077Y-15227412D01*
X13248077Y-15227412D02*
X13248077Y-15208365D01*
X13248077Y-15208365D02*
X13257601Y-15189317D01*
X13257601Y-15189317D02*
X13276648Y-15179793D01*
X13276648Y-15179793D02*
X13324267Y-15179793D01*
X13324267Y-15179793D02*
X13343315Y-15170269D01*
X13438553Y-15122650D02*
X13438553Y-15322650D01*
X13438553Y-15132174D02*
X13457601Y-15122650D01*
X13457601Y-15122650D02*
X13495696Y-15122650D01*
X13495696Y-15122650D02*
X13514743Y-15132174D01*
X13514743Y-15132174D02*
X13524267Y-15141698D01*
X13524267Y-15141698D02*
X13533791Y-15160746D01*
X13533791Y-15160746D02*
X13533791Y-15217888D01*
X13533791Y-15217888D02*
X13524267Y-15236936D01*
X13524267Y-15236936D02*
X13514743Y-15246460D01*
X13514743Y-15246460D02*
X13495696Y-15255984D01*
X13495696Y-15255984D02*
X13457601Y-15255984D01*
X13457601Y-15255984D02*
X13438553Y-15246460D01*
X13619505Y-15236936D02*
X13629029Y-15246460D01*
X13629029Y-15246460D02*
X13619505Y-15255984D01*
X13619505Y-15255984D02*
X13609982Y-15246460D01*
X13609982Y-15246460D02*
X13619505Y-15236936D01*
X13619505Y-15236936D02*
X13619505Y-15255984D01*
X13619505Y-15132174D02*
X13629029Y-15141698D01*
X13629029Y-15141698D02*
X13619505Y-15151222D01*
X13619505Y-15151222D02*
X13609982Y-15141698D01*
X13609982Y-15141698D02*
X13619505Y-15132174D01*
X13619505Y-15132174D02*
X13619505Y-15151222D01*
X11787300Y-15484500D02*
X11987300Y-15684500D01*
X11987300Y-15484500D02*
X11787300Y-15684500D01*
X12229029Y-15475984D02*
X12352839Y-15475984D01*
X12352839Y-15475984D02*
X12286172Y-15552174D01*
X12286172Y-15552174D02*
X12314743Y-15552174D01*
X12314743Y-15552174D02*
X12333791Y-15561698D01*
X12333791Y-15561698D02*
X12343315Y-15571222D01*
X12343315Y-15571222D02*
X12352839Y-15590269D01*
X12352839Y-15590269D02*
X12352839Y-15637888D01*
X12352839Y-15637888D02*
X12343315Y-15656936D01*
X12343315Y-15656936D02*
X12333791Y-15666460D01*
X12333791Y-15666460D02*
X12314743Y-15675984D01*
X12314743Y-15675984D02*
X12257601Y-15675984D01*
X12257601Y-15675984D02*
X12238553Y-15666460D01*
X12238553Y-15666460D02*
X12229029Y-15656936D01*
X12438553Y-15656936D02*
X12448077Y-15666460D01*
X12448077Y-15666460D02*
X12438553Y-15675984D01*
X12438553Y-15675984D02*
X12429029Y-15666460D01*
X12429029Y-15666460D02*
X12438553Y-15656936D01*
X12438553Y-15656936D02*
X12438553Y-15675984D01*
X12524267Y-15495031D02*
X12533791Y-15485508D01*
X12533791Y-15485508D02*
X12552839Y-15475984D01*
X12552839Y-15475984D02*
X12600458Y-15475984D01*
X12600458Y-15475984D02*
X12619505Y-15485508D01*
X12619505Y-15485508D02*
X12629029Y-15495031D01*
X12629029Y-15495031D02*
X12638553Y-15514079D01*
X12638553Y-15514079D02*
X12638553Y-15533127D01*
X12638553Y-15533127D02*
X12629029Y-15561698D01*
X12629029Y-15561698D02*
X12514743Y-15675984D01*
X12514743Y-15675984D02*
X12638553Y-15675984D01*
X12762362Y-15475984D02*
X12781410Y-15475984D01*
X12781410Y-15475984D02*
X12800458Y-15485508D01*
X12800458Y-15485508D02*
X12809982Y-15495031D01*
X12809982Y-15495031D02*
X12819505Y-15514079D01*
X12819505Y-15514079D02*
X12829029Y-15552174D01*
X12829029Y-15552174D02*
X12829029Y-15599793D01*
X12829029Y-15599793D02*
X12819505Y-15637888D01*
X12819505Y-15637888D02*
X12809982Y-15656936D01*
X12809982Y-15656936D02*
X12800458Y-15666460D01*
X12800458Y-15666460D02*
X12781410Y-15675984D01*
X12781410Y-15675984D02*
X12762362Y-15675984D01*
X12762362Y-15675984D02*
X12743315Y-15666460D01*
X12743315Y-15666460D02*
X12733791Y-15656936D01*
X12733791Y-15656936D02*
X12724267Y-15637888D01*
X12724267Y-15637888D02*
X12714743Y-15599793D01*
X12714743Y-15599793D02*
X12714743Y-15552174D01*
X12714743Y-15552174D02*
X12724267Y-15514079D01*
X12724267Y-15514079D02*
X12733791Y-15495031D01*
X12733791Y-15495031D02*
X12743315Y-15485508D01*
X12743315Y-15485508D02*
X12762362Y-15475984D01*
X12952839Y-15475984D02*
X12971886Y-15475984D01*
X12971886Y-15475984D02*
X12990934Y-15485508D01*
X12990934Y-15485508D02*
X13000458Y-15495031D01*
X13000458Y-15495031D02*
X13009982Y-15514079D01*
X13009982Y-15514079D02*
X13019505Y-15552174D01*
X13019505Y-15552174D02*
X13019505Y-15599793D01*
X13019505Y-15599793D02*
X13009982Y-15637888D01*
X13009982Y-15637888D02*
X13000458Y-15656936D01*
X13000458Y-15656936D02*
X12990934Y-15666460D01*
X12990934Y-15666460D02*
X12971886Y-15675984D01*
X12971886Y-15675984D02*
X12952839Y-15675984D01*
X12952839Y-15675984D02*
X12933791Y-15666460D01*
X12933791Y-15666460D02*
X12924267Y-15656936D01*
X12924267Y-15656936D02*
X12914743Y-15637888D01*
X12914743Y-15637888D02*
X12905220Y-15599793D01*
X12905220Y-15599793D02*
X12905220Y-15552174D01*
X12905220Y-15552174D02*
X12914743Y-15514079D01*
X12914743Y-15514079D02*
X12924267Y-15495031D01*
X12924267Y-15495031D02*
X12933791Y-15485508D01*
X12933791Y-15485508D02*
X12952839Y-15475984D01*
X13105220Y-15675984D02*
X13105220Y-15542650D01*
X13105220Y-15561698D02*
X13114743Y-15552174D01*
X13114743Y-15552174D02*
X13133791Y-15542650D01*
X13133791Y-15542650D02*
X13162363Y-15542650D01*
X13162363Y-15542650D02*
X13181410Y-15552174D01*
X13181410Y-15552174D02*
X13190934Y-15571222D01*
X13190934Y-15571222D02*
X13190934Y-15675984D01*
X13190934Y-15571222D02*
X13200458Y-15552174D01*
X13200458Y-15552174D02*
X13219505Y-15542650D01*
X13219505Y-15542650D02*
X13248077Y-15542650D01*
X13248077Y-15542650D02*
X13267124Y-15552174D01*
X13267124Y-15552174D02*
X13276648Y-15571222D01*
X13276648Y-15571222D02*
X13276648Y-15675984D01*
X13371886Y-15675984D02*
X13371886Y-15542650D01*
X13371886Y-15561698D02*
X13381410Y-15552174D01*
X13381410Y-15552174D02*
X13400458Y-15542650D01*
X13400458Y-15542650D02*
X13429029Y-15542650D01*
X13429029Y-15542650D02*
X13448077Y-15552174D01*
X13448077Y-15552174D02*
X13457601Y-15571222D01*
X13457601Y-15571222D02*
X13457601Y-15675984D01*
X13457601Y-15571222D02*
X13467124Y-15552174D01*
X13467124Y-15552174D02*
X13486172Y-15542650D01*
X13486172Y-15542650D02*
X13514743Y-15542650D01*
X13514743Y-15542650D02*
X13533791Y-15552174D01*
X13533791Y-15552174D02*
X13543315Y-15571222D01*
X13543315Y-15571222D02*
X13543315Y-15675984D01*
X13933791Y-15466460D02*
X13762363Y-15723603D01*
X14190934Y-15475984D02*
X14209982Y-15475984D01*
X14209982Y-15475984D02*
X14229029Y-15485508D01*
X14229029Y-15485508D02*
X14238553Y-15495031D01*
X14238553Y-15495031D02*
X14248077Y-15514079D01*
X14248077Y-15514079D02*
X14257601Y-15552174D01*
X14257601Y-15552174D02*
X14257601Y-15599793D01*
X14257601Y-15599793D02*
X14248077Y-15637888D01*
X14248077Y-15637888D02*
X14238553Y-15656936D01*
X14238553Y-15656936D02*
X14229029Y-15666460D01*
X14229029Y-15666460D02*
X14209982Y-15675984D01*
X14209982Y-15675984D02*
X14190934Y-15675984D01*
X14190934Y-15675984D02*
X14171886Y-15666460D01*
X14171886Y-15666460D02*
X14162363Y-15656936D01*
X14162363Y-15656936D02*
X14152839Y-15637888D01*
X14152839Y-15637888D02*
X14143315Y-15599793D01*
X14143315Y-15599793D02*
X14143315Y-15552174D01*
X14143315Y-15552174D02*
X14152839Y-15514079D01*
X14152839Y-15514079D02*
X14162363Y-15495031D01*
X14162363Y-15495031D02*
X14171886Y-15485508D01*
X14171886Y-15485508D02*
X14190934Y-15475984D01*
X14343315Y-15656936D02*
X14352839Y-15666460D01*
X14352839Y-15666460D02*
X14343315Y-15675984D01*
X14343315Y-15675984D02*
X14333791Y-15666460D01*
X14333791Y-15666460D02*
X14343315Y-15656936D01*
X14343315Y-15656936D02*
X14343315Y-15675984D01*
X14543315Y-15675984D02*
X14429029Y-15675984D01*
X14486172Y-15675984D02*
X14486172Y-15475984D01*
X14486172Y-15475984D02*
X14467125Y-15504555D01*
X14467125Y-15504555D02*
X14448077Y-15523603D01*
X14448077Y-15523603D02*
X14429029Y-15533127D01*
X14619506Y-15495031D02*
X14629029Y-15485508D01*
X14629029Y-15485508D02*
X14648077Y-15475984D01*
X14648077Y-15475984D02*
X14695696Y-15475984D01*
X14695696Y-15475984D02*
X14714744Y-15485508D01*
X14714744Y-15485508D02*
X14724267Y-15495031D01*
X14724267Y-15495031D02*
X14733791Y-15514079D01*
X14733791Y-15514079D02*
X14733791Y-15533127D01*
X14733791Y-15533127D02*
X14724267Y-15561698D01*
X14724267Y-15561698D02*
X14609982Y-15675984D01*
X14609982Y-15675984D02*
X14733791Y-15675984D01*
X14905220Y-15475984D02*
X14867125Y-15475984D01*
X14867125Y-15475984D02*
X14848077Y-15485508D01*
X14848077Y-15485508D02*
X14838553Y-15495031D01*
X14838553Y-15495031D02*
X14819506Y-15523603D01*
X14819506Y-15523603D02*
X14809982Y-15561698D01*
X14809982Y-15561698D02*
X14809982Y-15637888D01*
X14809982Y-15637888D02*
X14819506Y-15656936D01*
X14819506Y-15656936D02*
X14829029Y-15666460D01*
X14829029Y-15666460D02*
X14848077Y-15675984D01*
X14848077Y-15675984D02*
X14886172Y-15675984D01*
X14886172Y-15675984D02*
X14905220Y-15666460D01*
X14905220Y-15666460D02*
X14914744Y-15656936D01*
X14914744Y-15656936D02*
X14924267Y-15637888D01*
X14924267Y-15637888D02*
X14924267Y-15590269D01*
X14924267Y-15590269D02*
X14914744Y-15571222D01*
X14914744Y-15571222D02*
X14905220Y-15561698D01*
X14905220Y-15561698D02*
X14886172Y-15552174D01*
X14886172Y-15552174D02*
X14848077Y-15552174D01*
X14848077Y-15552174D02*
X14829029Y-15561698D01*
X14829029Y-15561698D02*
X14819506Y-15571222D01*
X14819506Y-15571222D02*
X14809982Y-15590269D01*
X15048077Y-15475984D02*
X15067125Y-15475984D01*
X15067125Y-15475984D02*
X15086172Y-15485508D01*
X15086172Y-15485508D02*
X15095696Y-15495031D01*
X15095696Y-15495031D02*
X15105220Y-15514079D01*
X15105220Y-15514079D02*
X15114744Y-15552174D01*
X15114744Y-15552174D02*
X15114744Y-15599793D01*
X15114744Y-15599793D02*
X15105220Y-15637888D01*
X15105220Y-15637888D02*
X15095696Y-15656936D01*
X15095696Y-15656936D02*
X15086172Y-15666460D01*
X15086172Y-15666460D02*
X15067125Y-15675984D01*
X15067125Y-15675984D02*
X15048077Y-15675984D01*
X15048077Y-15675984D02*
X15029029Y-15666460D01*
X15029029Y-15666460D02*
X15019506Y-15656936D01*
X15019506Y-15656936D02*
X15009982Y-15637888D01*
X15009982Y-15637888D02*
X15000458Y-15599793D01*
X15000458Y-15599793D02*
X15000458Y-15552174D01*
X15000458Y-15552174D02*
X15009982Y-15514079D01*
X15009982Y-15514079D02*
X15019506Y-15495031D01*
X15019506Y-15495031D02*
X15029029Y-15485508D01*
X15029029Y-15485508D02*
X15048077Y-15475984D01*
X15190934Y-15475984D02*
X15190934Y-15514079D01*
X15267125Y-15475984D02*
X15267125Y-15514079D01*
X15562363Y-15752174D02*
X15552839Y-15742650D01*
X15552839Y-15742650D02*
X15533791Y-15714079D01*
X15533791Y-15714079D02*
X15524268Y-15695031D01*
X15524268Y-15695031D02*
X15514744Y-15666460D01*
X15514744Y-15666460D02*
X15505220Y-15618841D01*
X15505220Y-15618841D02*
X15505220Y-15580746D01*
X15505220Y-15580746D02*
X15514744Y-15533127D01*
X15514744Y-15533127D02*
X15524268Y-15504555D01*
X15524268Y-15504555D02*
X15533791Y-15485508D01*
X15533791Y-15485508D02*
X15552839Y-15456936D01*
X15552839Y-15456936D02*
X15562363Y-15447412D01*
X15724268Y-15542650D02*
X15724268Y-15675984D01*
X15676648Y-15466460D02*
X15629029Y-15609317D01*
X15629029Y-15609317D02*
X15752839Y-15609317D01*
X15981410Y-15675984D02*
X15981410Y-15475984D01*
X16067125Y-15675984D02*
X16067125Y-15571222D01*
X16067125Y-15571222D02*
X16057601Y-15552174D01*
X16057601Y-15552174D02*
X16038553Y-15542650D01*
X16038553Y-15542650D02*
X16009982Y-15542650D01*
X16009982Y-15542650D02*
X15990934Y-15552174D01*
X15990934Y-15552174D02*
X15981410Y-15561698D01*
X16190934Y-15675984D02*
X16171887Y-15666460D01*
X16171887Y-15666460D02*
X16162363Y-15656936D01*
X16162363Y-15656936D02*
X16152839Y-15637888D01*
X16152839Y-15637888D02*
X16152839Y-15580746D01*
X16152839Y-15580746D02*
X16162363Y-15561698D01*
X16162363Y-15561698D02*
X16171887Y-15552174D01*
X16171887Y-15552174D02*
X16190934Y-15542650D01*
X16190934Y-15542650D02*
X16219506Y-15542650D01*
X16219506Y-15542650D02*
X16238553Y-15552174D01*
X16238553Y-15552174D02*
X16248077Y-15561698D01*
X16248077Y-15561698D02*
X16257601Y-15580746D01*
X16257601Y-15580746D02*
X16257601Y-15637888D01*
X16257601Y-15637888D02*
X16248077Y-15656936D01*
X16248077Y-15656936D02*
X16238553Y-15666460D01*
X16238553Y-15666460D02*
X16219506Y-15675984D01*
X16219506Y-15675984D02*
X16190934Y-15675984D01*
X16371887Y-15675984D02*
X16352839Y-15666460D01*
X16352839Y-15666460D02*
X16343315Y-15647412D01*
X16343315Y-15647412D02*
X16343315Y-15475984D01*
X16524268Y-15666460D02*
X16505220Y-15675984D01*
X16505220Y-15675984D02*
X16467125Y-15675984D01*
X16467125Y-15675984D02*
X16448077Y-15666460D01*
X16448077Y-15666460D02*
X16438553Y-15647412D01*
X16438553Y-15647412D02*
X16438553Y-15571222D01*
X16438553Y-15571222D02*
X16448077Y-15552174D01*
X16448077Y-15552174D02*
X16467125Y-15542650D01*
X16467125Y-15542650D02*
X16505220Y-15542650D01*
X16505220Y-15542650D02*
X16524268Y-15552174D01*
X16524268Y-15552174D02*
X16533791Y-15571222D01*
X16533791Y-15571222D02*
X16533791Y-15590269D01*
X16533791Y-15590269D02*
X16438553Y-15609317D01*
X16609982Y-15666460D02*
X16629030Y-15675984D01*
X16629030Y-15675984D02*
X16667125Y-15675984D01*
X16667125Y-15675984D02*
X16686172Y-15666460D01*
X16686172Y-15666460D02*
X16695696Y-15647412D01*
X16695696Y-15647412D02*
X16695696Y-15637888D01*
X16695696Y-15637888D02*
X16686172Y-15618841D01*
X16686172Y-15618841D02*
X16667125Y-15609317D01*
X16667125Y-15609317D02*
X16638553Y-15609317D01*
X16638553Y-15609317D02*
X16619506Y-15599793D01*
X16619506Y-15599793D02*
X16609982Y-15580746D01*
X16609982Y-15580746D02*
X16609982Y-15571222D01*
X16609982Y-15571222D02*
X16619506Y-15552174D01*
X16619506Y-15552174D02*
X16638553Y-15542650D01*
X16638553Y-15542650D02*
X16667125Y-15542650D01*
X16667125Y-15542650D02*
X16686172Y-15552174D01*
X16762363Y-15752174D02*
X16771887Y-15742650D01*
X16771887Y-15742650D02*
X16790934Y-15714079D01*
X16790934Y-15714079D02*
X16800458Y-15695031D01*
X16800458Y-15695031D02*
X16809982Y-15666460D01*
X16809982Y-15666460D02*
X16819506Y-15618841D01*
X16819506Y-15618841D02*
X16819506Y-15580746D01*
X16819506Y-15580746D02*
X16809982Y-15533127D01*
X16809982Y-15533127D02*
X16800458Y-15504555D01*
X16800458Y-15504555D02*
X16790934Y-15485508D01*
X16790934Y-15485508D02*
X16771887Y-15456936D01*
X16771887Y-15456936D02*
X16762363Y-15447412D01*
X17124268Y-15752174D02*
X17114744Y-15742650D01*
X17114744Y-15742650D02*
X17095696Y-15714079D01*
X17095696Y-15714079D02*
X17086173Y-15695031D01*
X17086173Y-15695031D02*
X17076649Y-15666460D01*
X17076649Y-15666460D02*
X17067125Y-15618841D01*
X17067125Y-15618841D02*
X17067125Y-15580746D01*
X17067125Y-15580746D02*
X17076649Y-15533127D01*
X17076649Y-15533127D02*
X17086173Y-15504555D01*
X17086173Y-15504555D02*
X17095696Y-15485508D01*
X17095696Y-15485508D02*
X17114744Y-15456936D01*
X17114744Y-15456936D02*
X17124268Y-15447412D01*
X17200458Y-15542650D02*
X17200458Y-15675984D01*
X17200458Y-15561698D02*
X17209982Y-15552174D01*
X17209982Y-15552174D02*
X17229030Y-15542650D01*
X17229030Y-15542650D02*
X17257601Y-15542650D01*
X17257601Y-15542650D02*
X17276649Y-15552174D01*
X17276649Y-15552174D02*
X17286173Y-15571222D01*
X17286173Y-15571222D02*
X17286173Y-15675984D01*
X17409982Y-15675984D02*
X17390934Y-15666460D01*
X17390934Y-15666460D02*
X17381411Y-15656936D01*
X17381411Y-15656936D02*
X17371887Y-15637888D01*
X17371887Y-15637888D02*
X17371887Y-15580746D01*
X17371887Y-15580746D02*
X17381411Y-15561698D01*
X17381411Y-15561698D02*
X17390934Y-15552174D01*
X17390934Y-15552174D02*
X17409982Y-15542650D01*
X17409982Y-15542650D02*
X17438554Y-15542650D01*
X17438554Y-15542650D02*
X17457601Y-15552174D01*
X17457601Y-15552174D02*
X17467125Y-15561698D01*
X17467125Y-15561698D02*
X17476649Y-15580746D01*
X17476649Y-15580746D02*
X17476649Y-15637888D01*
X17476649Y-15637888D02*
X17467125Y-15656936D01*
X17467125Y-15656936D02*
X17457601Y-15666460D01*
X17457601Y-15666460D02*
X17438554Y-15675984D01*
X17438554Y-15675984D02*
X17409982Y-15675984D01*
X17533792Y-15542650D02*
X17609982Y-15542650D01*
X17562363Y-15475984D02*
X17562363Y-15647412D01*
X17562363Y-15647412D02*
X17571887Y-15666460D01*
X17571887Y-15666460D02*
X17590934Y-15675984D01*
X17590934Y-15675984D02*
X17609982Y-15675984D01*
X17829030Y-15542650D02*
X17829030Y-15742650D01*
X17829030Y-15552174D02*
X17848077Y-15542650D01*
X17848077Y-15542650D02*
X17886173Y-15542650D01*
X17886173Y-15542650D02*
X17905220Y-15552174D01*
X17905220Y-15552174D02*
X17914744Y-15561698D01*
X17914744Y-15561698D02*
X17924268Y-15580746D01*
X17924268Y-15580746D02*
X17924268Y-15637888D01*
X17924268Y-15637888D02*
X17914744Y-15656936D01*
X17914744Y-15656936D02*
X17905220Y-15666460D01*
X17905220Y-15666460D02*
X17886173Y-15675984D01*
X17886173Y-15675984D02*
X17848077Y-15675984D01*
X17848077Y-15675984D02*
X17829030Y-15666460D01*
X18038554Y-15675984D02*
X18019506Y-15666460D01*
X18019506Y-15666460D02*
X18009982Y-15647412D01*
X18009982Y-15647412D02*
X18009982Y-15475984D01*
X18200458Y-15675984D02*
X18200458Y-15571222D01*
X18200458Y-15571222D02*
X18190935Y-15552174D01*
X18190935Y-15552174D02*
X18171887Y-15542650D01*
X18171887Y-15542650D02*
X18133792Y-15542650D01*
X18133792Y-15542650D02*
X18114744Y-15552174D01*
X18200458Y-15666460D02*
X18181411Y-15675984D01*
X18181411Y-15675984D02*
X18133792Y-15675984D01*
X18133792Y-15675984D02*
X18114744Y-15666460D01*
X18114744Y-15666460D02*
X18105220Y-15647412D01*
X18105220Y-15647412D02*
X18105220Y-15628365D01*
X18105220Y-15628365D02*
X18114744Y-15609317D01*
X18114744Y-15609317D02*
X18133792Y-15599793D01*
X18133792Y-15599793D02*
X18181411Y-15599793D01*
X18181411Y-15599793D02*
X18200458Y-15590269D01*
X18267125Y-15542650D02*
X18343315Y-15542650D01*
X18295696Y-15475984D02*
X18295696Y-15647412D01*
X18295696Y-15647412D02*
X18305220Y-15666460D01*
X18305220Y-15666460D02*
X18324268Y-15675984D01*
X18324268Y-15675984D02*
X18343315Y-15675984D01*
X18486173Y-15666460D02*
X18467125Y-15675984D01*
X18467125Y-15675984D02*
X18429030Y-15675984D01*
X18429030Y-15675984D02*
X18409982Y-15666460D01*
X18409982Y-15666460D02*
X18400458Y-15647412D01*
X18400458Y-15647412D02*
X18400458Y-15571222D01*
X18400458Y-15571222D02*
X18409982Y-15552174D01*
X18409982Y-15552174D02*
X18429030Y-15542650D01*
X18429030Y-15542650D02*
X18467125Y-15542650D01*
X18467125Y-15542650D02*
X18486173Y-15552174D01*
X18486173Y-15552174D02*
X18495696Y-15571222D01*
X18495696Y-15571222D02*
X18495696Y-15590269D01*
X18495696Y-15590269D02*
X18400458Y-15609317D01*
X18667125Y-15675984D02*
X18667125Y-15475984D01*
X18667125Y-15666460D02*
X18648077Y-15675984D01*
X18648077Y-15675984D02*
X18609982Y-15675984D01*
X18609982Y-15675984D02*
X18590935Y-15666460D01*
X18590935Y-15666460D02*
X18581411Y-15656936D01*
X18581411Y-15656936D02*
X18571887Y-15637888D01*
X18571887Y-15637888D02*
X18571887Y-15580746D01*
X18571887Y-15580746D02*
X18581411Y-15561698D01*
X18581411Y-15561698D02*
X18590935Y-15552174D01*
X18590935Y-15552174D02*
X18609982Y-15542650D01*
X18609982Y-15542650D02*
X18648077Y-15542650D01*
X18648077Y-15542650D02*
X18667125Y-15552174D01*
X18743316Y-15752174D02*
X18752839Y-15742650D01*
X18752839Y-15742650D02*
X18771887Y-15714079D01*
X18771887Y-15714079D02*
X18781411Y-15695031D01*
X18781411Y-15695031D02*
X18790935Y-15666460D01*
X18790935Y-15666460D02*
X18800458Y-15618841D01*
X18800458Y-15618841D02*
X18800458Y-15580746D01*
X18800458Y-15580746D02*
X18790935Y-15533127D01*
X18790935Y-15533127D02*
X18781411Y-15504555D01*
X18781411Y-15504555D02*
X18771887Y-15485508D01*
X18771887Y-15485508D02*
X18752839Y-15456936D01*
X18752839Y-15456936D02*
X18743316Y-15447412D01*
M02*
