G04 #@! TF.GenerationSoftware,KiCad,Pcbnew,10.0.6*
G04 #@! TF.CreationDate,2026-09-29T16:13:57+08:00*
G04 #@! TF.ProjectId,TES_Controller,5445535f-436f-46e7-9472-6f6c6c65722e,rev?*
G04 #@! TF.SameCoordinates,Original*
G04 #@! TF.FileFunction,Soldermask,Top*
G04 #@! TF.FilePolarity,Negative*
%FSLAX46Y46*%
G04 Gerber Fmt 4.6, Leading zero omitted, Abs format (unit mm)*
G04 Created by KiCad (PCBNEW 10.0.6) date 2026-09-29 16:13:57*
%MOMM*%
%LPD*%
G01*
G04 APERTURE LIST*
G04 Aperture macros list*
%AMFreePoly0*
4,1,6,0.775000,0.000000,0.356000,-0.457000,-0.381000,-0.457000,-0.381000,0.457000,0.356000,0.457000,0.775000,0.000000,0.775000,0.000000,$1*%
%AMFreePoly1*
4,1,6,0.381000,-0.457000,-0.723500,-0.457000,-0.304500,0.000000,-0.723500,0.457000,0.381000,0.457000,0.381000,-0.457000,0.381000,-0.457000,$1*%
G04 Aperture macros list end*
%ADD10R,1.230000X1.360000*%
%ADD11O,1.620000X0.280000*%
%ADD12R,2.192000X2.047000*%
%ADD13O,0.588000X2.045000*%
%ADD14R,2.500000X2.500000*%
%ADD15C,2.500000*%
%ADD16R,1.500000X0.900000*%
%ADD17R,0.900000X1.500000*%
%ADD18R,0.900000X0.900000*%
%ADD19R,0.864000X0.806500*%
%ADD20C,3.200000*%
%ADD21R,0.806500X0.864000*%
%ADD22R,0.750000X1.000000*%
%ADD23R,1.072000X0.532000*%
%ADD24R,3.048000X1.524000*%
%ADD25R,1.250000X0.700000*%
%ADD26R,1.728000X1.485000*%
%ADD27R,1.485000X1.728000*%
%ADD28R,0.540000X0.565500*%
%ADD29R,1.520000X1.680000*%
%ADD30R,0.806000X0.864000*%
%ADD31C,1.900000*%
%ADD32R,1.600000X1.600000*%
%ADD33C,1.600000*%
%ADD34R,1.700000X1.700000*%
%ADD35C,1.700000*%
%ADD36R,0.864000X0.806000*%
%ADD37R,0.750000X0.400000*%
%ADD38R,0.800000X3.000000*%
%ADD39FreePoly0,180.000000*%
%ADD40FreePoly1,0.000000*%
%ADD41C,2.000000*%
%ADD42R,0.700000X1.250000*%
%ADD43R,0.800000X1.000000*%
%ADD44R,1.207500X1.701000*%
%ADD45R,2.047000X2.192000*%
%ADD46R,2.500000X1.100000*%
%ADD47R,2.340000X3.600000*%
%ADD48R,2.047500X2.192500*%
%ADD49O,2.100000X1.000000*%
%ADD50O,1.800000X1.000000*%
%ADD51R,1.150000X0.600000*%
%ADD52R,1.150000X0.300000*%
%ADD53R,0.800000X0.900000*%
%ADD54R,0.900000X0.800000*%
%ADD55R,1.282500X2.808000*%
%ADD56R,1.575000X1.575000*%
%ADD57C,1.575000*%
G04 APERTURE END LIST*
D10*
G04 #@! TO.C,EN1*
X182891000Y-78034000D03*
X178521000Y-78034000D03*
G04 #@! TD*
G04 #@! TO.C,BOOT1*
X178422500Y-81444500D03*
X182792500Y-81444500D03*
G04 #@! TD*
D11*
G04 #@! TO.C,U5*
X126876500Y-86004500D03*
X126876500Y-86504500D03*
X126876500Y-87004500D03*
X126876500Y-87504500D03*
X126876500Y-88004500D03*
X131096500Y-88004500D03*
X131096500Y-87504500D03*
X131096500Y-87004500D03*
X131096500Y-86504500D03*
X131096500Y-86004500D03*
G04 #@! TD*
D12*
G04 #@! TO.C,D10*
X181500000Y-110860000D03*
X181500000Y-106140000D03*
G04 #@! TD*
D13*
G04 #@! TO.C,U12*
X140474500Y-85776500D03*
X139204500Y-85776500D03*
X137934500Y-85776500D03*
X136664500Y-85776500D03*
X136664500Y-91321500D03*
X137934500Y-91321500D03*
X139204500Y-91321500D03*
X140474500Y-91321500D03*
G04 #@! TD*
D14*
G04 #@! TO.C,CN1*
X125640000Y-134422000D03*
D15*
X129600000Y-134422000D03*
G04 #@! TD*
D16*
G04 #@! TO.C,U1*
X137793000Y-61392000D03*
X137793000Y-62662000D03*
X137793000Y-63932000D03*
X137793000Y-65202000D03*
X137793000Y-66472000D03*
X137793000Y-67742000D03*
X137793000Y-69012000D03*
X137793000Y-70282000D03*
X137793000Y-71552000D03*
X137793000Y-72822000D03*
X137793000Y-74092000D03*
X137793000Y-75362000D03*
X137793000Y-76632000D03*
X137793000Y-77902000D03*
D17*
X139558000Y-79182000D03*
X140828000Y-79182000D03*
X142098000Y-79182000D03*
X143368000Y-79182000D03*
X144638000Y-79182000D03*
X145908000Y-79182000D03*
X147178000Y-79182000D03*
X148448000Y-79182000D03*
X149718000Y-79182000D03*
X150988000Y-79182000D03*
X152258000Y-79182000D03*
X153528000Y-79152000D03*
D16*
X155293000Y-77902000D03*
X155293000Y-76632000D03*
X155293000Y-75362000D03*
X155293000Y-74092000D03*
X155293000Y-72822000D03*
X155293000Y-71552000D03*
X155293000Y-70282000D03*
X155293000Y-69012000D03*
X155293000Y-67742000D03*
X155293000Y-66472000D03*
X155293000Y-65202000D03*
X155293000Y-63932000D03*
X155293000Y-62662000D03*
X155293000Y-61392000D03*
D18*
X143643000Y-67712000D03*
X143643000Y-69112000D03*
X143643000Y-70512000D03*
X145043000Y-67712000D03*
X145043000Y-69112000D03*
X145043000Y-70512000D03*
X146443000Y-67712000D03*
X146443000Y-69112000D03*
X146443000Y-70512000D03*
G04 #@! TD*
D19*
G04 #@! TO.C,R33*
X121786499Y-87440500D03*
X123293499Y-87440500D03*
G04 #@! TD*
D20*
G04 #@! TO.C,MH4*
X176461000Y-124218700D03*
G04 #@! TD*
D21*
G04 #@! TO.C,R30*
X134551000Y-76513000D03*
X136058000Y-76513000D03*
G04 #@! TD*
G04 #@! TO.C,R21*
X137771500Y-136581000D03*
X136264500Y-136581000D03*
G04 #@! TD*
D19*
G04 #@! TO.C,R17*
X139669000Y-131612000D03*
X139669000Y-130105000D03*
G04 #@! TD*
D21*
G04 #@! TO.C,R1*
X134359500Y-64064000D03*
X135866500Y-64064000D03*
G04 #@! TD*
G04 #@! TO.C,R31*
X134551000Y-78095500D03*
X136058000Y-78095500D03*
G04 #@! TD*
D19*
G04 #@! TO.C,R20*
X176261000Y-137860000D03*
X176261000Y-136353000D03*
G04 #@! TD*
G04 #@! TO.C,R5*
X145146000Y-84392500D03*
X145146000Y-85899500D03*
G04 #@! TD*
D21*
G04 #@! TO.C,R14*
X122280000Y-73265000D03*
X123787000Y-73265000D03*
G04 #@! TD*
D19*
G04 #@! TO.C,R6*
X142742000Y-84398500D03*
X142742000Y-85905500D03*
G04 #@! TD*
D21*
G04 #@! TO.C,R29*
X157537500Y-135868000D03*
X159044500Y-135868000D03*
G04 #@! TD*
D19*
G04 #@! TO.C,R10*
X123175000Y-89345500D03*
X123175000Y-90852500D03*
G04 #@! TD*
G04 #@! TO.C,R32*
X158100000Y-82216500D03*
X158100000Y-80709500D03*
G04 #@! TD*
G04 #@! TO.C,R26*
X136414500Y-132277000D03*
X136414500Y-133784000D03*
G04 #@! TD*
G04 #@! TO.C,R28*
X160513000Y-137461500D03*
X160513000Y-135954500D03*
G04 #@! TD*
D21*
G04 #@! TO.C,R19*
X173182500Y-136325000D03*
X174689500Y-136325000D03*
G04 #@! TD*
G04 #@! TO.C,R13*
X122281000Y-66348500D03*
X123788000Y-66348500D03*
G04 #@! TD*
G04 #@! TO.C,R12*
X122422000Y-80123000D03*
X123929000Y-80123000D03*
G04 #@! TD*
G04 #@! TO.C,R16*
X141327500Y-128707000D03*
X139820500Y-128707000D03*
G04 #@! TD*
G04 #@! TO.C,R11*
X126722500Y-89210000D03*
X125215500Y-89210000D03*
G04 #@! TD*
D22*
G04 #@! TO.C,STOP1*
X162799500Y-86270500D03*
X162799500Y-80270500D03*
X166549500Y-86270500D03*
X166549500Y-80270500D03*
G04 #@! TD*
G04 #@! TO.C,START1*
X162799500Y-68549500D03*
X162799500Y-62549500D03*
X166549500Y-68549500D03*
X166549500Y-62549500D03*
G04 #@! TD*
G04 #@! TO.C,SETTING1*
X162799500Y-77441000D03*
X162799500Y-71441000D03*
X166549500Y-77441000D03*
X166549500Y-71441000D03*
G04 #@! TD*
G04 #@! TO.C,EMERGENCY1*
X171774000Y-86270500D03*
X171774000Y-80270500D03*
X175524000Y-86270500D03*
X175524000Y-80270500D03*
G04 #@! TD*
D23*
G04 #@! TO.C,D5*
X171822000Y-70221000D03*
X171822000Y-69271000D03*
X171822000Y-68321000D03*
X169524000Y-68321000D03*
X169524000Y-69271000D03*
X169524000Y-70221000D03*
G04 #@! TD*
D24*
G04 #@! TO.C,W1*
X122663000Y-113211000D03*
G04 #@! TD*
D25*
G04 #@! TO.C,Q3*
X162053000Y-137658000D03*
X162053000Y-135758000D03*
X164053000Y-136708000D03*
G04 #@! TD*
D26*
G04 #@! TO.C,C17*
X171689000Y-93342500D03*
X171689000Y-90157500D03*
G04 #@! TD*
D27*
G04 #@! TO.C,C1*
X129710500Y-61778000D03*
X132895500Y-61778000D03*
G04 #@! TD*
D26*
G04 #@! TO.C,C10*
X153153000Y-91594500D03*
X153153000Y-94779500D03*
G04 #@! TD*
G04 #@! TO.C,C16*
X163942000Y-93342500D03*
X163942000Y-90157500D03*
G04 #@! TD*
G04 #@! TO.C,C9*
X153154000Y-89245000D03*
X153154000Y-86060000D03*
G04 #@! TD*
D28*
G04 #@! TO.C,R2*
X174874000Y-71873000D03*
X174874000Y-71007000D03*
G04 #@! TD*
G04 #@! TO.C,R3*
X174874000Y-66943000D03*
X174874000Y-67809000D03*
G04 #@! TD*
D29*
G04 #@! TO.C,D1*
X174797000Y-140391000D03*
X178727000Y-140391000D03*
G04 #@! TD*
G04 #@! TO.C,D4*
X159183000Y-139883000D03*
X163113000Y-139883000D03*
G04 #@! TD*
D30*
G04 #@! TO.C,R36*
X134449999Y-94100000D03*
X132949999Y-94100000D03*
G04 #@! TD*
D20*
G04 #@! TO.C,MH3*
X127961000Y-124218700D03*
G04 #@! TD*
D31*
G04 #@! TO.C,CN3*
X175019000Y-145852000D03*
X178519000Y-145852000D03*
G04 #@! TD*
G04 #@! TO.C,CN5*
X167272000Y-145852000D03*
X170772000Y-145852000D03*
G04 #@! TD*
G04 #@! TO.C,CN6*
X159271000Y-145852000D03*
X162771000Y-145852000D03*
G04 #@! TD*
D32*
G04 #@! TO.C,D6*
X129494000Y-66315000D03*
D33*
X126954000Y-66315000D03*
G04 #@! TD*
D32*
G04 #@! TO.C,D7*
X129516000Y-73300000D03*
D33*
X126976000Y-73300000D03*
G04 #@! TD*
D32*
G04 #@! TO.C,D8*
X129643000Y-80158000D03*
D33*
X127103000Y-80158000D03*
G04 #@! TD*
D20*
G04 #@! TO.C,MH1*
X127961000Y-100218700D03*
G04 #@! TD*
D34*
G04 #@! TO.C,H1*
X150353000Y-82352000D03*
D35*
X147813000Y-82352000D03*
X145273000Y-82352000D03*
X142733000Y-82352000D03*
G04 #@! TD*
D19*
G04 #@! TO.C,R34*
X121667999Y-85535500D03*
X123174999Y-85535500D03*
G04 #@! TD*
D36*
G04 #@! TO.C,R35*
X138050000Y-134050000D03*
X138050000Y-132550000D03*
G04 #@! TD*
D24*
G04 #@! TO.C,W4*
X181595000Y-117211000D03*
G04 #@! TD*
D36*
G04 #@! TO.C,R37*
X132300000Y-92550000D03*
X132300000Y-91050000D03*
G04 #@! TD*
D24*
G04 #@! TO.C,W2*
X181595000Y-113211000D03*
G04 #@! TD*
D25*
G04 #@! TO.C,Q1*
X177674000Y-138166000D03*
X177674000Y-136266000D03*
X179674000Y-137216000D03*
G04 #@! TD*
D37*
G04 #@! TO.C,U8*
X169155500Y-92940500D03*
X169155500Y-92340500D03*
X169155500Y-91740500D03*
X169155500Y-91140500D03*
X169155500Y-90540500D03*
X166105500Y-90540500D03*
X166105500Y-91140500D03*
X166105500Y-91740500D03*
X166105500Y-92340500D03*
X166105500Y-92940500D03*
D38*
X167805500Y-91740500D03*
G04 #@! TD*
D39*
G04 #@! TO.C,SB1*
X169479000Y-74859000D03*
D40*
X170749000Y-74859000D03*
G04 #@! TD*
D41*
G04 #@! TO.C,U10*
X149123000Y-146233000D03*
X154123000Y-146233000D03*
G04 #@! TD*
D20*
G04 #@! TO.C,MH2*
X176461000Y-100218700D03*
G04 #@! TD*
D42*
G04 #@! TO.C,Q2*
X136449000Y-128723000D03*
X138349000Y-128723000D03*
X137399000Y-130723000D03*
G04 #@! TD*
D43*
G04 #@! TO.C,Q4*
X132385000Y-132778000D03*
X134285000Y-132778000D03*
X133335000Y-130478000D03*
G04 #@! TD*
D44*
G04 #@! TO.C,R8*
X145764000Y-135558500D03*
X148722000Y-135558500D03*
G04 #@! TD*
D45*
G04 #@! TO.C,D9*
X146763000Y-138613000D03*
X151483000Y-138613000D03*
G04 #@! TD*
D24*
G04 #@! TO.C,W3*
X122663000Y-117211000D03*
G04 #@! TD*
D46*
G04 #@! TO.C,U6*
X150000000Y-93821000D03*
X150000000Y-91521000D03*
X150000000Y-89221000D03*
D47*
X144060000Y-91521000D03*
G04 #@! TD*
D48*
G04 #@! TO.C,D3*
X130003000Y-130739000D03*
X125282000Y-130739000D03*
G04 #@! TD*
D49*
G04 #@! TO.C,USB1*
X177023500Y-73982000D03*
X177023500Y-65342000D03*
D50*
X181173500Y-73982000D03*
X181173500Y-65342000D03*
D51*
X176448500Y-72862000D03*
X176448500Y-72062000D03*
D52*
X176448500Y-70912000D03*
X176448500Y-69912000D03*
X176448500Y-69412000D03*
X176448500Y-68412000D03*
D51*
X176448500Y-66462000D03*
X176448500Y-67262000D03*
D52*
X176448500Y-67912000D03*
X176448500Y-68912000D03*
X176448500Y-70412000D03*
X176448500Y-71412000D03*
G04 #@! TD*
D53*
G04 #@! TO.C,C14*
X172921500Y-78952500D03*
X174321500Y-78952500D03*
G04 #@! TD*
G04 #@! TO.C,C11*
X181310500Y-84028000D03*
X179910500Y-84028000D03*
G04 #@! TD*
G04 #@! TO.C,C12*
X163851500Y-78952500D03*
X165251500Y-78952500D03*
G04 #@! TD*
G04 #@! TO.C,C8*
X126669000Y-90988000D03*
X125269000Y-90988000D03*
G04 #@! TD*
G04 #@! TO.C,C7*
X130898000Y-89416500D03*
X132298000Y-89416500D03*
G04 #@! TD*
D54*
G04 #@! TO.C,C20*
X132995000Y-86430500D03*
X132995000Y-87830500D03*
G04 #@! TD*
D53*
G04 #@! TO.C,C15*
X163909500Y-70129000D03*
X165309500Y-70129000D03*
G04 #@! TD*
D54*
G04 #@! TO.C,C3*
X135875000Y-60951000D03*
X135875000Y-62351000D03*
G04 #@! TD*
D53*
G04 #@! TO.C,C29*
X137864000Y-83849500D03*
X139264000Y-83849500D03*
G04 #@! TD*
G04 #@! TO.C,C2*
X134413000Y-65715000D03*
X135813000Y-65715000D03*
G04 #@! TD*
G04 #@! TO.C,C13*
X163870000Y-61240500D03*
X165270000Y-61240500D03*
G04 #@! TD*
G04 #@! TO.C,C4*
X180006000Y-75494000D03*
X181406000Y-75494000D03*
G04 #@! TD*
D54*
G04 #@! TO.C,C28*
X135152000Y-89505000D03*
X135152000Y-90905000D03*
G04 #@! TD*
D32*
G04 #@! TO.C,CN2*
X135046000Y-140137000D03*
D33*
X137546000Y-140137000D03*
X140046000Y-140137000D03*
X142546000Y-140137000D03*
G04 #@! TD*
D55*
G04 #@! TO.C,R9*
X142689000Y-132771000D03*
X145571000Y-132771000D03*
G04 #@! TD*
D56*
G04 #@! TO.C,H2*
X170038000Y-62794000D03*
D57*
X172578000Y-62794000D03*
X175118000Y-62794000D03*
G04 #@! TD*
M02*
