G04 #@! TF.GenerationSoftware,KiCad,Pcbnew,10.0.6*
G04 #@! TF.CreationDate,2026-09-29T16:21:08+08:00*
G04 #@! TF.ProjectId,TES_Controller,5445535f-436f-46e7-9472-6f6c6c65722e,rev?*
G04 #@! TF.SameCoordinates,Original*
G04 #@! TF.FileFunction,Profile,NP*
%FSLAX46Y46*%
G04 Gerber Fmt 4.6, Leading zero omitted, Abs format (unit mm)*
G04 Created by KiCad (PCBNEW 10.0.6) date 2026-09-29 16:21:08*
%MOMM*%
%LPD*%
G01*
G04 APERTURE LIST*
G04 #@! TA.AperFunction,Profile*
%ADD10C,0.254000*%
G04 #@! TD*
G04 #@! TA.AperFunction,Profile*
%ADD11C,0.000000*%
G04 #@! TD*
G04 APERTURE END LIST*
D10*
X120000000Y-60000000D02*
X184135000Y-60000000D01*
X184135000Y-149318000D01*
X120000000Y-149318000D01*
X120000000Y-60000000D01*
D11*
G04 #@! TA.AperFunction,Profile*
G04 #@! TO.C,USB1*
G36*
X177647372Y-66471739D02*
G01*
X177720847Y-66514160D01*
X177780840Y-66574153D01*
X177823261Y-66647628D01*
X177845220Y-66729579D01*
X177845220Y-66814421D01*
X177823261Y-66896372D01*
X177780840Y-66969847D01*
X177720847Y-67029840D01*
X177647372Y-67072261D01*
X177565421Y-67094220D01*
X177480579Y-67094220D01*
X177398628Y-67072261D01*
X177325153Y-67029840D01*
X177265160Y-66969847D01*
X177222739Y-66896372D01*
X177200780Y-66814421D01*
X177200780Y-66729579D01*
X177222739Y-66647628D01*
X177265160Y-66574153D01*
X177325153Y-66514160D01*
X177398628Y-66471739D01*
X177480579Y-66449780D01*
X177565421Y-66449780D01*
X177647372Y-66471739D01*
G37*
G04 #@! TD.AperFunction*
G04 #@! TA.AperFunction,Profile*
G36*
X177647372Y-72251739D02*
G01*
X177720847Y-72294160D01*
X177780840Y-72354153D01*
X177823261Y-72427628D01*
X177845220Y-72509579D01*
X177845220Y-72594421D01*
X177823261Y-72676372D01*
X177780840Y-72749847D01*
X177720847Y-72809840D01*
X177647372Y-72852261D01*
X177565421Y-72874220D01*
X177480579Y-72874220D01*
X177398628Y-72852261D01*
X177325153Y-72809840D01*
X177265160Y-72749847D01*
X177222739Y-72676372D01*
X177200780Y-72594421D01*
X177200780Y-72509579D01*
X177222739Y-72427628D01*
X177265160Y-72354153D01*
X177325153Y-72294160D01*
X177398628Y-72251739D01*
X177480579Y-72229780D01*
X177565421Y-72229780D01*
X177647372Y-72251739D01*
G37*
G04 #@! TD.AperFunction*
G04 #@! TD*
M02*
